M48
INCH
T1C0.0157
T2C0.0197
T3C0.0295
T4C0.0315
T5C0.0728
%
G90
G05
T1
X-1.78Y1.15
X-1.78Y0.91
X-1.78Y0.66
X-1.47Y0.72
X-1.36Y0.5925
X-1.278Y0.7047
X-1.27Y0.6102
X-1.1978Y0.7451
X-0.99Y0.48
X-0.97Y0.52
X-0.94Y0.66
X-0.65Y0.51
X-0.33Y1.36
X-0.32Y1.05
X-0.32Y0.8
X-0.28Y1.41
X-0.27Y0.45
X-0.22Y1.36
X-0.22Y1.12
X-0.18Y1.02
X-0.15Y0.92
X-0.08Y0.69
X0.08Y0.6606
X0.1515Y1.2904
X0.18Y1.09
X0.18Y0.81
X0.34Y1.07
X0.5Y1.23
X0.63Y0.67
X1.13Y0.68
X1.44Y1.15
X1.44Y0.91
X1.44Y0.66
T2
X-1.71Y0.52
X-1.6608Y0.52
X-1.6116Y0.52
X-1.5624Y0.52
X-1.5131Y0.52
X-1.4639Y0.52
X-1.4147Y0.52
X-1.3655Y0.52
X-1.3163Y0.52
X-1.2671Y0.52
X-1.2179Y0.52
X-1.1687Y0.52
X-1.1194Y0.52
X-1.0702Y0.52
X-1.021Y0.52
T3
X-1.61Y1.35
X-1.61Y1.3
X-1.61Y1.25
X-1.2Y1.35
X-1.2Y1.3
X-1.2Y1.25
T4
X-0.86Y0.44
X-0.56Y0.44
X-0.43Y1.36
X-0.13Y1.36
X0.44Y0.44
X0.74Y0.44
X-1.62Y1.06
X-1.62Y0.76
X0.0Y0.44
X0.3Y0.44
X-0.85Y1.36
X-0.55Y1.36
X-0.02Y1.2
X-0.02Y0.6
X0.08Y1.2
X0.08Y0.6
X0.18Y1.2
X0.18Y0.6
X0.28Y1.2
X0.28Y0.6
X0.38Y1.2
X0.38Y0.6
X-1.12Y1.05
X-1.12Y0.75
X-0.44Y0.44
X-0.14Y0.44
X1.01Y0.87
X1.01Y0.7716
X0.0Y1.36
X0.3Y1.36
X-0.52Y1.2
X-0.52Y0.6
X-0.42Y1.2
X-0.42Y0.6
X-0.32Y1.2
X-0.32Y0.6
X-0.22Y1.2
X-0.22Y0.6
X-0.12Y1.2
X-0.12Y0.6
X0.43Y1.36
X0.73Y1.36
T5
X-1.3692Y1.0906
X-1.3692Y0.9055
X-1.3692Y0.7205
X0.7174Y1.0906
X0.7174Y0.9055
X0.7174Y0.7205
X-0.8574Y1.0906
X-0.8574Y0.9055
X-0.8574Y0.7205
X1.2292Y1.0906
X1.2292Y0.9055
X1.2292Y0.7205
T0
M30
