%TF.GenerationSoftware,KiCad,Pcbnew,(5.1.6-0-10_14)*%
%TF.CreationDate,2021-01-19T16:44:27+00:00*%
%TF.ProjectId,daughterboard,64617567-6874-4657-9262-6f6172642e6b,rev?*%
%TF.SameCoordinates,Original*%
%TF.FileFunction,Legend,Top*%
%TF.FilePolarity,Positive*%
%FSLAX46Y46*%
G04 Gerber Fmt 4.6, Leading zero omitted, Abs format (unit mm)*
G04 Created by KiCad (PCBNEW (5.1.6-0-10_14)) date 2021-01-19 16:44:27*
%MOMM*%
%LPD*%
G01*
G04 APERTURE LIST*
%ADD10C,0.120000*%
G04 APERTURE END LIST*
D10*
%TO.C,J1*%
X-24324000Y8648000D02*
X-34684000Y8648000D01*
X-24324000Y14368000D02*
X-24324000Y8648000D01*
X-25394000Y14368000D02*
X-24324000Y14368000D01*
X-25394000Y14068000D02*
X-25394000Y14368000D01*
X-34684000Y14068000D02*
X-25394000Y14068000D01*
X-45044000Y8648000D02*
X-34684000Y8648000D01*
X-45044000Y14368000D02*
X-45044000Y8648000D01*
X-43974000Y14368000D02*
X-45044000Y14368000D01*
X-43974000Y14068000D02*
X-43974000Y14368000D01*
X-34684000Y14068000D02*
X-43974000Y14068000D01*
X-43684000Y14658000D02*
X-44184000Y14658000D01*
X-43684000Y14358000D02*
X-43684000Y14658000D01*
%TO.C,U1*%
X-14538000Y17145000D02*
X-14538000Y28575000D01*
X-1718000Y17145000D02*
X-1718000Y28575000D01*
X-13428000Y13225000D02*
X-1828000Y13225000D01*
X-1828000Y32495000D02*
X-14428000Y32495000D01*
X-11128000Y27860000D02*
X-12128000Y22860000D01*
X-12128000Y22860000D02*
X-13128000Y17860000D01*
X-13128000Y17860000D02*
X-6128000Y17860000D01*
X-6128000Y17860000D02*
X-5128000Y22860000D01*
X-4128000Y27860000D02*
X-5128000Y22860000D01*
X-5128000Y22860000D02*
X-12128000Y22860000D01*
X-11128000Y27860000D02*
X-4128000Y27860000D01*
X-3680786Y17860000D02*
G75*
G03*
X-3680786Y17860000I-447214J0D01*
G01*
%TO.C,R1*%
X18002000Y33174000D02*
X18002000Y33504000D01*
X11462000Y33174000D02*
X18002000Y33174000D01*
X11462000Y33504000D02*
X11462000Y33174000D01*
X18002000Y35914000D02*
X18002000Y35584000D01*
X11462000Y35914000D02*
X18002000Y35914000D01*
X11462000Y35584000D02*
X11462000Y35914000D01*
%TO.C,R2*%
X-10382000Y35914000D02*
X-10382000Y35584000D01*
X-3842000Y35914000D02*
X-10382000Y35914000D01*
X-3842000Y35584000D02*
X-3842000Y35914000D01*
X-10382000Y33174000D02*
X-10382000Y33504000D01*
X-3842000Y33174000D02*
X-10382000Y33174000D01*
X-3842000Y33504000D02*
X-3842000Y33174000D01*
%TO.C,R3*%
X-10636000Y12546000D02*
X-10636000Y12216000D01*
X-4096000Y12546000D02*
X-10636000Y12546000D01*
X-4096000Y12216000D02*
X-4096000Y12546000D01*
X-10636000Y9806000D02*
X-10636000Y10136000D01*
X-4096000Y9806000D02*
X-10636000Y9806000D01*
X-4096000Y10136000D02*
X-4096000Y9806000D01*
%TO.C,R4*%
X7080000Y9806000D02*
X7080000Y10136000D01*
X540000Y9806000D02*
X7080000Y9806000D01*
X540000Y10136000D02*
X540000Y9806000D01*
X7080000Y12546000D02*
X7080000Y12216000D01*
X540000Y12546000D02*
X7080000Y12546000D01*
X540000Y12216000D02*
X540000Y12546000D01*
%TO.C,R5*%
X-21304000Y12546000D02*
X-21304000Y12216000D01*
X-14764000Y12546000D02*
X-21304000Y12546000D01*
X-14764000Y12216000D02*
X-14764000Y12546000D01*
X-21304000Y9806000D02*
X-21304000Y10136000D01*
X-14764000Y9806000D02*
X-21304000Y9806000D01*
X-14764000Y10136000D02*
X-14764000Y9806000D01*
%TO.C,R6*%
X-21050000Y35914000D02*
X-21050000Y35584000D01*
X-14510000Y35914000D02*
X-21050000Y35914000D01*
X-14510000Y35584000D02*
X-14510000Y35914000D01*
X-21050000Y33174000D02*
X-21050000Y33504000D01*
X-14510000Y33174000D02*
X-21050000Y33174000D01*
X-14510000Y33504000D02*
X-14510000Y33174000D01*
%TO.C,R7*%
X7080000Y33174000D02*
X7080000Y33504000D01*
X540000Y33174000D02*
X7080000Y33174000D01*
X540000Y33504000D02*
X540000Y33174000D01*
X7080000Y35914000D02*
X7080000Y35584000D01*
X540000Y35914000D02*
X7080000Y35914000D01*
X540000Y35584000D02*
X540000Y35914000D01*
%TO.C,R8*%
X18256000Y9806000D02*
X18256000Y10136000D01*
X11716000Y9806000D02*
X18256000Y9806000D01*
X11716000Y10136000D02*
X11716000Y9806000D01*
X18256000Y12546000D02*
X18256000Y12216000D01*
X11716000Y12546000D02*
X18256000Y12546000D01*
X11716000Y12216000D02*
X11716000Y12546000D01*
%TO.C,SW1*%
X-31328000Y29350000D02*
X-31328000Y16650000D01*
X-38228000Y29350000D02*
X-38228000Y16650000D01*
X-31328000Y16650000D02*
X-38228000Y16650000D01*
X-38228000Y29350000D02*
X-31328000Y29350000D01*
%TO.C,SW2*%
X-18328000Y29350000D02*
X-18328000Y16650000D01*
X-25228000Y29350000D02*
X-25228000Y16650000D01*
X-18328000Y16650000D02*
X-25228000Y16650000D01*
X-25228000Y29350000D02*
X-18328000Y29350000D01*
%TO.C,SW3*%
X21672000Y29350000D02*
X21672000Y16650000D01*
X14772000Y29350000D02*
X14772000Y16650000D01*
X21672000Y16650000D02*
X14772000Y16650000D01*
X14772000Y29350000D02*
X21672000Y29350000D01*
%TO.C,SW4*%
X34672000Y29350000D02*
X34672000Y16650000D01*
X27772000Y29350000D02*
X27772000Y16650000D01*
X34672000Y16650000D02*
X27772000Y16650000D01*
X27772000Y29350000D02*
X34672000Y29350000D01*
%TO.C,U2*%
X-1838000Y17145000D02*
X-1838000Y28575000D01*
X10982000Y17145000D02*
X10982000Y28575000D01*
X-728000Y13225000D02*
X10872000Y13225000D01*
X10872000Y32495000D02*
X-1728000Y32495000D01*
X1572000Y27860000D02*
X572000Y22860000D01*
X572000Y22860000D02*
X-428000Y17860000D01*
X-428000Y17860000D02*
X6572000Y17860000D01*
X6572000Y17860000D02*
X7572000Y22860000D01*
X8572000Y27860000D02*
X7572000Y22860000D01*
X7572000Y22860000D02*
X572000Y22860000D01*
X1572000Y27860000D02*
X8572000Y27860000D01*
X9019214Y17860000D02*
G75*
G03*
X9019214Y17860000I-447214J0D01*
G01*
%TO.C,C1*%
X24859000Y18828000D02*
X24234000Y18828000D01*
X27074000Y18828000D02*
X26449000Y18828000D01*
X24859000Y22868000D02*
X24234000Y22868000D01*
X27074000Y22868000D02*
X26449000Y22868000D01*
X24234000Y22868000D02*
X24234000Y18828000D01*
X27074000Y22868000D02*
X27074000Y18828000D01*
%TO.C,Q1*%
X-42744000Y34820000D02*
X-42744000Y31220000D01*
X-42732478Y31181522D02*
G75*
G03*
X-38294000Y33020000I1838478J1838478D01*
G01*
X-42732478Y34858478D02*
G75*
G02*
X-38294000Y33020000I1838478J-1838478D01*
G01*
%TO.C,Q2*%
X-32330000Y34820000D02*
X-32330000Y31220000D01*
X-32318478Y31181522D02*
G75*
G03*
X-27880000Y33020000I1838478J1838478D01*
G01*
X-32318478Y34858478D02*
G75*
G02*
X-27880000Y33020000I1838478J-1838478D01*
G01*
%TO.C,R9*%
X-42518000Y19844000D02*
X-42188000Y19844000D01*
X-42518000Y26384000D02*
X-42518000Y19844000D01*
X-42188000Y26384000D02*
X-42518000Y26384000D01*
X-39778000Y19844000D02*
X-40108000Y19844000D01*
X-39778000Y26384000D02*
X-39778000Y19844000D01*
X-40108000Y26384000D02*
X-39778000Y26384000D01*
%TO.C,R10*%
X-29818000Y19590000D02*
X-29488000Y19590000D01*
X-29818000Y26130000D02*
X-29818000Y19590000D01*
X-29488000Y26130000D02*
X-29818000Y26130000D01*
X-27078000Y19590000D02*
X-27408000Y19590000D01*
X-27078000Y26130000D02*
X-27078000Y19590000D01*
X-27408000Y26130000D02*
X-27078000Y26130000D01*
%TD*%
M02*
