%TF.GenerationSoftware,KiCad,Pcbnew,(5.1.6-0-10_14)*%
%TF.CreationDate,2021-01-19T16:44:27+00:00*%
%TF.ProjectId,daughterboard,64617567-6874-4657-9262-6f6172642e6b,rev?*%
%TF.SameCoordinates,Original*%
%TF.FileFunction,Copper,L2,Bot*%
%TF.FilePolarity,Positive*%
%FSLAX46Y46*%
G04 Gerber Fmt 4.6, Leading zero omitted, Abs format (unit mm)*
G04 Created by KiCad (PCBNEW (5.1.6-0-10_14)) date 2021-01-19 16:44:27*
%MOMM*%
%LPD*%
G01*
G04 APERTURE LIST*
%TA.AperFunction,ComponentPad*%
%ADD10O,0.800000X1.300000*%
%TD*%
%TA.AperFunction,ComponentPad*%
%ADD11R,1.524000X2.524000*%
%TD*%
%TA.AperFunction,ComponentPad*%
%ADD12O,1.524000X2.524000*%
%TD*%
%TA.AperFunction,ComponentPad*%
%ADD13O,1.600000X1.600000*%
%TD*%
%TA.AperFunction,ComponentPad*%
%ADD14C,1.600000*%
%TD*%
%TA.AperFunction,ComponentPad*%
%ADD15C,3.500000*%
%TD*%
%TA.AperFunction,ComponentPad*%
%ADD16R,1.500000X1.050000*%
%TD*%
%TA.AperFunction,ComponentPad*%
%ADD17O,1.500000X1.050000*%
%TD*%
%TA.AperFunction,ViaPad*%
%ADD18C,0.800000*%
%TD*%
%TA.AperFunction,Conductor*%
%ADD19C,0.250000*%
%TD*%
%TA.AperFunction,Conductor*%
%ADD20C,0.254000*%
%TD*%
G04 APERTURE END LIST*
D10*
%TO.P,J1,15*%
%TO.N,GND*%
X-25934000Y13208000D03*
%TO.P,J1,14*%
%TO.N,NRST*%
X-27184000Y13208000D03*
%TO.P,J1,13*%
%TO.N,B_STOP*%
X-28434000Y13208000D03*
%TO.P,J1,12*%
%TO.N,B_NEXT*%
X-29684000Y13208000D03*
%TO.P,J1,11*%
%TO.N,B_PREV*%
X-30934000Y13208000D03*
%TO.P,J1,10*%
%TO.N,LCD_DIG2CC*%
X-32184000Y13208000D03*
%TO.P,J1,9*%
%TO.N,LCD_DIG1CC*%
X-33434000Y13208000D03*
%TO.P,J1,8*%
%TO.N,LCD_DP*%
X-34684000Y13208000D03*
%TO.P,J1,7*%
%TO.N,LCD_G*%
X-35934000Y13208000D03*
%TO.P,J1,6*%
%TO.N,LCD_F*%
X-37184000Y13208000D03*
%TO.P,J1,5*%
%TO.N,LCD_E*%
X-38434000Y13208000D03*
%TO.P,J1,4*%
%TO.N,LCD_D*%
X-39684000Y13208000D03*
%TO.P,J1,3*%
%TO.N,LCD_C*%
X-40934000Y13208000D03*
%TO.P,J1,2*%
%TO.N,LCD_B*%
X-42184000Y13208000D03*
%TO.P,J1,1*%
%TO.N,LCD_A*%
%TA.AperFunction,ComponentPad*%
G36*
G01*
X-43834000Y12758000D02*
X-43834000Y13658000D01*
G75*
G02*
X-43634000Y13858000I200000J0D01*
G01*
X-43234000Y13858000D01*
G75*
G02*
X-43034000Y13658000I0J-200000D01*
G01*
X-43034000Y12758000D01*
G75*
G02*
X-43234000Y12558000I-200000J0D01*
G01*
X-43634000Y12558000D01*
G75*
G02*
X-43834000Y12758000I0J200000D01*
G01*
G37*
%TD.AperFunction*%
%TD*%
D11*
%TO.P,U1,1*%
%TO.N,Net-(R5-Pad1)*%
X-13208000Y15240000D03*
D12*
%TO.P,U1,2*%
%TO.N,Net-(R4-Pad1)*%
X-10668000Y15240000D03*
%TO.P,U1,3*%
%TO.N,Net-(Q1-Pad1)*%
X-8128000Y15240000D03*
%TO.P,U1,4*%
%TO.N,Net-(R3-Pad1)*%
X-5588000Y15240000D03*
%TO.P,U1,5*%
%TO.N,Net-(R8-Pad1)*%
X-3048000Y15240000D03*
%TO.P,U1,6*%
%TO.N,Net-(R2-Pad1)*%
X-3048000Y30480000D03*
%TO.P,U1,7*%
%TO.N,Net-(R1-Pad1)*%
X-5588000Y30480000D03*
%TO.P,U1,8*%
%TO.N,Net-(Q1-Pad1)*%
X-8128000Y30480000D03*
%TO.P,U1,9*%
%TO.N,Net-(R6-Pad1)*%
X-10668000Y30480000D03*
%TO.P,U1,10*%
%TO.N,Net-(R7-Pad1)*%
X-13208000Y30480000D03*
%TD*%
D13*
%TO.P,R1,2*%
%TO.N,LCD_A*%
X18542000Y34544000D03*
D14*
%TO.P,R1,1*%
%TO.N,Net-(R1-Pad1)*%
X10922000Y34544000D03*
%TD*%
D13*
%TO.P,R2,2*%
%TO.N,LCD_B*%
X-10922000Y34544000D03*
D14*
%TO.P,R2,1*%
%TO.N,Net-(R2-Pad1)*%
X-3302000Y34544000D03*
%TD*%
D13*
%TO.P,R3,2*%
%TO.N,LCD_C*%
X-11176000Y11176000D03*
D14*
%TO.P,R3,1*%
%TO.N,Net-(R3-Pad1)*%
X-3556000Y11176000D03*
%TD*%
D13*
%TO.P,R4,2*%
%TO.N,LCD_D*%
X7620000Y11176000D03*
D14*
%TO.P,R4,1*%
%TO.N,Net-(R4-Pad1)*%
X0Y11176000D03*
%TD*%
D13*
%TO.P,R5,2*%
%TO.N,LCD_E*%
X-21844000Y11176000D03*
D14*
%TO.P,R5,1*%
%TO.N,Net-(R5-Pad1)*%
X-14224000Y11176000D03*
%TD*%
D13*
%TO.P,R6,2*%
%TO.N,LCD_F*%
X-21590000Y34544000D03*
D14*
%TO.P,R6,1*%
%TO.N,Net-(R6-Pad1)*%
X-13970000Y34544000D03*
%TD*%
D13*
%TO.P,R7,2*%
%TO.N,LCD_G*%
X7620000Y34544000D03*
D14*
%TO.P,R7,1*%
%TO.N,Net-(R7-Pad1)*%
X0Y34544000D03*
%TD*%
D13*
%TO.P,R8,2*%
%TO.N,LCD_DP*%
X18796000Y11176000D03*
D14*
%TO.P,R8,1*%
%TO.N,Net-(R8-Pad1)*%
X11176000Y11176000D03*
%TD*%
D15*
%TO.P,SW1,3*%
%TO.N,GND*%
X-34778000Y18300000D03*
%TO.P,SW1,2*%
%TO.N,B_PREV*%
X-34778000Y23000000D03*
%TO.P,SW1,1*%
%TO.N,Net-(SW1-Pad1)*%
X-34778000Y27700000D03*
%TD*%
%TO.P,SW2,3*%
%TO.N,GND*%
X-21778000Y18300000D03*
%TO.P,SW2,2*%
%TO.N,B_NEXT*%
X-21778000Y23000000D03*
%TO.P,SW2,1*%
%TO.N,Net-(SW2-Pad1)*%
X-21778000Y27700000D03*
%TD*%
%TO.P,SW3,3*%
%TO.N,GND*%
X18222000Y18300000D03*
%TO.P,SW3,2*%
%TO.N,B_STOP*%
X18222000Y23000000D03*
%TO.P,SW3,1*%
%TO.N,Net-(SW3-Pad1)*%
X18222000Y27700000D03*
%TD*%
%TO.P,SW4,3*%
%TO.N,GND*%
X31222000Y18300000D03*
%TO.P,SW4,2*%
%TO.N,NRST*%
X31222000Y23000000D03*
%TO.P,SW4,1*%
%TO.N,Net-(SW4-Pad1)*%
X31222000Y27700000D03*
%TD*%
D11*
%TO.P,U2,1*%
%TO.N,Net-(R5-Pad1)*%
X-508000Y15240000D03*
D12*
%TO.P,U2,2*%
%TO.N,Net-(R4-Pad1)*%
X2032000Y15240000D03*
%TO.P,U2,3*%
%TO.N,Net-(Q2-Pad1)*%
X4572000Y15240000D03*
%TO.P,U2,4*%
%TO.N,Net-(R3-Pad1)*%
X7112000Y15240000D03*
%TO.P,U2,5*%
%TO.N,Net-(R8-Pad1)*%
X9652000Y15240000D03*
%TO.P,U2,6*%
%TO.N,Net-(R2-Pad1)*%
X9652000Y30480000D03*
%TO.P,U2,7*%
%TO.N,Net-(R1-Pad1)*%
X7112000Y30480000D03*
%TO.P,U2,8*%
%TO.N,Net-(Q2-Pad1)*%
X4572000Y30480000D03*
%TO.P,U2,9*%
%TO.N,Net-(R6-Pad1)*%
X2032000Y30480000D03*
%TO.P,U2,10*%
%TO.N,Net-(R7-Pad1)*%
X-508000Y30480000D03*
%TD*%
D14*
%TO.P,C1,2*%
%TO.N,GND*%
X25654000Y19598000D03*
%TO.P,C1,1*%
%TO.N,NRST*%
X25654000Y22098000D03*
%TD*%
D16*
%TO.P,Q1,1*%
%TO.N,Net-(Q1-Pad1)*%
X-40894000Y34290000D03*
D17*
%TO.P,Q1,3*%
%TO.N,GND*%
X-40894000Y31750000D03*
%TO.P,Q1,2*%
%TO.N,Net-(Q1-Pad2)*%
X-40894000Y33020000D03*
%TD*%
D16*
%TO.P,Q2,1*%
%TO.N,Net-(Q2-Pad1)*%
X-30480000Y34290000D03*
D17*
%TO.P,Q2,3*%
%TO.N,GND*%
X-30480000Y31750000D03*
%TO.P,Q2,2*%
%TO.N,Net-(Q2-Pad2)*%
X-30480000Y33020000D03*
%TD*%
D13*
%TO.P,R9,2*%
%TO.N,LCD_DIG1CC*%
X-41148000Y19304000D03*
D14*
%TO.P,R9,1*%
%TO.N,Net-(Q1-Pad2)*%
X-41148000Y26924000D03*
%TD*%
D13*
%TO.P,R10,2*%
%TO.N,LCD_DIG2CC*%
X-28448000Y19050000D03*
D14*
%TO.P,R10,1*%
%TO.N,Net-(Q2-Pad2)*%
X-28448000Y26670000D03*
%TD*%
D18*
%TO.N,GND*%
X-24638000Y13208000D03*
X-25146000Y12192000D03*
X-23876000Y16764000D03*
X-37338000Y18288000D03*
X16002000Y17018000D03*
X28702000Y17272000D03*
X36576000Y29210000D03*
X36576000Y23114000D03*
X36576000Y16764000D03*
X-3810000Y23368000D03*
X12700000Y31242000D03*
X8636000Y27178000D03*
X-6858000Y11430000D03*
X-16510000Y12954000D03*
X-8382000Y34544000D03*
X-5588000Y34544000D03*
X-45212000Y23114000D03*
X-45212000Y16764000D03*
X-45212000Y29210000D03*
%TO.N,LCD_F*%
X-34544000Y15049976D03*
X-32462396Y17899332D03*
%TO.N,LCD_B*%
X-30424059Y18925971D03*
X-32258000Y15499989D03*
%TO.N,Net-(R1-Pad1)*%
X-5588000Y28448000D03*
X-4572000Y25908000D03*
%TO.N,Net-(R2-Pad1)*%
X3846990Y32777360D03*
%TO.N,Net-(R4-Pad1)*%
X-2032000Y17526000D03*
X2032000Y16778946D03*
%TO.N,Net-(Q1-Pad1)*%
X-8128000Y26670000D03*
X-8128000Y20320000D03*
X-7112000Y35814002D03*
%TO.N,Net-(Q2-Pad1)*%
X4572000Y20574000D03*
X4572000Y27686006D03*
%TD*%
D19*
%TO.N,NRST*%
X26556000Y23000000D02*
X25654000Y22098000D01*
X31222000Y23000000D02*
X26556000Y23000000D01*
%TO.N,LCD_DP*%
X-34684000Y13233318D02*
X-34684000Y13208000D01*
X-33734308Y14183010D02*
X-34684000Y13233318D01*
X-12835200Y18403978D02*
X-17056170Y14183009D01*
X18796000Y11176000D02*
X11568022Y18403978D01*
X11568022Y18403978D02*
X-12835200Y18403978D01*
X-17056170Y14183009D02*
X-33734308Y14183010D01*
%TO.N,LCD_G*%
X19667001Y35704999D02*
X19667001Y33129001D01*
X-33920709Y14633019D02*
X-34370719Y14183010D01*
X-35934000Y13233318D02*
X-35934000Y13208000D01*
X-17242570Y14633020D02*
X-33920709Y14633019D01*
X-34370719Y14183010D02*
X-34984308Y14183010D01*
X-34984308Y14183010D02*
X-35934000Y13233318D01*
X7620000Y34544000D02*
X8890000Y35814000D01*
X8890000Y35814000D02*
X19558000Y35814000D01*
X-13021601Y18853989D02*
X-17242570Y14633020D01*
X19558000Y35814000D02*
X19667001Y35704999D01*
X5391989Y18853989D02*
X-13021601Y18853989D01*
X19667001Y33129001D02*
X5391989Y18853989D01*
%TO.N,LCD_F*%
X-37184000Y13208000D02*
X-37184000Y13635895D01*
X-37184000Y14108000D02*
X-36242024Y15049976D01*
X-36242024Y15049976D02*
X-34544000Y15049976D01*
X-37184000Y13208000D02*
X-37184000Y14108000D01*
X-21590000Y31496000D02*
X-32462396Y20623604D01*
X-32462396Y20623604D02*
X-32462396Y17899332D01*
X-21590000Y34544000D02*
X-21590000Y31496000D01*
%TO.N,LCD_E*%
X-38434000Y12308000D02*
X-38434000Y13208000D01*
X-22606000Y10414000D02*
X-36540000Y10414000D01*
X-36540000Y10414000D02*
X-38434000Y12308000D01*
X-21844000Y11176000D02*
X-22606000Y10414000D01*
%TO.N,LCD_D*%
X-13771009Y9963989D02*
X-37339989Y9963989D01*
X7620000Y11176000D02*
X6494999Y10050999D01*
X6494999Y10050999D02*
X-8385997Y10050999D01*
X-10635999Y12301001D02*
X-11716001Y12301001D01*
X-11716001Y12301001D02*
X-13098999Y10918003D01*
X-39684000Y12308000D02*
X-39684000Y13208000D01*
X-37339989Y9963989D02*
X-39684000Y12308000D01*
X-13098999Y10918003D02*
X-13098999Y10635999D01*
X-13098999Y10635999D02*
X-13771009Y9963989D01*
X-8385997Y10050999D02*
X-10635999Y12301001D01*
%TO.N,LCD_C*%
X-40934000Y12308000D02*
X-40934000Y13208000D01*
X-12838022Y9513978D02*
X-38139978Y9513978D01*
X-11176000Y11176000D02*
X-12838022Y9513978D01*
X-38139978Y9513978D02*
X-40934000Y12308000D01*
%TO.N,LCD_B*%
X-32533009Y15774998D02*
X-32258000Y15499989D01*
X-42184000Y13208000D02*
X-42184000Y14108000D01*
X-40517002Y15774998D02*
X-32533009Y15774998D01*
X-42184000Y14108000D02*
X-40517002Y15774998D01*
X-14510001Y35669001D02*
X-14815013Y35363989D01*
X-30424059Y22025531D02*
X-30424059Y18925971D01*
X-17085601Y35363989D02*
X-30424059Y22025531D01*
X-12304998Y34544000D02*
X-13429999Y35669001D01*
X-13429999Y35669001D02*
X-14510001Y35669001D01*
X-14815013Y35363989D02*
X-17085601Y35363989D01*
X-10922000Y34544000D02*
X-12304998Y34544000D01*
%TO.N,LCD_A*%
X18542000Y34544000D02*
X18542000Y33412630D01*
X18542000Y33412630D02*
X4687370Y19558000D01*
X-13208000Y19558000D02*
X-16727001Y16038999D01*
X-16727001Y16038999D02*
X-28458521Y16038999D01*
X-28458521Y16038999D02*
X-28644521Y16224999D01*
X4687370Y19558000D02*
X-13208000Y19558000D01*
X-41067001Y16224999D02*
X-43434000Y13858000D01*
X-28644521Y16224999D02*
X-41067001Y16224999D01*
X-43434000Y13858000D02*
X-43434000Y13208000D01*
%TO.N,Net-(R1-Pad1)*%
X7112000Y30734000D02*
X7112000Y30480000D01*
X10922000Y34544000D02*
X7112000Y30734000D01*
X-5588000Y30480000D02*
X-5588000Y28448000D01*
X-1270000Y25908000D02*
X-4572000Y25908000D01*
X1487003Y28665003D02*
X-1270000Y25908000D01*
X5297003Y28665003D02*
X1487003Y28665003D01*
X7112000Y30480000D02*
X5297003Y28665003D01*
%TO.N,Net-(R2-Pad1)*%
X-3302000Y30734000D02*
X-3048000Y30480000D01*
X-3302000Y34544000D02*
X-3302000Y30734000D01*
X-3302000Y34544000D02*
X-2176999Y35669001D01*
X-2176999Y35669001D02*
X955349Y35669001D01*
X955349Y35669001D02*
X3846990Y32777360D01*
%TO.N,Net-(R3-Pad1)*%
X-3556000Y11176000D02*
X-5588000Y13208000D01*
X-5588000Y13208000D02*
X-5588000Y15240000D01*
X579001Y16892005D02*
X579001Y13717999D01*
X4848044Y17503956D02*
X1190952Y17503956D01*
X579001Y13717999D02*
X-1962998Y11176000D01*
X7112000Y15240000D02*
X4848044Y17503956D01*
X-1962998Y11176000D02*
X-3556000Y11176000D01*
X1190952Y17503956D02*
X579001Y16892005D01*
%TO.N,Net-(R4-Pad1)*%
X2032000Y13208000D02*
X2032000Y15240000D01*
X0Y11176000D02*
X2032000Y13208000D01*
X-8382000Y17526000D02*
X-9894000Y17526000D01*
X-10668000Y16752000D02*
X-10668000Y15240000D01*
X-2032000Y17526000D02*
X-8382000Y17526000D01*
X-9894000Y17526000D02*
X-10668000Y16752000D01*
X-8382000Y17526000D02*
X-8515675Y17526000D01*
X2032000Y15240000D02*
X2032000Y16778946D01*
%TO.N,Net-(R5-Pad1)*%
X-14224000Y14224000D02*
X-13208000Y15240000D01*
X-14224000Y11176000D02*
X-14224000Y14224000D01*
X-11620990Y13652990D02*
X-13208000Y15240000D01*
X-2095010Y13652990D02*
X-3498254Y13652990D01*
X-5137746Y16827010D02*
X-8944234Y16827010D01*
X-9580990Y14289746D02*
X-10217746Y13652990D01*
X-508000Y15240000D02*
X-2095010Y13652990D01*
X-3498254Y13652990D02*
X-4135010Y14289746D01*
X-4135010Y14289746D02*
X-4135010Y15824274D01*
X-4135010Y15824274D02*
X-5137746Y16827010D01*
X-8944234Y16827010D02*
X-9580990Y16190254D01*
X-9580990Y16190254D02*
X-9580990Y14289746D01*
X-10217746Y13652990D02*
X-11620990Y13652990D01*
%TO.N,Net-(R6-Pad1)*%
X-10668000Y31242000D02*
X-10668000Y30480000D01*
X-13970000Y34544000D02*
X-10668000Y31242000D01*
X-14295010Y29529746D02*
X-14295010Y31430254D01*
X-12160265Y27395001D02*
X-14295010Y29529746D01*
X-7779999Y27395001D02*
X-12160265Y27395001D01*
X-7657985Y27272987D02*
X-7779999Y27395001D01*
X-12255010Y32067010D02*
X-10668000Y30480000D01*
X1778000Y30480000D02*
X-1429013Y27272987D01*
X-14295010Y31430254D02*
X-13658254Y32067010D01*
X-1429013Y27272987D02*
X-7657985Y27272987D01*
X-13658254Y32067010D02*
X-12255010Y32067010D01*
X2032000Y30480000D02*
X1778000Y30480000D01*
%TO.N,Net-(R7-Pad1)*%
X0Y30988000D02*
X-508000Y30480000D01*
X0Y34544000D02*
X0Y30988000D01*
X-10573012Y27845012D02*
X-13208000Y30480000D01*
X-508000Y30480000D02*
X-3265002Y27722998D01*
X-3265002Y27722998D02*
X-7471585Y27722998D01*
X-7593599Y27845012D02*
X-10573012Y27845012D01*
X-7471585Y27722998D02*
X-7593599Y27845012D01*
%TO.N,Net-(R8-Pad1)*%
X11176000Y13716000D02*
X9652000Y15240000D01*
X11176000Y11176000D02*
X11176000Y13716000D01*
X9652000Y15240000D02*
X6938033Y17953967D01*
X6938033Y17953967D02*
X-334033Y17953967D01*
X-334033Y17953967D02*
X-3048000Y15240000D01*
%TO.N,Net-(Q1-Pad2)*%
X-41969010Y32944990D02*
X-41894000Y33020000D01*
X-41894000Y33020000D02*
X-40894000Y33020000D01*
X-41969010Y27745010D02*
X-41969010Y32944990D01*
X-41148000Y26924000D02*
X-41969010Y27745010D01*
%TO.N,Net-(Q1-Pad1)*%
X-8128000Y26670000D02*
X-8128000Y20320000D01*
X-38462001Y36721999D02*
X-8019997Y36721999D01*
X-8019997Y36721999D02*
X-7112000Y35814002D01*
X-40894000Y34290000D02*
X-38462001Y36721999D01*
%TO.N,Net-(Q2-Pad1)*%
X4572000Y20574000D02*
X4572000Y27686006D01*
X-30480000Y34290000D02*
X-28650988Y36119012D01*
X-7460004Y35088998D02*
X-6509998Y35088998D01*
X-28650988Y36119012D02*
X-8490018Y36119012D01*
X-8490018Y36119012D02*
X-7460004Y35088998D01*
X-6509998Y35088998D02*
X-5479984Y36119012D01*
X-5479984Y36119012D02*
X2996988Y36119012D01*
X2996988Y36119012D02*
X4572000Y34544000D01*
X4572000Y34544000D02*
X4572000Y30480000D01*
%TO.N,Net-(Q2-Pad2)*%
X-28448000Y26670000D02*
X-31750000Y29972000D01*
X-31480000Y33020000D02*
X-30480000Y33020000D01*
X-31750000Y32750000D02*
X-31480000Y33020000D01*
X-31750000Y29972000D02*
X-31750000Y32750000D01*
%TD*%
D20*
%TO.N,GND*%
G36*
X-39002002Y37262000D02*
G01*
X-39025800Y37233002D01*
X-40805729Y35453072D01*
X-41644000Y35453072D01*
X-41768482Y35440812D01*
X-41888180Y35404502D01*
X-41998494Y35345537D01*
X-42095185Y35266185D01*
X-42174537Y35169494D01*
X-42233502Y35059180D01*
X-42269812Y34939482D01*
X-42282072Y34815000D01*
X-42282072Y33765000D01*
X-42273588Y33678860D01*
X-42318276Y33654974D01*
X-42434001Y33560001D01*
X-42457804Y33530997D01*
X-42480012Y33508789D01*
X-42509010Y33484991D01*
X-42532808Y33455993D01*
X-42532809Y33455992D01*
X-42603984Y33369266D01*
X-42674556Y33237236D01*
X-42695259Y33168985D01*
X-42713454Y33109000D01*
X-42718012Y33093975D01*
X-42732686Y32944990D01*
X-42729009Y32907658D01*
X-42729010Y27782333D01*
X-42732686Y27745010D01*
X-42729010Y27707688D01*
X-42729010Y27707678D01*
X-42718013Y27596025D01*
X-42680979Y27473937D01*
X-42674556Y27452764D01*
X-42603984Y27320734D01*
X-42564799Y27272987D01*
X-42546202Y27250327D01*
X-42583000Y27065335D01*
X-42583000Y26782665D01*
X-42527853Y26505426D01*
X-42419680Y26244273D01*
X-42262637Y26009241D01*
X-42062759Y25809363D01*
X-41827727Y25652320D01*
X-41566574Y25544147D01*
X-41289335Y25489000D01*
X-41006665Y25489000D01*
X-40729426Y25544147D01*
X-40468273Y25652320D01*
X-40233241Y25809363D01*
X-40033363Y26009241D01*
X-39876320Y26244273D01*
X-39768147Y26505426D01*
X-39713000Y26782665D01*
X-39713000Y27065335D01*
X-39768147Y27342574D01*
X-39876320Y27603727D01*
X-40033363Y27838759D01*
X-40233241Y28038637D01*
X-40468273Y28195680D01*
X-40729426Y28303853D01*
X-41006665Y28359000D01*
X-41209010Y28359000D01*
X-41209010Y30584448D01*
X-41204507Y30583669D01*
X-41021000Y30743402D01*
X-41021000Y31623000D01*
X-40767000Y31623000D01*
X-40767000Y30743402D01*
X-40583493Y30583669D01*
X-40357596Y30622761D01*
X-40143666Y30705172D01*
X-39949924Y30827736D01*
X-39783816Y30985742D01*
X-39651725Y31173118D01*
X-39558728Y31382663D01*
X-39550036Y31444190D01*
X-39675837Y31623000D01*
X-40767000Y31623000D01*
X-41021000Y31623000D01*
X-41041000Y31623000D01*
X-41041000Y31860000D01*
X-40612021Y31860000D01*
X-40441600Y31876785D01*
X-40440891Y31877000D01*
X-39675837Y31877000D01*
X-39550036Y32055810D01*
X-39558728Y32117337D01*
X-39651725Y32326882D01*
X-39692929Y32385331D01*
X-39592115Y32573940D01*
X-39525785Y32792600D01*
X-39503388Y33020000D01*
X-39525785Y33247400D01*
X-39589093Y33456098D01*
X-39554498Y33520820D01*
X-39518188Y33640518D01*
X-39505928Y33765000D01*
X-39505928Y34603271D01*
X-38147199Y35961999D01*
X-29882803Y35961999D01*
X-30391729Y35453072D01*
X-31230000Y35453072D01*
X-31354482Y35440812D01*
X-31474180Y35404502D01*
X-31584494Y35345537D01*
X-31681185Y35266185D01*
X-31760537Y35169494D01*
X-31819502Y35059180D01*
X-31855812Y34939482D01*
X-31868072Y34815000D01*
X-31868072Y33765000D01*
X-31859588Y33678860D01*
X-31904276Y33654974D01*
X-32020001Y33560001D01*
X-32043804Y33530997D01*
X-32261002Y33313799D01*
X-32290000Y33290001D01*
X-32313798Y33261003D01*
X-32313799Y33261002D01*
X-32384974Y33174276D01*
X-32455546Y33042246D01*
X-32474423Y32980015D01*
X-32493740Y32916331D01*
X-32499002Y32898985D01*
X-32513676Y32750000D01*
X-32509999Y32712668D01*
X-32510000Y30009323D01*
X-32513676Y29972000D01*
X-32510000Y29934678D01*
X-32510000Y29934668D01*
X-32499003Y29823015D01*
X-32484272Y29774454D01*
X-32455546Y29679754D01*
X-32384974Y29547724D01*
X-32345129Y29499174D01*
X-32290001Y29431999D01*
X-32260997Y29408196D01*
X-29846688Y26993886D01*
X-29883000Y26811335D01*
X-29883000Y26528665D01*
X-29827853Y26251426D01*
X-29719680Y25990273D01*
X-29562637Y25755241D01*
X-29362759Y25555363D01*
X-29127727Y25398320D01*
X-28869459Y25291342D01*
X-32973393Y21187408D01*
X-33002397Y21163605D01*
X-33034951Y21123937D01*
X-33097370Y21047880D01*
X-33167941Y20915851D01*
X-33167942Y20915850D01*
X-33211399Y20772589D01*
X-33222396Y20660936D01*
X-33222396Y20660926D01*
X-33226072Y20623604D01*
X-33222396Y20586281D01*
X-33222396Y20035212D01*
X-33287998Y19969610D01*
X-33474073Y20310766D01*
X-33891409Y20526513D01*
X-34339004Y20655597D01*
X-34082321Y20706654D01*
X-33648279Y20886440D01*
X-33257651Y21147450D01*
X-32925450Y21479651D01*
X-32664440Y21870279D01*
X-32484654Y22304321D01*
X-32393000Y22765098D01*
X-32393000Y23234902D01*
X-32484654Y23695679D01*
X-32664440Y24129721D01*
X-32925450Y24520349D01*
X-33257651Y24852550D01*
X-33648279Y25113560D01*
X-34082321Y25293346D01*
X-34367141Y25350000D01*
X-34082321Y25406654D01*
X-33648279Y25586440D01*
X-33257651Y25847450D01*
X-32925450Y26179651D01*
X-32664440Y26570279D01*
X-32484654Y27004321D01*
X-32393000Y27465098D01*
X-32393000Y27934902D01*
X-32484654Y28395679D01*
X-32664440Y28829721D01*
X-32925450Y29220349D01*
X-33257651Y29552550D01*
X-33648279Y29813560D01*
X-34082321Y29993346D01*
X-34543098Y30085000D01*
X-35012902Y30085000D01*
X-35473679Y29993346D01*
X-35907721Y29813560D01*
X-36298349Y29552550D01*
X-36630550Y29220349D01*
X-36891560Y28829721D01*
X-37071346Y28395679D01*
X-37163000Y27934902D01*
X-37163000Y27465098D01*
X-37071346Y27004321D01*
X-36891560Y26570279D01*
X-36630550Y26179651D01*
X-36298349Y25847450D01*
X-35907721Y25586440D01*
X-35473679Y25406654D01*
X-35188859Y25350000D01*
X-35473679Y25293346D01*
X-35907721Y25113560D01*
X-36298349Y24852550D01*
X-36630550Y24520349D01*
X-36891560Y24129721D01*
X-37071346Y23695679D01*
X-37163000Y23234902D01*
X-37163000Y22765098D01*
X-37071346Y22304321D01*
X-36891560Y21870279D01*
X-36630550Y21479651D01*
X-36298349Y21147450D01*
X-35907721Y20886440D01*
X-35473679Y20706654D01*
X-35201192Y20652453D01*
X-35277811Y20643842D01*
X-35725468Y20501297D01*
X-36081927Y20310766D01*
X-36268003Y19969609D01*
X-34778000Y18479605D01*
X-34763858Y18493748D01*
X-34584252Y18314142D01*
X-34598395Y18300000D01*
X-34584252Y18285858D01*
X-34763858Y18106252D01*
X-34778000Y18120395D01*
X-34792142Y18106252D01*
X-34971748Y18285858D01*
X-34957605Y18300000D01*
X-36447609Y19790003D01*
X-36788766Y19603927D01*
X-37004513Y19186591D01*
X-37134696Y18735185D01*
X-37174313Y18267054D01*
X-37121842Y17800189D01*
X-36979297Y17352532D01*
X-36788766Y16996073D01*
X-36768463Y16984999D01*
X-41029679Y16984999D01*
X-41067002Y16988675D01*
X-41104325Y16984999D01*
X-41104334Y16984999D01*
X-41215987Y16974002D01*
X-41359248Y16930545D01*
X-41491278Y16859973D01*
X-41552173Y16809997D01*
X-41607002Y16765000D01*
X-41630800Y16736002D01*
X-43925730Y14441071D01*
X-43954716Y14432278D01*
X-44099608Y14354831D01*
X-44226606Y14250606D01*
X-44330831Y14123608D01*
X-44408278Y13978716D01*
X-44455969Y13821500D01*
X-44472072Y13658000D01*
X-44472072Y12758000D01*
X-44455969Y12594500D01*
X-44408278Y12437284D01*
X-44330831Y12292392D01*
X-44226606Y12165394D01*
X-44099608Y12061169D01*
X-43954716Y11983722D01*
X-43797500Y11936031D01*
X-43634000Y11919928D01*
X-43234000Y11919928D01*
X-43070500Y11936031D01*
X-42913284Y11983722D01*
X-42768392Y12061169D01*
X-42742106Y12082741D01*
X-42581992Y11997159D01*
X-42386894Y11937976D01*
X-42184000Y11917993D01*
X-41981105Y11937976D01*
X-41786007Y11997159D01*
X-41655126Y12067116D01*
X-41639546Y12015754D01*
X-41568974Y11883724D01*
X-41555411Y11867198D01*
X-41474001Y11767999D01*
X-41444997Y11744196D01*
X-38703777Y9002975D01*
X-38679979Y8973977D01*
X-38564254Y8879004D01*
X-38432225Y8808432D01*
X-38288964Y8764975D01*
X-38177311Y8753978D01*
X-38177301Y8753978D01*
X-38139978Y8750302D01*
X-38102655Y8753978D01*
X-12875344Y8753978D01*
X-12838022Y8750302D01*
X-12800700Y8753978D01*
X-12800689Y8753978D01*
X-12689036Y8764975D01*
X-12545775Y8808432D01*
X-12413746Y8879004D01*
X-12298021Y8973977D01*
X-12274218Y9002981D01*
X-11499886Y9777312D01*
X-11317335Y9741000D01*
X-11034665Y9741000D01*
X-10757426Y9796147D01*
X-10496273Y9904320D01*
X-10261241Y10061363D01*
X-10061363Y10261241D01*
X-9905022Y10495222D01*
X-8949796Y9539996D01*
X-8925998Y9510998D01*
X-8810273Y9416025D01*
X-8678244Y9345453D01*
X-8534983Y9301996D01*
X-8423330Y9290999D01*
X-8423321Y9290999D01*
X-8385998Y9287323D01*
X-8348675Y9290999D01*
X6457677Y9290999D01*
X6494999Y9287323D01*
X6532321Y9290999D01*
X6532332Y9290999D01*
X6643985Y9301996D01*
X6787246Y9345453D01*
X6919275Y9416025D01*
X7035000Y9510998D01*
X7058803Y9540001D01*
X7296113Y9777312D01*
X7478665Y9741000D01*
X7761335Y9741000D01*
X8038574Y9796147D01*
X8299727Y9904320D01*
X8534759Y10061363D01*
X8734637Y10261241D01*
X8891680Y10496273D01*
X8999853Y10757426D01*
X9055000Y11034665D01*
X9055000Y11317335D01*
X8999853Y11594574D01*
X8891680Y11855727D01*
X8734637Y12090759D01*
X8534759Y12290637D01*
X8299727Y12447680D01*
X8038574Y12555853D01*
X7761335Y12611000D01*
X7478665Y12611000D01*
X7201426Y12555853D01*
X6940273Y12447680D01*
X6705241Y12290637D01*
X6505363Y12090759D01*
X6348320Y11855727D01*
X6240147Y11594574D01*
X6185000Y11317335D01*
X6185000Y11034665D01*
X6221312Y10852113D01*
X6180198Y10810999D01*
X1390509Y10810999D01*
X1435000Y11034665D01*
X1435000Y11317335D01*
X1398688Y11499886D01*
X2543004Y12644202D01*
X2572001Y12667999D01*
X2608577Y12712567D01*
X2666974Y12783723D01*
X2737546Y12915753D01*
X2742773Y12932985D01*
X2781003Y13059014D01*
X2792000Y13170667D01*
X2792000Y13170677D01*
X2795676Y13208000D01*
X2792000Y13245323D01*
X2792000Y13562187D01*
X2811887Y13572817D01*
X3024608Y13747392D01*
X3199183Y13960113D01*
X3302000Y14152471D01*
X3404817Y13960113D01*
X3579393Y13747392D01*
X3792114Y13572817D01*
X4034806Y13443096D01*
X4298141Y13363214D01*
X4572000Y13336241D01*
X4845860Y13363214D01*
X5109195Y13443096D01*
X5351887Y13572817D01*
X5564608Y13747392D01*
X5739183Y13960113D01*
X5842000Y14152471D01*
X5944817Y13960113D01*
X6119393Y13747392D01*
X6332114Y13572817D01*
X6574806Y13443096D01*
X6838141Y13363214D01*
X7112000Y13336241D01*
X7385860Y13363214D01*
X7649195Y13443096D01*
X7891887Y13572817D01*
X8104608Y13747392D01*
X8279183Y13960113D01*
X8382000Y14152471D01*
X8484817Y13960113D01*
X8659393Y13747392D01*
X8872114Y13572817D01*
X9114806Y13443096D01*
X9378141Y13363214D01*
X9652000Y13336241D01*
X9925860Y13363214D01*
X10189195Y13443096D01*
X10309694Y13507504D01*
X10416001Y13401196D01*
X10416000Y12394044D01*
X10261241Y12290637D01*
X10061363Y12090759D01*
X9904320Y11855727D01*
X9796147Y11594574D01*
X9741000Y11317335D01*
X9741000Y11034665D01*
X9796147Y10757426D01*
X9904320Y10496273D01*
X10061363Y10261241D01*
X10261241Y10061363D01*
X10496273Y9904320D01*
X10757426Y9796147D01*
X11034665Y9741000D01*
X11317335Y9741000D01*
X11594574Y9796147D01*
X11855727Y9904320D01*
X12090759Y10061363D01*
X12290637Y10261241D01*
X12447680Y10496273D01*
X12555853Y10757426D01*
X12611000Y11034665D01*
X12611000Y11317335D01*
X12555853Y11594574D01*
X12447680Y11855727D01*
X12290637Y12090759D01*
X12090759Y12290637D01*
X11936000Y12394043D01*
X11936000Y13678678D01*
X11939676Y13716001D01*
X11936000Y13753324D01*
X11936000Y13753333D01*
X11925003Y13864986D01*
X11881546Y14008247D01*
X11810974Y14140276D01*
X11791510Y14163993D01*
X11739799Y14227004D01*
X11739795Y14227008D01*
X11716001Y14256001D01*
X11687008Y14279795D01*
X11049000Y14917802D01*
X11049000Y15808625D01*
X11028786Y16013860D01*
X10948904Y16277195D01*
X10819183Y16519887D01*
X10644607Y16732608D01*
X10431886Y16907183D01*
X10189194Y17036904D01*
X9925859Y17116786D01*
X9652000Y17143759D01*
X9378140Y17116786D01*
X9114805Y17036904D01*
X8994306Y16972496D01*
X8322823Y17643978D01*
X11253221Y17643978D01*
X17397312Y11499886D01*
X17361000Y11317335D01*
X17361000Y11034665D01*
X17416147Y10757426D01*
X17524320Y10496273D01*
X17681363Y10261241D01*
X17881241Y10061363D01*
X18116273Y9904320D01*
X18377426Y9796147D01*
X18654665Y9741000D01*
X18937335Y9741000D01*
X19214574Y9796147D01*
X19475727Y9904320D01*
X19710759Y10061363D01*
X19910637Y10261241D01*
X20067680Y10496273D01*
X20175853Y10757426D01*
X20231000Y11034665D01*
X20231000Y11317335D01*
X20175853Y11594574D01*
X20067680Y11855727D01*
X19910637Y12090759D01*
X19710759Y12290637D01*
X19475727Y12447680D01*
X19214574Y12555853D01*
X18937335Y12611000D01*
X18654665Y12611000D01*
X18472114Y12574688D01*
X14416411Y16630391D01*
X16731997Y16630391D01*
X16918073Y16289234D01*
X17335409Y16073487D01*
X17786815Y15943304D01*
X18254946Y15903687D01*
X18721811Y15956158D01*
X19169468Y16098703D01*
X19525927Y16289234D01*
X19712003Y16630391D01*
X29731997Y16630391D01*
X29918073Y16289234D01*
X30335409Y16073487D01*
X30786815Y15943304D01*
X31254946Y15903687D01*
X31721811Y15956158D01*
X32169468Y16098703D01*
X32525927Y16289234D01*
X32712003Y16630391D01*
X31222000Y18120395D01*
X29731997Y16630391D01*
X19712003Y16630391D01*
X18222000Y18120395D01*
X16731997Y16630391D01*
X14416411Y16630391D01*
X12779748Y18267054D01*
X15825687Y18267054D01*
X15878158Y17800189D01*
X16020703Y17352532D01*
X16211234Y16996073D01*
X16552391Y16809997D01*
X18042395Y18300000D01*
X18401605Y18300000D01*
X19891609Y16809997D01*
X20232766Y16996073D01*
X20448513Y17413409D01*
X20578696Y17864815D01*
X20618313Y18332946D01*
X20587704Y18605298D01*
X24840903Y18605298D01*
X24912486Y18361329D01*
X25167996Y18240429D01*
X25442184Y18171700D01*
X25724512Y18157783D01*
X26004130Y18199213D01*
X26193833Y18267054D01*
X28825687Y18267054D01*
X28878158Y17800189D01*
X29020703Y17352532D01*
X29211234Y16996073D01*
X29552391Y16809997D01*
X31042395Y18300000D01*
X31401605Y18300000D01*
X32891609Y16809997D01*
X33232766Y16996073D01*
X33448513Y17413409D01*
X33578696Y17864815D01*
X33618313Y18332946D01*
X33565842Y18799811D01*
X33423297Y19247468D01*
X33232766Y19603927D01*
X32891609Y19790003D01*
X31401605Y18300000D01*
X31042395Y18300000D01*
X29552391Y19790003D01*
X29211234Y19603927D01*
X28995487Y19186591D01*
X28865304Y18735185D01*
X28825687Y18267054D01*
X26193833Y18267054D01*
X26270292Y18294397D01*
X26395514Y18361329D01*
X26467097Y18605298D01*
X25654000Y19418395D01*
X24840903Y18605298D01*
X20587704Y18605298D01*
X20565842Y18799811D01*
X20423297Y19247468D01*
X20273624Y19527488D01*
X24213783Y19527488D01*
X24255213Y19247870D01*
X24350397Y18981708D01*
X24417329Y18856486D01*
X24661298Y18784903D01*
X25474395Y19598000D01*
X25833605Y19598000D01*
X26646702Y18784903D01*
X26890671Y18856486D01*
X27011571Y19111996D01*
X27080300Y19386184D01*
X27094217Y19668512D01*
X27052787Y19948130D01*
X26957603Y20214292D01*
X26890671Y20339514D01*
X26646702Y20411097D01*
X25833605Y19598000D01*
X25474395Y19598000D01*
X24661298Y20411097D01*
X24417329Y20339514D01*
X24296429Y20084004D01*
X24227700Y19809816D01*
X24213783Y19527488D01*
X20273624Y19527488D01*
X20232766Y19603927D01*
X19891609Y19790003D01*
X18401605Y18300000D01*
X18042395Y18300000D01*
X16552391Y19790003D01*
X16211234Y19603927D01*
X15995487Y19186591D01*
X15865304Y18735185D01*
X15825687Y18267054D01*
X12779748Y18267054D01*
X12131826Y18914975D01*
X12108023Y18943979D01*
X11992298Y19038952D01*
X11860269Y19109524D01*
X11717008Y19152981D01*
X11605355Y19163978D01*
X11605344Y19163978D01*
X11568022Y19167654D01*
X11530700Y19163978D01*
X6776779Y19163978D01*
X15908833Y28296031D01*
X15837000Y27934902D01*
X15837000Y27465098D01*
X15928654Y27004321D01*
X16108440Y26570279D01*
X16369450Y26179651D01*
X16701651Y25847450D01*
X17092279Y25586440D01*
X17526321Y25406654D01*
X17811141Y25350000D01*
X17526321Y25293346D01*
X17092279Y25113560D01*
X16701651Y24852550D01*
X16369450Y24520349D01*
X16108440Y24129721D01*
X15928654Y23695679D01*
X15837000Y23234902D01*
X15837000Y22765098D01*
X15928654Y22304321D01*
X16108440Y21870279D01*
X16369450Y21479651D01*
X16701651Y21147450D01*
X17092279Y20886440D01*
X17526321Y20706654D01*
X17798808Y20652453D01*
X17722189Y20643842D01*
X17274532Y20501297D01*
X16918073Y20310766D01*
X16731997Y19969609D01*
X18222000Y18479605D01*
X19712003Y19969609D01*
X19525927Y20310766D01*
X19108591Y20526513D01*
X18660996Y20655597D01*
X18917679Y20706654D01*
X19351721Y20886440D01*
X19742349Y21147450D01*
X20074550Y21479651D01*
X20335560Y21870279D01*
X20488427Y22239335D01*
X24219000Y22239335D01*
X24219000Y21956665D01*
X24274147Y21679426D01*
X24382320Y21418273D01*
X24539363Y21183241D01*
X24739241Y20983363D01*
X24939869Y20849308D01*
X24912486Y20834671D01*
X24840903Y20590702D01*
X25654000Y19777605D01*
X26467097Y20590702D01*
X26395514Y20834671D01*
X26366659Y20848324D01*
X26568759Y20983363D01*
X26768637Y21183241D01*
X26925680Y21418273D01*
X27033853Y21679426D01*
X27089000Y21956665D01*
X27089000Y22239335D01*
X27088868Y22240000D01*
X28955297Y22240000D01*
X29108440Y21870279D01*
X29369450Y21479651D01*
X29701651Y21147450D01*
X30092279Y20886440D01*
X30526321Y20706654D01*
X30798808Y20652453D01*
X30722189Y20643842D01*
X30274532Y20501297D01*
X29918073Y20310766D01*
X29731997Y19969609D01*
X31222000Y18479605D01*
X32712003Y19969609D01*
X32525927Y20310766D01*
X32108591Y20526513D01*
X31660996Y20655597D01*
X31917679Y20706654D01*
X32351721Y20886440D01*
X32742349Y21147450D01*
X33074550Y21479651D01*
X33335560Y21870279D01*
X33515346Y22304321D01*
X33607000Y22765098D01*
X33607000Y23234902D01*
X33515346Y23695679D01*
X33335560Y24129721D01*
X33074550Y24520349D01*
X32742349Y24852550D01*
X32351721Y25113560D01*
X31917679Y25293346D01*
X31632859Y25350000D01*
X31917679Y25406654D01*
X32351721Y25586440D01*
X32742349Y25847450D01*
X33074550Y26179651D01*
X33335560Y26570279D01*
X33515346Y27004321D01*
X33607000Y27465098D01*
X33607000Y27934902D01*
X33515346Y28395679D01*
X33335560Y28829721D01*
X33074550Y29220349D01*
X32742349Y29552550D01*
X32351721Y29813560D01*
X31917679Y29993346D01*
X31456902Y30085000D01*
X30987098Y30085000D01*
X30526321Y29993346D01*
X30092279Y29813560D01*
X29701651Y29552550D01*
X29369450Y29220349D01*
X29108440Y28829721D01*
X28928654Y28395679D01*
X28837000Y27934902D01*
X28837000Y27465098D01*
X28928654Y27004321D01*
X29108440Y26570279D01*
X29369450Y26179651D01*
X29701651Y25847450D01*
X30092279Y25586440D01*
X30526321Y25406654D01*
X30811141Y25350000D01*
X30526321Y25293346D01*
X30092279Y25113560D01*
X29701651Y24852550D01*
X29369450Y24520349D01*
X29108440Y24129721D01*
X28955297Y23760000D01*
X26593325Y23760000D01*
X26556000Y23763676D01*
X26518675Y23760000D01*
X26518667Y23760000D01*
X26407014Y23749003D01*
X26263753Y23705546D01*
X26131724Y23634974D01*
X26015999Y23540001D01*
X25992201Y23511003D01*
X25977886Y23496688D01*
X25795335Y23533000D01*
X25512665Y23533000D01*
X25235426Y23477853D01*
X24974273Y23369680D01*
X24739241Y23212637D01*
X24539363Y23012759D01*
X24382320Y22777727D01*
X24274147Y22516574D01*
X24219000Y22239335D01*
X20488427Y22239335D01*
X20515346Y22304321D01*
X20607000Y22765098D01*
X20607000Y23234902D01*
X20515346Y23695679D01*
X20335560Y24129721D01*
X20074550Y24520349D01*
X19742349Y24852550D01*
X19351721Y25113560D01*
X18917679Y25293346D01*
X18632859Y25350000D01*
X18917679Y25406654D01*
X19351721Y25586440D01*
X19742349Y25847450D01*
X20074550Y26179651D01*
X20335560Y26570279D01*
X20515346Y27004321D01*
X20607000Y27465098D01*
X20607000Y27934902D01*
X20515346Y28395679D01*
X20335560Y28829721D01*
X20074550Y29220349D01*
X19742349Y29552550D01*
X19351721Y29813560D01*
X18917679Y29993346D01*
X18456902Y30085000D01*
X17987098Y30085000D01*
X17625969Y30013167D01*
X20178004Y32565202D01*
X20207002Y32589000D01*
X20301975Y32704725D01*
X20372547Y32836754D01*
X20416004Y32980015D01*
X20427001Y33091668D01*
X20430678Y33129001D01*
X20427001Y33166334D01*
X20427001Y35667674D01*
X20430677Y35704999D01*
X20427001Y35742324D01*
X20427001Y35742332D01*
X20416004Y35853985D01*
X20372547Y35997246D01*
X20301975Y36129275D01*
X20207002Y36245000D01*
X20177999Y36268802D01*
X20121804Y36324997D01*
X20098001Y36354001D01*
X19982276Y36448974D01*
X19850247Y36519546D01*
X19706986Y36563003D01*
X19595333Y36574000D01*
X19595322Y36574000D01*
X19558000Y36577676D01*
X19520678Y36574000D01*
X8927322Y36574000D01*
X8889999Y36577676D01*
X8852676Y36574000D01*
X8852667Y36574000D01*
X8741014Y36563003D01*
X8597753Y36519546D01*
X8465724Y36448974D01*
X8349999Y36354001D01*
X8326203Y36325005D01*
X7943886Y35942688D01*
X7761335Y35979000D01*
X7478665Y35979000D01*
X7201426Y35923853D01*
X6940273Y35815680D01*
X6705241Y35658637D01*
X6505363Y35458759D01*
X6348320Y35223727D01*
X6240147Y34962574D01*
X6185000Y34685335D01*
X6185000Y34402665D01*
X6240147Y34125426D01*
X6348320Y33864273D01*
X6505363Y33629241D01*
X6705241Y33429363D01*
X6940273Y33272320D01*
X7201426Y33164147D01*
X7478665Y33109000D01*
X7761335Y33109000D01*
X8038574Y33164147D01*
X8299727Y33272320D01*
X8534759Y33429363D01*
X8734637Y33629241D01*
X8891680Y33864273D01*
X8999853Y34125426D01*
X9055000Y34402665D01*
X9055000Y34685335D01*
X9018688Y34867886D01*
X9204802Y35054000D01*
X9580017Y35054000D01*
X9542147Y34962574D01*
X9487000Y34685335D01*
X9487000Y34402665D01*
X9523312Y34220114D01*
X7596183Y32292985D01*
X7385859Y32356786D01*
X7112000Y32383759D01*
X6838140Y32356786D01*
X6574805Y32276904D01*
X6332113Y32147183D01*
X6119392Y31972607D01*
X5944817Y31759886D01*
X5842000Y31567529D01*
X5739183Y31759887D01*
X5564607Y31972608D01*
X5351886Y32147183D01*
X5332000Y32157812D01*
X5332000Y34506678D01*
X5335676Y34544001D01*
X5332000Y34581324D01*
X5332000Y34581333D01*
X5321003Y34692986D01*
X5277546Y34836247D01*
X5206974Y34968276D01*
X5112001Y35084001D01*
X5083003Y35107799D01*
X3560792Y36630009D01*
X3536989Y36659013D01*
X3421264Y36753986D01*
X3289235Y36824558D01*
X3145974Y36868015D01*
X3034321Y36879012D01*
X3034310Y36879012D01*
X2996988Y36882688D01*
X2959666Y36879012D01*
X-5442659Y36879012D01*
X-5479984Y36882688D01*
X-5517309Y36879012D01*
X-5517317Y36879012D01*
X-5628970Y36868015D01*
X-5772231Y36824558D01*
X-5904260Y36753986D01*
X-6019985Y36659013D01*
X-6043783Y36630015D01*
X-6264788Y36409010D01*
X-6308063Y36473776D01*
X-6452226Y36617939D01*
X-6621744Y36731207D01*
X-6810102Y36809228D01*
X-7010061Y36849002D01*
X-7072199Y36849002D01*
X-7456194Y37232997D01*
X-7479996Y37262000D01*
X-7483652Y37265000D01*
X35061269Y37264999D01*
X35848747Y37194718D01*
X36579643Y36994768D01*
X37263575Y36668549D01*
X37878928Y36226373D01*
X38406256Y35682212D01*
X38828889Y35053270D01*
X39133462Y34359432D01*
X39311714Y33616961D01*
X39358999Y32973051D01*
X39359001Y13032741D01*
X39288719Y12245251D01*
X39088769Y11514356D01*
X38762550Y10830424D01*
X38320374Y10215071D01*
X37776211Y9687740D01*
X37147274Y9265113D01*
X36453429Y8960535D01*
X35710961Y8782285D01*
X35067051Y8734999D01*
X-44967258Y8734999D01*
X-45754748Y8805281D01*
X-46485643Y9005231D01*
X-47169575Y9331450D01*
X-47784928Y9773626D01*
X-48312259Y10317789D01*
X-48734886Y10946726D01*
X-49039464Y11640571D01*
X-49217714Y12383039D01*
X-49265001Y13026963D01*
X-49265001Y19445335D01*
X-42583000Y19445335D01*
X-42583000Y19162665D01*
X-42527853Y18885426D01*
X-42419680Y18624273D01*
X-42262637Y18389241D01*
X-42062759Y18189363D01*
X-41827727Y18032320D01*
X-41566574Y17924147D01*
X-41289335Y17869000D01*
X-41006665Y17869000D01*
X-40729426Y17924147D01*
X-40468273Y18032320D01*
X-40233241Y18189363D01*
X-40033363Y18389241D01*
X-39876320Y18624273D01*
X-39768147Y18885426D01*
X-39713000Y19162665D01*
X-39713000Y19445335D01*
X-39768147Y19722574D01*
X-39876320Y19983727D01*
X-40033363Y20218759D01*
X-40233241Y20418637D01*
X-40468273Y20575680D01*
X-40729426Y20683853D01*
X-41006665Y20739000D01*
X-41289335Y20739000D01*
X-41566574Y20683853D01*
X-41827727Y20575680D01*
X-42062759Y20418637D01*
X-42262637Y20218759D01*
X-42419680Y19983727D01*
X-42527853Y19722574D01*
X-42583000Y19445335D01*
X-49265001Y19445335D01*
X-49264999Y32967280D01*
X-49194719Y33754747D01*
X-48994769Y34485643D01*
X-48668550Y35169575D01*
X-48226374Y35784928D01*
X-47682211Y36312259D01*
X-47053274Y36734886D01*
X-46359430Y37039463D01*
X-45616961Y37217715D01*
X-44973037Y37265001D01*
X-38998345Y37265001D01*
X-39002002Y37262000D01*
G37*
X-39002002Y37262000D02*
X-39025800Y37233002D01*
X-40805729Y35453072D01*
X-41644000Y35453072D01*
X-41768482Y35440812D01*
X-41888180Y35404502D01*
X-41998494Y35345537D01*
X-42095185Y35266185D01*
X-42174537Y35169494D01*
X-42233502Y35059180D01*
X-42269812Y34939482D01*
X-42282072Y34815000D01*
X-42282072Y33765000D01*
X-42273588Y33678860D01*
X-42318276Y33654974D01*
X-42434001Y33560001D01*
X-42457804Y33530997D01*
X-42480012Y33508789D01*
X-42509010Y33484991D01*
X-42532808Y33455993D01*
X-42532809Y33455992D01*
X-42603984Y33369266D01*
X-42674556Y33237236D01*
X-42695259Y33168985D01*
X-42713454Y33109000D01*
X-42718012Y33093975D01*
X-42732686Y32944990D01*
X-42729009Y32907658D01*
X-42729010Y27782333D01*
X-42732686Y27745010D01*
X-42729010Y27707688D01*
X-42729010Y27707678D01*
X-42718013Y27596025D01*
X-42680979Y27473937D01*
X-42674556Y27452764D01*
X-42603984Y27320734D01*
X-42564799Y27272987D01*
X-42546202Y27250327D01*
X-42583000Y27065335D01*
X-42583000Y26782665D01*
X-42527853Y26505426D01*
X-42419680Y26244273D01*
X-42262637Y26009241D01*
X-42062759Y25809363D01*
X-41827727Y25652320D01*
X-41566574Y25544147D01*
X-41289335Y25489000D01*
X-41006665Y25489000D01*
X-40729426Y25544147D01*
X-40468273Y25652320D01*
X-40233241Y25809363D01*
X-40033363Y26009241D01*
X-39876320Y26244273D01*
X-39768147Y26505426D01*
X-39713000Y26782665D01*
X-39713000Y27065335D01*
X-39768147Y27342574D01*
X-39876320Y27603727D01*
X-40033363Y27838759D01*
X-40233241Y28038637D01*
X-40468273Y28195680D01*
X-40729426Y28303853D01*
X-41006665Y28359000D01*
X-41209010Y28359000D01*
X-41209010Y30584448D01*
X-41204507Y30583669D01*
X-41021000Y30743402D01*
X-41021000Y31623000D01*
X-40767000Y31623000D01*
X-40767000Y30743402D01*
X-40583493Y30583669D01*
X-40357596Y30622761D01*
X-40143666Y30705172D01*
X-39949924Y30827736D01*
X-39783816Y30985742D01*
X-39651725Y31173118D01*
X-39558728Y31382663D01*
X-39550036Y31444190D01*
X-39675837Y31623000D01*
X-40767000Y31623000D01*
X-41021000Y31623000D01*
X-41041000Y31623000D01*
X-41041000Y31860000D01*
X-40612021Y31860000D01*
X-40441600Y31876785D01*
X-40440891Y31877000D01*
X-39675837Y31877000D01*
X-39550036Y32055810D01*
X-39558728Y32117337D01*
X-39651725Y32326882D01*
X-39692929Y32385331D01*
X-39592115Y32573940D01*
X-39525785Y32792600D01*
X-39503388Y33020000D01*
X-39525785Y33247400D01*
X-39589093Y33456098D01*
X-39554498Y33520820D01*
X-39518188Y33640518D01*
X-39505928Y33765000D01*
X-39505928Y34603271D01*
X-38147199Y35961999D01*
X-29882803Y35961999D01*
X-30391729Y35453072D01*
X-31230000Y35453072D01*
X-31354482Y35440812D01*
X-31474180Y35404502D01*
X-31584494Y35345537D01*
X-31681185Y35266185D01*
X-31760537Y35169494D01*
X-31819502Y35059180D01*
X-31855812Y34939482D01*
X-31868072Y34815000D01*
X-31868072Y33765000D01*
X-31859588Y33678860D01*
X-31904276Y33654974D01*
X-32020001Y33560001D01*
X-32043804Y33530997D01*
X-32261002Y33313799D01*
X-32290000Y33290001D01*
X-32313798Y33261003D01*
X-32313799Y33261002D01*
X-32384974Y33174276D01*
X-32455546Y33042246D01*
X-32474423Y32980015D01*
X-32493740Y32916331D01*
X-32499002Y32898985D01*
X-32513676Y32750000D01*
X-32509999Y32712668D01*
X-32510000Y30009323D01*
X-32513676Y29972000D01*
X-32510000Y29934678D01*
X-32510000Y29934668D01*
X-32499003Y29823015D01*
X-32484272Y29774454D01*
X-32455546Y29679754D01*
X-32384974Y29547724D01*
X-32345129Y29499174D01*
X-32290001Y29431999D01*
X-32260997Y29408196D01*
X-29846688Y26993886D01*
X-29883000Y26811335D01*
X-29883000Y26528665D01*
X-29827853Y26251426D01*
X-29719680Y25990273D01*
X-29562637Y25755241D01*
X-29362759Y25555363D01*
X-29127727Y25398320D01*
X-28869459Y25291342D01*
X-32973393Y21187408D01*
X-33002397Y21163605D01*
X-33034951Y21123937D01*
X-33097370Y21047880D01*
X-33167941Y20915851D01*
X-33167942Y20915850D01*
X-33211399Y20772589D01*
X-33222396Y20660936D01*
X-33222396Y20660926D01*
X-33226072Y20623604D01*
X-33222396Y20586281D01*
X-33222396Y20035212D01*
X-33287998Y19969610D01*
X-33474073Y20310766D01*
X-33891409Y20526513D01*
X-34339004Y20655597D01*
X-34082321Y20706654D01*
X-33648279Y20886440D01*
X-33257651Y21147450D01*
X-32925450Y21479651D01*
X-32664440Y21870279D01*
X-32484654Y22304321D01*
X-32393000Y22765098D01*
X-32393000Y23234902D01*
X-32484654Y23695679D01*
X-32664440Y24129721D01*
X-32925450Y24520349D01*
X-33257651Y24852550D01*
X-33648279Y25113560D01*
X-34082321Y25293346D01*
X-34367141Y25350000D01*
X-34082321Y25406654D01*
X-33648279Y25586440D01*
X-33257651Y25847450D01*
X-32925450Y26179651D01*
X-32664440Y26570279D01*
X-32484654Y27004321D01*
X-32393000Y27465098D01*
X-32393000Y27934902D01*
X-32484654Y28395679D01*
X-32664440Y28829721D01*
X-32925450Y29220349D01*
X-33257651Y29552550D01*
X-33648279Y29813560D01*
X-34082321Y29993346D01*
X-34543098Y30085000D01*
X-35012902Y30085000D01*
X-35473679Y29993346D01*
X-35907721Y29813560D01*
X-36298349Y29552550D01*
X-36630550Y29220349D01*
X-36891560Y28829721D01*
X-37071346Y28395679D01*
X-37163000Y27934902D01*
X-37163000Y27465098D01*
X-37071346Y27004321D01*
X-36891560Y26570279D01*
X-36630550Y26179651D01*
X-36298349Y25847450D01*
X-35907721Y25586440D01*
X-35473679Y25406654D01*
X-35188859Y25350000D01*
X-35473679Y25293346D01*
X-35907721Y25113560D01*
X-36298349Y24852550D01*
X-36630550Y24520349D01*
X-36891560Y24129721D01*
X-37071346Y23695679D01*
X-37163000Y23234902D01*
X-37163000Y22765098D01*
X-37071346Y22304321D01*
X-36891560Y21870279D01*
X-36630550Y21479651D01*
X-36298349Y21147450D01*
X-35907721Y20886440D01*
X-35473679Y20706654D01*
X-35201192Y20652453D01*
X-35277811Y20643842D01*
X-35725468Y20501297D01*
X-36081927Y20310766D01*
X-36268003Y19969609D01*
X-34778000Y18479605D01*
X-34763858Y18493748D01*
X-34584252Y18314142D01*
X-34598395Y18300000D01*
X-34584252Y18285858D01*
X-34763858Y18106252D01*
X-34778000Y18120395D01*
X-34792142Y18106252D01*
X-34971748Y18285858D01*
X-34957605Y18300000D01*
X-36447609Y19790003D01*
X-36788766Y19603927D01*
X-37004513Y19186591D01*
X-37134696Y18735185D01*
X-37174313Y18267054D01*
X-37121842Y17800189D01*
X-36979297Y17352532D01*
X-36788766Y16996073D01*
X-36768463Y16984999D01*
X-41029679Y16984999D01*
X-41067002Y16988675D01*
X-41104325Y16984999D01*
X-41104334Y16984999D01*
X-41215987Y16974002D01*
X-41359248Y16930545D01*
X-41491278Y16859973D01*
X-41552173Y16809997D01*
X-41607002Y16765000D01*
X-41630800Y16736002D01*
X-43925730Y14441071D01*
X-43954716Y14432278D01*
X-44099608Y14354831D01*
X-44226606Y14250606D01*
X-44330831Y14123608D01*
X-44408278Y13978716D01*
X-44455969Y13821500D01*
X-44472072Y13658000D01*
X-44472072Y12758000D01*
X-44455969Y12594500D01*
X-44408278Y12437284D01*
X-44330831Y12292392D01*
X-44226606Y12165394D01*
X-44099608Y12061169D01*
X-43954716Y11983722D01*
X-43797500Y11936031D01*
X-43634000Y11919928D01*
X-43234000Y11919928D01*
X-43070500Y11936031D01*
X-42913284Y11983722D01*
X-42768392Y12061169D01*
X-42742106Y12082741D01*
X-42581992Y11997159D01*
X-42386894Y11937976D01*
X-42184000Y11917993D01*
X-41981105Y11937976D01*
X-41786007Y11997159D01*
X-41655126Y12067116D01*
X-41639546Y12015754D01*
X-41568974Y11883724D01*
X-41555411Y11867198D01*
X-41474001Y11767999D01*
X-41444997Y11744196D01*
X-38703777Y9002975D01*
X-38679979Y8973977D01*
X-38564254Y8879004D01*
X-38432225Y8808432D01*
X-38288964Y8764975D01*
X-38177311Y8753978D01*
X-38177301Y8753978D01*
X-38139978Y8750302D01*
X-38102655Y8753978D01*
X-12875344Y8753978D01*
X-12838022Y8750302D01*
X-12800700Y8753978D01*
X-12800689Y8753978D01*
X-12689036Y8764975D01*
X-12545775Y8808432D01*
X-12413746Y8879004D01*
X-12298021Y8973977D01*
X-12274218Y9002981D01*
X-11499886Y9777312D01*
X-11317335Y9741000D01*
X-11034665Y9741000D01*
X-10757426Y9796147D01*
X-10496273Y9904320D01*
X-10261241Y10061363D01*
X-10061363Y10261241D01*
X-9905022Y10495222D01*
X-8949796Y9539996D01*
X-8925998Y9510998D01*
X-8810273Y9416025D01*
X-8678244Y9345453D01*
X-8534983Y9301996D01*
X-8423330Y9290999D01*
X-8423321Y9290999D01*
X-8385998Y9287323D01*
X-8348675Y9290999D01*
X6457677Y9290999D01*
X6494999Y9287323D01*
X6532321Y9290999D01*
X6532332Y9290999D01*
X6643985Y9301996D01*
X6787246Y9345453D01*
X6919275Y9416025D01*
X7035000Y9510998D01*
X7058803Y9540001D01*
X7296113Y9777312D01*
X7478665Y9741000D01*
X7761335Y9741000D01*
X8038574Y9796147D01*
X8299727Y9904320D01*
X8534759Y10061363D01*
X8734637Y10261241D01*
X8891680Y10496273D01*
X8999853Y10757426D01*
X9055000Y11034665D01*
X9055000Y11317335D01*
X8999853Y11594574D01*
X8891680Y11855727D01*
X8734637Y12090759D01*
X8534759Y12290637D01*
X8299727Y12447680D01*
X8038574Y12555853D01*
X7761335Y12611000D01*
X7478665Y12611000D01*
X7201426Y12555853D01*
X6940273Y12447680D01*
X6705241Y12290637D01*
X6505363Y12090759D01*
X6348320Y11855727D01*
X6240147Y11594574D01*
X6185000Y11317335D01*
X6185000Y11034665D01*
X6221312Y10852113D01*
X6180198Y10810999D01*
X1390509Y10810999D01*
X1435000Y11034665D01*
X1435000Y11317335D01*
X1398688Y11499886D01*
X2543004Y12644202D01*
X2572001Y12667999D01*
X2608577Y12712567D01*
X2666974Y12783723D01*
X2737546Y12915753D01*
X2742773Y12932985D01*
X2781003Y13059014D01*
X2792000Y13170667D01*
X2792000Y13170677D01*
X2795676Y13208000D01*
X2792000Y13245323D01*
X2792000Y13562187D01*
X2811887Y13572817D01*
X3024608Y13747392D01*
X3199183Y13960113D01*
X3302000Y14152471D01*
X3404817Y13960113D01*
X3579393Y13747392D01*
X3792114Y13572817D01*
X4034806Y13443096D01*
X4298141Y13363214D01*
X4572000Y13336241D01*
X4845860Y13363214D01*
X5109195Y13443096D01*
X5351887Y13572817D01*
X5564608Y13747392D01*
X5739183Y13960113D01*
X5842000Y14152471D01*
X5944817Y13960113D01*
X6119393Y13747392D01*
X6332114Y13572817D01*
X6574806Y13443096D01*
X6838141Y13363214D01*
X7112000Y13336241D01*
X7385860Y13363214D01*
X7649195Y13443096D01*
X7891887Y13572817D01*
X8104608Y13747392D01*
X8279183Y13960113D01*
X8382000Y14152471D01*
X8484817Y13960113D01*
X8659393Y13747392D01*
X8872114Y13572817D01*
X9114806Y13443096D01*
X9378141Y13363214D01*
X9652000Y13336241D01*
X9925860Y13363214D01*
X10189195Y13443096D01*
X10309694Y13507504D01*
X10416001Y13401196D01*
X10416000Y12394044D01*
X10261241Y12290637D01*
X10061363Y12090759D01*
X9904320Y11855727D01*
X9796147Y11594574D01*
X9741000Y11317335D01*
X9741000Y11034665D01*
X9796147Y10757426D01*
X9904320Y10496273D01*
X10061363Y10261241D01*
X10261241Y10061363D01*
X10496273Y9904320D01*
X10757426Y9796147D01*
X11034665Y9741000D01*
X11317335Y9741000D01*
X11594574Y9796147D01*
X11855727Y9904320D01*
X12090759Y10061363D01*
X12290637Y10261241D01*
X12447680Y10496273D01*
X12555853Y10757426D01*
X12611000Y11034665D01*
X12611000Y11317335D01*
X12555853Y11594574D01*
X12447680Y11855727D01*
X12290637Y12090759D01*
X12090759Y12290637D01*
X11936000Y12394043D01*
X11936000Y13678678D01*
X11939676Y13716001D01*
X11936000Y13753324D01*
X11936000Y13753333D01*
X11925003Y13864986D01*
X11881546Y14008247D01*
X11810974Y14140276D01*
X11791510Y14163993D01*
X11739799Y14227004D01*
X11739795Y14227008D01*
X11716001Y14256001D01*
X11687008Y14279795D01*
X11049000Y14917802D01*
X11049000Y15808625D01*
X11028786Y16013860D01*
X10948904Y16277195D01*
X10819183Y16519887D01*
X10644607Y16732608D01*
X10431886Y16907183D01*
X10189194Y17036904D01*
X9925859Y17116786D01*
X9652000Y17143759D01*
X9378140Y17116786D01*
X9114805Y17036904D01*
X8994306Y16972496D01*
X8322823Y17643978D01*
X11253221Y17643978D01*
X17397312Y11499886D01*
X17361000Y11317335D01*
X17361000Y11034665D01*
X17416147Y10757426D01*
X17524320Y10496273D01*
X17681363Y10261241D01*
X17881241Y10061363D01*
X18116273Y9904320D01*
X18377426Y9796147D01*
X18654665Y9741000D01*
X18937335Y9741000D01*
X19214574Y9796147D01*
X19475727Y9904320D01*
X19710759Y10061363D01*
X19910637Y10261241D01*
X20067680Y10496273D01*
X20175853Y10757426D01*
X20231000Y11034665D01*
X20231000Y11317335D01*
X20175853Y11594574D01*
X20067680Y11855727D01*
X19910637Y12090759D01*
X19710759Y12290637D01*
X19475727Y12447680D01*
X19214574Y12555853D01*
X18937335Y12611000D01*
X18654665Y12611000D01*
X18472114Y12574688D01*
X14416411Y16630391D01*
X16731997Y16630391D01*
X16918073Y16289234D01*
X17335409Y16073487D01*
X17786815Y15943304D01*
X18254946Y15903687D01*
X18721811Y15956158D01*
X19169468Y16098703D01*
X19525927Y16289234D01*
X19712003Y16630391D01*
X29731997Y16630391D01*
X29918073Y16289234D01*
X30335409Y16073487D01*
X30786815Y15943304D01*
X31254946Y15903687D01*
X31721811Y15956158D01*
X32169468Y16098703D01*
X32525927Y16289234D01*
X32712003Y16630391D01*
X31222000Y18120395D01*
X29731997Y16630391D01*
X19712003Y16630391D01*
X18222000Y18120395D01*
X16731997Y16630391D01*
X14416411Y16630391D01*
X12779748Y18267054D01*
X15825687Y18267054D01*
X15878158Y17800189D01*
X16020703Y17352532D01*
X16211234Y16996073D01*
X16552391Y16809997D01*
X18042395Y18300000D01*
X18401605Y18300000D01*
X19891609Y16809997D01*
X20232766Y16996073D01*
X20448513Y17413409D01*
X20578696Y17864815D01*
X20618313Y18332946D01*
X20587704Y18605298D01*
X24840903Y18605298D01*
X24912486Y18361329D01*
X25167996Y18240429D01*
X25442184Y18171700D01*
X25724512Y18157783D01*
X26004130Y18199213D01*
X26193833Y18267054D01*
X28825687Y18267054D01*
X28878158Y17800189D01*
X29020703Y17352532D01*
X29211234Y16996073D01*
X29552391Y16809997D01*
X31042395Y18300000D01*
X31401605Y18300000D01*
X32891609Y16809997D01*
X33232766Y16996073D01*
X33448513Y17413409D01*
X33578696Y17864815D01*
X33618313Y18332946D01*
X33565842Y18799811D01*
X33423297Y19247468D01*
X33232766Y19603927D01*
X32891609Y19790003D01*
X31401605Y18300000D01*
X31042395Y18300000D01*
X29552391Y19790003D01*
X29211234Y19603927D01*
X28995487Y19186591D01*
X28865304Y18735185D01*
X28825687Y18267054D01*
X26193833Y18267054D01*
X26270292Y18294397D01*
X26395514Y18361329D01*
X26467097Y18605298D01*
X25654000Y19418395D01*
X24840903Y18605298D01*
X20587704Y18605298D01*
X20565842Y18799811D01*
X20423297Y19247468D01*
X20273624Y19527488D01*
X24213783Y19527488D01*
X24255213Y19247870D01*
X24350397Y18981708D01*
X24417329Y18856486D01*
X24661298Y18784903D01*
X25474395Y19598000D01*
X25833605Y19598000D01*
X26646702Y18784903D01*
X26890671Y18856486D01*
X27011571Y19111996D01*
X27080300Y19386184D01*
X27094217Y19668512D01*
X27052787Y19948130D01*
X26957603Y20214292D01*
X26890671Y20339514D01*
X26646702Y20411097D01*
X25833605Y19598000D01*
X25474395Y19598000D01*
X24661298Y20411097D01*
X24417329Y20339514D01*
X24296429Y20084004D01*
X24227700Y19809816D01*
X24213783Y19527488D01*
X20273624Y19527488D01*
X20232766Y19603927D01*
X19891609Y19790003D01*
X18401605Y18300000D01*
X18042395Y18300000D01*
X16552391Y19790003D01*
X16211234Y19603927D01*
X15995487Y19186591D01*
X15865304Y18735185D01*
X15825687Y18267054D01*
X12779748Y18267054D01*
X12131826Y18914975D01*
X12108023Y18943979D01*
X11992298Y19038952D01*
X11860269Y19109524D01*
X11717008Y19152981D01*
X11605355Y19163978D01*
X11605344Y19163978D01*
X11568022Y19167654D01*
X11530700Y19163978D01*
X6776779Y19163978D01*
X15908833Y28296031D01*
X15837000Y27934902D01*
X15837000Y27465098D01*
X15928654Y27004321D01*
X16108440Y26570279D01*
X16369450Y26179651D01*
X16701651Y25847450D01*
X17092279Y25586440D01*
X17526321Y25406654D01*
X17811141Y25350000D01*
X17526321Y25293346D01*
X17092279Y25113560D01*
X16701651Y24852550D01*
X16369450Y24520349D01*
X16108440Y24129721D01*
X15928654Y23695679D01*
X15837000Y23234902D01*
X15837000Y22765098D01*
X15928654Y22304321D01*
X16108440Y21870279D01*
X16369450Y21479651D01*
X16701651Y21147450D01*
X17092279Y20886440D01*
X17526321Y20706654D01*
X17798808Y20652453D01*
X17722189Y20643842D01*
X17274532Y20501297D01*
X16918073Y20310766D01*
X16731997Y19969609D01*
X18222000Y18479605D01*
X19712003Y19969609D01*
X19525927Y20310766D01*
X19108591Y20526513D01*
X18660996Y20655597D01*
X18917679Y20706654D01*
X19351721Y20886440D01*
X19742349Y21147450D01*
X20074550Y21479651D01*
X20335560Y21870279D01*
X20488427Y22239335D01*
X24219000Y22239335D01*
X24219000Y21956665D01*
X24274147Y21679426D01*
X24382320Y21418273D01*
X24539363Y21183241D01*
X24739241Y20983363D01*
X24939869Y20849308D01*
X24912486Y20834671D01*
X24840903Y20590702D01*
X25654000Y19777605D01*
X26467097Y20590702D01*
X26395514Y20834671D01*
X26366659Y20848324D01*
X26568759Y20983363D01*
X26768637Y21183241D01*
X26925680Y21418273D01*
X27033853Y21679426D01*
X27089000Y21956665D01*
X27089000Y22239335D01*
X27088868Y22240000D01*
X28955297Y22240000D01*
X29108440Y21870279D01*
X29369450Y21479651D01*
X29701651Y21147450D01*
X30092279Y20886440D01*
X30526321Y20706654D01*
X30798808Y20652453D01*
X30722189Y20643842D01*
X30274532Y20501297D01*
X29918073Y20310766D01*
X29731997Y19969609D01*
X31222000Y18479605D01*
X32712003Y19969609D01*
X32525927Y20310766D01*
X32108591Y20526513D01*
X31660996Y20655597D01*
X31917679Y20706654D01*
X32351721Y20886440D01*
X32742349Y21147450D01*
X33074550Y21479651D01*
X33335560Y21870279D01*
X33515346Y22304321D01*
X33607000Y22765098D01*
X33607000Y23234902D01*
X33515346Y23695679D01*
X33335560Y24129721D01*
X33074550Y24520349D01*
X32742349Y24852550D01*
X32351721Y25113560D01*
X31917679Y25293346D01*
X31632859Y25350000D01*
X31917679Y25406654D01*
X32351721Y25586440D01*
X32742349Y25847450D01*
X33074550Y26179651D01*
X33335560Y26570279D01*
X33515346Y27004321D01*
X33607000Y27465098D01*
X33607000Y27934902D01*
X33515346Y28395679D01*
X33335560Y28829721D01*
X33074550Y29220349D01*
X32742349Y29552550D01*
X32351721Y29813560D01*
X31917679Y29993346D01*
X31456902Y30085000D01*
X30987098Y30085000D01*
X30526321Y29993346D01*
X30092279Y29813560D01*
X29701651Y29552550D01*
X29369450Y29220349D01*
X29108440Y28829721D01*
X28928654Y28395679D01*
X28837000Y27934902D01*
X28837000Y27465098D01*
X28928654Y27004321D01*
X29108440Y26570279D01*
X29369450Y26179651D01*
X29701651Y25847450D01*
X30092279Y25586440D01*
X30526321Y25406654D01*
X30811141Y25350000D01*
X30526321Y25293346D01*
X30092279Y25113560D01*
X29701651Y24852550D01*
X29369450Y24520349D01*
X29108440Y24129721D01*
X28955297Y23760000D01*
X26593325Y23760000D01*
X26556000Y23763676D01*
X26518675Y23760000D01*
X26518667Y23760000D01*
X26407014Y23749003D01*
X26263753Y23705546D01*
X26131724Y23634974D01*
X26015999Y23540001D01*
X25992201Y23511003D01*
X25977886Y23496688D01*
X25795335Y23533000D01*
X25512665Y23533000D01*
X25235426Y23477853D01*
X24974273Y23369680D01*
X24739241Y23212637D01*
X24539363Y23012759D01*
X24382320Y22777727D01*
X24274147Y22516574D01*
X24219000Y22239335D01*
X20488427Y22239335D01*
X20515346Y22304321D01*
X20607000Y22765098D01*
X20607000Y23234902D01*
X20515346Y23695679D01*
X20335560Y24129721D01*
X20074550Y24520349D01*
X19742349Y24852550D01*
X19351721Y25113560D01*
X18917679Y25293346D01*
X18632859Y25350000D01*
X18917679Y25406654D01*
X19351721Y25586440D01*
X19742349Y25847450D01*
X20074550Y26179651D01*
X20335560Y26570279D01*
X20515346Y27004321D01*
X20607000Y27465098D01*
X20607000Y27934902D01*
X20515346Y28395679D01*
X20335560Y28829721D01*
X20074550Y29220349D01*
X19742349Y29552550D01*
X19351721Y29813560D01*
X18917679Y29993346D01*
X18456902Y30085000D01*
X17987098Y30085000D01*
X17625969Y30013167D01*
X20178004Y32565202D01*
X20207002Y32589000D01*
X20301975Y32704725D01*
X20372547Y32836754D01*
X20416004Y32980015D01*
X20427001Y33091668D01*
X20430678Y33129001D01*
X20427001Y33166334D01*
X20427001Y35667674D01*
X20430677Y35704999D01*
X20427001Y35742324D01*
X20427001Y35742332D01*
X20416004Y35853985D01*
X20372547Y35997246D01*
X20301975Y36129275D01*
X20207002Y36245000D01*
X20177999Y36268802D01*
X20121804Y36324997D01*
X20098001Y36354001D01*
X19982276Y36448974D01*
X19850247Y36519546D01*
X19706986Y36563003D01*
X19595333Y36574000D01*
X19595322Y36574000D01*
X19558000Y36577676D01*
X19520678Y36574000D01*
X8927322Y36574000D01*
X8889999Y36577676D01*
X8852676Y36574000D01*
X8852667Y36574000D01*
X8741014Y36563003D01*
X8597753Y36519546D01*
X8465724Y36448974D01*
X8349999Y36354001D01*
X8326203Y36325005D01*
X7943886Y35942688D01*
X7761335Y35979000D01*
X7478665Y35979000D01*
X7201426Y35923853D01*
X6940273Y35815680D01*
X6705241Y35658637D01*
X6505363Y35458759D01*
X6348320Y35223727D01*
X6240147Y34962574D01*
X6185000Y34685335D01*
X6185000Y34402665D01*
X6240147Y34125426D01*
X6348320Y33864273D01*
X6505363Y33629241D01*
X6705241Y33429363D01*
X6940273Y33272320D01*
X7201426Y33164147D01*
X7478665Y33109000D01*
X7761335Y33109000D01*
X8038574Y33164147D01*
X8299727Y33272320D01*
X8534759Y33429363D01*
X8734637Y33629241D01*
X8891680Y33864273D01*
X8999853Y34125426D01*
X9055000Y34402665D01*
X9055000Y34685335D01*
X9018688Y34867886D01*
X9204802Y35054000D01*
X9580017Y35054000D01*
X9542147Y34962574D01*
X9487000Y34685335D01*
X9487000Y34402665D01*
X9523312Y34220114D01*
X7596183Y32292985D01*
X7385859Y32356786D01*
X7112000Y32383759D01*
X6838140Y32356786D01*
X6574805Y32276904D01*
X6332113Y32147183D01*
X6119392Y31972607D01*
X5944817Y31759886D01*
X5842000Y31567529D01*
X5739183Y31759887D01*
X5564607Y31972608D01*
X5351886Y32147183D01*
X5332000Y32157812D01*
X5332000Y34506678D01*
X5335676Y34544001D01*
X5332000Y34581324D01*
X5332000Y34581333D01*
X5321003Y34692986D01*
X5277546Y34836247D01*
X5206974Y34968276D01*
X5112001Y35084001D01*
X5083003Y35107799D01*
X3560792Y36630009D01*
X3536989Y36659013D01*
X3421264Y36753986D01*
X3289235Y36824558D01*
X3145974Y36868015D01*
X3034321Y36879012D01*
X3034310Y36879012D01*
X2996988Y36882688D01*
X2959666Y36879012D01*
X-5442659Y36879012D01*
X-5479984Y36882688D01*
X-5517309Y36879012D01*
X-5517317Y36879012D01*
X-5628970Y36868015D01*
X-5772231Y36824558D01*
X-5904260Y36753986D01*
X-6019985Y36659013D01*
X-6043783Y36630015D01*
X-6264788Y36409010D01*
X-6308063Y36473776D01*
X-6452226Y36617939D01*
X-6621744Y36731207D01*
X-6810102Y36809228D01*
X-7010061Y36849002D01*
X-7072199Y36849002D01*
X-7456194Y37232997D01*
X-7479996Y37262000D01*
X-7483652Y37265000D01*
X35061269Y37264999D01*
X35848747Y37194718D01*
X36579643Y36994768D01*
X37263575Y36668549D01*
X37878928Y36226373D01*
X38406256Y35682212D01*
X38828889Y35053270D01*
X39133462Y34359432D01*
X39311714Y33616961D01*
X39358999Y32973051D01*
X39359001Y13032741D01*
X39288719Y12245251D01*
X39088769Y11514356D01*
X38762550Y10830424D01*
X38320374Y10215071D01*
X37776211Y9687740D01*
X37147274Y9265113D01*
X36453429Y8960535D01*
X35710961Y8782285D01*
X35067051Y8734999D01*
X-44967258Y8734999D01*
X-45754748Y8805281D01*
X-46485643Y9005231D01*
X-47169575Y9331450D01*
X-47784928Y9773626D01*
X-48312259Y10317789D01*
X-48734886Y10946726D01*
X-49039464Y11640571D01*
X-49217714Y12383039D01*
X-49265001Y13026963D01*
X-49265001Y19445335D01*
X-42583000Y19445335D01*
X-42583000Y19162665D01*
X-42527853Y18885426D01*
X-42419680Y18624273D01*
X-42262637Y18389241D01*
X-42062759Y18189363D01*
X-41827727Y18032320D01*
X-41566574Y17924147D01*
X-41289335Y17869000D01*
X-41006665Y17869000D01*
X-40729426Y17924147D01*
X-40468273Y18032320D01*
X-40233241Y18189363D01*
X-40033363Y18389241D01*
X-39876320Y18624273D01*
X-39768147Y18885426D01*
X-39713000Y19162665D01*
X-39713000Y19445335D01*
X-39768147Y19722574D01*
X-39876320Y19983727D01*
X-40033363Y20218759D01*
X-40233241Y20418637D01*
X-40468273Y20575680D01*
X-40729426Y20683853D01*
X-41006665Y20739000D01*
X-41289335Y20739000D01*
X-41566574Y20683853D01*
X-41827727Y20575680D01*
X-42062759Y20418637D01*
X-42262637Y20218759D01*
X-42419680Y19983727D01*
X-42527853Y19722574D01*
X-42583000Y19445335D01*
X-49265001Y19445335D01*
X-49264999Y32967280D01*
X-49194719Y33754747D01*
X-48994769Y34485643D01*
X-48668550Y35169575D01*
X-48226374Y35784928D01*
X-47682211Y36312259D01*
X-47053274Y36734886D01*
X-46359430Y37039463D01*
X-45616961Y37217715D01*
X-44973037Y37265001D01*
X-38998345Y37265001D01*
X-39002002Y37262000D01*
G36*
X-14608072Y14914729D02*
G01*
X-14735002Y14787799D01*
X-14764000Y14764001D01*
X-14787798Y14735003D01*
X-14787799Y14735002D01*
X-14858974Y14648276D01*
X-14929546Y14516246D01*
X-14945094Y14464989D01*
X-14973002Y14372986D01*
X-14981376Y14287964D01*
X-14987676Y14224000D01*
X-14983999Y14186668D01*
X-14984000Y12394044D01*
X-15138759Y12290637D01*
X-15338637Y12090759D01*
X-15495680Y11855727D01*
X-15603853Y11594574D01*
X-15659000Y11317335D01*
X-15659000Y11034665D01*
X-15603853Y10757426D01*
X-15590003Y10723989D01*
X-20477997Y10723989D01*
X-20464147Y10757426D01*
X-20409000Y11034665D01*
X-20409000Y11317335D01*
X-20464147Y11594574D01*
X-20572320Y11855727D01*
X-20729363Y12090759D01*
X-20929241Y12290637D01*
X-21164273Y12447680D01*
X-21425426Y12555853D01*
X-21702665Y12611000D01*
X-21985335Y12611000D01*
X-22262574Y12555853D01*
X-22523727Y12447680D01*
X-22758759Y12290637D01*
X-22958637Y12090759D01*
X-23115680Y11855727D01*
X-23223853Y11594574D01*
X-23279000Y11317335D01*
X-23279000Y11174000D01*
X-36225197Y11174000D01*
X-36988451Y11937253D01*
X-36981105Y11937976D01*
X-36786007Y11997159D01*
X-36606203Y12093266D01*
X-36559000Y12132005D01*
X-36511796Y12093266D01*
X-36331992Y11997159D01*
X-36136894Y11937976D01*
X-35934000Y11917993D01*
X-35731105Y11937976D01*
X-35536007Y11997159D01*
X-35356203Y12093266D01*
X-35309000Y12132005D01*
X-35261796Y12093266D01*
X-35081992Y11997159D01*
X-34886894Y11937976D01*
X-34684000Y11917993D01*
X-34481105Y11937976D01*
X-34286007Y11997159D01*
X-34106203Y12093266D01*
X-34059000Y12132005D01*
X-34011796Y12093266D01*
X-33831992Y11997159D01*
X-33636894Y11937976D01*
X-33434000Y11917993D01*
X-33231105Y11937976D01*
X-33036007Y11997159D01*
X-32856203Y12093266D01*
X-32809000Y12132005D01*
X-32761796Y12093266D01*
X-32581992Y11997159D01*
X-32386894Y11937976D01*
X-32184000Y11917993D01*
X-31981105Y11937976D01*
X-31786007Y11997159D01*
X-31606203Y12093266D01*
X-31559000Y12132005D01*
X-31511796Y12093266D01*
X-31331992Y11997159D01*
X-31136894Y11937976D01*
X-30934000Y11917993D01*
X-30731105Y11937976D01*
X-30536007Y11997159D01*
X-30356203Y12093266D01*
X-30309000Y12132005D01*
X-30261796Y12093266D01*
X-30081992Y11997159D01*
X-29886894Y11937976D01*
X-29684000Y11917993D01*
X-29481105Y11937976D01*
X-29286007Y11997159D01*
X-29106203Y12093266D01*
X-29059000Y12132005D01*
X-29011796Y12093266D01*
X-28831992Y11997159D01*
X-28636894Y11937976D01*
X-28434000Y11917993D01*
X-28231105Y11937976D01*
X-28036007Y11997159D01*
X-27856203Y12093266D01*
X-27809000Y12132005D01*
X-27761796Y12093266D01*
X-27581992Y11997159D01*
X-27386894Y11937976D01*
X-27184000Y11917993D01*
X-26981105Y11937976D01*
X-26786007Y11997159D01*
X-26606203Y12093266D01*
X-26566062Y12126209D01*
X-26482160Y12062745D01*
X-26296972Y11973006D01*
X-26220123Y11963334D01*
X-26061000Y12091002D01*
X-26061000Y13081000D01*
X-25807000Y13081000D01*
X-25807000Y12091002D01*
X-25647877Y11963334D01*
X-25571028Y11973006D01*
X-25385840Y12062745D01*
X-25221717Y12186888D01*
X-25084967Y12340664D01*
X-24980845Y12518164D01*
X-24913352Y12712567D01*
X-24885082Y12916401D01*
X-25050238Y13081000D01*
X-25807000Y13081000D01*
X-26061000Y13081000D01*
X-26081000Y13081000D01*
X-26081000Y13335000D01*
X-26061000Y13335000D01*
X-26061000Y13355000D01*
X-25807000Y13355000D01*
X-25807000Y13335000D01*
X-25050238Y13335000D01*
X-24961930Y13423010D01*
X-17093493Y13423009D01*
X-17056170Y13419333D01*
X-17018848Y13423009D01*
X-17018838Y13423009D01*
X-16907185Y13434006D01*
X-16763924Y13477463D01*
X-16763920Y13477465D01*
X-16631894Y13548035D01*
X-16545168Y13619210D01*
X-16516170Y13643008D01*
X-16492371Y13672007D01*
X-14608072Y15556305D01*
X-14608072Y14914729D01*
G37*
X-14608072Y14914729D02*
X-14735002Y14787799D01*
X-14764000Y14764001D01*
X-14787798Y14735003D01*
X-14787799Y14735002D01*
X-14858974Y14648276D01*
X-14929546Y14516246D01*
X-14945094Y14464989D01*
X-14973002Y14372986D01*
X-14981376Y14287964D01*
X-14987676Y14224000D01*
X-14983999Y14186668D01*
X-14984000Y12394044D01*
X-15138759Y12290637D01*
X-15338637Y12090759D01*
X-15495680Y11855727D01*
X-15603853Y11594574D01*
X-15659000Y11317335D01*
X-15659000Y11034665D01*
X-15603853Y10757426D01*
X-15590003Y10723989D01*
X-20477997Y10723989D01*
X-20464147Y10757426D01*
X-20409000Y11034665D01*
X-20409000Y11317335D01*
X-20464147Y11594574D01*
X-20572320Y11855727D01*
X-20729363Y12090759D01*
X-20929241Y12290637D01*
X-21164273Y12447680D01*
X-21425426Y12555853D01*
X-21702665Y12611000D01*
X-21985335Y12611000D01*
X-22262574Y12555853D01*
X-22523727Y12447680D01*
X-22758759Y12290637D01*
X-22958637Y12090759D01*
X-23115680Y11855727D01*
X-23223853Y11594574D01*
X-23279000Y11317335D01*
X-23279000Y11174000D01*
X-36225197Y11174000D01*
X-36988451Y11937253D01*
X-36981105Y11937976D01*
X-36786007Y11997159D01*
X-36606203Y12093266D01*
X-36559000Y12132005D01*
X-36511796Y12093266D01*
X-36331992Y11997159D01*
X-36136894Y11937976D01*
X-35934000Y11917993D01*
X-35731105Y11937976D01*
X-35536007Y11997159D01*
X-35356203Y12093266D01*
X-35309000Y12132005D01*
X-35261796Y12093266D01*
X-35081992Y11997159D01*
X-34886894Y11937976D01*
X-34684000Y11917993D01*
X-34481105Y11937976D01*
X-34286007Y11997159D01*
X-34106203Y12093266D01*
X-34059000Y12132005D01*
X-34011796Y12093266D01*
X-33831992Y11997159D01*
X-33636894Y11937976D01*
X-33434000Y11917993D01*
X-33231105Y11937976D01*
X-33036007Y11997159D01*
X-32856203Y12093266D01*
X-32809000Y12132005D01*
X-32761796Y12093266D01*
X-32581992Y11997159D01*
X-32386894Y11937976D01*
X-32184000Y11917993D01*
X-31981105Y11937976D01*
X-31786007Y11997159D01*
X-31606203Y12093266D01*
X-31559000Y12132005D01*
X-31511796Y12093266D01*
X-31331992Y11997159D01*
X-31136894Y11937976D01*
X-30934000Y11917993D01*
X-30731105Y11937976D01*
X-30536007Y11997159D01*
X-30356203Y12093266D01*
X-30309000Y12132005D01*
X-30261796Y12093266D01*
X-30081992Y11997159D01*
X-29886894Y11937976D01*
X-29684000Y11917993D01*
X-29481105Y11937976D01*
X-29286007Y11997159D01*
X-29106203Y12093266D01*
X-29059000Y12132005D01*
X-29011796Y12093266D01*
X-28831992Y11997159D01*
X-28636894Y11937976D01*
X-28434000Y11917993D01*
X-28231105Y11937976D01*
X-28036007Y11997159D01*
X-27856203Y12093266D01*
X-27809000Y12132005D01*
X-27761796Y12093266D01*
X-27581992Y11997159D01*
X-27386894Y11937976D01*
X-27184000Y11917993D01*
X-26981105Y11937976D01*
X-26786007Y11997159D01*
X-26606203Y12093266D01*
X-26566062Y12126209D01*
X-26482160Y12062745D01*
X-26296972Y11973006D01*
X-26220123Y11963334D01*
X-26061000Y12091002D01*
X-26061000Y13081000D01*
X-25807000Y13081000D01*
X-25807000Y12091002D01*
X-25647877Y11963334D01*
X-25571028Y11973006D01*
X-25385840Y12062745D01*
X-25221717Y12186888D01*
X-25084967Y12340664D01*
X-24980845Y12518164D01*
X-24913352Y12712567D01*
X-24885082Y12916401D01*
X-25050238Y13081000D01*
X-25807000Y13081000D01*
X-26061000Y13081000D01*
X-26081000Y13081000D01*
X-26081000Y13335000D01*
X-26061000Y13335000D01*
X-26061000Y13355000D01*
X-25807000Y13355000D01*
X-25807000Y13335000D01*
X-25050238Y13335000D01*
X-24961930Y13423010D01*
X-17093493Y13423009D01*
X-17056170Y13419333D01*
X-17018848Y13423009D01*
X-17018838Y13423009D01*
X-16907185Y13434006D01*
X-16763924Y13477463D01*
X-16763920Y13477465D01*
X-16631894Y13548035D01*
X-16545168Y13619210D01*
X-16516170Y13643008D01*
X-16492371Y13672007D01*
X-14608072Y15556305D01*
X-14608072Y14914729D01*
G36*
X-6755183Y13960113D02*
G01*
X-6580607Y13747392D01*
X-6367886Y13572817D01*
X-6348000Y13562188D01*
X-6348000Y13245323D01*
X-6351676Y13208000D01*
X-6348000Y13170678D01*
X-6348000Y13170668D01*
X-6337003Y13059015D01*
X-6309090Y12966998D01*
X-6293546Y12915754D01*
X-6222974Y12783724D01*
X-6183129Y12735174D01*
X-6128001Y12667999D01*
X-6098997Y12644196D01*
X-4954688Y11499886D01*
X-4991000Y11317335D01*
X-4991000Y11034665D01*
X-4946509Y10810999D01*
X-8071195Y10810999D01*
X-10072195Y12811998D01*
X-10095998Y12841002D01*
X-10161603Y12894843D01*
X-10068760Y12903987D01*
X-9925499Y12947444D01*
X-9793470Y13018016D01*
X-9677745Y13112989D01*
X-9653943Y13141992D01*
X-9081026Y13714908D01*
X-8907886Y13572817D01*
X-8665194Y13443096D01*
X-8401859Y13363214D01*
X-8128000Y13336241D01*
X-7854140Y13363214D01*
X-7590805Y13443096D01*
X-7348113Y13572817D01*
X-7135392Y13747392D01*
X-6960817Y13960113D01*
X-6858000Y14152471D01*
X-6755183Y13960113D01*
G37*
X-6755183Y13960113D02*
X-6580607Y13747392D01*
X-6367886Y13572817D01*
X-6348000Y13562188D01*
X-6348000Y13245323D01*
X-6351676Y13208000D01*
X-6348000Y13170678D01*
X-6348000Y13170668D01*
X-6337003Y13059015D01*
X-6309090Y12966998D01*
X-6293546Y12915754D01*
X-6222974Y12783724D01*
X-6183129Y12735174D01*
X-6128001Y12667999D01*
X-6098997Y12644196D01*
X-4954688Y11499886D01*
X-4991000Y11317335D01*
X-4991000Y11034665D01*
X-4946509Y10810999D01*
X-8071195Y10810999D01*
X-10072195Y12811998D01*
X-10095998Y12841002D01*
X-10161603Y12894843D01*
X-10068760Y12903987D01*
X-9925499Y12947444D01*
X-9793470Y13018016D01*
X-9677745Y13112989D01*
X-9653943Y13141992D01*
X-9081026Y13714908D01*
X-8907886Y13572817D01*
X-8665194Y13443096D01*
X-8401859Y13363214D01*
X-8128000Y13336241D01*
X-7854140Y13363214D01*
X-7590805Y13443096D01*
X-7348113Y13572817D01*
X-7135392Y13747392D01*
X-6960817Y13960113D01*
X-6858000Y14152471D01*
X-6755183Y13960113D01*
G36*
X-15405000Y34402665D02*
G01*
X-15349853Y34125426D01*
X-15241680Y33864273D01*
X-15084637Y33629241D01*
X-14884759Y33429363D01*
X-14649727Y33272320D01*
X-14388574Y33164147D01*
X-14111335Y33109000D01*
X-13828665Y33109000D01*
X-13646113Y33145312D01*
X-13327811Y32827010D01*
X-13620931Y32827010D01*
X-13658254Y32830686D01*
X-13695577Y32827010D01*
X-13695587Y32827010D01*
X-13807240Y32816013D01*
X-13933688Y32777656D01*
X-13950501Y32772556D01*
X-14082531Y32701984D01*
X-14166171Y32633342D01*
X-14198255Y32607011D01*
X-14222054Y32578012D01*
X-14806012Y31994053D01*
X-14835010Y31970255D01*
X-14858808Y31941257D01*
X-14858809Y31941256D01*
X-14929984Y31854530D01*
X-15000556Y31722500D01*
X-15017611Y31666275D01*
X-15044012Y31579240D01*
X-15053491Y31483003D01*
X-15058686Y31430254D01*
X-15055009Y31392922D01*
X-15055010Y29567069D01*
X-15058686Y29529746D01*
X-15055010Y29492424D01*
X-15055010Y29492414D01*
X-15044013Y29380761D01*
X-15009339Y29266454D01*
X-15000556Y29237500D01*
X-14929984Y29105470D01*
X-14916696Y29089279D01*
X-14835011Y28989745D01*
X-14806007Y28965942D01*
X-12724065Y26883999D01*
X-12700266Y26855000D01*
X-12584541Y26760027D01*
X-12452512Y26689455D01*
X-12309251Y26645998D01*
X-12197598Y26635001D01*
X-12197589Y26635001D01*
X-12160266Y26631325D01*
X-12122943Y26635001D01*
X-9163000Y26635001D01*
X-9163000Y26568061D01*
X-9123226Y26368102D01*
X-9045205Y26179744D01*
X-8931937Y26010226D01*
X-8888000Y25966289D01*
X-8887999Y21023712D01*
X-8931937Y20979774D01*
X-9045205Y20810256D01*
X-9123226Y20621898D01*
X-9163000Y20421939D01*
X-9163000Y20318000D01*
X-13170677Y20318000D01*
X-13208000Y20321676D01*
X-13245323Y20318000D01*
X-13245333Y20318000D01*
X-13356986Y20307003D01*
X-13472041Y20272102D01*
X-13500247Y20263546D01*
X-13632277Y20192974D01*
X-13715917Y20124332D01*
X-13748001Y20098001D01*
X-13771799Y20069003D01*
X-17041802Y16798999D01*
X-20097391Y16798999D01*
X-20108390Y16809998D01*
X-19767234Y16996073D01*
X-19551487Y17413409D01*
X-19421304Y17864815D01*
X-19381687Y18332946D01*
X-19434158Y18799811D01*
X-19576703Y19247468D01*
X-19767234Y19603927D01*
X-20108391Y19790003D01*
X-21598395Y18300000D01*
X-21584252Y18285858D01*
X-21763858Y18106252D01*
X-21778000Y18120395D01*
X-21792142Y18106252D01*
X-21971748Y18285858D01*
X-21957605Y18300000D01*
X-23447609Y19790003D01*
X-23788766Y19603927D01*
X-24004513Y19186591D01*
X-24134696Y18735185D01*
X-24174313Y18267054D01*
X-24121842Y17800189D01*
X-23979297Y17352532D01*
X-23788766Y16996073D01*
X-23447610Y16809998D01*
X-23458609Y16798999D01*
X-28145948Y16798999D01*
X-28220245Y16859973D01*
X-28352274Y16930545D01*
X-28495535Y16974002D01*
X-28607188Y16984999D01*
X-28607199Y16984999D01*
X-28644521Y16988675D01*
X-28681843Y16984999D01*
X-31967842Y16984999D01*
X-31802622Y17095395D01*
X-31658459Y17239558D01*
X-31545191Y17409076D01*
X-31467170Y17597434D01*
X-31427396Y17797393D01*
X-31427396Y18001271D01*
X-31467170Y18201230D01*
X-31545191Y18389588D01*
X-31658459Y18559106D01*
X-31702396Y18603043D01*
X-31702396Y20308803D01*
X-31184059Y20827140D01*
X-31184058Y19629683D01*
X-31227996Y19585745D01*
X-31341264Y19416227D01*
X-31419285Y19227869D01*
X-31459059Y19027910D01*
X-31459059Y18824032D01*
X-31419285Y18624073D01*
X-31341264Y18435715D01*
X-31227996Y18266197D01*
X-31083833Y18122034D01*
X-30914315Y18008766D01*
X-30725957Y17930745D01*
X-30525998Y17890971D01*
X-30322120Y17890971D01*
X-30122161Y17930745D01*
X-29933803Y18008766D01*
X-29764285Y18122034D01*
X-29638116Y18248203D01*
X-29562637Y18135241D01*
X-29362759Y17935363D01*
X-29127727Y17778320D01*
X-28866574Y17670147D01*
X-28589335Y17615000D01*
X-28306665Y17615000D01*
X-28029426Y17670147D01*
X-27768273Y17778320D01*
X-27533241Y17935363D01*
X-27333363Y18135241D01*
X-27176320Y18370273D01*
X-27068147Y18631426D01*
X-27013000Y18908665D01*
X-27013000Y19191335D01*
X-27068147Y19468574D01*
X-27176320Y19729727D01*
X-27333363Y19964759D01*
X-27533241Y20164637D01*
X-27768273Y20321680D01*
X-28029426Y20429853D01*
X-28306665Y20485000D01*
X-28589335Y20485000D01*
X-28866574Y20429853D01*
X-29127727Y20321680D01*
X-29362759Y20164637D01*
X-29562637Y19964759D01*
X-29664059Y19812970D01*
X-29664059Y21710730D01*
X-24120973Y27253815D01*
X-24071346Y27004321D01*
X-23891560Y26570279D01*
X-23630550Y26179651D01*
X-23298349Y25847450D01*
X-22907721Y25586440D01*
X-22473679Y25406654D01*
X-22188859Y25350000D01*
X-22473679Y25293346D01*
X-22907721Y25113560D01*
X-23298349Y24852550D01*
X-23630550Y24520349D01*
X-23891560Y24129721D01*
X-24071346Y23695679D01*
X-24163000Y23234902D01*
X-24163000Y22765098D01*
X-24071346Y22304321D01*
X-23891560Y21870279D01*
X-23630550Y21479651D01*
X-23298349Y21147450D01*
X-22907721Y20886440D01*
X-22473679Y20706654D01*
X-22201192Y20652453D01*
X-22277811Y20643842D01*
X-22725468Y20501297D01*
X-23081927Y20310766D01*
X-23268003Y19969609D01*
X-21778000Y18479605D01*
X-20287997Y19969609D01*
X-20474073Y20310766D01*
X-20891409Y20526513D01*
X-21339004Y20655597D01*
X-21082321Y20706654D01*
X-20648279Y20886440D01*
X-20257651Y21147450D01*
X-19925450Y21479651D01*
X-19664440Y21870279D01*
X-19484654Y22304321D01*
X-19393000Y22765098D01*
X-19393000Y23234902D01*
X-19484654Y23695679D01*
X-19664440Y24129721D01*
X-19925450Y24520349D01*
X-20257651Y24852550D01*
X-20648279Y25113560D01*
X-21082321Y25293346D01*
X-21367141Y25350000D01*
X-21082321Y25406654D01*
X-20648279Y25586440D01*
X-20257651Y25847450D01*
X-19925450Y26179651D01*
X-19664440Y26570279D01*
X-19484654Y27004321D01*
X-19393000Y27465098D01*
X-19393000Y27934902D01*
X-19484654Y28395679D01*
X-19664440Y28829721D01*
X-19925450Y29220349D01*
X-20257651Y29552550D01*
X-20648279Y29813560D01*
X-21082321Y29993346D01*
X-21331815Y30042973D01*
X-16770799Y34603989D01*
X-15405000Y34603989D01*
X-15405000Y34402665D01*
G37*
X-15405000Y34402665D02*
X-15349853Y34125426D01*
X-15241680Y33864273D01*
X-15084637Y33629241D01*
X-14884759Y33429363D01*
X-14649727Y33272320D01*
X-14388574Y33164147D01*
X-14111335Y33109000D01*
X-13828665Y33109000D01*
X-13646113Y33145312D01*
X-13327811Y32827010D01*
X-13620931Y32827010D01*
X-13658254Y32830686D01*
X-13695577Y32827010D01*
X-13695587Y32827010D01*
X-13807240Y32816013D01*
X-13933688Y32777656D01*
X-13950501Y32772556D01*
X-14082531Y32701984D01*
X-14166171Y32633342D01*
X-14198255Y32607011D01*
X-14222054Y32578012D01*
X-14806012Y31994053D01*
X-14835010Y31970255D01*
X-14858808Y31941257D01*
X-14858809Y31941256D01*
X-14929984Y31854530D01*
X-15000556Y31722500D01*
X-15017611Y31666275D01*
X-15044012Y31579240D01*
X-15053491Y31483003D01*
X-15058686Y31430254D01*
X-15055009Y31392922D01*
X-15055010Y29567069D01*
X-15058686Y29529746D01*
X-15055010Y29492424D01*
X-15055010Y29492414D01*
X-15044013Y29380761D01*
X-15009339Y29266454D01*
X-15000556Y29237500D01*
X-14929984Y29105470D01*
X-14916696Y29089279D01*
X-14835011Y28989745D01*
X-14806007Y28965942D01*
X-12724065Y26883999D01*
X-12700266Y26855000D01*
X-12584541Y26760027D01*
X-12452512Y26689455D01*
X-12309251Y26645998D01*
X-12197598Y26635001D01*
X-12197589Y26635001D01*
X-12160266Y26631325D01*
X-12122943Y26635001D01*
X-9163000Y26635001D01*
X-9163000Y26568061D01*
X-9123226Y26368102D01*
X-9045205Y26179744D01*
X-8931937Y26010226D01*
X-8888000Y25966289D01*
X-8887999Y21023712D01*
X-8931937Y20979774D01*
X-9045205Y20810256D01*
X-9123226Y20621898D01*
X-9163000Y20421939D01*
X-9163000Y20318000D01*
X-13170677Y20318000D01*
X-13208000Y20321676D01*
X-13245323Y20318000D01*
X-13245333Y20318000D01*
X-13356986Y20307003D01*
X-13472041Y20272102D01*
X-13500247Y20263546D01*
X-13632277Y20192974D01*
X-13715917Y20124332D01*
X-13748001Y20098001D01*
X-13771799Y20069003D01*
X-17041802Y16798999D01*
X-20097391Y16798999D01*
X-20108390Y16809998D01*
X-19767234Y16996073D01*
X-19551487Y17413409D01*
X-19421304Y17864815D01*
X-19381687Y18332946D01*
X-19434158Y18799811D01*
X-19576703Y19247468D01*
X-19767234Y19603927D01*
X-20108391Y19790003D01*
X-21598395Y18300000D01*
X-21584252Y18285858D01*
X-21763858Y18106252D01*
X-21778000Y18120395D01*
X-21792142Y18106252D01*
X-21971748Y18285858D01*
X-21957605Y18300000D01*
X-23447609Y19790003D01*
X-23788766Y19603927D01*
X-24004513Y19186591D01*
X-24134696Y18735185D01*
X-24174313Y18267054D01*
X-24121842Y17800189D01*
X-23979297Y17352532D01*
X-23788766Y16996073D01*
X-23447610Y16809998D01*
X-23458609Y16798999D01*
X-28145948Y16798999D01*
X-28220245Y16859973D01*
X-28352274Y16930545D01*
X-28495535Y16974002D01*
X-28607188Y16984999D01*
X-28607199Y16984999D01*
X-28644521Y16988675D01*
X-28681843Y16984999D01*
X-31967842Y16984999D01*
X-31802622Y17095395D01*
X-31658459Y17239558D01*
X-31545191Y17409076D01*
X-31467170Y17597434D01*
X-31427396Y17797393D01*
X-31427396Y18001271D01*
X-31467170Y18201230D01*
X-31545191Y18389588D01*
X-31658459Y18559106D01*
X-31702396Y18603043D01*
X-31702396Y20308803D01*
X-31184059Y20827140D01*
X-31184058Y19629683D01*
X-31227996Y19585745D01*
X-31341264Y19416227D01*
X-31419285Y19227869D01*
X-31459059Y19027910D01*
X-31459059Y18824032D01*
X-31419285Y18624073D01*
X-31341264Y18435715D01*
X-31227996Y18266197D01*
X-31083833Y18122034D01*
X-30914315Y18008766D01*
X-30725957Y17930745D01*
X-30525998Y17890971D01*
X-30322120Y17890971D01*
X-30122161Y17930745D01*
X-29933803Y18008766D01*
X-29764285Y18122034D01*
X-29638116Y18248203D01*
X-29562637Y18135241D01*
X-29362759Y17935363D01*
X-29127727Y17778320D01*
X-28866574Y17670147D01*
X-28589335Y17615000D01*
X-28306665Y17615000D01*
X-28029426Y17670147D01*
X-27768273Y17778320D01*
X-27533241Y17935363D01*
X-27333363Y18135241D01*
X-27176320Y18370273D01*
X-27068147Y18631426D01*
X-27013000Y18908665D01*
X-27013000Y19191335D01*
X-27068147Y19468574D01*
X-27176320Y19729727D01*
X-27333363Y19964759D01*
X-27533241Y20164637D01*
X-27768273Y20321680D01*
X-28029426Y20429853D01*
X-28306665Y20485000D01*
X-28589335Y20485000D01*
X-28866574Y20429853D01*
X-29127727Y20321680D01*
X-29362759Y20164637D01*
X-29562637Y19964759D01*
X-29664059Y19812970D01*
X-29664059Y21710730D01*
X-24120973Y27253815D01*
X-24071346Y27004321D01*
X-23891560Y26570279D01*
X-23630550Y26179651D01*
X-23298349Y25847450D01*
X-22907721Y25586440D01*
X-22473679Y25406654D01*
X-22188859Y25350000D01*
X-22473679Y25293346D01*
X-22907721Y25113560D01*
X-23298349Y24852550D01*
X-23630550Y24520349D01*
X-23891560Y24129721D01*
X-24071346Y23695679D01*
X-24163000Y23234902D01*
X-24163000Y22765098D01*
X-24071346Y22304321D01*
X-23891560Y21870279D01*
X-23630550Y21479651D01*
X-23298349Y21147450D01*
X-22907721Y20886440D01*
X-22473679Y20706654D01*
X-22201192Y20652453D01*
X-22277811Y20643842D01*
X-22725468Y20501297D01*
X-23081927Y20310766D01*
X-23268003Y19969609D01*
X-21778000Y18479605D01*
X-20287997Y19969609D01*
X-20474073Y20310766D01*
X-20891409Y20526513D01*
X-21339004Y20655597D01*
X-21082321Y20706654D01*
X-20648279Y20886440D01*
X-20257651Y21147450D01*
X-19925450Y21479651D01*
X-19664440Y21870279D01*
X-19484654Y22304321D01*
X-19393000Y22765098D01*
X-19393000Y23234902D01*
X-19484654Y23695679D01*
X-19664440Y24129721D01*
X-19925450Y24520349D01*
X-20257651Y24852550D01*
X-20648279Y25113560D01*
X-21082321Y25293346D01*
X-21367141Y25350000D01*
X-21082321Y25406654D01*
X-20648279Y25586440D01*
X-20257651Y25847450D01*
X-19925450Y26179651D01*
X-19664440Y26570279D01*
X-19484654Y27004321D01*
X-19393000Y27465098D01*
X-19393000Y27934902D01*
X-19484654Y28395679D01*
X-19664440Y28829721D01*
X-19925450Y29220349D01*
X-20257651Y29552550D01*
X-20648279Y29813560D01*
X-21082321Y29993346D01*
X-21331815Y30042973D01*
X-16770799Y34603989D01*
X-15405000Y34603989D01*
X-15405000Y34402665D01*
G36*
X3537000Y27787945D02*
G01*
X3537000Y27584067D01*
X3576774Y27384108D01*
X3654795Y27195750D01*
X3768063Y27026232D01*
X3812001Y26982294D01*
X3812000Y21277711D01*
X3768063Y21233774D01*
X3654795Y21064256D01*
X3576774Y20875898D01*
X3537000Y20675939D01*
X3537000Y20472061D01*
X3567644Y20318000D01*
X-7093000Y20318000D01*
X-7093000Y20421939D01*
X-7132774Y20621898D01*
X-7210795Y20810256D01*
X-7324063Y20979774D01*
X-7368000Y21023711D01*
X-7368000Y25966289D01*
X-7324063Y26010226D01*
X-7210795Y26179744D01*
X-7132774Y26368102D01*
X-7103955Y26512987D01*
X-5412544Y26512987D01*
X-5489205Y26398256D01*
X-5567226Y26209898D01*
X-5607000Y26009939D01*
X-5607000Y25806061D01*
X-5567226Y25606102D01*
X-5489205Y25417744D01*
X-5375937Y25248226D01*
X-5231774Y25104063D01*
X-5062256Y24990795D01*
X-4873898Y24912774D01*
X-4673939Y24873000D01*
X-4470061Y24873000D01*
X-4270102Y24912774D01*
X-4081744Y24990795D01*
X-3912226Y25104063D01*
X-3868289Y25148000D01*
X-1307322Y25148000D01*
X-1270000Y25144324D01*
X-1232678Y25148000D01*
X-1232667Y25148000D01*
X-1121014Y25158997D01*
X-977753Y25202454D01*
X-845724Y25273026D01*
X-729999Y25367999D01*
X-706196Y25397003D01*
X1801805Y27905003D01*
X3560284Y27905003D01*
X3537000Y27787945D01*
G37*
X3537000Y27787945D02*
X3537000Y27584067D01*
X3576774Y27384108D01*
X3654795Y27195750D01*
X3768063Y27026232D01*
X3812001Y26982294D01*
X3812000Y21277711D01*
X3768063Y21233774D01*
X3654795Y21064256D01*
X3576774Y20875898D01*
X3537000Y20675939D01*
X3537000Y20472061D01*
X3567644Y20318000D01*
X-7093000Y20318000D01*
X-7093000Y20421939D01*
X-7132774Y20621898D01*
X-7210795Y20810256D01*
X-7324063Y20979774D01*
X-7368000Y21023711D01*
X-7368000Y25966289D01*
X-7324063Y26010226D01*
X-7210795Y26179744D01*
X-7132774Y26368102D01*
X-7103955Y26512987D01*
X-5412544Y26512987D01*
X-5489205Y26398256D01*
X-5567226Y26209898D01*
X-5607000Y26009939D01*
X-5607000Y25806061D01*
X-5567226Y25606102D01*
X-5489205Y25417744D01*
X-5375937Y25248226D01*
X-5231774Y25104063D01*
X-5062256Y24990795D01*
X-4873898Y24912774D01*
X-4673939Y24873000D01*
X-4470061Y24873000D01*
X-4270102Y24912774D01*
X-4081744Y24990795D01*
X-3912226Y25104063D01*
X-3868289Y25148000D01*
X-1307322Y25148000D01*
X-1270000Y25144324D01*
X-1232678Y25148000D01*
X-1232667Y25148000D01*
X-1121014Y25158997D01*
X-977753Y25202454D01*
X-845724Y25273026D01*
X-729999Y25367999D01*
X-706196Y25397003D01*
X1801805Y27905003D01*
X3560284Y27905003D01*
X3537000Y27787945D01*
G36*
X17162147Y34962574D02*
G01*
X17107000Y34685335D01*
X17107000Y34402665D01*
X17162147Y34125426D01*
X17270320Y33864273D01*
X17427363Y33629241D01*
X17555586Y33501018D01*
X5332140Y21277571D01*
X5332000Y21277711D01*
X5332000Y26982295D01*
X5375937Y27026232D01*
X5489205Y27195750D01*
X5567226Y27384108D01*
X5607000Y27584067D01*
X5607000Y27787945D01*
X5573816Y27954775D01*
X5589250Y27959457D01*
X5721279Y28030029D01*
X5837004Y28125002D01*
X5860806Y28154005D01*
X6454306Y28747504D01*
X6574806Y28683096D01*
X6838141Y28603214D01*
X7112000Y28576241D01*
X7385860Y28603214D01*
X7649195Y28683096D01*
X7891887Y28812817D01*
X8104608Y28987392D01*
X8279183Y29200113D01*
X8382000Y29392471D01*
X8484817Y29200113D01*
X8659393Y28987392D01*
X8872114Y28812817D01*
X9114806Y28683096D01*
X9378141Y28603214D01*
X9652000Y28576241D01*
X9925860Y28603214D01*
X10189195Y28683096D01*
X10431887Y28812817D01*
X10644608Y28987392D01*
X10819183Y29200113D01*
X10948904Y29442805D01*
X11028786Y29706140D01*
X11049000Y29911375D01*
X11049000Y31048625D01*
X11028786Y31253860D01*
X10948904Y31517195D01*
X10819183Y31759887D01*
X10644607Y31972608D01*
X10431886Y32147183D01*
X10189194Y32276904D01*
X9925859Y32356786D01*
X9820013Y32367211D01*
X10598114Y33145312D01*
X10780665Y33109000D01*
X11063335Y33109000D01*
X11340574Y33164147D01*
X11601727Y33272320D01*
X11836759Y33429363D01*
X12036637Y33629241D01*
X12193680Y33864273D01*
X12301853Y34125426D01*
X12357000Y34402665D01*
X12357000Y34685335D01*
X12301853Y34962574D01*
X12263983Y35054000D01*
X17200017Y35054000D01*
X17162147Y34962574D01*
G37*
X17162147Y34962574D02*
X17107000Y34685335D01*
X17107000Y34402665D01*
X17162147Y34125426D01*
X17270320Y33864273D01*
X17427363Y33629241D01*
X17555586Y33501018D01*
X5332140Y21277571D01*
X5332000Y21277711D01*
X5332000Y26982295D01*
X5375937Y27026232D01*
X5489205Y27195750D01*
X5567226Y27384108D01*
X5607000Y27584067D01*
X5607000Y27787945D01*
X5573816Y27954775D01*
X5589250Y27959457D01*
X5721279Y28030029D01*
X5837004Y28125002D01*
X5860806Y28154005D01*
X6454306Y28747504D01*
X6574806Y28683096D01*
X6838141Y28603214D01*
X7112000Y28576241D01*
X7385860Y28603214D01*
X7649195Y28683096D01*
X7891887Y28812817D01*
X8104608Y28987392D01*
X8279183Y29200113D01*
X8382000Y29392471D01*
X8484817Y29200113D01*
X8659393Y28987392D01*
X8872114Y28812817D01*
X9114806Y28683096D01*
X9378141Y28603214D01*
X9652000Y28576241D01*
X9925860Y28603214D01*
X10189195Y28683096D01*
X10431887Y28812817D01*
X10644608Y28987392D01*
X10819183Y29200113D01*
X10948904Y29442805D01*
X11028786Y29706140D01*
X11049000Y29911375D01*
X11049000Y31048625D01*
X11028786Y31253860D01*
X10948904Y31517195D01*
X10819183Y31759887D01*
X10644607Y31972608D01*
X10431886Y32147183D01*
X10189194Y32276904D01*
X9925859Y32356786D01*
X9820013Y32367211D01*
X10598114Y33145312D01*
X10780665Y33109000D01*
X11063335Y33109000D01*
X11340574Y33164147D01*
X11601727Y33272320D01*
X11836759Y33429363D01*
X12036637Y33629241D01*
X12193680Y33864273D01*
X12301853Y34125426D01*
X12357000Y34402665D01*
X12357000Y34685335D01*
X12301853Y34962574D01*
X12263983Y35054000D01*
X17200017Y35054000D01*
X17162147Y34962574D01*
G36*
X-22861680Y35223727D02*
G01*
X-22969853Y34962574D01*
X-23025000Y34685335D01*
X-23025000Y34402665D01*
X-22969853Y34125426D01*
X-22861680Y33864273D01*
X-22704637Y33629241D01*
X-22504759Y33429363D01*
X-22350000Y33325956D01*
X-22349999Y31810803D01*
X-27069342Y27091459D01*
X-27176320Y27349727D01*
X-27333363Y27584759D01*
X-27533241Y27784637D01*
X-27768273Y27941680D01*
X-28029426Y28049853D01*
X-28306665Y28105000D01*
X-28589335Y28105000D01*
X-28771886Y28068688D01*
X-30990000Y30286801D01*
X-30990000Y30618192D01*
X-30790507Y30583669D01*
X-30607000Y30743402D01*
X-30607000Y31623000D01*
X-30353000Y31623000D01*
X-30353000Y30743402D01*
X-30169493Y30583669D01*
X-29943596Y30622761D01*
X-29729666Y30705172D01*
X-29535924Y30827736D01*
X-29369816Y30985742D01*
X-29237725Y31173118D01*
X-29144728Y31382663D01*
X-29136036Y31444190D01*
X-29261837Y31623000D01*
X-30353000Y31623000D01*
X-30607000Y31623000D01*
X-30627000Y31623000D01*
X-30627000Y31860000D01*
X-30198021Y31860000D01*
X-30027600Y31876785D01*
X-30026891Y31877000D01*
X-29261837Y31877000D01*
X-29136036Y32055810D01*
X-29144728Y32117337D01*
X-29237725Y32326882D01*
X-29278929Y32385331D01*
X-29178115Y32573940D01*
X-29111785Y32792600D01*
X-29089388Y33020000D01*
X-29111785Y33247400D01*
X-29175093Y33456098D01*
X-29140498Y33520820D01*
X-29104188Y33640518D01*
X-29091928Y33765000D01*
X-29091928Y34603271D01*
X-28336186Y35359012D01*
X-22771286Y35359012D01*
X-22861680Y35223727D01*
G37*
X-22861680Y35223727D02*
X-22969853Y34962574D01*
X-23025000Y34685335D01*
X-23025000Y34402665D01*
X-22969853Y34125426D01*
X-22861680Y33864273D01*
X-22704637Y33629241D01*
X-22504759Y33429363D01*
X-22350000Y33325956D01*
X-22349999Y31810803D01*
X-27069342Y27091459D01*
X-27176320Y27349727D01*
X-27333363Y27584759D01*
X-27533241Y27784637D01*
X-27768273Y27941680D01*
X-28029426Y28049853D01*
X-28306665Y28105000D01*
X-28589335Y28105000D01*
X-28771886Y28068688D01*
X-30990000Y30286801D01*
X-30990000Y30618192D01*
X-30790507Y30583669D01*
X-30607000Y30743402D01*
X-30607000Y31623000D01*
X-30353000Y31623000D01*
X-30353000Y30743402D01*
X-30169493Y30583669D01*
X-29943596Y30622761D01*
X-29729666Y30705172D01*
X-29535924Y30827736D01*
X-29369816Y30985742D01*
X-29237725Y31173118D01*
X-29144728Y31382663D01*
X-29136036Y31444190D01*
X-29261837Y31623000D01*
X-30353000Y31623000D01*
X-30607000Y31623000D01*
X-30627000Y31623000D01*
X-30627000Y31860000D01*
X-30198021Y31860000D01*
X-30027600Y31876785D01*
X-30026891Y31877000D01*
X-29261837Y31877000D01*
X-29136036Y32055810D01*
X-29144728Y32117337D01*
X-29237725Y32326882D01*
X-29278929Y32385331D01*
X-29178115Y32573940D01*
X-29111785Y32792600D01*
X-29089388Y33020000D01*
X-29111785Y33247400D01*
X-29175093Y33456098D01*
X-29140498Y33520820D01*
X-29104188Y33640518D01*
X-29091928Y33765000D01*
X-29091928Y34603271D01*
X-28336186Y35359012D01*
X-22771286Y35359012D01*
X-22861680Y35223727D01*
G36*
X-8023803Y34577995D02*
G01*
X-8000005Y34548997D01*
X-7884280Y34454024D01*
X-7752251Y34383452D01*
X-7608990Y34339995D01*
X-7497337Y34328998D01*
X-7497329Y34328998D01*
X-7460004Y34325322D01*
X-7422679Y34328998D01*
X-6547320Y34328998D01*
X-6509998Y34325322D01*
X-6472676Y34328998D01*
X-6472665Y34328998D01*
X-6361012Y34339995D01*
X-6217751Y34383452D01*
X-6085722Y34454024D01*
X-5969997Y34548997D01*
X-5946194Y34578000D01*
X-5165182Y35359012D01*
X-4483286Y35359012D01*
X-4573680Y35223727D01*
X-4681853Y34962574D01*
X-4737000Y34685335D01*
X-4737000Y34402665D01*
X-4681853Y34125426D01*
X-4573680Y33864273D01*
X-4416637Y33629241D01*
X-4216759Y33429363D01*
X-4062000Y33325956D01*
X-4061999Y31946542D01*
X-4215183Y31759886D01*
X-4318000Y31567529D01*
X-4420817Y31759887D01*
X-4595393Y31972608D01*
X-4808114Y32147183D01*
X-5050806Y32276904D01*
X-5314141Y32356786D01*
X-5588000Y32383759D01*
X-5861860Y32356786D01*
X-6125195Y32276904D01*
X-6367887Y32147183D01*
X-6580608Y31972607D01*
X-6755183Y31759886D01*
X-6858000Y31567529D01*
X-6960817Y31759887D01*
X-7135393Y31972608D01*
X-7348114Y32147183D01*
X-7590806Y32276904D01*
X-7854141Y32356786D01*
X-8128000Y32383759D01*
X-8401860Y32356786D01*
X-8665195Y32276904D01*
X-8907887Y32147183D01*
X-9120608Y31972607D01*
X-9295183Y31759886D01*
X-9398000Y31567529D01*
X-9500817Y31759887D01*
X-9675393Y31972608D01*
X-9888114Y32147183D01*
X-10130806Y32276904D01*
X-10394141Y32356786D01*
X-10668000Y32383759D01*
X-10728954Y32377756D01*
X-11667399Y33316201D01*
X-11601727Y33272320D01*
X-11340574Y33164147D01*
X-11063335Y33109000D01*
X-10780665Y33109000D01*
X-10503426Y33164147D01*
X-10242273Y33272320D01*
X-10007241Y33429363D01*
X-9807363Y33629241D01*
X-9650320Y33864273D01*
X-9542147Y34125426D01*
X-9487000Y34402665D01*
X-9487000Y34685335D01*
X-9542147Y34962574D01*
X-9650320Y35223727D01*
X-9740714Y35359012D01*
X-8804819Y35359012D01*
X-8023803Y34577995D01*
G37*
X-8023803Y34577995D02*
X-8000005Y34548997D01*
X-7884280Y34454024D01*
X-7752251Y34383452D01*
X-7608990Y34339995D01*
X-7497337Y34328998D01*
X-7497329Y34328998D01*
X-7460004Y34325322D01*
X-7422679Y34328998D01*
X-6547320Y34328998D01*
X-6509998Y34325322D01*
X-6472676Y34328998D01*
X-6472665Y34328998D01*
X-6361012Y34339995D01*
X-6217751Y34383452D01*
X-6085722Y34454024D01*
X-5969997Y34548997D01*
X-5946194Y34578000D01*
X-5165182Y35359012D01*
X-4483286Y35359012D01*
X-4573680Y35223727D01*
X-4681853Y34962574D01*
X-4737000Y34685335D01*
X-4737000Y34402665D01*
X-4681853Y34125426D01*
X-4573680Y33864273D01*
X-4416637Y33629241D01*
X-4216759Y33429363D01*
X-4062000Y33325956D01*
X-4061999Y31946542D01*
X-4215183Y31759886D01*
X-4318000Y31567529D01*
X-4420817Y31759887D01*
X-4595393Y31972608D01*
X-4808114Y32147183D01*
X-5050806Y32276904D01*
X-5314141Y32356786D01*
X-5588000Y32383759D01*
X-5861860Y32356786D01*
X-6125195Y32276904D01*
X-6367887Y32147183D01*
X-6580608Y31972607D01*
X-6755183Y31759886D01*
X-6858000Y31567529D01*
X-6960817Y31759887D01*
X-7135393Y31972608D01*
X-7348114Y32147183D01*
X-7590806Y32276904D01*
X-7854141Y32356786D01*
X-8128000Y32383759D01*
X-8401860Y32356786D01*
X-8665195Y32276904D01*
X-8907887Y32147183D01*
X-9120608Y31972607D01*
X-9295183Y31759886D01*
X-9398000Y31567529D01*
X-9500817Y31759887D01*
X-9675393Y31972608D01*
X-9888114Y32147183D01*
X-10130806Y32276904D01*
X-10394141Y32356786D01*
X-10668000Y32383759D01*
X-10728954Y32377756D01*
X-11667399Y33316201D01*
X-11601727Y33272320D01*
X-11340574Y33164147D01*
X-11063335Y33109000D01*
X-10780665Y33109000D01*
X-10503426Y33164147D01*
X-10242273Y33272320D01*
X-10007241Y33429363D01*
X-9807363Y33629241D01*
X-9650320Y33864273D01*
X-9542147Y34125426D01*
X-9487000Y34402665D01*
X-9487000Y34685335D01*
X-9542147Y34962574D01*
X-9650320Y35223727D01*
X-9740714Y35359012D01*
X-8804819Y35359012D01*
X-8023803Y34577995D01*
%TD*%
M02*
