%TF.GenerationSoftware,KiCad,Pcbnew,(5.1.6-0-10_14)*%
%TF.CreationDate,2021-01-19T18:17:05+00:00*%
%TF.ProjectId,lawrencebutton,6c617772-656e-4636-9562-7574746f6e2e,rev?*%
%TF.SameCoordinates,Original*%
%TF.FileFunction,Soldermask,Bot*%
%TF.FilePolarity,Negative*%
%FSLAX46Y46*%
G04 Gerber Fmt 4.6, Leading zero omitted, Abs format (unit mm)*
G04 Created by KiCad (PCBNEW (5.1.6-0-10_14)) date 2021-01-19 18:17:05*
%MOMM*%
%LPD*%
G01*
G04 APERTURE LIST*
%ADD10C,3.100000*%
%ADD11C,2.600000*%
%ADD12R,1.800000X1.800000*%
%ADD13O,1.800000X1.800000*%
%ADD14C,2.100000*%
%ADD15C,3.500000*%
%ADD16C,3.000000*%
%ADD17C,1.700000*%
%ADD18O,0.900000X1.400000*%
%ADD19C,6.500000*%
%ADD20C,0.900000*%
G04 APERTURE END LIST*
D10*
%TO.C,J2*%
X16296000Y-130215000D03*
X21296000Y-130215000D03*
X18796000Y-120315000D03*
X26296000Y-120315000D03*
D11*
X11296000Y-120315000D03*
D10*
X23796000Y-117815000D03*
X13796000Y-117815000D03*
%TD*%
D12*
%TO.C,J12*%
X-41021000Y-77025500D03*
D13*
X-38481000Y-77025500D03*
X-41021000Y-79565500D03*
X-38481000Y-79565500D03*
X-41021000Y-82105500D03*
X-38481000Y-82105500D03*
X-41021000Y-84645500D03*
X-38481000Y-84645500D03*
X-41021000Y-87185500D03*
X-38481000Y-87185500D03*
X-41021000Y-89725500D03*
X-38481000Y-89725500D03*
%TD*%
D14*
%TO.C,TP8*%
X-10985500Y-88773000D03*
%TD*%
D15*
%TO.C,J3*%
X-30670500Y-114427000D03*
X-38290500Y-114427000D03*
D16*
X-34480500Y-114427000D03*
D17*
X-30670500Y-128397000D03*
X-38290500Y-123317000D03*
D16*
X-34480500Y-119507000D03*
%TD*%
%TO.C,J4*%
X-7175500Y-119443500D03*
D17*
X-10985500Y-123253500D03*
X-3365500Y-128333500D03*
D16*
X-7175500Y-114363500D03*
D15*
X-10985500Y-114363500D03*
X-3365500Y-114363500D03*
%TD*%
%TO.C,J8*%
G36*
G01*
X26167500Y-65184000D02*
X26167500Y-66134000D01*
G75*
G02*
X25942500Y-66359000I-225000J0D01*
G01*
X25492500Y-66359000D01*
G75*
G02*
X25267500Y-66134000I0J225000D01*
G01*
X25267500Y-65184000D01*
G75*
G02*
X25492500Y-64959000I225000J0D01*
G01*
X25942500Y-64959000D01*
G75*
G02*
X26167500Y-65184000I0J-225000D01*
G01*
G37*
D18*
X24467500Y-65659000D03*
X23217500Y-65659000D03*
%TD*%
%TO.C,J7*%
G36*
G01*
X-5328500Y-65184000D02*
X-5328500Y-66134000D01*
G75*
G02*
X-5553500Y-66359000I-225000J0D01*
G01*
X-6003500Y-66359000D01*
G75*
G02*
X-6228500Y-66134000I0J225000D01*
G01*
X-6228500Y-65184000D01*
G75*
G02*
X-6003500Y-64959000I225000J0D01*
G01*
X-5553500Y-64959000D01*
G75*
G02*
X-5328500Y-65184000I0J-225000D01*
G01*
G37*
X-7028500Y-65659000D03*
X-8278500Y-65659000D03*
X-9528500Y-65659000D03*
X-10778500Y-65659000D03*
X-12028500Y-65659000D03*
X-13278500Y-65659000D03*
X-14528500Y-65659000D03*
X-15778500Y-65659000D03*
X-17028500Y-65659000D03*
X-18278500Y-65659000D03*
X-19528500Y-65659000D03*
X-20778500Y-65659000D03*
X-22028500Y-65659000D03*
X-23278500Y-65659000D03*
%TD*%
D14*
%TO.C,TP1*%
X-7810500Y-77851000D03*
%TD*%
%TO.C,TP2*%
X-11747500Y-77851000D03*
%TD*%
%TO.C,TP3*%
X-19621500Y-77851000D03*
%TD*%
%TO.C,TP4*%
X-15684500Y-77851000D03*
%TD*%
%TO.C,TP5*%
X-44767500Y-99060000D03*
%TD*%
%TO.C,TP6*%
X-10477500Y-99187000D03*
%TD*%
%TO.C,TP7*%
X-7048500Y-88773000D03*
%TD*%
%TO.C,J9*%
G36*
G01*
X16539000Y-65184000D02*
X16539000Y-66134000D01*
G75*
G02*
X16314000Y-66359000I-225000J0D01*
G01*
X15864000Y-66359000D01*
G75*
G02*
X15639000Y-66134000I0J225000D01*
G01*
X15639000Y-65184000D01*
G75*
G02*
X15864000Y-64959000I225000J0D01*
G01*
X16314000Y-64959000D01*
G75*
G02*
X16539000Y-65184000I0J-225000D01*
G01*
G37*
D18*
X14839000Y-65659000D03*
X13589000Y-65659000D03*
X12339000Y-65659000D03*
%TD*%
D19*
%TO.C,H1*%
X-44263000Y-65438000D03*
D20*
X-41863000Y-65438000D03*
X-42565944Y-67135056D03*
X-44263000Y-67838000D03*
X-45960056Y-67135056D03*
X-46663000Y-65438000D03*
X-45960056Y-63740944D03*
X-44263000Y-63038000D03*
X-42565944Y-63740944D03*
%TD*%
%TO.C,H2*%
X47434056Y-63740944D03*
X45737000Y-63038000D03*
X44039944Y-63740944D03*
X43337000Y-65438000D03*
X44039944Y-67135056D03*
X45737000Y-67838000D03*
X47434056Y-67135056D03*
X48137000Y-65438000D03*
D19*
X45737000Y-65438000D03*
%TD*%
M02*
