%TF.GenerationSoftware,KiCad,Pcbnew,(5.1.6-0-10_14)*%
%TF.CreationDate,2021-01-19T18:17:05+00:00*%
%TF.ProjectId,lawrencebutton,6c617772-656e-4636-9562-7574746f6e2e,rev?*%
%TF.SameCoordinates,Original*%
%TF.FileFunction,Soldermask,Top*%
%TF.FilePolarity,Negative*%
%FSLAX46Y46*%
G04 Gerber Fmt 4.6, Leading zero omitted, Abs format (unit mm)*
G04 Created by KiCad (PCBNEW (5.1.6-0-10_14)) date 2021-01-19 18:17:05*
%MOMM*%
%LPD*%
G01*
G04 APERTURE LIST*
%ADD10C,3.100000*%
%ADD11C,2.600000*%
%ADD12R,1.800000X1.800000*%
%ADD13O,1.800000X1.800000*%
%ADD14C,2.100000*%
%ADD15R,1.700000X0.400000*%
%ADD16R,2.400000X2.600000*%
%ADD17R,2.600000X1.900000*%
%ADD18R,0.800000X1.300000*%
%ADD19R,1.100000X1.300000*%
%ADD20R,1.100000X0.900000*%
%ADD21R,1.100000X2.900000*%
%ADD22R,1.400000X2.000000*%
%ADD23C,3.500000*%
%ADD24C,3.000000*%
%ADD25C,1.700000*%
%ADD26O,0.900000X1.400000*%
%ADD27R,2.100000X3.900000*%
%ADD28R,2.100000X1.600000*%
%ADD29R,2.950000X1.750000*%
%ADD30R,1.700000X1.400000*%
%ADD31R,0.840000X2.500000*%
%ADD32C,6.500000*%
%ADD33C,0.900000*%
G04 APERTURE END LIST*
D10*
%TO.C,J2*%
X16296000Y-130215000D03*
X21296000Y-130215000D03*
X18796000Y-120315000D03*
X26296000Y-120315000D03*
D11*
X11296000Y-120315000D03*
D10*
X23796000Y-117815000D03*
X13796000Y-117815000D03*
%TD*%
%TO.C,U2*%
G36*
G01*
X38052500Y-97467000D02*
X38052500Y-97667000D01*
G75*
G02*
X37952500Y-97767000I-100000J0D01*
G01*
X36452500Y-97767000D01*
G75*
G02*
X36352500Y-97667000I0J100000D01*
G01*
X36352500Y-97467000D01*
G75*
G02*
X36452500Y-97367000I100000J0D01*
G01*
X37952500Y-97367000D01*
G75*
G02*
X38052500Y-97467000I0J-100000D01*
G01*
G37*
G36*
G01*
X38052500Y-96967000D02*
X38052500Y-97167000D01*
G75*
G02*
X37952500Y-97267000I-100000J0D01*
G01*
X36452500Y-97267000D01*
G75*
G02*
X36352500Y-97167000I0J100000D01*
G01*
X36352500Y-96967000D01*
G75*
G02*
X36452500Y-96867000I100000J0D01*
G01*
X37952500Y-96867000D01*
G75*
G02*
X38052500Y-96967000I0J-100000D01*
G01*
G37*
G36*
G01*
X38052500Y-96467000D02*
X38052500Y-96667000D01*
G75*
G02*
X37952500Y-96767000I-100000J0D01*
G01*
X36452500Y-96767000D01*
G75*
G02*
X36352500Y-96667000I0J100000D01*
G01*
X36352500Y-96467000D01*
G75*
G02*
X36452500Y-96367000I100000J0D01*
G01*
X37952500Y-96367000D01*
G75*
G02*
X38052500Y-96467000I0J-100000D01*
G01*
G37*
G36*
G01*
X38052500Y-95967000D02*
X38052500Y-96167000D01*
G75*
G02*
X37952500Y-96267000I-100000J0D01*
G01*
X36452500Y-96267000D01*
G75*
G02*
X36352500Y-96167000I0J100000D01*
G01*
X36352500Y-95967000D01*
G75*
G02*
X36452500Y-95867000I100000J0D01*
G01*
X37952500Y-95867000D01*
G75*
G02*
X38052500Y-95967000I0J-100000D01*
G01*
G37*
G36*
G01*
X38052500Y-95467000D02*
X38052500Y-95667000D01*
G75*
G02*
X37952500Y-95767000I-100000J0D01*
G01*
X36452500Y-95767000D01*
G75*
G02*
X36352500Y-95667000I0J100000D01*
G01*
X36352500Y-95467000D01*
G75*
G02*
X36452500Y-95367000I100000J0D01*
G01*
X37952500Y-95367000D01*
G75*
G02*
X38052500Y-95467000I0J-100000D01*
G01*
G37*
G36*
G01*
X38052500Y-94967000D02*
X38052500Y-95167000D01*
G75*
G02*
X37952500Y-95267000I-100000J0D01*
G01*
X36452500Y-95267000D01*
G75*
G02*
X36352500Y-95167000I0J100000D01*
G01*
X36352500Y-94967000D01*
G75*
G02*
X36452500Y-94867000I100000J0D01*
G01*
X37952500Y-94867000D01*
G75*
G02*
X38052500Y-94967000I0J-100000D01*
G01*
G37*
G36*
G01*
X38052500Y-94467000D02*
X38052500Y-94667000D01*
G75*
G02*
X37952500Y-94767000I-100000J0D01*
G01*
X36452500Y-94767000D01*
G75*
G02*
X36352500Y-94667000I0J100000D01*
G01*
X36352500Y-94467000D01*
G75*
G02*
X36452500Y-94367000I100000J0D01*
G01*
X37952500Y-94367000D01*
G75*
G02*
X38052500Y-94467000I0J-100000D01*
G01*
G37*
G36*
G01*
X38052500Y-93967000D02*
X38052500Y-94167000D01*
G75*
G02*
X37952500Y-94267000I-100000J0D01*
G01*
X36452500Y-94267000D01*
G75*
G02*
X36352500Y-94167000I0J100000D01*
G01*
X36352500Y-93967000D01*
G75*
G02*
X36452500Y-93867000I100000J0D01*
G01*
X37952500Y-93867000D01*
G75*
G02*
X38052500Y-93967000I0J-100000D01*
G01*
G37*
G36*
G01*
X38052500Y-93467000D02*
X38052500Y-93667000D01*
G75*
G02*
X37952500Y-93767000I-100000J0D01*
G01*
X36452500Y-93767000D01*
G75*
G02*
X36352500Y-93667000I0J100000D01*
G01*
X36352500Y-93467000D01*
G75*
G02*
X36452500Y-93367000I100000J0D01*
G01*
X37952500Y-93367000D01*
G75*
G02*
X38052500Y-93467000I0J-100000D01*
G01*
G37*
G36*
G01*
X38052500Y-92967000D02*
X38052500Y-93167000D01*
G75*
G02*
X37952500Y-93267000I-100000J0D01*
G01*
X36452500Y-93267000D01*
G75*
G02*
X36352500Y-93167000I0J100000D01*
G01*
X36352500Y-92967000D01*
G75*
G02*
X36452500Y-92867000I100000J0D01*
G01*
X37952500Y-92867000D01*
G75*
G02*
X38052500Y-92967000I0J-100000D01*
G01*
G37*
G36*
G01*
X38052500Y-92467000D02*
X38052500Y-92667000D01*
G75*
G02*
X37952500Y-92767000I-100000J0D01*
G01*
X36452500Y-92767000D01*
G75*
G02*
X36352500Y-92667000I0J100000D01*
G01*
X36352500Y-92467000D01*
G75*
G02*
X36452500Y-92367000I100000J0D01*
G01*
X37952500Y-92367000D01*
G75*
G02*
X38052500Y-92467000I0J-100000D01*
G01*
G37*
G36*
G01*
X38052500Y-91967000D02*
X38052500Y-92167000D01*
G75*
G02*
X37952500Y-92267000I-100000J0D01*
G01*
X36452500Y-92267000D01*
G75*
G02*
X36352500Y-92167000I0J100000D01*
G01*
X36352500Y-91967000D01*
G75*
G02*
X36452500Y-91867000I100000J0D01*
G01*
X37952500Y-91867000D01*
G75*
G02*
X38052500Y-91967000I0J-100000D01*
G01*
G37*
G36*
G01*
X38052500Y-91467000D02*
X38052500Y-91667000D01*
G75*
G02*
X37952500Y-91767000I-100000J0D01*
G01*
X36452500Y-91767000D01*
G75*
G02*
X36352500Y-91667000I0J100000D01*
G01*
X36352500Y-91467000D01*
G75*
G02*
X36452500Y-91367000I100000J0D01*
G01*
X37952500Y-91367000D01*
G75*
G02*
X38052500Y-91467000I0J-100000D01*
G01*
G37*
G36*
G01*
X38052500Y-90967000D02*
X38052500Y-91167000D01*
G75*
G02*
X37952500Y-91267000I-100000J0D01*
G01*
X36452500Y-91267000D01*
G75*
G02*
X36352500Y-91167000I0J100000D01*
G01*
X36352500Y-90967000D01*
G75*
G02*
X36452500Y-90867000I100000J0D01*
G01*
X37952500Y-90867000D01*
G75*
G02*
X38052500Y-90967000I0J-100000D01*
G01*
G37*
G36*
G01*
X38052500Y-90467000D02*
X38052500Y-90667000D01*
G75*
G02*
X37952500Y-90767000I-100000J0D01*
G01*
X36452500Y-90767000D01*
G75*
G02*
X36352500Y-90667000I0J100000D01*
G01*
X36352500Y-90467000D01*
G75*
G02*
X36452500Y-90367000I100000J0D01*
G01*
X37952500Y-90367000D01*
G75*
G02*
X38052500Y-90467000I0J-100000D01*
G01*
G37*
G36*
G01*
X38052500Y-89967000D02*
X38052500Y-90167000D01*
G75*
G02*
X37952500Y-90267000I-100000J0D01*
G01*
X36452500Y-90267000D01*
G75*
G02*
X36352500Y-90167000I0J100000D01*
G01*
X36352500Y-89967000D01*
G75*
G02*
X36452500Y-89867000I100000J0D01*
G01*
X37952500Y-89867000D01*
G75*
G02*
X38052500Y-89967000I0J-100000D01*
G01*
G37*
G36*
G01*
X38052500Y-89467000D02*
X38052500Y-89667000D01*
G75*
G02*
X37952500Y-89767000I-100000J0D01*
G01*
X36452500Y-89767000D01*
G75*
G02*
X36352500Y-89667000I0J100000D01*
G01*
X36352500Y-89467000D01*
G75*
G02*
X36452500Y-89367000I100000J0D01*
G01*
X37952500Y-89367000D01*
G75*
G02*
X38052500Y-89467000I0J-100000D01*
G01*
G37*
G36*
G01*
X38052500Y-88967000D02*
X38052500Y-89167000D01*
G75*
G02*
X37952500Y-89267000I-100000J0D01*
G01*
X36452500Y-89267000D01*
G75*
G02*
X36352500Y-89167000I0J100000D01*
G01*
X36352500Y-88967000D01*
G75*
G02*
X36452500Y-88867000I100000J0D01*
G01*
X37952500Y-88867000D01*
G75*
G02*
X38052500Y-88967000I0J-100000D01*
G01*
G37*
G36*
G01*
X38052500Y-88467000D02*
X38052500Y-88667000D01*
G75*
G02*
X37952500Y-88767000I-100000J0D01*
G01*
X36452500Y-88767000D01*
G75*
G02*
X36352500Y-88667000I0J100000D01*
G01*
X36352500Y-88467000D01*
G75*
G02*
X36452500Y-88367000I100000J0D01*
G01*
X37952500Y-88367000D01*
G75*
G02*
X38052500Y-88467000I0J-100000D01*
G01*
G37*
G36*
G01*
X38052500Y-87967000D02*
X38052500Y-88167000D01*
G75*
G02*
X37952500Y-88267000I-100000J0D01*
G01*
X36452500Y-88267000D01*
G75*
G02*
X36352500Y-88167000I0J100000D01*
G01*
X36352500Y-87967000D01*
G75*
G02*
X36452500Y-87867000I100000J0D01*
G01*
X37952500Y-87867000D01*
G75*
G02*
X38052500Y-87967000I0J-100000D01*
G01*
G37*
G36*
G01*
X38052500Y-87467000D02*
X38052500Y-87667000D01*
G75*
G02*
X37952500Y-87767000I-100000J0D01*
G01*
X36452500Y-87767000D01*
G75*
G02*
X36352500Y-87667000I0J100000D01*
G01*
X36352500Y-87467000D01*
G75*
G02*
X36452500Y-87367000I100000J0D01*
G01*
X37952500Y-87367000D01*
G75*
G02*
X38052500Y-87467000I0J-100000D01*
G01*
G37*
G36*
G01*
X38052500Y-86967000D02*
X38052500Y-87167000D01*
G75*
G02*
X37952500Y-87267000I-100000J0D01*
G01*
X36452500Y-87267000D01*
G75*
G02*
X36352500Y-87167000I0J100000D01*
G01*
X36352500Y-86967000D01*
G75*
G02*
X36452500Y-86867000I100000J0D01*
G01*
X37952500Y-86867000D01*
G75*
G02*
X38052500Y-86967000I0J-100000D01*
G01*
G37*
G36*
G01*
X38052500Y-86467000D02*
X38052500Y-86667000D01*
G75*
G02*
X37952500Y-86767000I-100000J0D01*
G01*
X36452500Y-86767000D01*
G75*
G02*
X36352500Y-86667000I0J100000D01*
G01*
X36352500Y-86467000D01*
G75*
G02*
X36452500Y-86367000I100000J0D01*
G01*
X37952500Y-86367000D01*
G75*
G02*
X38052500Y-86467000I0J-100000D01*
G01*
G37*
G36*
G01*
X38052500Y-85967000D02*
X38052500Y-86167000D01*
G75*
G02*
X37952500Y-86267000I-100000J0D01*
G01*
X36452500Y-86267000D01*
G75*
G02*
X36352500Y-86167000I0J100000D01*
G01*
X36352500Y-85967000D01*
G75*
G02*
X36452500Y-85867000I100000J0D01*
G01*
X37952500Y-85867000D01*
G75*
G02*
X38052500Y-85967000I0J-100000D01*
G01*
G37*
G36*
G01*
X38052500Y-85467000D02*
X38052500Y-85667000D01*
G75*
G02*
X37952500Y-85767000I-100000J0D01*
G01*
X36452500Y-85767000D01*
G75*
G02*
X36352500Y-85667000I0J100000D01*
G01*
X36352500Y-85467000D01*
G75*
G02*
X36452500Y-85367000I100000J0D01*
G01*
X37952500Y-85367000D01*
G75*
G02*
X38052500Y-85467000I0J-100000D01*
G01*
G37*
G36*
G01*
X35727500Y-83142000D02*
X35727500Y-84642000D01*
G75*
G02*
X35627500Y-84742000I-100000J0D01*
G01*
X35427500Y-84742000D01*
G75*
G02*
X35327500Y-84642000I0J100000D01*
G01*
X35327500Y-83142000D01*
G75*
G02*
X35427500Y-83042000I100000J0D01*
G01*
X35627500Y-83042000D01*
G75*
G02*
X35727500Y-83142000I0J-100000D01*
G01*
G37*
G36*
G01*
X35227500Y-83142000D02*
X35227500Y-84642000D01*
G75*
G02*
X35127500Y-84742000I-100000J0D01*
G01*
X34927500Y-84742000D01*
G75*
G02*
X34827500Y-84642000I0J100000D01*
G01*
X34827500Y-83142000D01*
G75*
G02*
X34927500Y-83042000I100000J0D01*
G01*
X35127500Y-83042000D01*
G75*
G02*
X35227500Y-83142000I0J-100000D01*
G01*
G37*
G36*
G01*
X34727500Y-83142000D02*
X34727500Y-84642000D01*
G75*
G02*
X34627500Y-84742000I-100000J0D01*
G01*
X34427500Y-84742000D01*
G75*
G02*
X34327500Y-84642000I0J100000D01*
G01*
X34327500Y-83142000D01*
G75*
G02*
X34427500Y-83042000I100000J0D01*
G01*
X34627500Y-83042000D01*
G75*
G02*
X34727500Y-83142000I0J-100000D01*
G01*
G37*
G36*
G01*
X34227500Y-83142000D02*
X34227500Y-84642000D01*
G75*
G02*
X34127500Y-84742000I-100000J0D01*
G01*
X33927500Y-84742000D01*
G75*
G02*
X33827500Y-84642000I0J100000D01*
G01*
X33827500Y-83142000D01*
G75*
G02*
X33927500Y-83042000I100000J0D01*
G01*
X34127500Y-83042000D01*
G75*
G02*
X34227500Y-83142000I0J-100000D01*
G01*
G37*
G36*
G01*
X33727500Y-83142000D02*
X33727500Y-84642000D01*
G75*
G02*
X33627500Y-84742000I-100000J0D01*
G01*
X33427500Y-84742000D01*
G75*
G02*
X33327500Y-84642000I0J100000D01*
G01*
X33327500Y-83142000D01*
G75*
G02*
X33427500Y-83042000I100000J0D01*
G01*
X33627500Y-83042000D01*
G75*
G02*
X33727500Y-83142000I0J-100000D01*
G01*
G37*
G36*
G01*
X33227500Y-83142000D02*
X33227500Y-84642000D01*
G75*
G02*
X33127500Y-84742000I-100000J0D01*
G01*
X32927500Y-84742000D01*
G75*
G02*
X32827500Y-84642000I0J100000D01*
G01*
X32827500Y-83142000D01*
G75*
G02*
X32927500Y-83042000I100000J0D01*
G01*
X33127500Y-83042000D01*
G75*
G02*
X33227500Y-83142000I0J-100000D01*
G01*
G37*
G36*
G01*
X32727500Y-83142000D02*
X32727500Y-84642000D01*
G75*
G02*
X32627500Y-84742000I-100000J0D01*
G01*
X32427500Y-84742000D01*
G75*
G02*
X32327500Y-84642000I0J100000D01*
G01*
X32327500Y-83142000D01*
G75*
G02*
X32427500Y-83042000I100000J0D01*
G01*
X32627500Y-83042000D01*
G75*
G02*
X32727500Y-83142000I0J-100000D01*
G01*
G37*
G36*
G01*
X32227500Y-83142000D02*
X32227500Y-84642000D01*
G75*
G02*
X32127500Y-84742000I-100000J0D01*
G01*
X31927500Y-84742000D01*
G75*
G02*
X31827500Y-84642000I0J100000D01*
G01*
X31827500Y-83142000D01*
G75*
G02*
X31927500Y-83042000I100000J0D01*
G01*
X32127500Y-83042000D01*
G75*
G02*
X32227500Y-83142000I0J-100000D01*
G01*
G37*
G36*
G01*
X31727500Y-83142000D02*
X31727500Y-84642000D01*
G75*
G02*
X31627500Y-84742000I-100000J0D01*
G01*
X31427500Y-84742000D01*
G75*
G02*
X31327500Y-84642000I0J100000D01*
G01*
X31327500Y-83142000D01*
G75*
G02*
X31427500Y-83042000I100000J0D01*
G01*
X31627500Y-83042000D01*
G75*
G02*
X31727500Y-83142000I0J-100000D01*
G01*
G37*
G36*
G01*
X31227500Y-83142000D02*
X31227500Y-84642000D01*
G75*
G02*
X31127500Y-84742000I-100000J0D01*
G01*
X30927500Y-84742000D01*
G75*
G02*
X30827500Y-84642000I0J100000D01*
G01*
X30827500Y-83142000D01*
G75*
G02*
X30927500Y-83042000I100000J0D01*
G01*
X31127500Y-83042000D01*
G75*
G02*
X31227500Y-83142000I0J-100000D01*
G01*
G37*
G36*
G01*
X30727500Y-83142000D02*
X30727500Y-84642000D01*
G75*
G02*
X30627500Y-84742000I-100000J0D01*
G01*
X30427500Y-84742000D01*
G75*
G02*
X30327500Y-84642000I0J100000D01*
G01*
X30327500Y-83142000D01*
G75*
G02*
X30427500Y-83042000I100000J0D01*
G01*
X30627500Y-83042000D01*
G75*
G02*
X30727500Y-83142000I0J-100000D01*
G01*
G37*
G36*
G01*
X30227500Y-83142000D02*
X30227500Y-84642000D01*
G75*
G02*
X30127500Y-84742000I-100000J0D01*
G01*
X29927500Y-84742000D01*
G75*
G02*
X29827500Y-84642000I0J100000D01*
G01*
X29827500Y-83142000D01*
G75*
G02*
X29927500Y-83042000I100000J0D01*
G01*
X30127500Y-83042000D01*
G75*
G02*
X30227500Y-83142000I0J-100000D01*
G01*
G37*
G36*
G01*
X29727500Y-83142000D02*
X29727500Y-84642000D01*
G75*
G02*
X29627500Y-84742000I-100000J0D01*
G01*
X29427500Y-84742000D01*
G75*
G02*
X29327500Y-84642000I0J100000D01*
G01*
X29327500Y-83142000D01*
G75*
G02*
X29427500Y-83042000I100000J0D01*
G01*
X29627500Y-83042000D01*
G75*
G02*
X29727500Y-83142000I0J-100000D01*
G01*
G37*
G36*
G01*
X29227500Y-83142000D02*
X29227500Y-84642000D01*
G75*
G02*
X29127500Y-84742000I-100000J0D01*
G01*
X28927500Y-84742000D01*
G75*
G02*
X28827500Y-84642000I0J100000D01*
G01*
X28827500Y-83142000D01*
G75*
G02*
X28927500Y-83042000I100000J0D01*
G01*
X29127500Y-83042000D01*
G75*
G02*
X29227500Y-83142000I0J-100000D01*
G01*
G37*
G36*
G01*
X28727500Y-83142000D02*
X28727500Y-84642000D01*
G75*
G02*
X28627500Y-84742000I-100000J0D01*
G01*
X28427500Y-84742000D01*
G75*
G02*
X28327500Y-84642000I0J100000D01*
G01*
X28327500Y-83142000D01*
G75*
G02*
X28427500Y-83042000I100000J0D01*
G01*
X28627500Y-83042000D01*
G75*
G02*
X28727500Y-83142000I0J-100000D01*
G01*
G37*
G36*
G01*
X28227500Y-83142000D02*
X28227500Y-84642000D01*
G75*
G02*
X28127500Y-84742000I-100000J0D01*
G01*
X27927500Y-84742000D01*
G75*
G02*
X27827500Y-84642000I0J100000D01*
G01*
X27827500Y-83142000D01*
G75*
G02*
X27927500Y-83042000I100000J0D01*
G01*
X28127500Y-83042000D01*
G75*
G02*
X28227500Y-83142000I0J-100000D01*
G01*
G37*
G36*
G01*
X27727500Y-83142000D02*
X27727500Y-84642000D01*
G75*
G02*
X27627500Y-84742000I-100000J0D01*
G01*
X27427500Y-84742000D01*
G75*
G02*
X27327500Y-84642000I0J100000D01*
G01*
X27327500Y-83142000D01*
G75*
G02*
X27427500Y-83042000I100000J0D01*
G01*
X27627500Y-83042000D01*
G75*
G02*
X27727500Y-83142000I0J-100000D01*
G01*
G37*
G36*
G01*
X27227500Y-83142000D02*
X27227500Y-84642000D01*
G75*
G02*
X27127500Y-84742000I-100000J0D01*
G01*
X26927500Y-84742000D01*
G75*
G02*
X26827500Y-84642000I0J100000D01*
G01*
X26827500Y-83142000D01*
G75*
G02*
X26927500Y-83042000I100000J0D01*
G01*
X27127500Y-83042000D01*
G75*
G02*
X27227500Y-83142000I0J-100000D01*
G01*
G37*
G36*
G01*
X26727500Y-83142000D02*
X26727500Y-84642000D01*
G75*
G02*
X26627500Y-84742000I-100000J0D01*
G01*
X26427500Y-84742000D01*
G75*
G02*
X26327500Y-84642000I0J100000D01*
G01*
X26327500Y-83142000D01*
G75*
G02*
X26427500Y-83042000I100000J0D01*
G01*
X26627500Y-83042000D01*
G75*
G02*
X26727500Y-83142000I0J-100000D01*
G01*
G37*
G36*
G01*
X26227500Y-83142000D02*
X26227500Y-84642000D01*
G75*
G02*
X26127500Y-84742000I-100000J0D01*
G01*
X25927500Y-84742000D01*
G75*
G02*
X25827500Y-84642000I0J100000D01*
G01*
X25827500Y-83142000D01*
G75*
G02*
X25927500Y-83042000I100000J0D01*
G01*
X26127500Y-83042000D01*
G75*
G02*
X26227500Y-83142000I0J-100000D01*
G01*
G37*
G36*
G01*
X25727500Y-83142000D02*
X25727500Y-84642000D01*
G75*
G02*
X25627500Y-84742000I-100000J0D01*
G01*
X25427500Y-84742000D01*
G75*
G02*
X25327500Y-84642000I0J100000D01*
G01*
X25327500Y-83142000D01*
G75*
G02*
X25427500Y-83042000I100000J0D01*
G01*
X25627500Y-83042000D01*
G75*
G02*
X25727500Y-83142000I0J-100000D01*
G01*
G37*
G36*
G01*
X25227500Y-83142000D02*
X25227500Y-84642000D01*
G75*
G02*
X25127500Y-84742000I-100000J0D01*
G01*
X24927500Y-84742000D01*
G75*
G02*
X24827500Y-84642000I0J100000D01*
G01*
X24827500Y-83142000D01*
G75*
G02*
X24927500Y-83042000I100000J0D01*
G01*
X25127500Y-83042000D01*
G75*
G02*
X25227500Y-83142000I0J-100000D01*
G01*
G37*
G36*
G01*
X24727500Y-83142000D02*
X24727500Y-84642000D01*
G75*
G02*
X24627500Y-84742000I-100000J0D01*
G01*
X24427500Y-84742000D01*
G75*
G02*
X24327500Y-84642000I0J100000D01*
G01*
X24327500Y-83142000D01*
G75*
G02*
X24427500Y-83042000I100000J0D01*
G01*
X24627500Y-83042000D01*
G75*
G02*
X24727500Y-83142000I0J-100000D01*
G01*
G37*
G36*
G01*
X24227500Y-83142000D02*
X24227500Y-84642000D01*
G75*
G02*
X24127500Y-84742000I-100000J0D01*
G01*
X23927500Y-84742000D01*
G75*
G02*
X23827500Y-84642000I0J100000D01*
G01*
X23827500Y-83142000D01*
G75*
G02*
X23927500Y-83042000I100000J0D01*
G01*
X24127500Y-83042000D01*
G75*
G02*
X24227500Y-83142000I0J-100000D01*
G01*
G37*
G36*
G01*
X23727500Y-83142000D02*
X23727500Y-84642000D01*
G75*
G02*
X23627500Y-84742000I-100000J0D01*
G01*
X23427500Y-84742000D01*
G75*
G02*
X23327500Y-84642000I0J100000D01*
G01*
X23327500Y-83142000D01*
G75*
G02*
X23427500Y-83042000I100000J0D01*
G01*
X23627500Y-83042000D01*
G75*
G02*
X23727500Y-83142000I0J-100000D01*
G01*
G37*
G36*
G01*
X22702500Y-85467000D02*
X22702500Y-85667000D01*
G75*
G02*
X22602500Y-85767000I-100000J0D01*
G01*
X21102500Y-85767000D01*
G75*
G02*
X21002500Y-85667000I0J100000D01*
G01*
X21002500Y-85467000D01*
G75*
G02*
X21102500Y-85367000I100000J0D01*
G01*
X22602500Y-85367000D01*
G75*
G02*
X22702500Y-85467000I0J-100000D01*
G01*
G37*
G36*
G01*
X22702500Y-85967000D02*
X22702500Y-86167000D01*
G75*
G02*
X22602500Y-86267000I-100000J0D01*
G01*
X21102500Y-86267000D01*
G75*
G02*
X21002500Y-86167000I0J100000D01*
G01*
X21002500Y-85967000D01*
G75*
G02*
X21102500Y-85867000I100000J0D01*
G01*
X22602500Y-85867000D01*
G75*
G02*
X22702500Y-85967000I0J-100000D01*
G01*
G37*
G36*
G01*
X22702500Y-86467000D02*
X22702500Y-86667000D01*
G75*
G02*
X22602500Y-86767000I-100000J0D01*
G01*
X21102500Y-86767000D01*
G75*
G02*
X21002500Y-86667000I0J100000D01*
G01*
X21002500Y-86467000D01*
G75*
G02*
X21102500Y-86367000I100000J0D01*
G01*
X22602500Y-86367000D01*
G75*
G02*
X22702500Y-86467000I0J-100000D01*
G01*
G37*
G36*
G01*
X22702500Y-86967000D02*
X22702500Y-87167000D01*
G75*
G02*
X22602500Y-87267000I-100000J0D01*
G01*
X21102500Y-87267000D01*
G75*
G02*
X21002500Y-87167000I0J100000D01*
G01*
X21002500Y-86967000D01*
G75*
G02*
X21102500Y-86867000I100000J0D01*
G01*
X22602500Y-86867000D01*
G75*
G02*
X22702500Y-86967000I0J-100000D01*
G01*
G37*
G36*
G01*
X22702500Y-87467000D02*
X22702500Y-87667000D01*
G75*
G02*
X22602500Y-87767000I-100000J0D01*
G01*
X21102500Y-87767000D01*
G75*
G02*
X21002500Y-87667000I0J100000D01*
G01*
X21002500Y-87467000D01*
G75*
G02*
X21102500Y-87367000I100000J0D01*
G01*
X22602500Y-87367000D01*
G75*
G02*
X22702500Y-87467000I0J-100000D01*
G01*
G37*
G36*
G01*
X22702500Y-87967000D02*
X22702500Y-88167000D01*
G75*
G02*
X22602500Y-88267000I-100000J0D01*
G01*
X21102500Y-88267000D01*
G75*
G02*
X21002500Y-88167000I0J100000D01*
G01*
X21002500Y-87967000D01*
G75*
G02*
X21102500Y-87867000I100000J0D01*
G01*
X22602500Y-87867000D01*
G75*
G02*
X22702500Y-87967000I0J-100000D01*
G01*
G37*
G36*
G01*
X22702500Y-88467000D02*
X22702500Y-88667000D01*
G75*
G02*
X22602500Y-88767000I-100000J0D01*
G01*
X21102500Y-88767000D01*
G75*
G02*
X21002500Y-88667000I0J100000D01*
G01*
X21002500Y-88467000D01*
G75*
G02*
X21102500Y-88367000I100000J0D01*
G01*
X22602500Y-88367000D01*
G75*
G02*
X22702500Y-88467000I0J-100000D01*
G01*
G37*
G36*
G01*
X22702500Y-88967000D02*
X22702500Y-89167000D01*
G75*
G02*
X22602500Y-89267000I-100000J0D01*
G01*
X21102500Y-89267000D01*
G75*
G02*
X21002500Y-89167000I0J100000D01*
G01*
X21002500Y-88967000D01*
G75*
G02*
X21102500Y-88867000I100000J0D01*
G01*
X22602500Y-88867000D01*
G75*
G02*
X22702500Y-88967000I0J-100000D01*
G01*
G37*
G36*
G01*
X22702500Y-89467000D02*
X22702500Y-89667000D01*
G75*
G02*
X22602500Y-89767000I-100000J0D01*
G01*
X21102500Y-89767000D01*
G75*
G02*
X21002500Y-89667000I0J100000D01*
G01*
X21002500Y-89467000D01*
G75*
G02*
X21102500Y-89367000I100000J0D01*
G01*
X22602500Y-89367000D01*
G75*
G02*
X22702500Y-89467000I0J-100000D01*
G01*
G37*
G36*
G01*
X22702500Y-89967000D02*
X22702500Y-90167000D01*
G75*
G02*
X22602500Y-90267000I-100000J0D01*
G01*
X21102500Y-90267000D01*
G75*
G02*
X21002500Y-90167000I0J100000D01*
G01*
X21002500Y-89967000D01*
G75*
G02*
X21102500Y-89867000I100000J0D01*
G01*
X22602500Y-89867000D01*
G75*
G02*
X22702500Y-89967000I0J-100000D01*
G01*
G37*
G36*
G01*
X22702500Y-90467000D02*
X22702500Y-90667000D01*
G75*
G02*
X22602500Y-90767000I-100000J0D01*
G01*
X21102500Y-90767000D01*
G75*
G02*
X21002500Y-90667000I0J100000D01*
G01*
X21002500Y-90467000D01*
G75*
G02*
X21102500Y-90367000I100000J0D01*
G01*
X22602500Y-90367000D01*
G75*
G02*
X22702500Y-90467000I0J-100000D01*
G01*
G37*
G36*
G01*
X22702500Y-90967000D02*
X22702500Y-91167000D01*
G75*
G02*
X22602500Y-91267000I-100000J0D01*
G01*
X21102500Y-91267000D01*
G75*
G02*
X21002500Y-91167000I0J100000D01*
G01*
X21002500Y-90967000D01*
G75*
G02*
X21102500Y-90867000I100000J0D01*
G01*
X22602500Y-90867000D01*
G75*
G02*
X22702500Y-90967000I0J-100000D01*
G01*
G37*
G36*
G01*
X22702500Y-91467000D02*
X22702500Y-91667000D01*
G75*
G02*
X22602500Y-91767000I-100000J0D01*
G01*
X21102500Y-91767000D01*
G75*
G02*
X21002500Y-91667000I0J100000D01*
G01*
X21002500Y-91467000D01*
G75*
G02*
X21102500Y-91367000I100000J0D01*
G01*
X22602500Y-91367000D01*
G75*
G02*
X22702500Y-91467000I0J-100000D01*
G01*
G37*
G36*
G01*
X22702500Y-91967000D02*
X22702500Y-92167000D01*
G75*
G02*
X22602500Y-92267000I-100000J0D01*
G01*
X21102500Y-92267000D01*
G75*
G02*
X21002500Y-92167000I0J100000D01*
G01*
X21002500Y-91967000D01*
G75*
G02*
X21102500Y-91867000I100000J0D01*
G01*
X22602500Y-91867000D01*
G75*
G02*
X22702500Y-91967000I0J-100000D01*
G01*
G37*
G36*
G01*
X22702500Y-92467000D02*
X22702500Y-92667000D01*
G75*
G02*
X22602500Y-92767000I-100000J0D01*
G01*
X21102500Y-92767000D01*
G75*
G02*
X21002500Y-92667000I0J100000D01*
G01*
X21002500Y-92467000D01*
G75*
G02*
X21102500Y-92367000I100000J0D01*
G01*
X22602500Y-92367000D01*
G75*
G02*
X22702500Y-92467000I0J-100000D01*
G01*
G37*
G36*
G01*
X22702500Y-92967000D02*
X22702500Y-93167000D01*
G75*
G02*
X22602500Y-93267000I-100000J0D01*
G01*
X21102500Y-93267000D01*
G75*
G02*
X21002500Y-93167000I0J100000D01*
G01*
X21002500Y-92967000D01*
G75*
G02*
X21102500Y-92867000I100000J0D01*
G01*
X22602500Y-92867000D01*
G75*
G02*
X22702500Y-92967000I0J-100000D01*
G01*
G37*
G36*
G01*
X22702500Y-93467000D02*
X22702500Y-93667000D01*
G75*
G02*
X22602500Y-93767000I-100000J0D01*
G01*
X21102500Y-93767000D01*
G75*
G02*
X21002500Y-93667000I0J100000D01*
G01*
X21002500Y-93467000D01*
G75*
G02*
X21102500Y-93367000I100000J0D01*
G01*
X22602500Y-93367000D01*
G75*
G02*
X22702500Y-93467000I0J-100000D01*
G01*
G37*
G36*
G01*
X22702500Y-93967000D02*
X22702500Y-94167000D01*
G75*
G02*
X22602500Y-94267000I-100000J0D01*
G01*
X21102500Y-94267000D01*
G75*
G02*
X21002500Y-94167000I0J100000D01*
G01*
X21002500Y-93967000D01*
G75*
G02*
X21102500Y-93867000I100000J0D01*
G01*
X22602500Y-93867000D01*
G75*
G02*
X22702500Y-93967000I0J-100000D01*
G01*
G37*
G36*
G01*
X22702500Y-94467000D02*
X22702500Y-94667000D01*
G75*
G02*
X22602500Y-94767000I-100000J0D01*
G01*
X21102500Y-94767000D01*
G75*
G02*
X21002500Y-94667000I0J100000D01*
G01*
X21002500Y-94467000D01*
G75*
G02*
X21102500Y-94367000I100000J0D01*
G01*
X22602500Y-94367000D01*
G75*
G02*
X22702500Y-94467000I0J-100000D01*
G01*
G37*
G36*
G01*
X22702500Y-94967000D02*
X22702500Y-95167000D01*
G75*
G02*
X22602500Y-95267000I-100000J0D01*
G01*
X21102500Y-95267000D01*
G75*
G02*
X21002500Y-95167000I0J100000D01*
G01*
X21002500Y-94967000D01*
G75*
G02*
X21102500Y-94867000I100000J0D01*
G01*
X22602500Y-94867000D01*
G75*
G02*
X22702500Y-94967000I0J-100000D01*
G01*
G37*
G36*
G01*
X22702500Y-95467000D02*
X22702500Y-95667000D01*
G75*
G02*
X22602500Y-95767000I-100000J0D01*
G01*
X21102500Y-95767000D01*
G75*
G02*
X21002500Y-95667000I0J100000D01*
G01*
X21002500Y-95467000D01*
G75*
G02*
X21102500Y-95367000I100000J0D01*
G01*
X22602500Y-95367000D01*
G75*
G02*
X22702500Y-95467000I0J-100000D01*
G01*
G37*
G36*
G01*
X22702500Y-95967000D02*
X22702500Y-96167000D01*
G75*
G02*
X22602500Y-96267000I-100000J0D01*
G01*
X21102500Y-96267000D01*
G75*
G02*
X21002500Y-96167000I0J100000D01*
G01*
X21002500Y-95967000D01*
G75*
G02*
X21102500Y-95867000I100000J0D01*
G01*
X22602500Y-95867000D01*
G75*
G02*
X22702500Y-95967000I0J-100000D01*
G01*
G37*
G36*
G01*
X22702500Y-96467000D02*
X22702500Y-96667000D01*
G75*
G02*
X22602500Y-96767000I-100000J0D01*
G01*
X21102500Y-96767000D01*
G75*
G02*
X21002500Y-96667000I0J100000D01*
G01*
X21002500Y-96467000D01*
G75*
G02*
X21102500Y-96367000I100000J0D01*
G01*
X22602500Y-96367000D01*
G75*
G02*
X22702500Y-96467000I0J-100000D01*
G01*
G37*
G36*
G01*
X22702500Y-96967000D02*
X22702500Y-97167000D01*
G75*
G02*
X22602500Y-97267000I-100000J0D01*
G01*
X21102500Y-97267000D01*
G75*
G02*
X21002500Y-97167000I0J100000D01*
G01*
X21002500Y-96967000D01*
G75*
G02*
X21102500Y-96867000I100000J0D01*
G01*
X22602500Y-96867000D01*
G75*
G02*
X22702500Y-96967000I0J-100000D01*
G01*
G37*
G36*
G01*
X22702500Y-97467000D02*
X22702500Y-97667000D01*
G75*
G02*
X22602500Y-97767000I-100000J0D01*
G01*
X21102500Y-97767000D01*
G75*
G02*
X21002500Y-97667000I0J100000D01*
G01*
X21002500Y-97467000D01*
G75*
G02*
X21102500Y-97367000I100000J0D01*
G01*
X22602500Y-97367000D01*
G75*
G02*
X22702500Y-97467000I0J-100000D01*
G01*
G37*
G36*
G01*
X23727500Y-98492000D02*
X23727500Y-99992000D01*
G75*
G02*
X23627500Y-100092000I-100000J0D01*
G01*
X23427500Y-100092000D01*
G75*
G02*
X23327500Y-99992000I0J100000D01*
G01*
X23327500Y-98492000D01*
G75*
G02*
X23427500Y-98392000I100000J0D01*
G01*
X23627500Y-98392000D01*
G75*
G02*
X23727500Y-98492000I0J-100000D01*
G01*
G37*
G36*
G01*
X24227500Y-98492000D02*
X24227500Y-99992000D01*
G75*
G02*
X24127500Y-100092000I-100000J0D01*
G01*
X23927500Y-100092000D01*
G75*
G02*
X23827500Y-99992000I0J100000D01*
G01*
X23827500Y-98492000D01*
G75*
G02*
X23927500Y-98392000I100000J0D01*
G01*
X24127500Y-98392000D01*
G75*
G02*
X24227500Y-98492000I0J-100000D01*
G01*
G37*
G36*
G01*
X24727500Y-98492000D02*
X24727500Y-99992000D01*
G75*
G02*
X24627500Y-100092000I-100000J0D01*
G01*
X24427500Y-100092000D01*
G75*
G02*
X24327500Y-99992000I0J100000D01*
G01*
X24327500Y-98492000D01*
G75*
G02*
X24427500Y-98392000I100000J0D01*
G01*
X24627500Y-98392000D01*
G75*
G02*
X24727500Y-98492000I0J-100000D01*
G01*
G37*
G36*
G01*
X25227500Y-98492000D02*
X25227500Y-99992000D01*
G75*
G02*
X25127500Y-100092000I-100000J0D01*
G01*
X24927500Y-100092000D01*
G75*
G02*
X24827500Y-99992000I0J100000D01*
G01*
X24827500Y-98492000D01*
G75*
G02*
X24927500Y-98392000I100000J0D01*
G01*
X25127500Y-98392000D01*
G75*
G02*
X25227500Y-98492000I0J-100000D01*
G01*
G37*
G36*
G01*
X25727500Y-98492000D02*
X25727500Y-99992000D01*
G75*
G02*
X25627500Y-100092000I-100000J0D01*
G01*
X25427500Y-100092000D01*
G75*
G02*
X25327500Y-99992000I0J100000D01*
G01*
X25327500Y-98492000D01*
G75*
G02*
X25427500Y-98392000I100000J0D01*
G01*
X25627500Y-98392000D01*
G75*
G02*
X25727500Y-98492000I0J-100000D01*
G01*
G37*
G36*
G01*
X26227500Y-98492000D02*
X26227500Y-99992000D01*
G75*
G02*
X26127500Y-100092000I-100000J0D01*
G01*
X25927500Y-100092000D01*
G75*
G02*
X25827500Y-99992000I0J100000D01*
G01*
X25827500Y-98492000D01*
G75*
G02*
X25927500Y-98392000I100000J0D01*
G01*
X26127500Y-98392000D01*
G75*
G02*
X26227500Y-98492000I0J-100000D01*
G01*
G37*
G36*
G01*
X26727500Y-98492000D02*
X26727500Y-99992000D01*
G75*
G02*
X26627500Y-100092000I-100000J0D01*
G01*
X26427500Y-100092000D01*
G75*
G02*
X26327500Y-99992000I0J100000D01*
G01*
X26327500Y-98492000D01*
G75*
G02*
X26427500Y-98392000I100000J0D01*
G01*
X26627500Y-98392000D01*
G75*
G02*
X26727500Y-98492000I0J-100000D01*
G01*
G37*
G36*
G01*
X27227500Y-98492000D02*
X27227500Y-99992000D01*
G75*
G02*
X27127500Y-100092000I-100000J0D01*
G01*
X26927500Y-100092000D01*
G75*
G02*
X26827500Y-99992000I0J100000D01*
G01*
X26827500Y-98492000D01*
G75*
G02*
X26927500Y-98392000I100000J0D01*
G01*
X27127500Y-98392000D01*
G75*
G02*
X27227500Y-98492000I0J-100000D01*
G01*
G37*
G36*
G01*
X27727500Y-98492000D02*
X27727500Y-99992000D01*
G75*
G02*
X27627500Y-100092000I-100000J0D01*
G01*
X27427500Y-100092000D01*
G75*
G02*
X27327500Y-99992000I0J100000D01*
G01*
X27327500Y-98492000D01*
G75*
G02*
X27427500Y-98392000I100000J0D01*
G01*
X27627500Y-98392000D01*
G75*
G02*
X27727500Y-98492000I0J-100000D01*
G01*
G37*
G36*
G01*
X28227500Y-98492000D02*
X28227500Y-99992000D01*
G75*
G02*
X28127500Y-100092000I-100000J0D01*
G01*
X27927500Y-100092000D01*
G75*
G02*
X27827500Y-99992000I0J100000D01*
G01*
X27827500Y-98492000D01*
G75*
G02*
X27927500Y-98392000I100000J0D01*
G01*
X28127500Y-98392000D01*
G75*
G02*
X28227500Y-98492000I0J-100000D01*
G01*
G37*
G36*
G01*
X28727500Y-98492000D02*
X28727500Y-99992000D01*
G75*
G02*
X28627500Y-100092000I-100000J0D01*
G01*
X28427500Y-100092000D01*
G75*
G02*
X28327500Y-99992000I0J100000D01*
G01*
X28327500Y-98492000D01*
G75*
G02*
X28427500Y-98392000I100000J0D01*
G01*
X28627500Y-98392000D01*
G75*
G02*
X28727500Y-98492000I0J-100000D01*
G01*
G37*
G36*
G01*
X29227500Y-98492000D02*
X29227500Y-99992000D01*
G75*
G02*
X29127500Y-100092000I-100000J0D01*
G01*
X28927500Y-100092000D01*
G75*
G02*
X28827500Y-99992000I0J100000D01*
G01*
X28827500Y-98492000D01*
G75*
G02*
X28927500Y-98392000I100000J0D01*
G01*
X29127500Y-98392000D01*
G75*
G02*
X29227500Y-98492000I0J-100000D01*
G01*
G37*
G36*
G01*
X29727500Y-98492000D02*
X29727500Y-99992000D01*
G75*
G02*
X29627500Y-100092000I-100000J0D01*
G01*
X29427500Y-100092000D01*
G75*
G02*
X29327500Y-99992000I0J100000D01*
G01*
X29327500Y-98492000D01*
G75*
G02*
X29427500Y-98392000I100000J0D01*
G01*
X29627500Y-98392000D01*
G75*
G02*
X29727500Y-98492000I0J-100000D01*
G01*
G37*
G36*
G01*
X30227500Y-98492000D02*
X30227500Y-99992000D01*
G75*
G02*
X30127500Y-100092000I-100000J0D01*
G01*
X29927500Y-100092000D01*
G75*
G02*
X29827500Y-99992000I0J100000D01*
G01*
X29827500Y-98492000D01*
G75*
G02*
X29927500Y-98392000I100000J0D01*
G01*
X30127500Y-98392000D01*
G75*
G02*
X30227500Y-98492000I0J-100000D01*
G01*
G37*
G36*
G01*
X30727500Y-98492000D02*
X30727500Y-99992000D01*
G75*
G02*
X30627500Y-100092000I-100000J0D01*
G01*
X30427500Y-100092000D01*
G75*
G02*
X30327500Y-99992000I0J100000D01*
G01*
X30327500Y-98492000D01*
G75*
G02*
X30427500Y-98392000I100000J0D01*
G01*
X30627500Y-98392000D01*
G75*
G02*
X30727500Y-98492000I0J-100000D01*
G01*
G37*
G36*
G01*
X31227500Y-98492000D02*
X31227500Y-99992000D01*
G75*
G02*
X31127500Y-100092000I-100000J0D01*
G01*
X30927500Y-100092000D01*
G75*
G02*
X30827500Y-99992000I0J100000D01*
G01*
X30827500Y-98492000D01*
G75*
G02*
X30927500Y-98392000I100000J0D01*
G01*
X31127500Y-98392000D01*
G75*
G02*
X31227500Y-98492000I0J-100000D01*
G01*
G37*
G36*
G01*
X31727500Y-98492000D02*
X31727500Y-99992000D01*
G75*
G02*
X31627500Y-100092000I-100000J0D01*
G01*
X31427500Y-100092000D01*
G75*
G02*
X31327500Y-99992000I0J100000D01*
G01*
X31327500Y-98492000D01*
G75*
G02*
X31427500Y-98392000I100000J0D01*
G01*
X31627500Y-98392000D01*
G75*
G02*
X31727500Y-98492000I0J-100000D01*
G01*
G37*
G36*
G01*
X32227500Y-98492000D02*
X32227500Y-99992000D01*
G75*
G02*
X32127500Y-100092000I-100000J0D01*
G01*
X31927500Y-100092000D01*
G75*
G02*
X31827500Y-99992000I0J100000D01*
G01*
X31827500Y-98492000D01*
G75*
G02*
X31927500Y-98392000I100000J0D01*
G01*
X32127500Y-98392000D01*
G75*
G02*
X32227500Y-98492000I0J-100000D01*
G01*
G37*
G36*
G01*
X32727500Y-98492000D02*
X32727500Y-99992000D01*
G75*
G02*
X32627500Y-100092000I-100000J0D01*
G01*
X32427500Y-100092000D01*
G75*
G02*
X32327500Y-99992000I0J100000D01*
G01*
X32327500Y-98492000D01*
G75*
G02*
X32427500Y-98392000I100000J0D01*
G01*
X32627500Y-98392000D01*
G75*
G02*
X32727500Y-98492000I0J-100000D01*
G01*
G37*
G36*
G01*
X33227500Y-98492000D02*
X33227500Y-99992000D01*
G75*
G02*
X33127500Y-100092000I-100000J0D01*
G01*
X32927500Y-100092000D01*
G75*
G02*
X32827500Y-99992000I0J100000D01*
G01*
X32827500Y-98492000D01*
G75*
G02*
X32927500Y-98392000I100000J0D01*
G01*
X33127500Y-98392000D01*
G75*
G02*
X33227500Y-98492000I0J-100000D01*
G01*
G37*
G36*
G01*
X33727500Y-98492000D02*
X33727500Y-99992000D01*
G75*
G02*
X33627500Y-100092000I-100000J0D01*
G01*
X33427500Y-100092000D01*
G75*
G02*
X33327500Y-99992000I0J100000D01*
G01*
X33327500Y-98492000D01*
G75*
G02*
X33427500Y-98392000I100000J0D01*
G01*
X33627500Y-98392000D01*
G75*
G02*
X33727500Y-98492000I0J-100000D01*
G01*
G37*
G36*
G01*
X34227500Y-98492000D02*
X34227500Y-99992000D01*
G75*
G02*
X34127500Y-100092000I-100000J0D01*
G01*
X33927500Y-100092000D01*
G75*
G02*
X33827500Y-99992000I0J100000D01*
G01*
X33827500Y-98492000D01*
G75*
G02*
X33927500Y-98392000I100000J0D01*
G01*
X34127500Y-98392000D01*
G75*
G02*
X34227500Y-98492000I0J-100000D01*
G01*
G37*
G36*
G01*
X34727500Y-98492000D02*
X34727500Y-99992000D01*
G75*
G02*
X34627500Y-100092000I-100000J0D01*
G01*
X34427500Y-100092000D01*
G75*
G02*
X34327500Y-99992000I0J100000D01*
G01*
X34327500Y-98492000D01*
G75*
G02*
X34427500Y-98392000I100000J0D01*
G01*
X34627500Y-98392000D01*
G75*
G02*
X34727500Y-98492000I0J-100000D01*
G01*
G37*
G36*
G01*
X35227500Y-98492000D02*
X35227500Y-99992000D01*
G75*
G02*
X35127500Y-100092000I-100000J0D01*
G01*
X34927500Y-100092000D01*
G75*
G02*
X34827500Y-99992000I0J100000D01*
G01*
X34827500Y-98492000D01*
G75*
G02*
X34927500Y-98392000I100000J0D01*
G01*
X35127500Y-98392000D01*
G75*
G02*
X35227500Y-98492000I0J-100000D01*
G01*
G37*
G36*
G01*
X35727500Y-98492000D02*
X35727500Y-99992000D01*
G75*
G02*
X35627500Y-100092000I-100000J0D01*
G01*
X35427500Y-100092000D01*
G75*
G02*
X35327500Y-99992000I0J100000D01*
G01*
X35327500Y-98492000D01*
G75*
G02*
X35427500Y-98392000I100000J0D01*
G01*
X35627500Y-98392000D01*
G75*
G02*
X35727500Y-98492000I0J-100000D01*
G01*
G37*
%TD*%
%TO.C,C20*%
G36*
G01*
X-26867500Y-88763000D02*
X-26472500Y-88763000D01*
G75*
G02*
X-26300000Y-88935500I0J-172500D01*
G01*
X-26300000Y-89280500D01*
G75*
G02*
X-26472500Y-89453000I-172500J0D01*
G01*
X-26867500Y-89453000D01*
G75*
G02*
X-27040000Y-89280500I0J172500D01*
G01*
X-27040000Y-88935500D01*
G75*
G02*
X-26867500Y-88763000I172500J0D01*
G01*
G37*
G36*
G01*
X-26867500Y-87793000D02*
X-26472500Y-87793000D01*
G75*
G02*
X-26300000Y-87965500I0J-172500D01*
G01*
X-26300000Y-88310500D01*
G75*
G02*
X-26472500Y-88483000I-172500J0D01*
G01*
X-26867500Y-88483000D01*
G75*
G02*
X-27040000Y-88310500I0J172500D01*
G01*
X-27040000Y-87965500D01*
G75*
G02*
X-26867500Y-87793000I172500J0D01*
G01*
G37*
%TD*%
%TO.C,C8*%
G36*
G01*
X21025500Y-82069500D02*
X20630500Y-82069500D01*
G75*
G02*
X20458000Y-81897000I0J172500D01*
G01*
X20458000Y-81552000D01*
G75*
G02*
X20630500Y-81379500I172500J0D01*
G01*
X21025500Y-81379500D01*
G75*
G02*
X21198000Y-81552000I0J-172500D01*
G01*
X21198000Y-81897000D01*
G75*
G02*
X21025500Y-82069500I-172500J0D01*
G01*
G37*
G36*
G01*
X21025500Y-81099500D02*
X20630500Y-81099500D01*
G75*
G02*
X20458000Y-80927000I0J172500D01*
G01*
X20458000Y-80582000D01*
G75*
G02*
X20630500Y-80409500I172500J0D01*
G01*
X21025500Y-80409500D01*
G75*
G02*
X21198000Y-80582000I0J-172500D01*
G01*
X21198000Y-80927000D01*
G75*
G02*
X21025500Y-81099500I-172500J0D01*
G01*
G37*
%TD*%
D12*
%TO.C,J12*%
X-41021000Y-77025500D03*
D13*
X-38481000Y-77025500D03*
X-41021000Y-79565500D03*
X-38481000Y-79565500D03*
X-41021000Y-82105500D03*
X-38481000Y-82105500D03*
X-41021000Y-84645500D03*
X-38481000Y-84645500D03*
X-41021000Y-87185500D03*
X-38481000Y-87185500D03*
X-41021000Y-89725500D03*
X-38481000Y-89725500D03*
%TD*%
%TO.C,C31*%
G36*
G01*
X-30824750Y-96286500D02*
X-30262250Y-96286500D01*
G75*
G02*
X-30018500Y-96530250I0J-243750D01*
G01*
X-30018500Y-97017750D01*
G75*
G02*
X-30262250Y-97261500I-243750J0D01*
G01*
X-30824750Y-97261500D01*
G75*
G02*
X-31068500Y-97017750I0J243750D01*
G01*
X-31068500Y-96530250D01*
G75*
G02*
X-30824750Y-96286500I243750J0D01*
G01*
G37*
G36*
G01*
X-30824750Y-94711500D02*
X-30262250Y-94711500D01*
G75*
G02*
X-30018500Y-94955250I0J-243750D01*
G01*
X-30018500Y-95442750D01*
G75*
G02*
X-30262250Y-95686500I-243750J0D01*
G01*
X-30824750Y-95686500D01*
G75*
G02*
X-31068500Y-95442750I0J243750D01*
G01*
X-31068500Y-94955250D01*
G75*
G02*
X-30824750Y-94711500I243750J0D01*
G01*
G37*
%TD*%
D14*
%TO.C,TP8*%
X-10985500Y-88773000D03*
%TD*%
%TO.C,U4*%
G36*
G01*
X-24991500Y-88613000D02*
X-25241500Y-88613000D01*
G75*
G02*
X-25366500Y-88488000I0J125000D01*
G01*
X-25366500Y-87163000D01*
G75*
G02*
X-25241500Y-87038000I125000J0D01*
G01*
X-24991500Y-87038000D01*
G75*
G02*
X-24866500Y-87163000I0J-125000D01*
G01*
X-24866500Y-88488000D01*
G75*
G02*
X-24991500Y-88613000I-125000J0D01*
G01*
G37*
G36*
G01*
X-24341500Y-88613000D02*
X-24591500Y-88613000D01*
G75*
G02*
X-24716500Y-88488000I0J125000D01*
G01*
X-24716500Y-87163000D01*
G75*
G02*
X-24591500Y-87038000I125000J0D01*
G01*
X-24341500Y-87038000D01*
G75*
G02*
X-24216500Y-87163000I0J-125000D01*
G01*
X-24216500Y-88488000D01*
G75*
G02*
X-24341500Y-88613000I-125000J0D01*
G01*
G37*
G36*
G01*
X-23691500Y-88613000D02*
X-23941500Y-88613000D01*
G75*
G02*
X-24066500Y-88488000I0J125000D01*
G01*
X-24066500Y-87163000D01*
G75*
G02*
X-23941500Y-87038000I125000J0D01*
G01*
X-23691500Y-87038000D01*
G75*
G02*
X-23566500Y-87163000I0J-125000D01*
G01*
X-23566500Y-88488000D01*
G75*
G02*
X-23691500Y-88613000I-125000J0D01*
G01*
G37*
G36*
G01*
X-23041500Y-88613000D02*
X-23291500Y-88613000D01*
G75*
G02*
X-23416500Y-88488000I0J125000D01*
G01*
X-23416500Y-87163000D01*
G75*
G02*
X-23291500Y-87038000I125000J0D01*
G01*
X-23041500Y-87038000D01*
G75*
G02*
X-22916500Y-87163000I0J-125000D01*
G01*
X-22916500Y-88488000D01*
G75*
G02*
X-23041500Y-88613000I-125000J0D01*
G01*
G37*
G36*
G01*
X-22391500Y-88613000D02*
X-22641500Y-88613000D01*
G75*
G02*
X-22766500Y-88488000I0J125000D01*
G01*
X-22766500Y-87163000D01*
G75*
G02*
X-22641500Y-87038000I125000J0D01*
G01*
X-22391500Y-87038000D01*
G75*
G02*
X-22266500Y-87163000I0J-125000D01*
G01*
X-22266500Y-88488000D01*
G75*
G02*
X-22391500Y-88613000I-125000J0D01*
G01*
G37*
G36*
G01*
X-21741500Y-88613000D02*
X-21991500Y-88613000D01*
G75*
G02*
X-22116500Y-88488000I0J125000D01*
G01*
X-22116500Y-87163000D01*
G75*
G02*
X-21991500Y-87038000I125000J0D01*
G01*
X-21741500Y-87038000D01*
G75*
G02*
X-21616500Y-87163000I0J-125000D01*
G01*
X-21616500Y-88488000D01*
G75*
G02*
X-21741500Y-88613000I-125000J0D01*
G01*
G37*
G36*
G01*
X-21091500Y-88613000D02*
X-21341500Y-88613000D01*
G75*
G02*
X-21466500Y-88488000I0J125000D01*
G01*
X-21466500Y-87163000D01*
G75*
G02*
X-21341500Y-87038000I125000J0D01*
G01*
X-21091500Y-87038000D01*
G75*
G02*
X-20966500Y-87163000I0J-125000D01*
G01*
X-20966500Y-88488000D01*
G75*
G02*
X-21091500Y-88613000I-125000J0D01*
G01*
G37*
G36*
G01*
X-20441500Y-88613000D02*
X-20691500Y-88613000D01*
G75*
G02*
X-20816500Y-88488000I0J125000D01*
G01*
X-20816500Y-87163000D01*
G75*
G02*
X-20691500Y-87038000I125000J0D01*
G01*
X-20441500Y-87038000D01*
G75*
G02*
X-20316500Y-87163000I0J-125000D01*
G01*
X-20316500Y-88488000D01*
G75*
G02*
X-20441500Y-88613000I-125000J0D01*
G01*
G37*
G36*
G01*
X-19791500Y-88613000D02*
X-20041500Y-88613000D01*
G75*
G02*
X-20166500Y-88488000I0J125000D01*
G01*
X-20166500Y-87163000D01*
G75*
G02*
X-20041500Y-87038000I125000J0D01*
G01*
X-19791500Y-87038000D01*
G75*
G02*
X-19666500Y-87163000I0J-125000D01*
G01*
X-19666500Y-88488000D01*
G75*
G02*
X-19791500Y-88613000I-125000J0D01*
G01*
G37*
G36*
G01*
X-19141500Y-88613000D02*
X-19391500Y-88613000D01*
G75*
G02*
X-19516500Y-88488000I0J125000D01*
G01*
X-19516500Y-87163000D01*
G75*
G02*
X-19391500Y-87038000I125000J0D01*
G01*
X-19141500Y-87038000D01*
G75*
G02*
X-19016500Y-87163000I0J-125000D01*
G01*
X-19016500Y-88488000D01*
G75*
G02*
X-19141500Y-88613000I-125000J0D01*
G01*
G37*
G36*
G01*
X-18491500Y-88613000D02*
X-18741500Y-88613000D01*
G75*
G02*
X-18866500Y-88488000I0J125000D01*
G01*
X-18866500Y-87163000D01*
G75*
G02*
X-18741500Y-87038000I125000J0D01*
G01*
X-18491500Y-87038000D01*
G75*
G02*
X-18366500Y-87163000I0J-125000D01*
G01*
X-18366500Y-88488000D01*
G75*
G02*
X-18491500Y-88613000I-125000J0D01*
G01*
G37*
G36*
G01*
X-17841500Y-88613000D02*
X-18091500Y-88613000D01*
G75*
G02*
X-18216500Y-88488000I0J125000D01*
G01*
X-18216500Y-87163000D01*
G75*
G02*
X-18091500Y-87038000I125000J0D01*
G01*
X-17841500Y-87038000D01*
G75*
G02*
X-17716500Y-87163000I0J-125000D01*
G01*
X-17716500Y-88488000D01*
G75*
G02*
X-17841500Y-88613000I-125000J0D01*
G01*
G37*
G36*
G01*
X-17191500Y-88613000D02*
X-17441500Y-88613000D01*
G75*
G02*
X-17566500Y-88488000I0J125000D01*
G01*
X-17566500Y-87163000D01*
G75*
G02*
X-17441500Y-87038000I125000J0D01*
G01*
X-17191500Y-87038000D01*
G75*
G02*
X-17066500Y-87163000I0J-125000D01*
G01*
X-17066500Y-88488000D01*
G75*
G02*
X-17191500Y-88613000I-125000J0D01*
G01*
G37*
G36*
G01*
X-16541500Y-88613000D02*
X-16791500Y-88613000D01*
G75*
G02*
X-16916500Y-88488000I0J125000D01*
G01*
X-16916500Y-87163000D01*
G75*
G02*
X-16791500Y-87038000I125000J0D01*
G01*
X-16541500Y-87038000D01*
G75*
G02*
X-16416500Y-87163000I0J-125000D01*
G01*
X-16416500Y-88488000D01*
G75*
G02*
X-16541500Y-88613000I-125000J0D01*
G01*
G37*
G36*
G01*
X-16541500Y-82888000D02*
X-16791500Y-82888000D01*
G75*
G02*
X-16916500Y-82763000I0J125000D01*
G01*
X-16916500Y-81438000D01*
G75*
G02*
X-16791500Y-81313000I125000J0D01*
G01*
X-16541500Y-81313000D01*
G75*
G02*
X-16416500Y-81438000I0J-125000D01*
G01*
X-16416500Y-82763000D01*
G75*
G02*
X-16541500Y-82888000I-125000J0D01*
G01*
G37*
G36*
G01*
X-17191500Y-82888000D02*
X-17441500Y-82888000D01*
G75*
G02*
X-17566500Y-82763000I0J125000D01*
G01*
X-17566500Y-81438000D01*
G75*
G02*
X-17441500Y-81313000I125000J0D01*
G01*
X-17191500Y-81313000D01*
G75*
G02*
X-17066500Y-81438000I0J-125000D01*
G01*
X-17066500Y-82763000D01*
G75*
G02*
X-17191500Y-82888000I-125000J0D01*
G01*
G37*
G36*
G01*
X-17841500Y-82888000D02*
X-18091500Y-82888000D01*
G75*
G02*
X-18216500Y-82763000I0J125000D01*
G01*
X-18216500Y-81438000D01*
G75*
G02*
X-18091500Y-81313000I125000J0D01*
G01*
X-17841500Y-81313000D01*
G75*
G02*
X-17716500Y-81438000I0J-125000D01*
G01*
X-17716500Y-82763000D01*
G75*
G02*
X-17841500Y-82888000I-125000J0D01*
G01*
G37*
G36*
G01*
X-18491500Y-82888000D02*
X-18741500Y-82888000D01*
G75*
G02*
X-18866500Y-82763000I0J125000D01*
G01*
X-18866500Y-81438000D01*
G75*
G02*
X-18741500Y-81313000I125000J0D01*
G01*
X-18491500Y-81313000D01*
G75*
G02*
X-18366500Y-81438000I0J-125000D01*
G01*
X-18366500Y-82763000D01*
G75*
G02*
X-18491500Y-82888000I-125000J0D01*
G01*
G37*
G36*
G01*
X-19141500Y-82888000D02*
X-19391500Y-82888000D01*
G75*
G02*
X-19516500Y-82763000I0J125000D01*
G01*
X-19516500Y-81438000D01*
G75*
G02*
X-19391500Y-81313000I125000J0D01*
G01*
X-19141500Y-81313000D01*
G75*
G02*
X-19016500Y-81438000I0J-125000D01*
G01*
X-19016500Y-82763000D01*
G75*
G02*
X-19141500Y-82888000I-125000J0D01*
G01*
G37*
G36*
G01*
X-19791500Y-82888000D02*
X-20041500Y-82888000D01*
G75*
G02*
X-20166500Y-82763000I0J125000D01*
G01*
X-20166500Y-81438000D01*
G75*
G02*
X-20041500Y-81313000I125000J0D01*
G01*
X-19791500Y-81313000D01*
G75*
G02*
X-19666500Y-81438000I0J-125000D01*
G01*
X-19666500Y-82763000D01*
G75*
G02*
X-19791500Y-82888000I-125000J0D01*
G01*
G37*
G36*
G01*
X-20441500Y-82888000D02*
X-20691500Y-82888000D01*
G75*
G02*
X-20816500Y-82763000I0J125000D01*
G01*
X-20816500Y-81438000D01*
G75*
G02*
X-20691500Y-81313000I125000J0D01*
G01*
X-20441500Y-81313000D01*
G75*
G02*
X-20316500Y-81438000I0J-125000D01*
G01*
X-20316500Y-82763000D01*
G75*
G02*
X-20441500Y-82888000I-125000J0D01*
G01*
G37*
G36*
G01*
X-21091500Y-82888000D02*
X-21341500Y-82888000D01*
G75*
G02*
X-21466500Y-82763000I0J125000D01*
G01*
X-21466500Y-81438000D01*
G75*
G02*
X-21341500Y-81313000I125000J0D01*
G01*
X-21091500Y-81313000D01*
G75*
G02*
X-20966500Y-81438000I0J-125000D01*
G01*
X-20966500Y-82763000D01*
G75*
G02*
X-21091500Y-82888000I-125000J0D01*
G01*
G37*
G36*
G01*
X-21741500Y-82888000D02*
X-21991500Y-82888000D01*
G75*
G02*
X-22116500Y-82763000I0J125000D01*
G01*
X-22116500Y-81438000D01*
G75*
G02*
X-21991500Y-81313000I125000J0D01*
G01*
X-21741500Y-81313000D01*
G75*
G02*
X-21616500Y-81438000I0J-125000D01*
G01*
X-21616500Y-82763000D01*
G75*
G02*
X-21741500Y-82888000I-125000J0D01*
G01*
G37*
G36*
G01*
X-22391500Y-82888000D02*
X-22641500Y-82888000D01*
G75*
G02*
X-22766500Y-82763000I0J125000D01*
G01*
X-22766500Y-81438000D01*
G75*
G02*
X-22641500Y-81313000I125000J0D01*
G01*
X-22391500Y-81313000D01*
G75*
G02*
X-22266500Y-81438000I0J-125000D01*
G01*
X-22266500Y-82763000D01*
G75*
G02*
X-22391500Y-82888000I-125000J0D01*
G01*
G37*
G36*
G01*
X-23041500Y-82888000D02*
X-23291500Y-82888000D01*
G75*
G02*
X-23416500Y-82763000I0J125000D01*
G01*
X-23416500Y-81438000D01*
G75*
G02*
X-23291500Y-81313000I125000J0D01*
G01*
X-23041500Y-81313000D01*
G75*
G02*
X-22916500Y-81438000I0J-125000D01*
G01*
X-22916500Y-82763000D01*
G75*
G02*
X-23041500Y-82888000I-125000J0D01*
G01*
G37*
G36*
G01*
X-23691500Y-82888000D02*
X-23941500Y-82888000D01*
G75*
G02*
X-24066500Y-82763000I0J125000D01*
G01*
X-24066500Y-81438000D01*
G75*
G02*
X-23941500Y-81313000I125000J0D01*
G01*
X-23691500Y-81313000D01*
G75*
G02*
X-23566500Y-81438000I0J-125000D01*
G01*
X-23566500Y-82763000D01*
G75*
G02*
X-23691500Y-82888000I-125000J0D01*
G01*
G37*
G36*
G01*
X-24341500Y-82888000D02*
X-24591500Y-82888000D01*
G75*
G02*
X-24716500Y-82763000I0J125000D01*
G01*
X-24716500Y-81438000D01*
G75*
G02*
X-24591500Y-81313000I125000J0D01*
G01*
X-24341500Y-81313000D01*
G75*
G02*
X-24216500Y-81438000I0J-125000D01*
G01*
X-24216500Y-82763000D01*
G75*
G02*
X-24341500Y-82888000I-125000J0D01*
G01*
G37*
G36*
G01*
X-24991500Y-82888000D02*
X-25241500Y-82888000D01*
G75*
G02*
X-25366500Y-82763000I0J125000D01*
G01*
X-25366500Y-81438000D01*
G75*
G02*
X-25241500Y-81313000I125000J0D01*
G01*
X-24991500Y-81313000D01*
G75*
G02*
X-24866500Y-81438000I0J-125000D01*
G01*
X-24866500Y-82763000D01*
G75*
G02*
X-24991500Y-82888000I-125000J0D01*
G01*
G37*
%TD*%
%TO.C,C40*%
G36*
G01*
X-23095500Y-93288500D02*
X-23095500Y-92893500D01*
G75*
G02*
X-22923000Y-92721000I172500J0D01*
G01*
X-22578000Y-92721000D01*
G75*
G02*
X-22405500Y-92893500I0J-172500D01*
G01*
X-22405500Y-93288500D01*
G75*
G02*
X-22578000Y-93461000I-172500J0D01*
G01*
X-22923000Y-93461000D01*
G75*
G02*
X-23095500Y-93288500I0J172500D01*
G01*
G37*
G36*
G01*
X-22125500Y-93288500D02*
X-22125500Y-92893500D01*
G75*
G02*
X-21953000Y-92721000I172500J0D01*
G01*
X-21608000Y-92721000D01*
G75*
G02*
X-21435500Y-92893500I0J-172500D01*
G01*
X-21435500Y-93288500D01*
G75*
G02*
X-21608000Y-93461000I-172500J0D01*
G01*
X-21953000Y-93461000D01*
G75*
G02*
X-22125500Y-93288500I0J172500D01*
G01*
G37*
%TD*%
%TO.C,C9*%
G36*
G01*
X20492000Y-98164000D02*
X20492000Y-98559000D01*
G75*
G02*
X20319500Y-98731500I-172500J0D01*
G01*
X19974500Y-98731500D01*
G75*
G02*
X19802000Y-98559000I0J172500D01*
G01*
X19802000Y-98164000D01*
G75*
G02*
X19974500Y-97991500I172500J0D01*
G01*
X20319500Y-97991500D01*
G75*
G02*
X20492000Y-98164000I0J-172500D01*
G01*
G37*
G36*
G01*
X19522000Y-98164000D02*
X19522000Y-98559000D01*
G75*
G02*
X19349500Y-98731500I-172500J0D01*
G01*
X19004500Y-98731500D01*
G75*
G02*
X18832000Y-98559000I0J172500D01*
G01*
X18832000Y-98164000D01*
G75*
G02*
X19004500Y-97991500I172500J0D01*
G01*
X19349500Y-97991500D01*
G75*
G02*
X19522000Y-98164000I0J-172500D01*
G01*
G37*
%TD*%
%TO.C,U5*%
G36*
G01*
X-33854500Y-96441000D02*
X-33854500Y-96091000D01*
G75*
G02*
X-33679500Y-95916000I175000J0D01*
G01*
X-31979500Y-95916000D01*
G75*
G02*
X-31804500Y-96091000I0J-175000D01*
G01*
X-31804500Y-96441000D01*
G75*
G02*
X-31979500Y-96616000I-175000J0D01*
G01*
X-33679500Y-96616000D01*
G75*
G02*
X-33854500Y-96441000I0J175000D01*
G01*
G37*
G36*
G01*
X-33854500Y-97711000D02*
X-33854500Y-97361000D01*
G75*
G02*
X-33679500Y-97186000I175000J0D01*
G01*
X-31979500Y-97186000D01*
G75*
G02*
X-31804500Y-97361000I0J-175000D01*
G01*
X-31804500Y-97711000D01*
G75*
G02*
X-31979500Y-97886000I-175000J0D01*
G01*
X-33679500Y-97886000D01*
G75*
G02*
X-33854500Y-97711000I0J175000D01*
G01*
G37*
G36*
G01*
X-33854500Y-98981000D02*
X-33854500Y-98631000D01*
G75*
G02*
X-33679500Y-98456000I175000J0D01*
G01*
X-31979500Y-98456000D01*
G75*
G02*
X-31804500Y-98631000I0J-175000D01*
G01*
X-31804500Y-98981000D01*
G75*
G02*
X-31979500Y-99156000I-175000J0D01*
G01*
X-33679500Y-99156000D01*
G75*
G02*
X-33854500Y-98981000I0J175000D01*
G01*
G37*
G36*
G01*
X-33854500Y-100251000D02*
X-33854500Y-99901000D01*
G75*
G02*
X-33679500Y-99726000I175000J0D01*
G01*
X-31979500Y-99726000D01*
G75*
G02*
X-31804500Y-99901000I0J-175000D01*
G01*
X-31804500Y-100251000D01*
G75*
G02*
X-31979500Y-100426000I-175000J0D01*
G01*
X-33679500Y-100426000D01*
G75*
G02*
X-33854500Y-100251000I0J175000D01*
G01*
G37*
G36*
G01*
X-38804500Y-100251000D02*
X-38804500Y-99901000D01*
G75*
G02*
X-38629500Y-99726000I175000J0D01*
G01*
X-36929500Y-99726000D01*
G75*
G02*
X-36754500Y-99901000I0J-175000D01*
G01*
X-36754500Y-100251000D01*
G75*
G02*
X-36929500Y-100426000I-175000J0D01*
G01*
X-38629500Y-100426000D01*
G75*
G02*
X-38804500Y-100251000I0J175000D01*
G01*
G37*
G36*
G01*
X-38804500Y-98981000D02*
X-38804500Y-98631000D01*
G75*
G02*
X-38629500Y-98456000I175000J0D01*
G01*
X-36929500Y-98456000D01*
G75*
G02*
X-36754500Y-98631000I0J-175000D01*
G01*
X-36754500Y-98981000D01*
G75*
G02*
X-36929500Y-99156000I-175000J0D01*
G01*
X-38629500Y-99156000D01*
G75*
G02*
X-38804500Y-98981000I0J175000D01*
G01*
G37*
G36*
G01*
X-38804500Y-97711000D02*
X-38804500Y-97361000D01*
G75*
G02*
X-38629500Y-97186000I175000J0D01*
G01*
X-36929500Y-97186000D01*
G75*
G02*
X-36754500Y-97361000I0J-175000D01*
G01*
X-36754500Y-97711000D01*
G75*
G02*
X-36929500Y-97886000I-175000J0D01*
G01*
X-38629500Y-97886000D01*
G75*
G02*
X-38804500Y-97711000I0J175000D01*
G01*
G37*
G36*
G01*
X-38804500Y-96441000D02*
X-38804500Y-96091000D01*
G75*
G02*
X-38629500Y-95916000I175000J0D01*
G01*
X-36929500Y-95916000D01*
G75*
G02*
X-36754500Y-96091000I0J-175000D01*
G01*
X-36754500Y-96441000D01*
G75*
G02*
X-36929500Y-96616000I-175000J0D01*
G01*
X-38629500Y-96616000D01*
G75*
G02*
X-38804500Y-96441000I0J175000D01*
G01*
G37*
%TD*%
%TO.C,R16*%
G36*
G01*
X-14826000Y-82259750D02*
X-14826000Y-81697250D01*
G75*
G02*
X-14582250Y-81453500I243750J0D01*
G01*
X-14094750Y-81453500D01*
G75*
G02*
X-13851000Y-81697250I0J-243750D01*
G01*
X-13851000Y-82259750D01*
G75*
G02*
X-14094750Y-82503500I-243750J0D01*
G01*
X-14582250Y-82503500D01*
G75*
G02*
X-14826000Y-82259750I0J243750D01*
G01*
G37*
G36*
G01*
X-13251000Y-82259750D02*
X-13251000Y-81697250D01*
G75*
G02*
X-13007250Y-81453500I243750J0D01*
G01*
X-12519750Y-81453500D01*
G75*
G02*
X-12276000Y-81697250I0J-243750D01*
G01*
X-12276000Y-82259750D01*
G75*
G02*
X-12519750Y-82503500I-243750J0D01*
G01*
X-13007250Y-82503500D01*
G75*
G02*
X-13251000Y-82259750I0J243750D01*
G01*
G37*
%TD*%
%TO.C,R17*%
G36*
G01*
X-2964000Y-82386750D02*
X-2964000Y-81824250D01*
G75*
G02*
X-2720250Y-81580500I243750J0D01*
G01*
X-2232750Y-81580500D01*
G75*
G02*
X-1989000Y-81824250I0J-243750D01*
G01*
X-1989000Y-82386750D01*
G75*
G02*
X-2232750Y-82630500I-243750J0D01*
G01*
X-2720250Y-82630500D01*
G75*
G02*
X-2964000Y-82386750I0J243750D01*
G01*
G37*
G36*
G01*
X-4539000Y-82386750D02*
X-4539000Y-81824250D01*
G75*
G02*
X-4295250Y-81580500I243750J0D01*
G01*
X-3807750Y-81580500D01*
G75*
G02*
X-3564000Y-81824250I0J-243750D01*
G01*
X-3564000Y-82386750D01*
G75*
G02*
X-3807750Y-82630500I-243750J0D01*
G01*
X-4295250Y-82630500D01*
G75*
G02*
X-4539000Y-82386750I0J243750D01*
G01*
G37*
%TD*%
%TO.C,R18*%
G36*
G01*
X-3576500Y-80236750D02*
X-3576500Y-80799250D01*
G75*
G02*
X-3820250Y-81043000I-243750J0D01*
G01*
X-4307750Y-81043000D01*
G75*
G02*
X-4551500Y-80799250I0J243750D01*
G01*
X-4551500Y-80236750D01*
G75*
G02*
X-4307750Y-79993000I243750J0D01*
G01*
X-3820250Y-79993000D01*
G75*
G02*
X-3576500Y-80236750I0J-243750D01*
G01*
G37*
G36*
G01*
X-2001500Y-80236750D02*
X-2001500Y-80799250D01*
G75*
G02*
X-2245250Y-81043000I-243750J0D01*
G01*
X-2732750Y-81043000D01*
G75*
G02*
X-2976500Y-80799250I0J243750D01*
G01*
X-2976500Y-80236750D01*
G75*
G02*
X-2732750Y-79993000I243750J0D01*
G01*
X-2245250Y-79993000D01*
G75*
G02*
X-2001500Y-80236750I0J-243750D01*
G01*
G37*
%TD*%
%TO.C,C15*%
G36*
G01*
X36075000Y-77243500D02*
X35680000Y-77243500D01*
G75*
G02*
X35507500Y-77071000I0J172500D01*
G01*
X35507500Y-76726000D01*
G75*
G02*
X35680000Y-76553500I172500J0D01*
G01*
X36075000Y-76553500D01*
G75*
G02*
X36247500Y-76726000I0J-172500D01*
G01*
X36247500Y-77071000D01*
G75*
G02*
X36075000Y-77243500I-172500J0D01*
G01*
G37*
G36*
G01*
X36075000Y-76273500D02*
X35680000Y-76273500D01*
G75*
G02*
X35507500Y-76101000I0J172500D01*
G01*
X35507500Y-75756000D01*
G75*
G02*
X35680000Y-75583500I172500J0D01*
G01*
X36075000Y-75583500D01*
G75*
G02*
X36247500Y-75756000I0J-172500D01*
G01*
X36247500Y-76101000D01*
G75*
G02*
X36075000Y-76273500I-172500J0D01*
G01*
G37*
%TD*%
%TO.C,C16*%
G36*
G01*
X44376500Y-75699000D02*
X44376500Y-75304000D01*
G75*
G02*
X44549000Y-75131500I172500J0D01*
G01*
X44894000Y-75131500D01*
G75*
G02*
X45066500Y-75304000I0J-172500D01*
G01*
X45066500Y-75699000D01*
G75*
G02*
X44894000Y-75871500I-172500J0D01*
G01*
X44549000Y-75871500D01*
G75*
G02*
X44376500Y-75699000I0J172500D01*
G01*
G37*
G36*
G01*
X43406500Y-75699000D02*
X43406500Y-75304000D01*
G75*
G02*
X43579000Y-75131500I172500J0D01*
G01*
X43924000Y-75131500D01*
G75*
G02*
X44096500Y-75304000I0J-172500D01*
G01*
X44096500Y-75699000D01*
G75*
G02*
X43924000Y-75871500I-172500J0D01*
G01*
X43579000Y-75871500D01*
G75*
G02*
X43406500Y-75699000I0J172500D01*
G01*
G37*
%TD*%
D15*
%TO.C,U3*%
X37860500Y-75415500D03*
X37860500Y-76065500D03*
X37860500Y-76715500D03*
X37860500Y-77365500D03*
X41260500Y-77365500D03*
X41260500Y-76715500D03*
X41260500Y-76065500D03*
X41260500Y-75415500D03*
%TD*%
%TO.C,R6*%
G36*
G01*
X45067500Y-77052750D02*
X45067500Y-76490250D01*
G75*
G02*
X45311250Y-76246500I243750J0D01*
G01*
X45798750Y-76246500D01*
G75*
G02*
X46042500Y-76490250I0J-243750D01*
G01*
X46042500Y-77052750D01*
G75*
G02*
X45798750Y-77296500I-243750J0D01*
G01*
X45311250Y-77296500D01*
G75*
G02*
X45067500Y-77052750I0J243750D01*
G01*
G37*
G36*
G01*
X43492500Y-77052750D02*
X43492500Y-76490250D01*
G75*
G02*
X43736250Y-76246500I243750J0D01*
G01*
X44223750Y-76246500D01*
G75*
G02*
X44467500Y-76490250I0J-243750D01*
G01*
X44467500Y-77052750D01*
G75*
G02*
X44223750Y-77296500I-243750J0D01*
G01*
X43736250Y-77296500D01*
G75*
G02*
X43492500Y-77052750I0J243750D01*
G01*
G37*
%TD*%
%TO.C,C1*%
G36*
G01*
X29808750Y-71379000D02*
X29246250Y-71379000D01*
G75*
G02*
X29002500Y-71135250I0J243750D01*
G01*
X29002500Y-70647750D01*
G75*
G02*
X29246250Y-70404000I243750J0D01*
G01*
X29808750Y-70404000D01*
G75*
G02*
X30052500Y-70647750I0J-243750D01*
G01*
X30052500Y-71135250D01*
G75*
G02*
X29808750Y-71379000I-243750J0D01*
G01*
G37*
G36*
G01*
X29808750Y-69804000D02*
X29246250Y-69804000D01*
G75*
G02*
X29002500Y-69560250I0J243750D01*
G01*
X29002500Y-69072750D01*
G75*
G02*
X29246250Y-68829000I243750J0D01*
G01*
X29808750Y-68829000D01*
G75*
G02*
X30052500Y-69072750I0J-243750D01*
G01*
X30052500Y-69560250D01*
G75*
G02*
X29808750Y-69804000I-243750J0D01*
G01*
G37*
%TD*%
%TO.C,C4*%
G36*
G01*
X39579000Y-93479000D02*
X39579000Y-93084000D01*
G75*
G02*
X39751500Y-92911500I172500J0D01*
G01*
X40096500Y-92911500D01*
G75*
G02*
X40269000Y-93084000I0J-172500D01*
G01*
X40269000Y-93479000D01*
G75*
G02*
X40096500Y-93651500I-172500J0D01*
G01*
X39751500Y-93651500D01*
G75*
G02*
X39579000Y-93479000I0J172500D01*
G01*
G37*
G36*
G01*
X40549000Y-93479000D02*
X40549000Y-93084000D01*
G75*
G02*
X40721500Y-92911500I172500J0D01*
G01*
X41066500Y-92911500D01*
G75*
G02*
X41239000Y-93084000I0J-172500D01*
G01*
X41239000Y-93479000D01*
G75*
G02*
X41066500Y-93651500I-172500J0D01*
G01*
X40721500Y-93651500D01*
G75*
G02*
X40549000Y-93479000I0J172500D01*
G01*
G37*
%TD*%
%TO.C,C5*%
G36*
G01*
X40041000Y-95066500D02*
X40041000Y-94671500D01*
G75*
G02*
X40213500Y-94499000I172500J0D01*
G01*
X40558500Y-94499000D01*
G75*
G02*
X40731000Y-94671500I0J-172500D01*
G01*
X40731000Y-95066500D01*
G75*
G02*
X40558500Y-95239000I-172500J0D01*
G01*
X40213500Y-95239000D01*
G75*
G02*
X40041000Y-95066500I0J172500D01*
G01*
G37*
G36*
G01*
X39071000Y-95066500D02*
X39071000Y-94671500D01*
G75*
G02*
X39243500Y-94499000I172500J0D01*
G01*
X39588500Y-94499000D01*
G75*
G02*
X39761000Y-94671500I0J-172500D01*
G01*
X39761000Y-95066500D01*
G75*
G02*
X39588500Y-95239000I-172500J0D01*
G01*
X39243500Y-95239000D01*
G75*
G02*
X39071000Y-95066500I0J172500D01*
G01*
G37*
%TD*%
%TO.C,C6*%
G36*
G01*
X39111500Y-87446500D02*
X39111500Y-87051500D01*
G75*
G02*
X39284000Y-86879000I172500J0D01*
G01*
X39629000Y-86879000D01*
G75*
G02*
X39801500Y-87051500I0J-172500D01*
G01*
X39801500Y-87446500D01*
G75*
G02*
X39629000Y-87619000I-172500J0D01*
G01*
X39284000Y-87619000D01*
G75*
G02*
X39111500Y-87446500I0J172500D01*
G01*
G37*
G36*
G01*
X40081500Y-87446500D02*
X40081500Y-87051500D01*
G75*
G02*
X40254000Y-86879000I172500J0D01*
G01*
X40599000Y-86879000D01*
G75*
G02*
X40771500Y-87051500I0J-172500D01*
G01*
X40771500Y-87446500D01*
G75*
G02*
X40599000Y-87619000I-172500J0D01*
G01*
X40254000Y-87619000D01*
G75*
G02*
X40081500Y-87446500I0J172500D01*
G01*
G37*
%TD*%
%TO.C,C7*%
G36*
G01*
X35255500Y-82303000D02*
X35255500Y-81908000D01*
G75*
G02*
X35428000Y-81735500I172500J0D01*
G01*
X35773000Y-81735500D01*
G75*
G02*
X35945500Y-81908000I0J-172500D01*
G01*
X35945500Y-82303000D01*
G75*
G02*
X35773000Y-82475500I-172500J0D01*
G01*
X35428000Y-82475500D01*
G75*
G02*
X35255500Y-82303000I0J172500D01*
G01*
G37*
G36*
G01*
X34285500Y-82303000D02*
X34285500Y-81908000D01*
G75*
G02*
X34458000Y-81735500I172500J0D01*
G01*
X34803000Y-81735500D01*
G75*
G02*
X34975500Y-81908000I0J-172500D01*
G01*
X34975500Y-82303000D01*
G75*
G02*
X34803000Y-82475500I-172500J0D01*
G01*
X34458000Y-82475500D01*
G75*
G02*
X34285500Y-82303000I0J172500D01*
G01*
G37*
%TD*%
%TO.C,C10*%
G36*
G01*
X36315000Y-101209000D02*
X36710000Y-101209000D01*
G75*
G02*
X36882500Y-101381500I0J-172500D01*
G01*
X36882500Y-101726500D01*
G75*
G02*
X36710000Y-101899000I-172500J0D01*
G01*
X36315000Y-101899000D01*
G75*
G02*
X36142500Y-101726500I0J172500D01*
G01*
X36142500Y-101381500D01*
G75*
G02*
X36315000Y-101209000I172500J0D01*
G01*
G37*
G36*
G01*
X36315000Y-100239000D02*
X36710000Y-100239000D01*
G75*
G02*
X36882500Y-100411500I0J-172500D01*
G01*
X36882500Y-100756500D01*
G75*
G02*
X36710000Y-100929000I-172500J0D01*
G01*
X36315000Y-100929000D01*
G75*
G02*
X36142500Y-100756500I0J172500D01*
G01*
X36142500Y-100411500D01*
G75*
G02*
X36315000Y-100239000I172500J0D01*
G01*
G37*
%TD*%
%TO.C,C13*%
G36*
G01*
X45194500Y-93372250D02*
X45194500Y-92809750D01*
G75*
G02*
X45438250Y-92566000I243750J0D01*
G01*
X45925750Y-92566000D01*
G75*
G02*
X46169500Y-92809750I0J-243750D01*
G01*
X46169500Y-93372250D01*
G75*
G02*
X45925750Y-93616000I-243750J0D01*
G01*
X45438250Y-93616000D01*
G75*
G02*
X45194500Y-93372250I0J243750D01*
G01*
G37*
G36*
G01*
X43619500Y-93372250D02*
X43619500Y-92809750D01*
G75*
G02*
X43863250Y-92566000I243750J0D01*
G01*
X44350750Y-92566000D01*
G75*
G02*
X44594500Y-92809750I0J-243750D01*
G01*
X44594500Y-93372250D01*
G75*
G02*
X44350750Y-93616000I-243750J0D01*
G01*
X43863250Y-93616000D01*
G75*
G02*
X43619500Y-93372250I0J243750D01*
G01*
G37*
%TD*%
%TO.C,C14*%
G36*
G01*
X46169500Y-87221750D02*
X46169500Y-87784250D01*
G75*
G02*
X45925750Y-88028000I-243750J0D01*
G01*
X45438250Y-88028000D01*
G75*
G02*
X45194500Y-87784250I0J243750D01*
G01*
X45194500Y-87221750D01*
G75*
G02*
X45438250Y-86978000I243750J0D01*
G01*
X45925750Y-86978000D01*
G75*
G02*
X46169500Y-87221750I0J-243750D01*
G01*
G37*
G36*
G01*
X44594500Y-87221750D02*
X44594500Y-87784250D01*
G75*
G02*
X44350750Y-88028000I-243750J0D01*
G01*
X43863250Y-88028000D01*
G75*
G02*
X43619500Y-87784250I0J243750D01*
G01*
X43619500Y-87221750D01*
G75*
G02*
X43863250Y-86978000I243750J0D01*
G01*
X44350750Y-86978000D01*
G75*
G02*
X44594500Y-87221750I0J-243750D01*
G01*
G37*
%TD*%
%TO.C,C17*%
G36*
G01*
X38707500Y-113608500D02*
X38707500Y-113213500D01*
G75*
G02*
X38880000Y-113041000I172500J0D01*
G01*
X39225000Y-113041000D01*
G75*
G02*
X39397500Y-113213500I0J-172500D01*
G01*
X39397500Y-113608500D01*
G75*
G02*
X39225000Y-113781000I-172500J0D01*
G01*
X38880000Y-113781000D01*
G75*
G02*
X38707500Y-113608500I0J172500D01*
G01*
G37*
G36*
G01*
X39677500Y-113608500D02*
X39677500Y-113213500D01*
G75*
G02*
X39850000Y-113041000I172500J0D01*
G01*
X40195000Y-113041000D01*
G75*
G02*
X40367500Y-113213500I0J-172500D01*
G01*
X40367500Y-113608500D01*
G75*
G02*
X40195000Y-113781000I-172500J0D01*
G01*
X39850000Y-113781000D01*
G75*
G02*
X39677500Y-113608500I0J172500D01*
G01*
G37*
%TD*%
%TO.C,C21*%
G36*
G01*
X-19014000Y-90685000D02*
X-19014000Y-90290000D01*
G75*
G02*
X-18841500Y-90117500I172500J0D01*
G01*
X-18496500Y-90117500D01*
G75*
G02*
X-18324000Y-90290000I0J-172500D01*
G01*
X-18324000Y-90685000D01*
G75*
G02*
X-18496500Y-90857500I-172500J0D01*
G01*
X-18841500Y-90857500D01*
G75*
G02*
X-19014000Y-90685000I0J172500D01*
G01*
G37*
G36*
G01*
X-19984000Y-90685000D02*
X-19984000Y-90290000D01*
G75*
G02*
X-19811500Y-90117500I172500J0D01*
G01*
X-19466500Y-90117500D01*
G75*
G02*
X-19294000Y-90290000I0J-172500D01*
G01*
X-19294000Y-90685000D01*
G75*
G02*
X-19466500Y-90857500I-172500J0D01*
G01*
X-19811500Y-90857500D01*
G75*
G02*
X-19984000Y-90685000I0J172500D01*
G01*
G37*
%TD*%
%TO.C,C24*%
G36*
G01*
X-23640500Y-79939500D02*
X-23640500Y-80334500D01*
G75*
G02*
X-23813000Y-80507000I-172500J0D01*
G01*
X-24158000Y-80507000D01*
G75*
G02*
X-24330500Y-80334500I0J172500D01*
G01*
X-24330500Y-79939500D01*
G75*
G02*
X-24158000Y-79767000I172500J0D01*
G01*
X-23813000Y-79767000D01*
G75*
G02*
X-23640500Y-79939500I0J-172500D01*
G01*
G37*
G36*
G01*
X-24610500Y-79939500D02*
X-24610500Y-80334500D01*
G75*
G02*
X-24783000Y-80507000I-172500J0D01*
G01*
X-25128000Y-80507000D01*
G75*
G02*
X-25300500Y-80334500I0J172500D01*
G01*
X-25300500Y-79939500D01*
G75*
G02*
X-25128000Y-79767000I172500J0D01*
G01*
X-24783000Y-79767000D01*
G75*
G02*
X-24610500Y-79939500I0J-172500D01*
G01*
G37*
%TD*%
%TO.C,C25*%
G36*
G01*
X-26760750Y-106599000D02*
X-26198250Y-106599000D01*
G75*
G02*
X-25954500Y-106842750I0J-243750D01*
G01*
X-25954500Y-107330250D01*
G75*
G02*
X-26198250Y-107574000I-243750J0D01*
G01*
X-26760750Y-107574000D01*
G75*
G02*
X-27004500Y-107330250I0J243750D01*
G01*
X-27004500Y-106842750D01*
G75*
G02*
X-26760750Y-106599000I243750J0D01*
G01*
G37*
G36*
G01*
X-26760750Y-105024000D02*
X-26198250Y-105024000D01*
G75*
G02*
X-25954500Y-105267750I0J-243750D01*
G01*
X-25954500Y-105755250D01*
G75*
G02*
X-26198250Y-105999000I-243750J0D01*
G01*
X-26760750Y-105999000D01*
G75*
G02*
X-27004500Y-105755250I0J243750D01*
G01*
X-27004500Y-105267750D01*
G75*
G02*
X-26760750Y-105024000I243750J0D01*
G01*
G37*
%TD*%
%TO.C,C28*%
G36*
G01*
X-15022250Y-107574000D02*
X-15584750Y-107574000D01*
G75*
G02*
X-15828500Y-107330250I0J243750D01*
G01*
X-15828500Y-106842750D01*
G75*
G02*
X-15584750Y-106599000I243750J0D01*
G01*
X-15022250Y-106599000D01*
G75*
G02*
X-14778500Y-106842750I0J-243750D01*
G01*
X-14778500Y-107330250D01*
G75*
G02*
X-15022250Y-107574000I-243750J0D01*
G01*
G37*
G36*
G01*
X-15022250Y-105999000D02*
X-15584750Y-105999000D01*
G75*
G02*
X-15828500Y-105755250I0J243750D01*
G01*
X-15828500Y-105267750D01*
G75*
G02*
X-15584750Y-105024000I243750J0D01*
G01*
X-15022250Y-105024000D01*
G75*
G02*
X-14778500Y-105267750I0J-243750D01*
G01*
X-14778500Y-105755250D01*
G75*
G02*
X-15022250Y-105999000I-243750J0D01*
G01*
G37*
%TD*%
%TO.C,C32*%
G36*
G01*
X-39660250Y-98277500D02*
X-40222750Y-98277500D01*
G75*
G02*
X-40466500Y-98033750I0J243750D01*
G01*
X-40466500Y-97546250D01*
G75*
G02*
X-40222750Y-97302500I243750J0D01*
G01*
X-39660250Y-97302500D01*
G75*
G02*
X-39416500Y-97546250I0J-243750D01*
G01*
X-39416500Y-98033750D01*
G75*
G02*
X-39660250Y-98277500I-243750J0D01*
G01*
G37*
G36*
G01*
X-39660250Y-96702500D02*
X-40222750Y-96702500D01*
G75*
G02*
X-40466500Y-96458750I0J243750D01*
G01*
X-40466500Y-95971250D01*
G75*
G02*
X-40222750Y-95727500I243750J0D01*
G01*
X-39660250Y-95727500D01*
G75*
G02*
X-39416500Y-95971250I0J-243750D01*
G01*
X-39416500Y-96458750D01*
G75*
G02*
X-39660250Y-96702500I-243750J0D01*
G01*
G37*
%TD*%
%TO.C,C33*%
G36*
G01*
X3973250Y-95829500D02*
X4535750Y-95829500D01*
G75*
G02*
X4779500Y-96073250I0J-243750D01*
G01*
X4779500Y-96560750D01*
G75*
G02*
X4535750Y-96804500I-243750J0D01*
G01*
X3973250Y-96804500D01*
G75*
G02*
X3729500Y-96560750I0J243750D01*
G01*
X3729500Y-96073250D01*
G75*
G02*
X3973250Y-95829500I243750J0D01*
G01*
G37*
G36*
G01*
X3973250Y-94254500D02*
X4535750Y-94254500D01*
G75*
G02*
X4779500Y-94498250I0J-243750D01*
G01*
X4779500Y-94985750D01*
G75*
G02*
X4535750Y-95229500I-243750J0D01*
G01*
X3973250Y-95229500D01*
G75*
G02*
X3729500Y-94985750I0J243750D01*
G01*
X3729500Y-94498250D01*
G75*
G02*
X3973250Y-94254500I243750J0D01*
G01*
G37*
%TD*%
%TO.C,C34*%
G36*
G01*
X-5116250Y-96194500D02*
X-5678750Y-96194500D01*
G75*
G02*
X-5922500Y-95950750I0J243750D01*
G01*
X-5922500Y-95463250D01*
G75*
G02*
X-5678750Y-95219500I243750J0D01*
G01*
X-5116250Y-95219500D01*
G75*
G02*
X-4872500Y-95463250I0J-243750D01*
G01*
X-4872500Y-95950750D01*
G75*
G02*
X-5116250Y-96194500I-243750J0D01*
G01*
G37*
G36*
G01*
X-5116250Y-97769500D02*
X-5678750Y-97769500D01*
G75*
G02*
X-5922500Y-97525750I0J243750D01*
G01*
X-5922500Y-97038250D01*
G75*
G02*
X-5678750Y-96794500I243750J0D01*
G01*
X-5116250Y-96794500D01*
G75*
G02*
X-4872500Y-97038250I0J-243750D01*
G01*
X-4872500Y-97525750D01*
G75*
G02*
X-5116250Y-97769500I-243750J0D01*
G01*
G37*
%TD*%
%TO.C,C35*%
G36*
G01*
X-19956500Y-105183250D02*
X-19956500Y-104620750D01*
G75*
G02*
X-19712750Y-104377000I243750J0D01*
G01*
X-19225250Y-104377000D01*
G75*
G02*
X-18981500Y-104620750I0J-243750D01*
G01*
X-18981500Y-105183250D01*
G75*
G02*
X-19225250Y-105427000I-243750J0D01*
G01*
X-19712750Y-105427000D01*
G75*
G02*
X-19956500Y-105183250I0J243750D01*
G01*
G37*
G36*
G01*
X-21531500Y-105183250D02*
X-21531500Y-104620750D01*
G75*
G02*
X-21287750Y-104377000I243750J0D01*
G01*
X-20800250Y-104377000D01*
G75*
G02*
X-20556500Y-104620750I0J-243750D01*
G01*
X-20556500Y-105183250D01*
G75*
G02*
X-20800250Y-105427000I-243750J0D01*
G01*
X-21287750Y-105427000D01*
G75*
G02*
X-21531500Y-105183250I0J243750D01*
G01*
G37*
%TD*%
%TO.C,C36*%
G36*
G01*
X-19007000Y-95095750D02*
X-19007000Y-95658250D01*
G75*
G02*
X-19250750Y-95902000I-243750J0D01*
G01*
X-19738250Y-95902000D01*
G75*
G02*
X-19982000Y-95658250I0J243750D01*
G01*
X-19982000Y-95095750D01*
G75*
G02*
X-19738250Y-94852000I243750J0D01*
G01*
X-19250750Y-94852000D01*
G75*
G02*
X-19007000Y-95095750I0J-243750D01*
G01*
G37*
G36*
G01*
X-20582000Y-95095750D02*
X-20582000Y-95658250D01*
G75*
G02*
X-20825750Y-95902000I-243750J0D01*
G01*
X-21313250Y-95902000D01*
G75*
G02*
X-21557000Y-95658250I0J243750D01*
G01*
X-21557000Y-95095750D01*
G75*
G02*
X-21313250Y-94852000I243750J0D01*
G01*
X-20825750Y-94852000D01*
G75*
G02*
X-20582000Y-95095750I0J-243750D01*
G01*
G37*
%TD*%
%TO.C,D2*%
G36*
G01*
X12446500Y-96239250D02*
X12446500Y-95276750D01*
G75*
G02*
X12715250Y-95008000I268750J0D01*
G01*
X13252750Y-95008000D01*
G75*
G02*
X13521500Y-95276750I0J-268750D01*
G01*
X13521500Y-96239250D01*
G75*
G02*
X13252750Y-96508000I-268750J0D01*
G01*
X12715250Y-96508000D01*
G75*
G02*
X12446500Y-96239250I0J268750D01*
G01*
G37*
G36*
G01*
X14321500Y-96239250D02*
X14321500Y-95276750D01*
G75*
G02*
X14590250Y-95008000I268750J0D01*
G01*
X15127750Y-95008000D01*
G75*
G02*
X15396500Y-95276750I0J-268750D01*
G01*
X15396500Y-96239250D01*
G75*
G02*
X15127750Y-96508000I-268750J0D01*
G01*
X14590250Y-96508000D01*
G75*
G02*
X14321500Y-96239250I0J268750D01*
G01*
G37*
%TD*%
%TO.C,D3*%
G36*
G01*
X14321500Y-99922250D02*
X14321500Y-98959750D01*
G75*
G02*
X14590250Y-98691000I268750J0D01*
G01*
X15127750Y-98691000D01*
G75*
G02*
X15396500Y-98959750I0J-268750D01*
G01*
X15396500Y-99922250D01*
G75*
G02*
X15127750Y-100191000I-268750J0D01*
G01*
X14590250Y-100191000D01*
G75*
G02*
X14321500Y-99922250I0J268750D01*
G01*
G37*
G36*
G01*
X12446500Y-99922250D02*
X12446500Y-98959750D01*
G75*
G02*
X12715250Y-98691000I268750J0D01*
G01*
X13252750Y-98691000D01*
G75*
G02*
X13521500Y-98959750I0J-268750D01*
G01*
X13521500Y-99922250D01*
G75*
G02*
X13252750Y-100191000I-268750J0D01*
G01*
X12715250Y-100191000D01*
G75*
G02*
X12446500Y-99922250I0J268750D01*
G01*
G37*
%TD*%
D16*
%TO.C,D4*%
X-29781500Y-108712000D03*
X-29781500Y-104412000D03*
%TD*%
%TO.C,D5*%
X-11874500Y-108585000D03*
X-11874500Y-104285000D03*
%TD*%
D17*
%TO.C,D6*%
X-39274500Y-109347000D03*
X-35274500Y-109347000D03*
%TD*%
%TO.C,D7*%
X-46608500Y-104013000D03*
X-42608500Y-104013000D03*
%TD*%
%TO.C,D8*%
X-46608500Y-109347000D03*
X-42608500Y-109347000D03*
%TD*%
%TO.C,D9*%
X-39306500Y-104013000D03*
X-35306500Y-104013000D03*
%TD*%
%TO.C,D10*%
X4825500Y-109093000D03*
X825500Y-109093000D03*
%TD*%
%TO.C,D11*%
X-2540500Y-104013000D03*
X-6540500Y-104013000D03*
%TD*%
%TO.C,D12*%
X-2476500Y-109093000D03*
X-6476500Y-109093000D03*
%TD*%
%TO.C,D13*%
X4825500Y-104013000D03*
X825500Y-104013000D03*
%TD*%
%TO.C,FB2*%
G36*
G01*
X40168750Y-110392500D02*
X39206250Y-110392500D01*
G75*
G02*
X38937500Y-110123750I0J268750D01*
G01*
X38937500Y-109586250D01*
G75*
G02*
X39206250Y-109317500I268750J0D01*
G01*
X40168750Y-109317500D01*
G75*
G02*
X40437500Y-109586250I0J-268750D01*
G01*
X40437500Y-110123750D01*
G75*
G02*
X40168750Y-110392500I-268750J0D01*
G01*
G37*
G36*
G01*
X40168750Y-112267500D02*
X39206250Y-112267500D01*
G75*
G02*
X38937500Y-111998750I0J268750D01*
G01*
X38937500Y-111461250D01*
G75*
G02*
X39206250Y-111192500I268750J0D01*
G01*
X40168750Y-111192500D01*
G75*
G02*
X40437500Y-111461250I0J-268750D01*
G01*
X40437500Y-111998750D01*
G75*
G02*
X40168750Y-112267500I-268750J0D01*
G01*
G37*
%TD*%
%TO.C,FB3*%
G36*
G01*
X14131000Y-112368250D02*
X14131000Y-111405750D01*
G75*
G02*
X14399750Y-111137000I268750J0D01*
G01*
X14937250Y-111137000D01*
G75*
G02*
X15206000Y-111405750I0J-268750D01*
G01*
X15206000Y-112368250D01*
G75*
G02*
X14937250Y-112637000I-268750J0D01*
G01*
X14399750Y-112637000D01*
G75*
G02*
X14131000Y-112368250I0J268750D01*
G01*
G37*
G36*
G01*
X12256000Y-112368250D02*
X12256000Y-111405750D01*
G75*
G02*
X12524750Y-111137000I268750J0D01*
G01*
X13062250Y-111137000D01*
G75*
G02*
X13331000Y-111405750I0J-268750D01*
G01*
X13331000Y-112368250D01*
G75*
G02*
X13062250Y-112637000I-268750J0D01*
G01*
X12524750Y-112637000D01*
G75*
G02*
X12256000Y-112368250I0J268750D01*
G01*
G37*
%TD*%
%TO.C,FB4*%
G36*
G01*
X25131500Y-112192750D02*
X25131500Y-111230250D01*
G75*
G02*
X25400250Y-110961500I268750J0D01*
G01*
X25937750Y-110961500D01*
G75*
G02*
X26206500Y-111230250I0J-268750D01*
G01*
X26206500Y-112192750D01*
G75*
G02*
X25937750Y-112461500I-268750J0D01*
G01*
X25400250Y-112461500D01*
G75*
G02*
X25131500Y-112192750I0J268750D01*
G01*
G37*
G36*
G01*
X27006500Y-112192750D02*
X27006500Y-111230250D01*
G75*
G02*
X27275250Y-110961500I268750J0D01*
G01*
X27812750Y-110961500D01*
G75*
G02*
X28081500Y-111230250I0J-268750D01*
G01*
X28081500Y-112192750D01*
G75*
G02*
X27812750Y-112461500I-268750J0D01*
G01*
X27275250Y-112461500D01*
G75*
G02*
X27006500Y-112192750I0J268750D01*
G01*
G37*
%TD*%
D18*
%TO.C,J1*%
X34066500Y-115846000D03*
X35016500Y-115846000D03*
X42716500Y-115846000D03*
X41616500Y-115846000D03*
X40516500Y-115846000D03*
X39416500Y-115846000D03*
X38316500Y-115846000D03*
X37216500Y-115846000D03*
X36116500Y-115846000D03*
D19*
X44266500Y-115846000D03*
X33116500Y-120146000D03*
D20*
X33116500Y-126346000D03*
D21*
X33116500Y-130496000D03*
D22*
X46616500Y-130946000D03*
%TD*%
D23*
%TO.C,J3*%
X-30670500Y-114427000D03*
X-38290500Y-114427000D03*
D24*
X-34480500Y-114427000D03*
D25*
X-30670500Y-128397000D03*
X-38290500Y-123317000D03*
D24*
X-34480500Y-119507000D03*
%TD*%
%TO.C,J4*%
X-7175500Y-119443500D03*
D25*
X-10985500Y-123253500D03*
X-3365500Y-128333500D03*
D24*
X-7175500Y-114363500D03*
D23*
X-10985500Y-114363500D03*
X-3365500Y-114363500D03*
%TD*%
%TO.C,J8*%
G36*
G01*
X26167500Y-65184000D02*
X26167500Y-66134000D01*
G75*
G02*
X25942500Y-66359000I-225000J0D01*
G01*
X25492500Y-66359000D01*
G75*
G02*
X25267500Y-66134000I0J225000D01*
G01*
X25267500Y-65184000D01*
G75*
G02*
X25492500Y-64959000I225000J0D01*
G01*
X25942500Y-64959000D01*
G75*
G02*
X26167500Y-65184000I0J-225000D01*
G01*
G37*
D26*
X24467500Y-65659000D03*
X23217500Y-65659000D03*
%TD*%
%TO.C,R1*%
G36*
G01*
X11587500Y-95476750D02*
X11587500Y-96039250D01*
G75*
G02*
X11343750Y-96283000I-243750J0D01*
G01*
X10856250Y-96283000D01*
G75*
G02*
X10612500Y-96039250I0J243750D01*
G01*
X10612500Y-95476750D01*
G75*
G02*
X10856250Y-95233000I243750J0D01*
G01*
X11343750Y-95233000D01*
G75*
G02*
X11587500Y-95476750I0J-243750D01*
G01*
G37*
G36*
G01*
X10012500Y-95476750D02*
X10012500Y-96039250D01*
G75*
G02*
X9768750Y-96283000I-243750J0D01*
G01*
X9281250Y-96283000D01*
G75*
G02*
X9037500Y-96039250I0J243750D01*
G01*
X9037500Y-95476750D01*
G75*
G02*
X9281250Y-95233000I243750J0D01*
G01*
X9768750Y-95233000D01*
G75*
G02*
X10012500Y-95476750I0J-243750D01*
G01*
G37*
%TD*%
%TO.C,R2*%
G36*
G01*
X33818250Y-100922000D02*
X34380750Y-100922000D01*
G75*
G02*
X34624500Y-101165750I0J-243750D01*
G01*
X34624500Y-101653250D01*
G75*
G02*
X34380750Y-101897000I-243750J0D01*
G01*
X33818250Y-101897000D01*
G75*
G02*
X33574500Y-101653250I0J243750D01*
G01*
X33574500Y-101165750D01*
G75*
G02*
X33818250Y-100922000I243750J0D01*
G01*
G37*
G36*
G01*
X33818250Y-102497000D02*
X34380750Y-102497000D01*
G75*
G02*
X34624500Y-102740750I0J-243750D01*
G01*
X34624500Y-103228250D01*
G75*
G02*
X34380750Y-103472000I-243750J0D01*
G01*
X33818250Y-103472000D01*
G75*
G02*
X33574500Y-103228250I0J243750D01*
G01*
X33574500Y-102740750D01*
G75*
G02*
X33818250Y-102497000I243750J0D01*
G01*
G37*
%TD*%
%TO.C,R3*%
G36*
G01*
X31840750Y-75646000D02*
X31278250Y-75646000D01*
G75*
G02*
X31034500Y-75402250I0J243750D01*
G01*
X31034500Y-74914750D01*
G75*
G02*
X31278250Y-74671000I243750J0D01*
G01*
X31840750Y-74671000D01*
G75*
G02*
X32084500Y-74914750I0J-243750D01*
G01*
X32084500Y-75402250D01*
G75*
G02*
X31840750Y-75646000I-243750J0D01*
G01*
G37*
G36*
G01*
X31840750Y-77221000D02*
X31278250Y-77221000D01*
G75*
G02*
X31034500Y-76977250I0J243750D01*
G01*
X31034500Y-76489750D01*
G75*
G02*
X31278250Y-76246000I243750J0D01*
G01*
X31840750Y-76246000D01*
G75*
G02*
X32084500Y-76489750I0J-243750D01*
G01*
X32084500Y-76977250D01*
G75*
G02*
X31840750Y-77221000I-243750J0D01*
G01*
G37*
%TD*%
%TO.C,R4*%
G36*
G01*
X10088500Y-99159750D02*
X10088500Y-99722250D01*
G75*
G02*
X9844750Y-99966000I-243750J0D01*
G01*
X9357250Y-99966000D01*
G75*
G02*
X9113500Y-99722250I0J243750D01*
G01*
X9113500Y-99159750D01*
G75*
G02*
X9357250Y-98916000I243750J0D01*
G01*
X9844750Y-98916000D01*
G75*
G02*
X10088500Y-99159750I0J-243750D01*
G01*
G37*
G36*
G01*
X11663500Y-99159750D02*
X11663500Y-99722250D01*
G75*
G02*
X11419750Y-99966000I-243750J0D01*
G01*
X10932250Y-99966000D01*
G75*
G02*
X10688500Y-99722250I0J243750D01*
G01*
X10688500Y-99159750D01*
G75*
G02*
X10932250Y-98916000I243750J0D01*
G01*
X11419750Y-98916000D01*
G75*
G02*
X11663500Y-99159750I0J-243750D01*
G01*
G37*
%TD*%
%TO.C,R5*%
G36*
G01*
X40222750Y-90276500D02*
X39660250Y-90276500D01*
G75*
G02*
X39416500Y-90032750I0J243750D01*
G01*
X39416500Y-89545250D01*
G75*
G02*
X39660250Y-89301500I243750J0D01*
G01*
X40222750Y-89301500D01*
G75*
G02*
X40466500Y-89545250I0J-243750D01*
G01*
X40466500Y-90032750D01*
G75*
G02*
X40222750Y-90276500I-243750J0D01*
G01*
G37*
G36*
G01*
X40222750Y-91851500D02*
X39660250Y-91851500D01*
G75*
G02*
X39416500Y-91607750I0J243750D01*
G01*
X39416500Y-91120250D01*
G75*
G02*
X39660250Y-90876500I243750J0D01*
G01*
X40222750Y-90876500D01*
G75*
G02*
X40466500Y-91120250I0J-243750D01*
G01*
X40466500Y-91607750D01*
G75*
G02*
X40222750Y-91851500I-243750J0D01*
G01*
G37*
%TD*%
%TO.C,R13*%
G36*
G01*
X18042000Y-111914250D02*
X18042000Y-111351750D01*
G75*
G02*
X18285750Y-111108000I243750J0D01*
G01*
X18773250Y-111108000D01*
G75*
G02*
X19017000Y-111351750I0J-243750D01*
G01*
X19017000Y-111914250D01*
G75*
G02*
X18773250Y-112158000I-243750J0D01*
G01*
X18285750Y-112158000D01*
G75*
G02*
X18042000Y-111914250I0J243750D01*
G01*
G37*
G36*
G01*
X16467000Y-111914250D02*
X16467000Y-111351750D01*
G75*
G02*
X16710750Y-111108000I243750J0D01*
G01*
X17198250Y-111108000D01*
G75*
G02*
X17442000Y-111351750I0J-243750D01*
G01*
X17442000Y-111914250D01*
G75*
G02*
X17198250Y-112158000I-243750J0D01*
G01*
X16710750Y-112158000D01*
G75*
G02*
X16467000Y-111914250I0J243750D01*
G01*
G37*
%TD*%
%TO.C,R14*%
G36*
G01*
X21547000Y-111914250D02*
X21547000Y-111351750D01*
G75*
G02*
X21790750Y-111108000I243750J0D01*
G01*
X22278250Y-111108000D01*
G75*
G02*
X22522000Y-111351750I0J-243750D01*
G01*
X22522000Y-111914250D01*
G75*
G02*
X22278250Y-112158000I-243750J0D01*
G01*
X21790750Y-112158000D01*
G75*
G02*
X21547000Y-111914250I0J243750D01*
G01*
G37*
G36*
G01*
X23122000Y-111914250D02*
X23122000Y-111351750D01*
G75*
G02*
X23365750Y-111108000I243750J0D01*
G01*
X23853250Y-111108000D01*
G75*
G02*
X24097000Y-111351750I0J-243750D01*
G01*
X24097000Y-111914250D01*
G75*
G02*
X23853250Y-112158000I-243750J0D01*
G01*
X23365750Y-112158000D01*
G75*
G02*
X23122000Y-111914250I0J243750D01*
G01*
G37*
%TD*%
%TO.C,R15*%
G36*
G01*
X-24229750Y-76751000D02*
X-24792250Y-76751000D01*
G75*
G02*
X-25036000Y-76507250I0J243750D01*
G01*
X-25036000Y-76019750D01*
G75*
G02*
X-24792250Y-75776000I243750J0D01*
G01*
X-24229750Y-75776000D01*
G75*
G02*
X-23986000Y-76019750I0J-243750D01*
G01*
X-23986000Y-76507250D01*
G75*
G02*
X-24229750Y-76751000I-243750J0D01*
G01*
G37*
G36*
G01*
X-24229750Y-75176000D02*
X-24792250Y-75176000D01*
G75*
G02*
X-25036000Y-74932250I0J243750D01*
G01*
X-25036000Y-74444750D01*
G75*
G02*
X-24792250Y-74201000I243750J0D01*
G01*
X-24229750Y-74201000D01*
G75*
G02*
X-23986000Y-74444750I0J-243750D01*
G01*
X-23986000Y-74932250D01*
G75*
G02*
X-24229750Y-75176000I-243750J0D01*
G01*
G37*
%TD*%
%TO.C,R19*%
G36*
G01*
X-26379750Y-75738000D02*
X-25817250Y-75738000D01*
G75*
G02*
X-25573500Y-75981750I0J-243750D01*
G01*
X-25573500Y-76469250D01*
G75*
G02*
X-25817250Y-76713000I-243750J0D01*
G01*
X-26379750Y-76713000D01*
G75*
G02*
X-26623500Y-76469250I0J243750D01*
G01*
X-26623500Y-75981750D01*
G75*
G02*
X-26379750Y-75738000I243750J0D01*
G01*
G37*
G36*
G01*
X-26379750Y-74163000D02*
X-25817250Y-74163000D01*
G75*
G02*
X-25573500Y-74406750I0J-243750D01*
G01*
X-25573500Y-74894250D01*
G75*
G02*
X-25817250Y-75138000I-243750J0D01*
G01*
X-26379750Y-75138000D01*
G75*
G02*
X-26623500Y-74894250I0J243750D01*
G01*
X-26623500Y-74406750D01*
G75*
G02*
X-26379750Y-74163000I243750J0D01*
G01*
G37*
%TD*%
%TO.C,R20*%
G36*
G01*
X17749500Y-95213750D02*
X17749500Y-94651250D01*
G75*
G02*
X17993250Y-94407500I243750J0D01*
G01*
X18480750Y-94407500D01*
G75*
G02*
X18724500Y-94651250I0J-243750D01*
G01*
X18724500Y-95213750D01*
G75*
G02*
X18480750Y-95457500I-243750J0D01*
G01*
X17993250Y-95457500D01*
G75*
G02*
X17749500Y-95213750I0J243750D01*
G01*
G37*
G36*
G01*
X19324500Y-95213750D02*
X19324500Y-94651250D01*
G75*
G02*
X19568250Y-94407500I243750J0D01*
G01*
X20055750Y-94407500D01*
G75*
G02*
X20299500Y-94651250I0J-243750D01*
G01*
X20299500Y-95213750D01*
G75*
G02*
X20055750Y-95457500I-243750J0D01*
G01*
X19568250Y-95457500D01*
G75*
G02*
X19324500Y-95213750I0J243750D01*
G01*
G37*
%TD*%
D27*
%TO.C,U1*%
X38773500Y-68326000D03*
D28*
X32473500Y-68326000D03*
X32473500Y-70626000D03*
X32473500Y-66026000D03*
%TD*%
%TO.C,U6*%
G36*
G01*
X-4071500Y-96314000D02*
X-4071500Y-95964000D01*
G75*
G02*
X-3896500Y-95789000I175000J0D01*
G01*
X-2196500Y-95789000D01*
G75*
G02*
X-2021500Y-95964000I0J-175000D01*
G01*
X-2021500Y-96314000D01*
G75*
G02*
X-2196500Y-96489000I-175000J0D01*
G01*
X-3896500Y-96489000D01*
G75*
G02*
X-4071500Y-96314000I0J175000D01*
G01*
G37*
G36*
G01*
X-4071500Y-97584000D02*
X-4071500Y-97234000D01*
G75*
G02*
X-3896500Y-97059000I175000J0D01*
G01*
X-2196500Y-97059000D01*
G75*
G02*
X-2021500Y-97234000I0J-175000D01*
G01*
X-2021500Y-97584000D01*
G75*
G02*
X-2196500Y-97759000I-175000J0D01*
G01*
X-3896500Y-97759000D01*
G75*
G02*
X-4071500Y-97584000I0J175000D01*
G01*
G37*
G36*
G01*
X-4071500Y-98854000D02*
X-4071500Y-98504000D01*
G75*
G02*
X-3896500Y-98329000I175000J0D01*
G01*
X-2196500Y-98329000D01*
G75*
G02*
X-2021500Y-98504000I0J-175000D01*
G01*
X-2021500Y-98854000D01*
G75*
G02*
X-2196500Y-99029000I-175000J0D01*
G01*
X-3896500Y-99029000D01*
G75*
G02*
X-4071500Y-98854000I0J175000D01*
G01*
G37*
G36*
G01*
X-4071500Y-100124000D02*
X-4071500Y-99774000D01*
G75*
G02*
X-3896500Y-99599000I175000J0D01*
G01*
X-2196500Y-99599000D01*
G75*
G02*
X-2021500Y-99774000I0J-175000D01*
G01*
X-2021500Y-100124000D01*
G75*
G02*
X-2196500Y-100299000I-175000J0D01*
G01*
X-3896500Y-100299000D01*
G75*
G02*
X-4071500Y-100124000I0J175000D01*
G01*
G37*
G36*
G01*
X878500Y-100124000D02*
X878500Y-99774000D01*
G75*
G02*
X1053500Y-99599000I175000J0D01*
G01*
X2753500Y-99599000D01*
G75*
G02*
X2928500Y-99774000I0J-175000D01*
G01*
X2928500Y-100124000D01*
G75*
G02*
X2753500Y-100299000I-175000J0D01*
G01*
X1053500Y-100299000D01*
G75*
G02*
X878500Y-100124000I0J175000D01*
G01*
G37*
G36*
G01*
X878500Y-98854000D02*
X878500Y-98504000D01*
G75*
G02*
X1053500Y-98329000I175000J0D01*
G01*
X2753500Y-98329000D01*
G75*
G02*
X2928500Y-98504000I0J-175000D01*
G01*
X2928500Y-98854000D01*
G75*
G02*
X2753500Y-99029000I-175000J0D01*
G01*
X1053500Y-99029000D01*
G75*
G02*
X878500Y-98854000I0J175000D01*
G01*
G37*
G36*
G01*
X878500Y-97584000D02*
X878500Y-97234000D01*
G75*
G02*
X1053500Y-97059000I175000J0D01*
G01*
X2753500Y-97059000D01*
G75*
G02*
X2928500Y-97234000I0J-175000D01*
G01*
X2928500Y-97584000D01*
G75*
G02*
X2753500Y-97759000I-175000J0D01*
G01*
X1053500Y-97759000D01*
G75*
G02*
X878500Y-97584000I0J175000D01*
G01*
G37*
G36*
G01*
X878500Y-96314000D02*
X878500Y-95964000D01*
G75*
G02*
X1053500Y-95789000I175000J0D01*
G01*
X2753500Y-95789000D01*
G75*
G02*
X2928500Y-95964000I0J-175000D01*
G01*
X2928500Y-96314000D01*
G75*
G02*
X2753500Y-96489000I-175000J0D01*
G01*
X1053500Y-96489000D01*
G75*
G02*
X878500Y-96314000I0J175000D01*
G01*
G37*
%TD*%
%TO.C,U7*%
G36*
G01*
X-19518500Y-97151000D02*
X-19268500Y-97151000D01*
G75*
G02*
X-19143500Y-97276000I0J-125000D01*
G01*
X-19143500Y-98576000D01*
G75*
G02*
X-19268500Y-98701000I-125000J0D01*
G01*
X-19518500Y-98701000D01*
G75*
G02*
X-19643500Y-98576000I0J125000D01*
G01*
X-19643500Y-97276000D01*
G75*
G02*
X-19518500Y-97151000I125000J0D01*
G01*
G37*
G36*
G01*
X-20168500Y-97151000D02*
X-19918500Y-97151000D01*
G75*
G02*
X-19793500Y-97276000I0J-125000D01*
G01*
X-19793500Y-98576000D01*
G75*
G02*
X-19918500Y-98701000I-125000J0D01*
G01*
X-20168500Y-98701000D01*
G75*
G02*
X-20293500Y-98576000I0J125000D01*
G01*
X-20293500Y-97276000D01*
G75*
G02*
X-20168500Y-97151000I125000J0D01*
G01*
G37*
G36*
G01*
X-20818500Y-97151000D02*
X-20568500Y-97151000D01*
G75*
G02*
X-20443500Y-97276000I0J-125000D01*
G01*
X-20443500Y-98576000D01*
G75*
G02*
X-20568500Y-98701000I-125000J0D01*
G01*
X-20818500Y-98701000D01*
G75*
G02*
X-20943500Y-98576000I0J125000D01*
G01*
X-20943500Y-97276000D01*
G75*
G02*
X-20818500Y-97151000I125000J0D01*
G01*
G37*
G36*
G01*
X-21468500Y-97151000D02*
X-21218500Y-97151000D01*
G75*
G02*
X-21093500Y-97276000I0J-125000D01*
G01*
X-21093500Y-98576000D01*
G75*
G02*
X-21218500Y-98701000I-125000J0D01*
G01*
X-21468500Y-98701000D01*
G75*
G02*
X-21593500Y-98576000I0J125000D01*
G01*
X-21593500Y-97276000D01*
G75*
G02*
X-21468500Y-97151000I125000J0D01*
G01*
G37*
G36*
G01*
X-22118500Y-97151000D02*
X-21868500Y-97151000D01*
G75*
G02*
X-21743500Y-97276000I0J-125000D01*
G01*
X-21743500Y-98576000D01*
G75*
G02*
X-21868500Y-98701000I-125000J0D01*
G01*
X-22118500Y-98701000D01*
G75*
G02*
X-22243500Y-98576000I0J125000D01*
G01*
X-22243500Y-97276000D01*
G75*
G02*
X-22118500Y-97151000I125000J0D01*
G01*
G37*
G36*
G01*
X-22768500Y-97151000D02*
X-22518500Y-97151000D01*
G75*
G02*
X-22393500Y-97276000I0J-125000D01*
G01*
X-22393500Y-98576000D01*
G75*
G02*
X-22518500Y-98701000I-125000J0D01*
G01*
X-22768500Y-98701000D01*
G75*
G02*
X-22893500Y-98576000I0J125000D01*
G01*
X-22893500Y-97276000D01*
G75*
G02*
X-22768500Y-97151000I125000J0D01*
G01*
G37*
G36*
G01*
X-22768500Y-101451000D02*
X-22518500Y-101451000D01*
G75*
G02*
X-22393500Y-101576000I0J-125000D01*
G01*
X-22393500Y-102876000D01*
G75*
G02*
X-22518500Y-103001000I-125000J0D01*
G01*
X-22768500Y-103001000D01*
G75*
G02*
X-22893500Y-102876000I0J125000D01*
G01*
X-22893500Y-101576000D01*
G75*
G02*
X-22768500Y-101451000I125000J0D01*
G01*
G37*
G36*
G01*
X-22118500Y-101451000D02*
X-21868500Y-101451000D01*
G75*
G02*
X-21743500Y-101576000I0J-125000D01*
G01*
X-21743500Y-102876000D01*
G75*
G02*
X-21868500Y-103001000I-125000J0D01*
G01*
X-22118500Y-103001000D01*
G75*
G02*
X-22243500Y-102876000I0J125000D01*
G01*
X-22243500Y-101576000D01*
G75*
G02*
X-22118500Y-101451000I125000J0D01*
G01*
G37*
G36*
G01*
X-21468500Y-101451000D02*
X-21218500Y-101451000D01*
G75*
G02*
X-21093500Y-101576000I0J-125000D01*
G01*
X-21093500Y-102876000D01*
G75*
G02*
X-21218500Y-103001000I-125000J0D01*
G01*
X-21468500Y-103001000D01*
G75*
G02*
X-21593500Y-102876000I0J125000D01*
G01*
X-21593500Y-101576000D01*
G75*
G02*
X-21468500Y-101451000I125000J0D01*
G01*
G37*
G36*
G01*
X-20818500Y-101451000D02*
X-20568500Y-101451000D01*
G75*
G02*
X-20443500Y-101576000I0J-125000D01*
G01*
X-20443500Y-102876000D01*
G75*
G02*
X-20568500Y-103001000I-125000J0D01*
G01*
X-20818500Y-103001000D01*
G75*
G02*
X-20943500Y-102876000I0J125000D01*
G01*
X-20943500Y-101576000D01*
G75*
G02*
X-20818500Y-101451000I125000J0D01*
G01*
G37*
G36*
G01*
X-20168500Y-101451000D02*
X-19918500Y-101451000D01*
G75*
G02*
X-19793500Y-101576000I0J-125000D01*
G01*
X-19793500Y-102876000D01*
G75*
G02*
X-19918500Y-103001000I-125000J0D01*
G01*
X-20168500Y-103001000D01*
G75*
G02*
X-20293500Y-102876000I0J125000D01*
G01*
X-20293500Y-101576000D01*
G75*
G02*
X-20168500Y-101451000I125000J0D01*
G01*
G37*
G36*
G01*
X-19518500Y-101451000D02*
X-19268500Y-101451000D01*
G75*
G02*
X-19143500Y-101576000I0J-125000D01*
G01*
X-19143500Y-102876000D01*
G75*
G02*
X-19268500Y-103001000I-125000J0D01*
G01*
X-19518500Y-103001000D01*
G75*
G02*
X-19643500Y-102876000I0J125000D01*
G01*
X-19643500Y-101576000D01*
G75*
G02*
X-19518500Y-101451000I125000J0D01*
G01*
G37*
D29*
X-21018500Y-100076000D03*
%TD*%
D30*
%TO.C,Y1*%
X41975500Y-91313000D03*
X45275500Y-91313000D03*
X45275500Y-89313000D03*
X41975500Y-89313000D03*
%TD*%
%TO.C,C2*%
G36*
G01*
X29725000Y-66687500D02*
X29330000Y-66687500D01*
G75*
G02*
X29157500Y-66515000I0J172500D01*
G01*
X29157500Y-66170000D01*
G75*
G02*
X29330000Y-65997500I172500J0D01*
G01*
X29725000Y-65997500D01*
G75*
G02*
X29897500Y-66170000I0J-172500D01*
G01*
X29897500Y-66515000D01*
G75*
G02*
X29725000Y-66687500I-172500J0D01*
G01*
G37*
G36*
G01*
X29725000Y-67657500D02*
X29330000Y-67657500D01*
G75*
G02*
X29157500Y-67485000I0J172500D01*
G01*
X29157500Y-67140000D01*
G75*
G02*
X29330000Y-66967500I172500J0D01*
G01*
X29725000Y-66967500D01*
G75*
G02*
X29897500Y-67140000I0J-172500D01*
G01*
X29897500Y-67485000D01*
G75*
G02*
X29725000Y-67657500I-172500J0D01*
G01*
G37*
%TD*%
%TO.C,C3*%
G36*
G01*
X39111500Y-84398500D02*
X39111500Y-84003500D01*
G75*
G02*
X39284000Y-83831000I172500J0D01*
G01*
X39629000Y-83831000D01*
G75*
G02*
X39801500Y-84003500I0J-172500D01*
G01*
X39801500Y-84398500D01*
G75*
G02*
X39629000Y-84571000I-172500J0D01*
G01*
X39284000Y-84571000D01*
G75*
G02*
X39111500Y-84398500I0J172500D01*
G01*
G37*
G36*
G01*
X40081500Y-84398500D02*
X40081500Y-84003500D01*
G75*
G02*
X40254000Y-83831000I172500J0D01*
G01*
X40599000Y-83831000D01*
G75*
G02*
X40771500Y-84003500I0J-172500D01*
G01*
X40771500Y-84398500D01*
G75*
G02*
X40599000Y-84571000I-172500J0D01*
G01*
X40254000Y-84571000D01*
G75*
G02*
X40081500Y-84398500I0J172500D01*
G01*
G37*
%TD*%
%TO.C,C18*%
G36*
G01*
X-18125000Y-91764500D02*
X-18125000Y-91369500D01*
G75*
G02*
X-17952500Y-91197000I172500J0D01*
G01*
X-17607500Y-91197000D01*
G75*
G02*
X-17435000Y-91369500I0J-172500D01*
G01*
X-17435000Y-91764500D01*
G75*
G02*
X-17607500Y-91937000I-172500J0D01*
G01*
X-17952500Y-91937000D01*
G75*
G02*
X-18125000Y-91764500I0J172500D01*
G01*
G37*
G36*
G01*
X-19095000Y-91764500D02*
X-19095000Y-91369500D01*
G75*
G02*
X-18922500Y-91197000I172500J0D01*
G01*
X-18577500Y-91197000D01*
G75*
G02*
X-18405000Y-91369500I0J-172500D01*
G01*
X-18405000Y-91764500D01*
G75*
G02*
X-18577500Y-91937000I-172500J0D01*
G01*
X-18922500Y-91937000D01*
G75*
G02*
X-19095000Y-91764500I0J172500D01*
G01*
G37*
%TD*%
%TO.C,C26*%
G36*
G01*
X-30461500Y-99257500D02*
X-30461500Y-98862500D01*
G75*
G02*
X-30289000Y-98690000I172500J0D01*
G01*
X-29944000Y-98690000D01*
G75*
G02*
X-29771500Y-98862500I0J-172500D01*
G01*
X-29771500Y-99257500D01*
G75*
G02*
X-29944000Y-99430000I-172500J0D01*
G01*
X-30289000Y-99430000D01*
G75*
G02*
X-30461500Y-99257500I0J172500D01*
G01*
G37*
G36*
G01*
X-29491500Y-99257500D02*
X-29491500Y-98862500D01*
G75*
G02*
X-29319000Y-98690000I172500J0D01*
G01*
X-28974000Y-98690000D01*
G75*
G02*
X-28801500Y-98862500I0J-172500D01*
G01*
X-28801500Y-99257500D01*
G75*
G02*
X-28974000Y-99430000I-172500J0D01*
G01*
X-29319000Y-99430000D01*
G75*
G02*
X-29491500Y-99257500I0J172500D01*
G01*
G37*
%TD*%
%TO.C,C27*%
G36*
G01*
X3399000Y-99003500D02*
X3399000Y-98608500D01*
G75*
G02*
X3571500Y-98436000I172500J0D01*
G01*
X3916500Y-98436000D01*
G75*
G02*
X4089000Y-98608500I0J-172500D01*
G01*
X4089000Y-99003500D01*
G75*
G02*
X3916500Y-99176000I-172500J0D01*
G01*
X3571500Y-99176000D01*
G75*
G02*
X3399000Y-99003500I0J172500D01*
G01*
G37*
G36*
G01*
X4369000Y-99003500D02*
X4369000Y-98608500D01*
G75*
G02*
X4541500Y-98436000I172500J0D01*
G01*
X4886500Y-98436000D01*
G75*
G02*
X5059000Y-98608500I0J-172500D01*
G01*
X5059000Y-99003500D01*
G75*
G02*
X4886500Y-99176000I-172500J0D01*
G01*
X4541500Y-99176000D01*
G75*
G02*
X4369000Y-99003500I0J172500D01*
G01*
G37*
%TD*%
%TO.C,C29*%
G36*
G01*
X-29771500Y-100005500D02*
X-29771500Y-100400500D01*
G75*
G02*
X-29944000Y-100573000I-172500J0D01*
G01*
X-30289000Y-100573000D01*
G75*
G02*
X-30461500Y-100400500I0J172500D01*
G01*
X-30461500Y-100005500D01*
G75*
G02*
X-30289000Y-99833000I172500J0D01*
G01*
X-29944000Y-99833000D01*
G75*
G02*
X-29771500Y-100005500I0J-172500D01*
G01*
G37*
G36*
G01*
X-28801500Y-100005500D02*
X-28801500Y-100400500D01*
G75*
G02*
X-28974000Y-100573000I-172500J0D01*
G01*
X-29319000Y-100573000D01*
G75*
G02*
X-29491500Y-100400500I0J172500D01*
G01*
X-29491500Y-100005500D01*
G75*
G02*
X-29319000Y-99833000I172500J0D01*
G01*
X-28974000Y-99833000D01*
G75*
G02*
X-28801500Y-100005500I0J-172500D01*
G01*
G37*
%TD*%
%TO.C,C30*%
G36*
G01*
X5059000Y-99878500D02*
X5059000Y-100273500D01*
G75*
G02*
X4886500Y-100446000I-172500J0D01*
G01*
X4541500Y-100446000D01*
G75*
G02*
X4369000Y-100273500I0J172500D01*
G01*
X4369000Y-99878500D01*
G75*
G02*
X4541500Y-99706000I172500J0D01*
G01*
X4886500Y-99706000D01*
G75*
G02*
X5059000Y-99878500I0J-172500D01*
G01*
G37*
G36*
G01*
X4089000Y-99878500D02*
X4089000Y-100273500D01*
G75*
G02*
X3916500Y-100446000I-172500J0D01*
G01*
X3571500Y-100446000D01*
G75*
G02*
X3399000Y-100273500I0J172500D01*
G01*
X3399000Y-99878500D01*
G75*
G02*
X3571500Y-99706000I172500J0D01*
G01*
X3916500Y-99706000D01*
G75*
G02*
X4089000Y-99878500I0J-172500D01*
G01*
G37*
%TD*%
%TO.C,C37*%
G36*
G01*
X-24377000Y-100931500D02*
X-24772000Y-100931500D01*
G75*
G02*
X-24944500Y-100759000I0J172500D01*
G01*
X-24944500Y-100414000D01*
G75*
G02*
X-24772000Y-100241500I172500J0D01*
G01*
X-24377000Y-100241500D01*
G75*
G02*
X-24204500Y-100414000I0J-172500D01*
G01*
X-24204500Y-100759000D01*
G75*
G02*
X-24377000Y-100931500I-172500J0D01*
G01*
G37*
G36*
G01*
X-24377000Y-99961500D02*
X-24772000Y-99961500D01*
G75*
G02*
X-24944500Y-99789000I0J172500D01*
G01*
X-24944500Y-99444000D01*
G75*
G02*
X-24772000Y-99271500I172500J0D01*
G01*
X-24377000Y-99271500D01*
G75*
G02*
X-24204500Y-99444000I0J-172500D01*
G01*
X-24204500Y-99789000D01*
G75*
G02*
X-24377000Y-99961500I-172500J0D01*
G01*
G37*
%TD*%
%TO.C,C38*%
G36*
G01*
X40081500Y-86430500D02*
X40081500Y-86035500D01*
G75*
G02*
X40254000Y-85863000I172500J0D01*
G01*
X40599000Y-85863000D01*
G75*
G02*
X40771500Y-86035500I0J-172500D01*
G01*
X40771500Y-86430500D01*
G75*
G02*
X40599000Y-86603000I-172500J0D01*
G01*
X40254000Y-86603000D01*
G75*
G02*
X40081500Y-86430500I0J172500D01*
G01*
G37*
G36*
G01*
X39111500Y-86430500D02*
X39111500Y-86035500D01*
G75*
G02*
X39284000Y-85863000I172500J0D01*
G01*
X39629000Y-85863000D01*
G75*
G02*
X39801500Y-86035500I0J-172500D01*
G01*
X39801500Y-86430500D01*
G75*
G02*
X39629000Y-86603000I-172500J0D01*
G01*
X39284000Y-86603000D01*
G75*
G02*
X39111500Y-86430500I0J172500D01*
G01*
G37*
%TD*%
%TO.C,C39*%
G36*
G01*
X39134500Y-85414500D02*
X39134500Y-85019500D01*
G75*
G02*
X39307000Y-84847000I172500J0D01*
G01*
X39652000Y-84847000D01*
G75*
G02*
X39824500Y-85019500I0J-172500D01*
G01*
X39824500Y-85414500D01*
G75*
G02*
X39652000Y-85587000I-172500J0D01*
G01*
X39307000Y-85587000D01*
G75*
G02*
X39134500Y-85414500I0J172500D01*
G01*
G37*
G36*
G01*
X40104500Y-85414500D02*
X40104500Y-85019500D01*
G75*
G02*
X40277000Y-84847000I172500J0D01*
G01*
X40622000Y-84847000D01*
G75*
G02*
X40794500Y-85019500I0J-172500D01*
G01*
X40794500Y-85414500D01*
G75*
G02*
X40622000Y-85587000I-172500J0D01*
G01*
X40277000Y-85587000D01*
G75*
G02*
X40104500Y-85414500I0J172500D01*
G01*
G37*
%TD*%
%TO.C,J7*%
G36*
G01*
X-5328500Y-65184000D02*
X-5328500Y-66134000D01*
G75*
G02*
X-5553500Y-66359000I-225000J0D01*
G01*
X-6003500Y-66359000D01*
G75*
G02*
X-6228500Y-66134000I0J225000D01*
G01*
X-6228500Y-65184000D01*
G75*
G02*
X-6003500Y-64959000I225000J0D01*
G01*
X-5553500Y-64959000D01*
G75*
G02*
X-5328500Y-65184000I0J-225000D01*
G01*
G37*
D26*
X-7028500Y-65659000D03*
X-8278500Y-65659000D03*
X-9528500Y-65659000D03*
X-10778500Y-65659000D03*
X-12028500Y-65659000D03*
X-13278500Y-65659000D03*
X-14528500Y-65659000D03*
X-15778500Y-65659000D03*
X-17028500Y-65659000D03*
X-18278500Y-65659000D03*
X-19528500Y-65659000D03*
X-20778500Y-65659000D03*
X-22028500Y-65659000D03*
X-23278500Y-65659000D03*
%TD*%
%TO.C,R7*%
G36*
G01*
X32378000Y-110182500D02*
X32773000Y-110182500D01*
G75*
G02*
X32945500Y-110355000I0J-172500D01*
G01*
X32945500Y-110700000D01*
G75*
G02*
X32773000Y-110872500I-172500J0D01*
G01*
X32378000Y-110872500D01*
G75*
G02*
X32205500Y-110700000I0J172500D01*
G01*
X32205500Y-110355000D01*
G75*
G02*
X32378000Y-110182500I172500J0D01*
G01*
G37*
G36*
G01*
X32378000Y-109212500D02*
X32773000Y-109212500D01*
G75*
G02*
X32945500Y-109385000I0J-172500D01*
G01*
X32945500Y-109730000D01*
G75*
G02*
X32773000Y-109902500I-172500J0D01*
G01*
X32378000Y-109902500D01*
G75*
G02*
X32205500Y-109730000I0J172500D01*
G01*
X32205500Y-109385000D01*
G75*
G02*
X32378000Y-109212500I172500J0D01*
G01*
G37*
%TD*%
%TO.C,R8*%
G36*
G01*
X34156000Y-109212500D02*
X34551000Y-109212500D01*
G75*
G02*
X34723500Y-109385000I0J-172500D01*
G01*
X34723500Y-109730000D01*
G75*
G02*
X34551000Y-109902500I-172500J0D01*
G01*
X34156000Y-109902500D01*
G75*
G02*
X33983500Y-109730000I0J172500D01*
G01*
X33983500Y-109385000D01*
G75*
G02*
X34156000Y-109212500I172500J0D01*
G01*
G37*
G36*
G01*
X34156000Y-110182500D02*
X34551000Y-110182500D01*
G75*
G02*
X34723500Y-110355000I0J-172500D01*
G01*
X34723500Y-110700000D01*
G75*
G02*
X34551000Y-110872500I-172500J0D01*
G01*
X34156000Y-110872500D01*
G75*
G02*
X33983500Y-110700000I0J172500D01*
G01*
X33983500Y-110355000D01*
G75*
G02*
X34156000Y-110182500I172500J0D01*
G01*
G37*
%TD*%
%TO.C,R9*%
G36*
G01*
X35934000Y-110182500D02*
X36329000Y-110182500D01*
G75*
G02*
X36501500Y-110355000I0J-172500D01*
G01*
X36501500Y-110700000D01*
G75*
G02*
X36329000Y-110872500I-172500J0D01*
G01*
X35934000Y-110872500D01*
G75*
G02*
X35761500Y-110700000I0J172500D01*
G01*
X35761500Y-110355000D01*
G75*
G02*
X35934000Y-110182500I172500J0D01*
G01*
G37*
G36*
G01*
X35934000Y-109212500D02*
X36329000Y-109212500D01*
G75*
G02*
X36501500Y-109385000I0J-172500D01*
G01*
X36501500Y-109730000D01*
G75*
G02*
X36329000Y-109902500I-172500J0D01*
G01*
X35934000Y-109902500D01*
G75*
G02*
X35761500Y-109730000I0J172500D01*
G01*
X35761500Y-109385000D01*
G75*
G02*
X35934000Y-109212500I172500J0D01*
G01*
G37*
%TD*%
%TO.C,R10*%
G36*
G01*
X41395000Y-109212500D02*
X41790000Y-109212500D01*
G75*
G02*
X41962500Y-109385000I0J-172500D01*
G01*
X41962500Y-109730000D01*
G75*
G02*
X41790000Y-109902500I-172500J0D01*
G01*
X41395000Y-109902500D01*
G75*
G02*
X41222500Y-109730000I0J172500D01*
G01*
X41222500Y-109385000D01*
G75*
G02*
X41395000Y-109212500I172500J0D01*
G01*
G37*
G36*
G01*
X41395000Y-110182500D02*
X41790000Y-110182500D01*
G75*
G02*
X41962500Y-110355000I0J-172500D01*
G01*
X41962500Y-110700000D01*
G75*
G02*
X41790000Y-110872500I-172500J0D01*
G01*
X41395000Y-110872500D01*
G75*
G02*
X41222500Y-110700000I0J172500D01*
G01*
X41222500Y-110355000D01*
G75*
G02*
X41395000Y-110182500I172500J0D01*
G01*
G37*
%TD*%
%TO.C,R11*%
G36*
G01*
X43173000Y-109212500D02*
X43568000Y-109212500D01*
G75*
G02*
X43740500Y-109385000I0J-172500D01*
G01*
X43740500Y-109730000D01*
G75*
G02*
X43568000Y-109902500I-172500J0D01*
G01*
X43173000Y-109902500D01*
G75*
G02*
X43000500Y-109730000I0J172500D01*
G01*
X43000500Y-109385000D01*
G75*
G02*
X43173000Y-109212500I172500J0D01*
G01*
G37*
G36*
G01*
X43173000Y-110182500D02*
X43568000Y-110182500D01*
G75*
G02*
X43740500Y-110355000I0J-172500D01*
G01*
X43740500Y-110700000D01*
G75*
G02*
X43568000Y-110872500I-172500J0D01*
G01*
X43173000Y-110872500D01*
G75*
G02*
X43000500Y-110700000I0J172500D01*
G01*
X43000500Y-110355000D01*
G75*
G02*
X43173000Y-110182500I172500J0D01*
G01*
G37*
%TD*%
%TO.C,R12*%
G36*
G01*
X44951000Y-110182500D02*
X45346000Y-110182500D01*
G75*
G02*
X45518500Y-110355000I0J-172500D01*
G01*
X45518500Y-110700000D01*
G75*
G02*
X45346000Y-110872500I-172500J0D01*
G01*
X44951000Y-110872500D01*
G75*
G02*
X44778500Y-110700000I0J172500D01*
G01*
X44778500Y-110355000D01*
G75*
G02*
X44951000Y-110182500I172500J0D01*
G01*
G37*
G36*
G01*
X44951000Y-109212500D02*
X45346000Y-109212500D01*
G75*
G02*
X45518500Y-109385000I0J-172500D01*
G01*
X45518500Y-109730000D01*
G75*
G02*
X45346000Y-109902500I-172500J0D01*
G01*
X44951000Y-109902500D01*
G75*
G02*
X44778500Y-109730000I0J172500D01*
G01*
X44778500Y-109385000D01*
G75*
G02*
X44951000Y-109212500I172500J0D01*
G01*
G37*
%TD*%
%TO.C,C41*%
G36*
G01*
X-19865500Y-92893500D02*
X-19865500Y-93288500D01*
G75*
G02*
X-20038000Y-93461000I-172500J0D01*
G01*
X-20383000Y-93461000D01*
G75*
G02*
X-20555500Y-93288500I0J172500D01*
G01*
X-20555500Y-92893500D01*
G75*
G02*
X-20383000Y-92721000I172500J0D01*
G01*
X-20038000Y-92721000D01*
G75*
G02*
X-19865500Y-92893500I0J-172500D01*
G01*
G37*
G36*
G01*
X-18895500Y-92893500D02*
X-18895500Y-93288500D01*
G75*
G02*
X-19068000Y-93461000I-172500J0D01*
G01*
X-19413000Y-93461000D01*
G75*
G02*
X-19585500Y-93288500I0J172500D01*
G01*
X-19585500Y-92893500D01*
G75*
G02*
X-19413000Y-92721000I172500J0D01*
G01*
X-19068000Y-92721000D01*
G75*
G02*
X-18895500Y-92893500I0J-172500D01*
G01*
G37*
%TD*%
D14*
%TO.C,TP1*%
X-7810500Y-77851000D03*
%TD*%
%TO.C,TP2*%
X-11747500Y-77851000D03*
%TD*%
%TO.C,TP3*%
X-19621500Y-77851000D03*
%TD*%
%TO.C,TP4*%
X-15684500Y-77851000D03*
%TD*%
%TO.C,TP5*%
X-44767500Y-99060000D03*
%TD*%
%TO.C,TP6*%
X-10477500Y-99187000D03*
%TD*%
%TO.C,TP7*%
X-7048500Y-88773000D03*
%TD*%
D31*
%TO.C,J6*%
X12128500Y-107741000D03*
X12128500Y-103841000D03*
X13398500Y-107741000D03*
X13398500Y-103841000D03*
X14668500Y-107741000D03*
X14668500Y-103841000D03*
X15938500Y-107741000D03*
X15938500Y-103841000D03*
X17208500Y-107741000D03*
X17208500Y-103841000D03*
%TD*%
%TO.C,J9*%
G36*
G01*
X16539000Y-65184000D02*
X16539000Y-66134000D01*
G75*
G02*
X16314000Y-66359000I-225000J0D01*
G01*
X15864000Y-66359000D01*
G75*
G02*
X15639000Y-66134000I0J225000D01*
G01*
X15639000Y-65184000D01*
G75*
G02*
X15864000Y-64959000I225000J0D01*
G01*
X16314000Y-64959000D01*
G75*
G02*
X16539000Y-65184000I0J-225000D01*
G01*
G37*
D26*
X14839000Y-65659000D03*
X13589000Y-65659000D03*
X12339000Y-65659000D03*
%TD*%
%TO.C,C11*%
G36*
G01*
X22442750Y-81132500D02*
X21880250Y-81132500D01*
G75*
G02*
X21636500Y-80888750I0J243750D01*
G01*
X21636500Y-80401250D01*
G75*
G02*
X21880250Y-80157500I243750J0D01*
G01*
X22442750Y-80157500D01*
G75*
G02*
X22686500Y-80401250I0J-243750D01*
G01*
X22686500Y-80888750D01*
G75*
G02*
X22442750Y-81132500I-243750J0D01*
G01*
G37*
G36*
G01*
X22442750Y-82707500D02*
X21880250Y-82707500D01*
G75*
G02*
X21636500Y-82463750I0J243750D01*
G01*
X21636500Y-81976250D01*
G75*
G02*
X21880250Y-81732500I243750J0D01*
G01*
X22442750Y-81732500D01*
G75*
G02*
X22686500Y-81976250I0J-243750D01*
G01*
X22686500Y-82463750D01*
G75*
G02*
X22442750Y-82707500I-243750J0D01*
G01*
G37*
%TD*%
%TO.C,C12*%
G36*
G01*
X18331000Y-96302250D02*
X18331000Y-96864750D01*
G75*
G02*
X18087250Y-97108500I-243750J0D01*
G01*
X17599750Y-97108500D01*
G75*
G02*
X17356000Y-96864750I0J243750D01*
G01*
X17356000Y-96302250D01*
G75*
G02*
X17599750Y-96058500I243750J0D01*
G01*
X18087250Y-96058500D01*
G75*
G02*
X18331000Y-96302250I0J-243750D01*
G01*
G37*
G36*
G01*
X19906000Y-96302250D02*
X19906000Y-96864750D01*
G75*
G02*
X19662250Y-97108500I-243750J0D01*
G01*
X19174750Y-97108500D01*
G75*
G02*
X18931000Y-96864750I0J243750D01*
G01*
X18931000Y-96302250D01*
G75*
G02*
X19174750Y-96058500I243750J0D01*
G01*
X19662250Y-96058500D01*
G75*
G02*
X19906000Y-96302250I0J-243750D01*
G01*
G37*
%TD*%
%TO.C,C19*%
G36*
G01*
X-26706250Y-82428000D02*
X-27268750Y-82428000D01*
G75*
G02*
X-27512500Y-82184250I0J243750D01*
G01*
X-27512500Y-81696750D01*
G75*
G02*
X-27268750Y-81453000I243750J0D01*
G01*
X-26706250Y-81453000D01*
G75*
G02*
X-26462500Y-81696750I0J-243750D01*
G01*
X-26462500Y-82184250D01*
G75*
G02*
X-26706250Y-82428000I-243750J0D01*
G01*
G37*
G36*
G01*
X-26706250Y-80853000D02*
X-27268750Y-80853000D01*
G75*
G02*
X-27512500Y-80609250I0J243750D01*
G01*
X-27512500Y-80121750D01*
G75*
G02*
X-27268750Y-79878000I243750J0D01*
G01*
X-26706250Y-79878000D01*
G75*
G02*
X-26462500Y-80121750I0J-243750D01*
G01*
X-26462500Y-80609250D01*
G75*
G02*
X-26706250Y-80853000I-243750J0D01*
G01*
G37*
%TD*%
%TO.C,C22*%
G36*
G01*
X-23464500Y-91857250D02*
X-23464500Y-92419750D01*
G75*
G02*
X-23708250Y-92663500I-243750J0D01*
G01*
X-24195750Y-92663500D01*
G75*
G02*
X-24439500Y-92419750I0J243750D01*
G01*
X-24439500Y-91857250D01*
G75*
G02*
X-24195750Y-91613500I243750J0D01*
G01*
X-23708250Y-91613500D01*
G75*
G02*
X-23464500Y-91857250I0J-243750D01*
G01*
G37*
G36*
G01*
X-25039500Y-91857250D02*
X-25039500Y-92419750D01*
G75*
G02*
X-25283250Y-92663500I-243750J0D01*
G01*
X-25770750Y-92663500D01*
G75*
G02*
X-26014500Y-92419750I0J243750D01*
G01*
X-26014500Y-91857250D01*
G75*
G02*
X-25770750Y-91613500I243750J0D01*
G01*
X-25283250Y-91613500D01*
G75*
G02*
X-25039500Y-91857250I0J-243750D01*
G01*
G37*
%TD*%
%TO.C,C23*%
G36*
G01*
X-24361000Y-90832250D02*
X-24361000Y-90269750D01*
G75*
G02*
X-24117250Y-90026000I243750J0D01*
G01*
X-23629750Y-90026000D01*
G75*
G02*
X-23386000Y-90269750I0J-243750D01*
G01*
X-23386000Y-90832250D01*
G75*
G02*
X-23629750Y-91076000I-243750J0D01*
G01*
X-24117250Y-91076000D01*
G75*
G02*
X-24361000Y-90832250I0J243750D01*
G01*
G37*
G36*
G01*
X-25936000Y-90832250D02*
X-25936000Y-90269750D01*
G75*
G02*
X-25692250Y-90026000I243750J0D01*
G01*
X-25204750Y-90026000D01*
G75*
G02*
X-24961000Y-90269750I0J-243750D01*
G01*
X-24961000Y-90832250D01*
G75*
G02*
X-25204750Y-91076000I-243750J0D01*
G01*
X-25692250Y-91076000D01*
G75*
G02*
X-25936000Y-90832250I0J243750D01*
G01*
G37*
%TD*%
%TO.C,R21*%
G36*
G01*
X-21710000Y-90180000D02*
X-22105000Y-90180000D01*
G75*
G02*
X-22277500Y-90007500I0J172500D01*
G01*
X-22277500Y-89662500D01*
G75*
G02*
X-22105000Y-89490000I172500J0D01*
G01*
X-21710000Y-89490000D01*
G75*
G02*
X-21537500Y-89662500I0J-172500D01*
G01*
X-21537500Y-90007500D01*
G75*
G02*
X-21710000Y-90180000I-172500J0D01*
G01*
G37*
G36*
G01*
X-21710000Y-91150000D02*
X-22105000Y-91150000D01*
G75*
G02*
X-22277500Y-90977500I0J172500D01*
G01*
X-22277500Y-90632500D01*
G75*
G02*
X-22105000Y-90460000I172500J0D01*
G01*
X-21710000Y-90460000D01*
G75*
G02*
X-21537500Y-90632500I0J-172500D01*
G01*
X-21537500Y-90977500D01*
G75*
G02*
X-21710000Y-91150000I-172500J0D01*
G01*
G37*
%TD*%
%TO.C,R22*%
G36*
G01*
X-20567000Y-91127000D02*
X-20962000Y-91127000D01*
G75*
G02*
X-21134500Y-90954500I0J172500D01*
G01*
X-21134500Y-90609500D01*
G75*
G02*
X-20962000Y-90437000I172500J0D01*
G01*
X-20567000Y-90437000D01*
G75*
G02*
X-20394500Y-90609500I0J-172500D01*
G01*
X-20394500Y-90954500D01*
G75*
G02*
X-20567000Y-91127000I-172500J0D01*
G01*
G37*
G36*
G01*
X-20567000Y-90157000D02*
X-20962000Y-90157000D01*
G75*
G02*
X-21134500Y-89984500I0J172500D01*
G01*
X-21134500Y-89639500D01*
G75*
G02*
X-20962000Y-89467000I172500J0D01*
G01*
X-20567000Y-89467000D01*
G75*
G02*
X-20394500Y-89639500I0J-172500D01*
G01*
X-20394500Y-89984500D01*
G75*
G02*
X-20567000Y-90157000I-172500J0D01*
G01*
G37*
%TD*%
D32*
%TO.C,H1*%
X-44263000Y-65438000D03*
D33*
X-41863000Y-65438000D03*
X-42565944Y-67135056D03*
X-44263000Y-67838000D03*
X-45960056Y-67135056D03*
X-46663000Y-65438000D03*
X-45960056Y-63740944D03*
X-44263000Y-63038000D03*
X-42565944Y-63740944D03*
%TD*%
%TO.C,H2*%
X47434056Y-63740944D03*
X45737000Y-63038000D03*
X44039944Y-63740944D03*
X43337000Y-65438000D03*
X44039944Y-67135056D03*
X45737000Y-67838000D03*
X47434056Y-67135056D03*
X48137000Y-65438000D03*
D32*
X45737000Y-65438000D03*
%TD*%
M02*
