M48
INCH
T1C0.0079
T2C0.0157
T3C0.0197
T4C0.0394
T5C0.0472
T6C0.0591
T7C0.0630
T8C0.1260
%
G90
G05
T1
X-0.8669Y-3.9203
X-0.8669Y-3.9597
X-0.8275Y-3.9203
X-0.8275Y-3.9597
X-0.7881Y-3.9203
X-0.7881Y-3.9597
T2
X-1.675Y-4.1525
X-1.675Y-4.2475
X-1.675Y-4.3625
X-1.6725Y-4.035
X-1.5925Y-4.55
X-1.5675Y-4.5775
X-1.555Y-3.9025
X-1.545Y-4.04
X-1.545Y-4.1525
X-1.5425Y-4.36
X-1.54Y-4.245
X-1.535Y-4.595
X-1.38Y-3.9125
X-1.2425Y-3.9775
X-1.2425Y-4.1475
X-1.2425Y-4.25
X-1.2425Y-4.285
X-1.2425Y-4.3225
X-1.24Y-4.0725
X-1.24Y-4.11
X-1.16Y-3.9775
X-1.115Y-3.9
X-1.09Y-3.4725
X-1.0875Y-3.77
X-1.075Y-3.925
X-1.0625Y-3.1175
X-1.0525Y-3.5425
X-1.0425Y-3.6275
X-1.0275Y-2.8975
X-1.015Y-3.2075
X-1.0Y-4.2175
X-0.98Y-3.1225
X-0.965Y-2.8975
X-0.938Y-3.512
X-0.9175Y-2.6625
X-0.865Y-3.7525
X-0.8375Y-3.7175
X-0.8275Y-4.17
X-0.825Y-3.635
X-0.7669Y-4.1694
X-0.765Y-3.7175
X-0.7062Y-3.6412
X-0.6775Y-3.5575
X-0.6675Y-3.605
X-0.645Y-4.155
X-0.6425Y-4.2175
X-0.5175Y-4.4325
X-0.4825Y-4.4175
X-0.46Y-3.2275
X-0.44Y-4.4108
X-0.4025Y-4.0675
X-0.4025Y-4.1075
X-0.4025Y-4.1475
X-0.4025Y-4.2375
X-0.4025Y-4.275
X-0.4025Y-4.3125
X-0.265Y-3.9025
X-0.265Y-3.97
X-0.185Y-3.8875
X-0.18Y-3.07
X-0.0975Y-4.355
X-0.095Y-4.1525
X-0.095Y-4.2375
X-0.0925Y-4.035
X-0.0575Y-3.17
X-0.0525Y-3.2325
X0.0254Y-4.0352
X0.035Y-4.1525
X0.035Y-4.2375
X0.0375Y-4.35
X0.1025Y-3.98
X0.1525Y-3.8525
X0.22Y-3.8875
X0.22Y-3.9375
X0.3171Y-3.0513
X0.335Y-3.77
X0.3375Y-3.915
X0.3483Y-3.0203
X0.376Y-3.0737
X0.43Y-2.6125
X0.455Y-3.0737
X0.465Y-2.6325
X0.4775Y-4.3175
X0.53Y-4.3175
X0.5775Y-4.3175
X0.5875Y-3.82
X0.63Y-2.6275
X0.65Y-4.7775
X0.6525Y-3.225
X0.66Y-3.795
X0.675Y-2.7425
X0.6775Y-2.6275
X0.6775Y-4.3175
X0.681Y-3.7225
X0.705Y-3.8525
X0.7275Y-3.6
X0.7326Y-3.5607
X0.74Y-4.8325
X0.755Y-3.1625
X0.765Y-3.1125
X0.775Y-3.2975
X0.795Y-4.0575
X0.805Y-3.835
X0.805Y-3.92
X0.8052Y-3.5941
X0.8145Y-3.138
X0.8175Y-3.3175
X0.825Y-4.7675
X0.83Y-4.395
X0.885Y-2.635
X0.905Y-4.1325
X0.9125Y-4.075
X0.915Y-2.6575
X0.9325Y-3.4275
X0.945Y-3.625
X0.945Y-4.1625
X0.9775Y-3.5525
X1.005Y-4.2071
X1.0075Y-3.82
X1.0075Y-4.0375
X1.0125Y-2.66
X1.0425Y-2.635
X1.0475Y-3.82
X1.0475Y-4.0375
X1.075Y-3.6625
X1.1028Y-4.0381
X1.11Y-3.82
X1.1175Y-2.805
X1.12Y-2.7025
X1.1275Y-2.6125
X1.1275Y-2.6525
X1.145Y-3.1525
X1.1775Y-4.015
X1.21Y-2.805
X1.2125Y-4.25
X1.215Y-2.6
X1.2175Y-2.6925
X1.2375Y-3.5925
X1.2425Y-3.07
X1.2575Y-3.705
X1.2575Y-4.1025
X1.2625Y-5.09
X1.295Y-4.2575
X1.3Y-2.96
X1.34Y-4.5125
X1.3425Y-4.73
X1.36Y-3.75
X1.3628Y-4.0715
X1.365Y-3.1925
X1.3675Y-2.9775
X1.3675Y-3.04
X1.3975Y-3.9725
X1.4025Y-3.4675
X1.405Y-4.1575
X1.4325Y-3.9225
X1.44Y-3.2325
X1.455Y-4.1975
X1.4625Y-4.37
X1.465Y-4.515
X1.5075Y-4.2625
X1.52Y-3.3725
X1.52Y-3.675
X1.5375Y-4.4975
X1.5525Y-3.28
X1.5525Y-3.7
X1.5525Y-3.7675
X1.5625Y-3.475
X1.5875Y-2.751
X1.5875Y-2.6325
X1.5875Y-2.6725
X1.5875Y-2.715
X1.59Y-4.2625
X1.62Y-3.735
X1.625Y-3.315
X1.625Y-3.355
X1.625Y-3.395
X1.65Y-3.675
X1.665Y-4.2575
X1.6775Y-2.995
X1.6795Y-3.0383
X1.685Y-3.4575
X1.7325Y-3.065
X1.7325Y-3.3875
X1.7325Y-3.715
X1.765Y-4.5175
X1.7775Y-4.2775
X1.79Y-3.735
X1.795Y-3.3875
X1.8Y-3.7
X1.805Y-2.97
X1.83Y-3.595
X1.8375Y-3.025
X1.8375Y-5.0925
X1.865Y-3.3875
X1.865Y-3.73
X1.8675Y-3.455
X1.8675Y-3.655
X1.87Y-3.5225
X1.87Y-3.5875
T3
X1.7062Y-2.5763
X1.7339Y-2.5095
X1.7339Y-2.6431
X1.8007Y-2.4818
X1.8007Y-2.6708
X1.8675Y-2.5095
X1.8675Y-2.6431
X1.8952Y-2.5763
X-1.8371Y-2.5763
X-1.8095Y-2.5095
X-1.8095Y-2.6431
X-1.7426Y-2.4818
X-1.7426Y-2.6708
X-1.6758Y-2.5095
X-1.6758Y-2.6431
X-1.6481Y-2.5763
X0.9141Y-2.585
X0.9633Y-2.585
X1.0125Y-2.585
X0.4858Y-2.585
X0.535Y-2.585
X0.5842Y-2.585
X0.6334Y-2.585
X-0.9165Y-2.585
X-0.8673Y-2.585
X-0.8181Y-2.585
X-0.7688Y-2.585
X-0.7196Y-2.585
X-0.6704Y-2.585
X-0.6212Y-2.585
X-0.572Y-2.585
X-0.5228Y-2.585
X-0.4736Y-2.585
X-0.4244Y-2.585
X-0.3751Y-2.585
X-0.3259Y-2.585
X-0.2767Y-2.585
X-0.2275Y-2.585
T4
X-1.7625Y-3.9
X-0.2775Y-3.495
X-1.615Y-3.0325
X-1.615Y-3.1325
X-1.615Y-3.2325
X-1.615Y-3.3325
X-1.615Y-3.4325
X-1.615Y-3.5325
X-1.515Y-3.0325
X-1.515Y-3.1325
X-1.515Y-3.2325
X-1.515Y-3.3325
X-1.515Y-3.4325
X-1.515Y-3.5325
X-0.4125Y-3.905
X-0.3075Y-3.065
X-0.4325Y-3.495
X-0.4625Y-3.065
X-0.7725Y-3.065
X-0.6175Y-3.065
T5
X-1.3575Y-4.505
X-1.3575Y-4.705
X-0.2825Y-4.5025
X-0.2825Y-4.7025
T6
X0.4447Y-4.7368
X0.5431Y-4.6384
X0.6416Y-5.1266
X0.74Y-4.7368
X0.8384Y-5.1266
X0.9369Y-4.6384
X1.0353Y-4.7368
T7
X-1.5075Y-4.505
X-1.2075Y-4.505
X-0.4325Y-4.5025
X-0.1325Y-4.5025
T8
X1.8007Y-2.5763
X-1.7426Y-2.5763
T0
M30
