%TF.GenerationSoftware,KiCad,Pcbnew,(5.1.6-0-10_14)*%
%TF.CreationDate,2021-01-19T18:17:05+00:00*%
%TF.ProjectId,lawrencebutton,6c617772-656e-4636-9562-7574746f6e2e,rev?*%
%TF.SameCoordinates,Original*%
%TF.FileFunction,Legend,Top*%
%TF.FilePolarity,Positive*%
%FSLAX46Y46*%
G04 Gerber Fmt 4.6, Leading zero omitted, Abs format (unit mm)*
G04 Created by KiCad (PCBNEW (5.1.6-0-10_14)) date 2021-01-19 18:17:05*
%MOMM*%
%LPD*%
G01*
G04 APERTURE LIST*
%ADD10C,0.150000*%
%ADD11C,0.200000*%
%ADD12C,0.300000*%
%ADD13C,0.400000*%
%ADD14C,0.120000*%
%ADD15C,0.010000*%
G04 APERTURE END LIST*
D10*
X25098952Y-91908380D02*
X25098952Y-92622666D01*
X25051333Y-92765523D01*
X24956095Y-92860761D01*
X24813238Y-92908380D01*
X24718000Y-92908380D01*
X26051333Y-92908380D02*
X25575142Y-92908380D01*
X25575142Y-91908380D01*
X26956095Y-92813142D02*
X26908476Y-92860761D01*
X26765619Y-92908380D01*
X26670380Y-92908380D01*
X26527523Y-92860761D01*
X26432285Y-92765523D01*
X26384666Y-92670285D01*
X26337047Y-92479809D01*
X26337047Y-92336952D01*
X26384666Y-92146476D01*
X26432285Y-92051238D01*
X26527523Y-91956000D01*
X26670380Y-91908380D01*
X26765619Y-91908380D01*
X26908476Y-91956000D01*
X26956095Y-92003619D01*
X27670380Y-91908380D02*
X27670380Y-92622666D01*
X27622761Y-92765523D01*
X27527523Y-92860761D01*
X27384666Y-92908380D01*
X27289428Y-92908380D01*
X28622761Y-92908380D02*
X28146571Y-92908380D01*
X28146571Y-91908380D01*
X29527523Y-92813142D02*
X29479904Y-92860761D01*
X29337047Y-92908380D01*
X29241809Y-92908380D01*
X29098952Y-92860761D01*
X29003714Y-92765523D01*
X28956095Y-92670285D01*
X28908476Y-92479809D01*
X28908476Y-92336952D01*
X28956095Y-92146476D01*
X29003714Y-92051238D01*
X29098952Y-91956000D01*
X29241809Y-91908380D01*
X29337047Y-91908380D01*
X29479904Y-91956000D01*
X29527523Y-92003619D01*
X30241809Y-91908380D02*
X30241809Y-92622666D01*
X30194190Y-92765523D01*
X30098952Y-92860761D01*
X29956095Y-92908380D01*
X29860857Y-92908380D01*
X31194190Y-92908380D02*
X30718000Y-92908380D01*
X30718000Y-91908380D01*
X32098952Y-92813142D02*
X32051333Y-92860761D01*
X31908476Y-92908380D01*
X31813238Y-92908380D01*
X31670380Y-92860761D01*
X31575142Y-92765523D01*
X31527523Y-92670285D01*
X31479904Y-92479809D01*
X31479904Y-92336952D01*
X31527523Y-92146476D01*
X31575142Y-92051238D01*
X31670380Y-91956000D01*
X31813238Y-91908380D01*
X31908476Y-91908380D01*
X32051333Y-91956000D01*
X32098952Y-92003619D01*
X32813238Y-91908380D02*
X32813238Y-92622666D01*
X32765619Y-92765523D01*
X32670380Y-92860761D01*
X32527523Y-92908380D01*
X32432285Y-92908380D01*
X33765619Y-92908380D02*
X33289428Y-92908380D01*
X33289428Y-91908380D01*
X34670380Y-92813142D02*
X34622761Y-92860761D01*
X34479904Y-92908380D01*
X34384666Y-92908380D01*
X34241809Y-92860761D01*
X34146571Y-92765523D01*
X34098952Y-92670285D01*
X34051333Y-92479809D01*
X34051333Y-92336952D01*
X34098952Y-92146476D01*
X34146571Y-92051238D01*
X34241809Y-91956000D01*
X34384666Y-91908380D01*
X34479904Y-91908380D01*
X34622761Y-91956000D01*
X34670380Y-92003619D01*
D11*
X31410214Y-118354357D02*
X31467357Y-118182928D01*
X31467357Y-117897214D01*
X31410214Y-117782928D01*
X31353071Y-117725785D01*
X31238785Y-117668642D01*
X31124500Y-117668642D01*
X31010214Y-117725785D01*
X30953071Y-117782928D01*
X30895928Y-117897214D01*
X30838785Y-118125785D01*
X30781642Y-118240071D01*
X30724500Y-118297214D01*
X30610214Y-118354357D01*
X30495928Y-118354357D01*
X30381642Y-118297214D01*
X30324500Y-118240071D01*
X30267357Y-118125785D01*
X30267357Y-117840071D01*
X30324500Y-117668642D01*
X31467357Y-117154357D02*
X30267357Y-117154357D01*
X30267357Y-116868642D01*
X30324500Y-116697214D01*
X30438785Y-116582928D01*
X30553071Y-116525785D01*
X30781642Y-116468642D01*
X30953071Y-116468642D01*
X31181642Y-116525785D01*
X31295928Y-116582928D01*
X31410214Y-116697214D01*
X31467357Y-116868642D01*
X31467357Y-117154357D01*
X7972357Y-118982928D02*
X6772357Y-118982928D01*
X7629500Y-118582928D01*
X6772357Y-118182928D01*
X7972357Y-118182928D01*
X7972357Y-117611500D02*
X6772357Y-117611500D01*
X7972357Y-117040071D02*
X6772357Y-117040071D01*
X6772357Y-116754357D01*
X6829500Y-116582928D01*
X6943785Y-116468642D01*
X7058071Y-116411500D01*
X7286642Y-116354357D01*
X7458071Y-116354357D01*
X7686642Y-116411500D01*
X7800928Y-116468642D01*
X7915214Y-116582928D01*
X7972357Y-116754357D01*
X7972357Y-117040071D01*
X7972357Y-115840071D02*
X6772357Y-115840071D01*
X-14316142Y-117678000D02*
X-14887571Y-118078000D01*
X-14316142Y-118363714D02*
X-15516142Y-118363714D01*
X-15516142Y-117906571D01*
X-15459000Y-117792285D01*
X-15401857Y-117735142D01*
X-15287571Y-117678000D01*
X-15116142Y-117678000D01*
X-15001857Y-117735142D01*
X-14944714Y-117792285D01*
X-14887571Y-117906571D01*
X-14887571Y-118363714D01*
X-14316142Y-117163714D02*
X-15516142Y-117163714D01*
X-15459000Y-115963714D02*
X-15516142Y-116078000D01*
X-15516142Y-116249428D01*
X-15459000Y-116420857D01*
X-15344714Y-116535142D01*
X-15230428Y-116592285D01*
X-15001857Y-116649428D01*
X-14830428Y-116649428D01*
X-14601857Y-116592285D01*
X-14487571Y-116535142D01*
X-14373285Y-116420857D01*
X-14316142Y-116249428D01*
X-14316142Y-116135142D01*
X-14373285Y-115963714D01*
X-14430428Y-115906571D01*
X-14830428Y-115906571D01*
X-14830428Y-116135142D01*
X-14316142Y-115392285D02*
X-15516142Y-115392285D01*
X-14944714Y-115392285D02*
X-14944714Y-114706571D01*
X-14316142Y-114706571D02*
X-15516142Y-114706571D01*
X-15516142Y-114306571D02*
X-15516142Y-113620857D01*
X-14316142Y-113963714D02*
X-15516142Y-113963714D01*
X-42002142Y-117220857D02*
X-42002142Y-117792285D01*
X-43202142Y-117792285D01*
X-42630714Y-116820857D02*
X-42630714Y-116420857D01*
X-42002142Y-116249428D02*
X-42002142Y-116820857D01*
X-43202142Y-116820857D01*
X-43202142Y-116249428D01*
X-42630714Y-115335142D02*
X-42630714Y-115735142D01*
X-42002142Y-115735142D02*
X-43202142Y-115735142D01*
X-43202142Y-115163714D01*
X-43202142Y-114878000D02*
X-43202142Y-114192285D01*
X-42002142Y-114535142D02*
X-43202142Y-114535142D01*
X10973214Y-68875214D02*
X11144642Y-68932357D01*
X11430357Y-68932357D01*
X11544642Y-68875214D01*
X11601785Y-68818071D01*
X11658928Y-68703785D01*
X11658928Y-68589500D01*
X11601785Y-68475214D01*
X11544642Y-68418071D01*
X11430357Y-68360928D01*
X11201785Y-68303785D01*
X11087500Y-68246642D01*
X11030357Y-68189500D01*
X10973214Y-68075214D01*
X10973214Y-67960928D01*
X11030357Y-67846642D01*
X11087500Y-67789500D01*
X11201785Y-67732357D01*
X11487500Y-67732357D01*
X11658928Y-67789500D01*
X12173214Y-68303785D02*
X12573214Y-68303785D01*
X12744642Y-68932357D02*
X12173214Y-68932357D01*
X12173214Y-67732357D01*
X12744642Y-67732357D01*
X13258928Y-68932357D02*
X13258928Y-67732357D01*
X13944642Y-68932357D01*
X13944642Y-67732357D01*
X14458928Y-68875214D02*
X14630357Y-68932357D01*
X14916071Y-68932357D01*
X15030357Y-68875214D01*
X15087500Y-68818071D01*
X15144642Y-68703785D01*
X15144642Y-68589500D01*
X15087500Y-68475214D01*
X15030357Y-68418071D01*
X14916071Y-68360928D01*
X14687500Y-68303785D01*
X14573214Y-68246642D01*
X14516071Y-68189500D01*
X14458928Y-68075214D01*
X14458928Y-67960928D01*
X14516071Y-67846642D01*
X14573214Y-67789500D01*
X14687500Y-67732357D01*
X14973214Y-67732357D01*
X15144642Y-67789500D01*
X15887500Y-67732357D02*
X16116071Y-67732357D01*
X16230357Y-67789500D01*
X16344642Y-67903785D01*
X16401785Y-68132357D01*
X16401785Y-68532357D01*
X16344642Y-68760928D01*
X16230357Y-68875214D01*
X16116071Y-68932357D01*
X15887500Y-68932357D01*
X15773214Y-68875214D01*
X15658928Y-68760928D01*
X15601785Y-68532357D01*
X15601785Y-68132357D01*
X15658928Y-67903785D01*
X15773214Y-67789500D01*
X15887500Y-67732357D01*
X17601785Y-68932357D02*
X17201785Y-68360928D01*
X16916071Y-68932357D02*
X16916071Y-67732357D01*
X17373214Y-67732357D01*
X17487500Y-67789500D01*
X17544642Y-67846642D01*
X17601785Y-67960928D01*
X17601785Y-68132357D01*
X17544642Y-68246642D01*
X17487500Y-68303785D01*
X17373214Y-68360928D01*
X16916071Y-68360928D01*
X4866571Y-82736571D02*
X5152285Y-83736571D01*
X5437999Y-83022285D01*
X5723714Y-83736571D01*
X6009428Y-82736571D01*
X6580857Y-83736571D02*
X6580857Y-82736571D01*
X6580857Y-82236571D02*
X6509428Y-82308000D01*
X6580857Y-82379428D01*
X6652285Y-82308000D01*
X6580857Y-82236571D01*
X6580857Y-82379428D01*
X7080857Y-82736571D02*
X7652285Y-82736571D01*
X7295142Y-82236571D02*
X7295142Y-83522285D01*
X7366571Y-83665142D01*
X7509428Y-83736571D01*
X7652285Y-83736571D01*
X8152285Y-83736571D02*
X8152285Y-82236571D01*
X8795142Y-83736571D02*
X8795142Y-82950857D01*
X8723714Y-82808000D01*
X8580857Y-82736571D01*
X8366571Y-82736571D01*
X8223714Y-82808000D01*
X8152285Y-82879428D01*
X10866571Y-83736571D02*
X10723714Y-83665142D01*
X10652285Y-83522285D01*
X10652285Y-82236571D01*
X11652285Y-83736571D02*
X11509428Y-83665142D01*
X11438000Y-83593714D01*
X11366571Y-83450857D01*
X11366571Y-83022285D01*
X11438000Y-82879428D01*
X11509428Y-82808000D01*
X11652285Y-82736571D01*
X11866571Y-82736571D01*
X12009428Y-82808000D01*
X12080857Y-82879428D01*
X12152285Y-83022285D01*
X12152285Y-83450857D01*
X12080857Y-83593714D01*
X12009428Y-83665142D01*
X11866571Y-83736571D01*
X11652285Y-83736571D01*
X12652285Y-82736571D02*
X13009428Y-83736571D01*
X13366571Y-82736571D01*
X14509428Y-83665142D02*
X14366571Y-83736571D01*
X14080857Y-83736571D01*
X13938000Y-83665142D01*
X13866571Y-83522285D01*
X13866571Y-82950857D01*
X13938000Y-82808000D01*
X14080857Y-82736571D01*
X14366571Y-82736571D01*
X14509428Y-82808000D01*
X14580857Y-82950857D01*
X14580857Y-83093714D01*
X13866571Y-83236571D01*
X15295142Y-83665142D02*
X15295142Y-83736571D01*
X15223714Y-83879428D01*
X15152285Y-83950857D01*
X17080857Y-83736571D02*
X17080857Y-82236571D01*
X17080857Y-82808000D02*
X17223714Y-82736571D01*
X17509428Y-82736571D01*
X17652285Y-82808000D01*
X17723714Y-82879428D01*
X17795142Y-83022285D01*
X17795142Y-83450857D01*
X17723714Y-83593714D01*
X17652285Y-83665142D01*
X17509428Y-83736571D01*
X17223714Y-83736571D01*
X17080857Y-83665142D01*
X18295142Y-82736571D02*
X18652285Y-83736571D01*
X19009428Y-82736571D02*
X18652285Y-83736571D01*
X18509428Y-84093714D01*
X18437999Y-84165142D01*
X18295142Y-84236571D01*
D10*
X6580880Y-88019500D02*
X6580880Y-87971880D01*
X6628499Y-87876642D01*
X6676119Y-87829023D01*
X6199928Y-88019500D02*
X6199928Y-87971880D01*
X6247547Y-87876642D01*
X6295166Y-87829023D01*
X6914214Y-87971880D02*
X7485642Y-87971880D01*
X7199928Y-88971880D02*
X7199928Y-87971880D01*
X7818976Y-88971880D02*
X7818976Y-87971880D01*
X8247547Y-88971880D02*
X8247547Y-88448071D01*
X8199928Y-88352833D01*
X8104690Y-88305214D01*
X7961833Y-88305214D01*
X7866595Y-88352833D01*
X7818976Y-88400452D01*
X9104690Y-88924261D02*
X9009452Y-88971880D01*
X8818976Y-88971880D01*
X8723738Y-88924261D01*
X8676119Y-88829023D01*
X8676119Y-88448071D01*
X8723738Y-88352833D01*
X8818976Y-88305214D01*
X9009452Y-88305214D01*
X9104690Y-88352833D01*
X9152309Y-88448071D01*
X9152309Y-88543309D01*
X8676119Y-88638547D01*
X10676119Y-88448071D02*
X10818976Y-88495690D01*
X10866595Y-88543309D01*
X10914214Y-88638547D01*
X10914214Y-88781404D01*
X10866595Y-88876642D01*
X10818976Y-88924261D01*
X10723738Y-88971880D01*
X10342785Y-88971880D01*
X10342785Y-87971880D01*
X10676119Y-87971880D01*
X10771357Y-88019500D01*
X10818976Y-88067119D01*
X10866595Y-88162357D01*
X10866595Y-88257595D01*
X10818976Y-88352833D01*
X10771357Y-88400452D01*
X10676119Y-88448071D01*
X10342785Y-88448071D01*
X11771357Y-88305214D02*
X11771357Y-88971880D01*
X11342785Y-88305214D02*
X11342785Y-88829023D01*
X11390404Y-88924261D01*
X11485642Y-88971880D01*
X11628499Y-88971880D01*
X11723738Y-88924261D01*
X11771357Y-88876642D01*
X12104690Y-88305214D02*
X12485642Y-88305214D01*
X12247547Y-87971880D02*
X12247547Y-88829023D01*
X12295166Y-88924261D01*
X12390404Y-88971880D01*
X12485642Y-88971880D01*
X12676119Y-88305214D02*
X13057071Y-88305214D01*
X12818976Y-87971880D02*
X12818976Y-88829023D01*
X12866595Y-88924261D01*
X12961833Y-88971880D01*
X13057071Y-88971880D01*
X13533261Y-88971880D02*
X13438023Y-88924261D01*
X13390404Y-88876642D01*
X13342785Y-88781404D01*
X13342785Y-88495690D01*
X13390404Y-88400452D01*
X13438023Y-88352833D01*
X13533261Y-88305214D01*
X13676119Y-88305214D01*
X13771357Y-88352833D01*
X13818976Y-88400452D01*
X13866595Y-88495690D01*
X13866595Y-88781404D01*
X13818976Y-88876642D01*
X13771357Y-88924261D01*
X13676119Y-88971880D01*
X13533261Y-88971880D01*
X14295166Y-88305214D02*
X14295166Y-88971880D01*
X14295166Y-88400452D02*
X14342785Y-88352833D01*
X14438023Y-88305214D01*
X14580880Y-88305214D01*
X14676119Y-88352833D01*
X14723738Y-88448071D01*
X14723738Y-88971880D01*
X15199928Y-87971880D02*
X15199928Y-88019500D01*
X15152309Y-88114738D01*
X15104690Y-88162357D01*
X15580880Y-87971880D02*
X15580880Y-88019500D01*
X15533261Y-88114738D01*
X15485642Y-88162357D01*
X16628499Y-88305214D02*
X16866595Y-88971880D01*
X17104690Y-88305214D01*
X17438023Y-88067119D02*
X17485642Y-88019500D01*
X17580880Y-87971880D01*
X17818976Y-87971880D01*
X17914214Y-88019500D01*
X17961833Y-88067119D01*
X18009452Y-88162357D01*
X18009452Y-88257595D01*
X17961833Y-88400452D01*
X17390404Y-88971880D01*
X18009452Y-88971880D01*
X9080880Y-89621880D02*
X9080880Y-90336166D01*
X9033261Y-90479023D01*
X8938023Y-90574261D01*
X8795166Y-90621880D01*
X8699928Y-90621880D01*
X9985642Y-90621880D02*
X9985642Y-90098071D01*
X9938023Y-90002833D01*
X9842785Y-89955214D01*
X9652309Y-89955214D01*
X9557071Y-90002833D01*
X9985642Y-90574261D02*
X9890404Y-90621880D01*
X9652309Y-90621880D01*
X9557071Y-90574261D01*
X9509452Y-90479023D01*
X9509452Y-90383785D01*
X9557071Y-90288547D01*
X9652309Y-90240928D01*
X9890404Y-90240928D01*
X9985642Y-90193309D01*
X10461833Y-89955214D02*
X10461833Y-90621880D01*
X10461833Y-90050452D02*
X10509452Y-90002833D01*
X10604690Y-89955214D01*
X10747547Y-89955214D01*
X10842785Y-90002833D01*
X10890404Y-90098071D01*
X10890404Y-90621880D01*
X12080880Y-89717119D02*
X12128500Y-89669500D01*
X12223738Y-89621880D01*
X12461833Y-89621880D01*
X12557071Y-89669500D01*
X12604690Y-89717119D01*
X12652309Y-89812357D01*
X12652309Y-89907595D01*
X12604690Y-90050452D01*
X12033261Y-90621880D01*
X12652309Y-90621880D01*
X13271357Y-89621880D02*
X13366595Y-89621880D01*
X13461833Y-89669500D01*
X13509452Y-89717119D01*
X13557071Y-89812357D01*
X13604690Y-90002833D01*
X13604690Y-90240928D01*
X13557071Y-90431404D01*
X13509452Y-90526642D01*
X13461833Y-90574261D01*
X13366595Y-90621880D01*
X13271357Y-90621880D01*
X13176119Y-90574261D01*
X13128500Y-90526642D01*
X13080880Y-90431404D01*
X13033261Y-90240928D01*
X13033261Y-90002833D01*
X13080880Y-89812357D01*
X13128500Y-89717119D01*
X13176119Y-89669500D01*
X13271357Y-89621880D01*
X13985642Y-89717119D02*
X14033261Y-89669500D01*
X14128500Y-89621880D01*
X14366595Y-89621880D01*
X14461833Y-89669500D01*
X14509452Y-89717119D01*
X14557071Y-89812357D01*
X14557071Y-89907595D01*
X14509452Y-90050452D01*
X13938023Y-90621880D01*
X14557071Y-90621880D01*
X15509452Y-90621880D02*
X14938023Y-90621880D01*
X15223738Y-90621880D02*
X15223738Y-89621880D01*
X15128500Y-89764738D01*
X15033261Y-89859976D01*
X14938023Y-89907595D01*
D12*
X5965785Y-86975071D02*
X5965785Y-85475071D01*
X6465785Y-86546500D01*
X6965785Y-85475071D01*
X6965785Y-86975071D01*
X8322928Y-86975071D02*
X8322928Y-86189357D01*
X8251500Y-86046500D01*
X8108642Y-85975071D01*
X7822928Y-85975071D01*
X7680071Y-86046500D01*
X8322928Y-86903642D02*
X8180071Y-86975071D01*
X7822928Y-86975071D01*
X7680071Y-86903642D01*
X7608642Y-86760785D01*
X7608642Y-86617928D01*
X7680071Y-86475071D01*
X7822928Y-86403642D01*
X8180071Y-86403642D01*
X8322928Y-86332214D01*
X8894357Y-86975071D02*
X9680071Y-85975071D01*
X8894357Y-85975071D02*
X9680071Y-86975071D01*
X11394357Y-86975071D02*
X11394357Y-85475071D01*
X11394357Y-86189357D02*
X12251500Y-86189357D01*
X12251500Y-86975071D02*
X12251500Y-85475071D01*
X13608642Y-85975071D02*
X13608642Y-86975071D01*
X12965785Y-85975071D02*
X12965785Y-86760785D01*
X13037214Y-86903642D01*
X13180071Y-86975071D01*
X13394357Y-86975071D01*
X13537214Y-86903642D01*
X13608642Y-86832214D01*
X14322928Y-85975071D02*
X14322928Y-86975071D01*
X14322928Y-86117928D02*
X14394357Y-86046500D01*
X14537214Y-85975071D01*
X14751500Y-85975071D01*
X14894357Y-86046500D01*
X14965785Y-86189357D01*
X14965785Y-86975071D01*
X15465785Y-85975071D02*
X16037214Y-85975071D01*
X15680071Y-85475071D02*
X15680071Y-86760785D01*
X15751500Y-86903642D01*
X15894357Y-86975071D01*
X16037214Y-86975071D01*
X17108642Y-86903642D02*
X16965785Y-86975071D01*
X16680071Y-86975071D01*
X16537214Y-86903642D01*
X16465785Y-86760785D01*
X16465785Y-86189357D01*
X16537214Y-86046500D01*
X16680071Y-85975071D01*
X16965785Y-85975071D01*
X17108642Y-86046500D01*
X17180071Y-86189357D01*
X17180071Y-86332214D01*
X16465785Y-86475071D01*
X17822928Y-86975071D02*
X17822928Y-85975071D01*
X17822928Y-86260785D02*
X17894357Y-86117928D01*
X17965785Y-86046500D01*
X18108642Y-85975071D01*
X18251499Y-85975071D01*
D13*
X-17985357Y-73675761D02*
X-17985357Y-71675761D01*
X-17985357Y-73580523D02*
X-18175833Y-73675761D01*
X-18556785Y-73675761D01*
X-18747261Y-73580523D01*
X-18842499Y-73485285D01*
X-18937738Y-73294809D01*
X-18937738Y-72723380D01*
X-18842499Y-72532904D01*
X-18747261Y-72437666D01*
X-18556785Y-72342428D01*
X-18175833Y-72342428D01*
X-17985357Y-72437666D01*
X-16271071Y-73580523D02*
X-16461547Y-73675761D01*
X-16842500Y-73675761D01*
X-17032976Y-73580523D01*
X-17128214Y-73390047D01*
X-17128214Y-72628142D01*
X-17032976Y-72437666D01*
X-16842500Y-72342428D01*
X-16461547Y-72342428D01*
X-16271071Y-72437666D01*
X-16175833Y-72628142D01*
X-16175833Y-72818619D01*
X-17128214Y-73009095D01*
X-15413928Y-73580523D02*
X-15223452Y-73675761D01*
X-14842499Y-73675761D01*
X-14652023Y-73580523D01*
X-14556785Y-73390047D01*
X-14556785Y-73294809D01*
X-14652023Y-73104333D01*
X-14842499Y-73009095D01*
X-15128214Y-73009095D01*
X-15318690Y-72913857D01*
X-15413928Y-72723380D01*
X-15413928Y-72628142D01*
X-15318690Y-72437666D01*
X-15128214Y-72342428D01*
X-14842499Y-72342428D01*
X-14652023Y-72437666D01*
X-13699642Y-73675761D02*
X-13699642Y-72342428D01*
X-13699642Y-71675761D02*
X-13794880Y-71771000D01*
X-13699642Y-71866238D01*
X-13604404Y-71771000D01*
X-13699642Y-71675761D01*
X-13699642Y-71866238D01*
X-11890119Y-72342428D02*
X-11890119Y-73961476D01*
X-11985357Y-74151952D01*
X-12080595Y-74247190D01*
X-12271071Y-74342428D01*
X-12556785Y-74342428D01*
X-12747261Y-74247190D01*
X-11890119Y-73580523D02*
X-12080595Y-73675761D01*
X-12461547Y-73675761D01*
X-12652023Y-73580523D01*
X-12747261Y-73485285D01*
X-12842499Y-73294809D01*
X-12842499Y-72723380D01*
X-12747261Y-72532904D01*
X-12652023Y-72437666D01*
X-12461547Y-72342428D01*
X-12080595Y-72342428D01*
X-11890119Y-72437666D01*
X-10937738Y-72342428D02*
X-10937738Y-73675761D01*
X-10937738Y-72532904D02*
X-10842499Y-72437666D01*
X-10652023Y-72342428D01*
X-10366309Y-72342428D01*
X-10175833Y-72437666D01*
X-10080595Y-72628142D01*
X-10080595Y-73675761D01*
X-8366309Y-73580523D02*
X-8556785Y-73675761D01*
X-8937738Y-73675761D01*
X-9128214Y-73580523D01*
X-9223452Y-73390047D01*
X-9223452Y-72628142D01*
X-9128214Y-72437666D01*
X-8937738Y-72342428D01*
X-8556785Y-72342428D01*
X-8366309Y-72437666D01*
X-8271071Y-72628142D01*
X-8271071Y-72818619D01*
X-9223452Y-73009095D01*
X-6556785Y-73675761D02*
X-6556785Y-71675761D01*
X-6556785Y-73580523D02*
X-6747261Y-73675761D01*
X-7128214Y-73675761D01*
X-7318690Y-73580523D01*
X-7413928Y-73485285D01*
X-7509166Y-73294809D01*
X-7509166Y-72723380D01*
X-7413928Y-72532904D01*
X-7318690Y-72437666D01*
X-7128214Y-72342428D01*
X-6747261Y-72342428D01*
X-6556785Y-72437666D01*
X-4366309Y-72342428D02*
X-3604404Y-72342428D01*
X-4080595Y-73675761D02*
X-4080595Y-71961476D01*
X-3985357Y-71771000D01*
X-3794880Y-71675761D01*
X-3604404Y-71675761D01*
X-2652023Y-73675761D02*
X-2842499Y-73580523D01*
X-2937738Y-73485285D01*
X-3032976Y-73294809D01*
X-3032976Y-72723380D01*
X-2937738Y-72532904D01*
X-2842499Y-72437666D01*
X-2652023Y-72342428D01*
X-2366309Y-72342428D01*
X-2175833Y-72437666D01*
X-2080595Y-72532904D01*
X-1985357Y-72723380D01*
X-1985357Y-73294809D01*
X-2080595Y-73485285D01*
X-2175833Y-73580523D01*
X-2366309Y-73675761D01*
X-2652023Y-73675761D01*
X-1128214Y-73675761D02*
X-1128214Y-72342428D01*
X-1128214Y-72723380D02*
X-1032976Y-72532904D01*
X-937738Y-72437666D01*
X-747261Y-72342428D01*
X-556785Y-72342428D01*
D10*
X-35653047Y-84589952D02*
X-35748285Y-84542333D01*
X-35795904Y-84494714D01*
X-35843523Y-84399476D01*
X-35843523Y-84351857D01*
X-35795904Y-84256619D01*
X-35748285Y-84209000D01*
X-35653047Y-84161380D01*
X-35462571Y-84161380D01*
X-35367333Y-84209000D01*
X-35319714Y-84256619D01*
X-35272095Y-84351857D01*
X-35272095Y-84399476D01*
X-35319714Y-84494714D01*
X-35367333Y-84542333D01*
X-35462571Y-84589952D01*
X-35653047Y-84589952D01*
X-35748285Y-84637571D01*
X-35795904Y-84685190D01*
X-35843523Y-84780428D01*
X-35843523Y-84970904D01*
X-35795904Y-85066142D01*
X-35748285Y-85113761D01*
X-35653047Y-85161380D01*
X-35462571Y-85161380D01*
X-35367333Y-85113761D01*
X-35319714Y-85066142D01*
X-35272095Y-84970904D01*
X-35272095Y-84780428D01*
X-35319714Y-84685190D01*
X-35367333Y-84637571D01*
X-35462571Y-84589952D01*
X-35367333Y-81621380D02*
X-35557809Y-81621380D01*
X-35653047Y-81669000D01*
X-35700666Y-81716619D01*
X-35795904Y-81859476D01*
X-35843523Y-82049952D01*
X-35843523Y-82430904D01*
X-35795904Y-82526142D01*
X-35748285Y-82573761D01*
X-35653047Y-82621380D01*
X-35462571Y-82621380D01*
X-35367333Y-82573761D01*
X-35319714Y-82526142D01*
X-35272095Y-82430904D01*
X-35272095Y-82192809D01*
X-35319714Y-82097571D01*
X-35367333Y-82049952D01*
X-35462571Y-82002333D01*
X-35653047Y-82002333D01*
X-35748285Y-82049952D01*
X-35795904Y-82097571D01*
X-35843523Y-82192809D01*
X-35367333Y-79414714D02*
X-35367333Y-80081380D01*
X-35605428Y-79033761D02*
X-35843523Y-79748047D01*
X-35224476Y-79748047D01*
X-35843523Y-76636619D02*
X-35795904Y-76589000D01*
X-35700666Y-76541380D01*
X-35462571Y-76541380D01*
X-35367333Y-76589000D01*
X-35319714Y-76636619D01*
X-35272095Y-76731857D01*
X-35272095Y-76827095D01*
X-35319714Y-76969952D01*
X-35891142Y-77541380D01*
X-35272095Y-77541380D01*
X-35795904Y-87320428D02*
X-35034000Y-87320428D01*
X-35414952Y-87701380D02*
X-35414952Y-86939476D01*
X-34653047Y-86701380D02*
X-34034000Y-86701380D01*
X-34367333Y-87082333D01*
X-34224476Y-87082333D01*
X-34129238Y-87129952D01*
X-34081619Y-87177571D01*
X-34034000Y-87272809D01*
X-34034000Y-87510904D01*
X-34081619Y-87606142D01*
X-34129238Y-87653761D01*
X-34224476Y-87701380D01*
X-34510190Y-87701380D01*
X-34605428Y-87653761D01*
X-34653047Y-87606142D01*
X-33748285Y-86701380D02*
X-33414952Y-87701380D01*
X-33081619Y-86701380D01*
X-32843523Y-86701380D02*
X-32224476Y-86701380D01*
X-32557809Y-87082333D01*
X-32414952Y-87082333D01*
X-32319714Y-87129952D01*
X-32272095Y-87177571D01*
X-32224476Y-87272809D01*
X-32224476Y-87510904D01*
X-32272095Y-87606142D01*
X-32319714Y-87653761D01*
X-32414952Y-87701380D01*
X-32700666Y-87701380D01*
X-32795904Y-87653761D01*
X-32843523Y-87606142D01*
X-35272095Y-89289000D02*
X-35367333Y-89241380D01*
X-35510190Y-89241380D01*
X-35653047Y-89289000D01*
X-35748285Y-89384238D01*
X-35795904Y-89479476D01*
X-35843523Y-89669952D01*
X-35843523Y-89812809D01*
X-35795904Y-90003285D01*
X-35748285Y-90098523D01*
X-35653047Y-90193761D01*
X-35510190Y-90241380D01*
X-35414952Y-90241380D01*
X-35272095Y-90193761D01*
X-35224476Y-90146142D01*
X-35224476Y-89812809D01*
X-35414952Y-89812809D01*
X-34795904Y-90241380D02*
X-34795904Y-89241380D01*
X-34224476Y-90241380D01*
X-34224476Y-89241380D01*
X-33748285Y-90241380D02*
X-33748285Y-89241380D01*
X-33510190Y-89241380D01*
X-33367333Y-89289000D01*
X-33272095Y-89384238D01*
X-33224476Y-89479476D01*
X-33176857Y-89669952D01*
X-33176857Y-89812809D01*
X-33224476Y-90003285D01*
X-33272095Y-90098523D01*
X-33367333Y-90193761D01*
X-33510190Y-90241380D01*
X-33748285Y-90241380D01*
X-45690214Y-89289000D02*
X-45785452Y-89241380D01*
X-45928309Y-89241380D01*
X-46071166Y-89289000D01*
X-46166404Y-89384238D01*
X-46214023Y-89479476D01*
X-46261642Y-89669952D01*
X-46261642Y-89812809D01*
X-46214023Y-90003285D01*
X-46166404Y-90098523D01*
X-46071166Y-90193761D01*
X-45928309Y-90241380D01*
X-45833071Y-90241380D01*
X-45690214Y-90193761D01*
X-45642595Y-90146142D01*
X-45642595Y-89812809D01*
X-45833071Y-89812809D01*
X-45214023Y-90241380D02*
X-45214023Y-89241380D01*
X-44642595Y-90241380D01*
X-44642595Y-89241380D01*
X-44166404Y-90241380D02*
X-44166404Y-89241380D01*
X-43928309Y-89241380D01*
X-43785452Y-89289000D01*
X-43690214Y-89384238D01*
X-43642595Y-89479476D01*
X-43594976Y-89669952D01*
X-43594976Y-89812809D01*
X-43642595Y-90003285D01*
X-43690214Y-90098523D01*
X-43785452Y-90193761D01*
X-43928309Y-90241380D01*
X-44166404Y-90241380D01*
X-46214023Y-87320428D02*
X-45452119Y-87320428D01*
X-45833071Y-87701380D02*
X-45833071Y-86939476D01*
X-44499738Y-86701380D02*
X-44975928Y-86701380D01*
X-45023547Y-87177571D01*
X-44975928Y-87129952D01*
X-44880690Y-87082333D01*
X-44642595Y-87082333D01*
X-44547357Y-87129952D01*
X-44499738Y-87177571D01*
X-44452119Y-87272809D01*
X-44452119Y-87510904D01*
X-44499738Y-87606142D01*
X-44547357Y-87653761D01*
X-44642595Y-87701380D01*
X-44880690Y-87701380D01*
X-44975928Y-87653761D01*
X-45023547Y-87606142D01*
X-44166404Y-86701380D02*
X-43833071Y-87701380D01*
X-43499738Y-86701380D01*
X-44214023Y-84161380D02*
X-43547357Y-84161380D01*
X-43975928Y-85161380D01*
X-43642595Y-81621380D02*
X-44118785Y-81621380D01*
X-44166404Y-82097571D01*
X-44118785Y-82049952D01*
X-44023547Y-82002333D01*
X-43785452Y-82002333D01*
X-43690214Y-82049952D01*
X-43642595Y-82097571D01*
X-43594976Y-82192809D01*
X-43594976Y-82430904D01*
X-43642595Y-82526142D01*
X-43690214Y-82573761D01*
X-43785452Y-82621380D01*
X-44023547Y-82621380D01*
X-44118785Y-82573761D01*
X-44166404Y-82526142D01*
X-44214023Y-79081380D02*
X-43594976Y-79081380D01*
X-43928309Y-79462333D01*
X-43785452Y-79462333D01*
X-43690214Y-79509952D01*
X-43642595Y-79557571D01*
X-43594976Y-79652809D01*
X-43594976Y-79890904D01*
X-43642595Y-79986142D01*
X-43690214Y-80033761D01*
X-43785452Y-80081380D01*
X-44071166Y-80081380D01*
X-44166404Y-80033761D01*
X-44214023Y-79986142D01*
X-43594976Y-77541380D02*
X-44166404Y-77541380D01*
X-43880690Y-77541380D02*
X-43880690Y-76541380D01*
X-43975928Y-76684238D01*
X-44071166Y-76779476D01*
X-44166404Y-76827095D01*
D11*
X-40824000Y-73504500D02*
X-40938285Y-73447357D01*
X-41109714Y-73447357D01*
X-41281142Y-73504500D01*
X-41395428Y-73618785D01*
X-41452571Y-73733071D01*
X-41509714Y-73961642D01*
X-41509714Y-74133071D01*
X-41452571Y-74361642D01*
X-41395428Y-74475928D01*
X-41281142Y-74590214D01*
X-41109714Y-74647357D01*
X-40995428Y-74647357D01*
X-40824000Y-74590214D01*
X-40766857Y-74533071D01*
X-40766857Y-74133071D01*
X-40995428Y-74133071D01*
X-40252571Y-74647357D02*
X-40252571Y-73447357D01*
X-39795428Y-73447357D01*
X-39681142Y-73504500D01*
X-39624000Y-73561642D01*
X-39566857Y-73675928D01*
X-39566857Y-73847357D01*
X-39624000Y-73961642D01*
X-39681142Y-74018785D01*
X-39795428Y-74075928D01*
X-40252571Y-74075928D01*
X-39052571Y-74647357D02*
X-39052571Y-73447357D01*
X-38252571Y-73447357D02*
X-38024000Y-73447357D01*
X-37909714Y-73504500D01*
X-37795428Y-73618785D01*
X-37738285Y-73847357D01*
X-37738285Y-74247357D01*
X-37795428Y-74475928D01*
X-37909714Y-74590214D01*
X-38024000Y-74647357D01*
X-38252571Y-74647357D01*
X-38366857Y-74590214D01*
X-38481142Y-74475928D01*
X-38538285Y-74247357D01*
X-38538285Y-73847357D01*
X-38481142Y-73618785D01*
X-38366857Y-73504500D01*
X-38252571Y-73447357D01*
D10*
X10437761Y-107148142D02*
X10485380Y-107005285D01*
X10485380Y-106767190D01*
X10437761Y-106671952D01*
X10390142Y-106624333D01*
X10294904Y-106576714D01*
X10199666Y-106576714D01*
X10104428Y-106624333D01*
X10056809Y-106671952D01*
X10009190Y-106767190D01*
X9961571Y-106957666D01*
X9913952Y-107052904D01*
X9866333Y-107100523D01*
X9771095Y-107148142D01*
X9675857Y-107148142D01*
X9580619Y-107100523D01*
X9533000Y-107052904D01*
X9485380Y-106957666D01*
X9485380Y-106719571D01*
X9533000Y-106576714D01*
X9485380Y-106243380D02*
X10485380Y-106005285D01*
X9771095Y-105814809D01*
X10485380Y-105624333D01*
X9485380Y-105386238D01*
X10485380Y-105005285D02*
X9485380Y-105005285D01*
X9485380Y-104767190D01*
X9533000Y-104624333D01*
X9628238Y-104529095D01*
X9723476Y-104481476D01*
X9913952Y-104433857D01*
X10056809Y-104433857D01*
X10247285Y-104481476D01*
X10342523Y-104529095D01*
X10437761Y-104624333D01*
X10485380Y-104767190D01*
X10485380Y-105005285D01*
X11493809Y-98131261D02*
X11636666Y-98178880D01*
X11874761Y-98178880D01*
X11970000Y-98131261D01*
X12017619Y-98083642D01*
X12065238Y-97988404D01*
X12065238Y-97893166D01*
X12017619Y-97797928D01*
X11970000Y-97750309D01*
X11874761Y-97702690D01*
X11684285Y-97655071D01*
X11589047Y-97607452D01*
X11541428Y-97559833D01*
X11493809Y-97464595D01*
X11493809Y-97369357D01*
X11541428Y-97274119D01*
X11589047Y-97226500D01*
X11684285Y-97178880D01*
X11922380Y-97178880D01*
X12065238Y-97226500D01*
X12350952Y-97178880D02*
X12922380Y-97178880D01*
X12636666Y-98178880D02*
X12636666Y-97178880D01*
X13208095Y-97893166D02*
X13684285Y-97893166D01*
X13112857Y-98178880D02*
X13446190Y-97178880D01*
X13779523Y-98178880D01*
X13970000Y-97178880D02*
X14541428Y-97178880D01*
X14255714Y-98178880D02*
X14255714Y-97178880D01*
X14874761Y-97178880D02*
X14874761Y-97988404D01*
X14922380Y-98083642D01*
X14970000Y-98131261D01*
X15065238Y-98178880D01*
X15255714Y-98178880D01*
X15350952Y-98131261D01*
X15398571Y-98083642D01*
X15446190Y-97988404D01*
X15446190Y-97178880D01*
X15874761Y-98131261D02*
X16017619Y-98178880D01*
X16255714Y-98178880D01*
X16350952Y-98131261D01*
X16398571Y-98083642D01*
X16446190Y-97988404D01*
X16446190Y-97893166D01*
X16398571Y-97797928D01*
X16350952Y-97750309D01*
X16255714Y-97702690D01*
X16065238Y-97655071D01*
X15970000Y-97607452D01*
X15922380Y-97559833D01*
X15874761Y-97464595D01*
X15874761Y-97369357D01*
X15922380Y-97274119D01*
X15970000Y-97226500D01*
X16065238Y-97178880D01*
X16303333Y-97178880D01*
X16446190Y-97226500D01*
X11469976Y-94432380D02*
X11469976Y-93432380D01*
X11850928Y-93432380D01*
X11946166Y-93480000D01*
X11993785Y-93527619D01*
X12041404Y-93622857D01*
X12041404Y-93765714D01*
X11993785Y-93860952D01*
X11946166Y-93908571D01*
X11850928Y-93956190D01*
X11469976Y-93956190D01*
X12660452Y-93432380D02*
X12850928Y-93432380D01*
X12946166Y-93480000D01*
X13041404Y-93575238D01*
X13089023Y-93765714D01*
X13089023Y-94099047D01*
X13041404Y-94289523D01*
X12946166Y-94384761D01*
X12850928Y-94432380D01*
X12660452Y-94432380D01*
X12565214Y-94384761D01*
X12469976Y-94289523D01*
X12422357Y-94099047D01*
X12422357Y-93765714D01*
X12469976Y-93575238D01*
X12565214Y-93480000D01*
X12660452Y-93432380D01*
X13422357Y-93432380D02*
X13660452Y-94432380D01*
X13850928Y-93718095D01*
X14041404Y-94432380D01*
X14279500Y-93432380D01*
X14660452Y-93908571D02*
X14993785Y-93908571D01*
X15136642Y-94432380D02*
X14660452Y-94432380D01*
X14660452Y-93432380D01*
X15136642Y-93432380D01*
X16136642Y-94432380D02*
X15803309Y-93956190D01*
X15565214Y-94432380D02*
X15565214Y-93432380D01*
X15946166Y-93432380D01*
X16041404Y-93480000D01*
X16089023Y-93527619D01*
X16136642Y-93622857D01*
X16136642Y-93765714D01*
X16089023Y-93860952D01*
X16041404Y-93908571D01*
X15946166Y-93956190D01*
X15565214Y-93956190D01*
X-9286714Y-80859261D02*
X-9143857Y-80906880D01*
X-8905761Y-80906880D01*
X-8810523Y-80859261D01*
X-8762904Y-80811642D01*
X-8715285Y-80716404D01*
X-8715285Y-80621166D01*
X-8762904Y-80525928D01*
X-8810523Y-80478309D01*
X-8905761Y-80430690D01*
X-9096238Y-80383071D01*
X-9191476Y-80335452D01*
X-9239095Y-80287833D01*
X-9286714Y-80192595D01*
X-9286714Y-80097357D01*
X-9239095Y-80002119D01*
X-9191476Y-79954500D01*
X-9096238Y-79906880D01*
X-8858142Y-79906880D01*
X-8715285Y-79954500D01*
X-7715285Y-80811642D02*
X-7762904Y-80859261D01*
X-7905761Y-80906880D01*
X-8001000Y-80906880D01*
X-8143857Y-80859261D01*
X-8239095Y-80764023D01*
X-8286714Y-80668785D01*
X-8334333Y-80478309D01*
X-8334333Y-80335452D01*
X-8286714Y-80144976D01*
X-8239095Y-80049738D01*
X-8143857Y-79954500D01*
X-8001000Y-79906880D01*
X-7905761Y-79906880D01*
X-7762904Y-79954500D01*
X-7715285Y-80002119D01*
X-7286714Y-80906880D02*
X-7286714Y-79906880D01*
X-6715285Y-80906880D02*
X-7143857Y-80335452D01*
X-6715285Y-79906880D02*
X-7286714Y-80478309D01*
X-12739571Y-80383071D02*
X-12596714Y-80430690D01*
X-12549095Y-80478309D01*
X-12501476Y-80573547D01*
X-12501476Y-80716404D01*
X-12549095Y-80811642D01*
X-12596714Y-80859261D01*
X-12691952Y-80906880D01*
X-13072904Y-80906880D01*
X-13072904Y-79906880D01*
X-12739571Y-79906880D01*
X-12644333Y-79954500D01*
X-12596714Y-80002119D01*
X-12549095Y-80097357D01*
X-12549095Y-80192595D01*
X-12596714Y-80287833D01*
X-12644333Y-80335452D01*
X-12739571Y-80383071D01*
X-13072904Y-80383071D01*
X-11501476Y-80811642D02*
X-11549095Y-80859261D01*
X-11691952Y-80906880D01*
X-11787190Y-80906880D01*
X-11930047Y-80859261D01*
X-12025285Y-80764023D01*
X-12072904Y-80668785D01*
X-12120523Y-80478309D01*
X-12120523Y-80335452D01*
X-12072904Y-80144976D01*
X-12025285Y-80049738D01*
X-11930047Y-79954500D01*
X-11787190Y-79906880D01*
X-11691952Y-79906880D01*
X-11549095Y-79954500D01*
X-11501476Y-80002119D01*
X-11072904Y-80906880D02*
X-11072904Y-79906880D01*
X-10501476Y-80906880D02*
X-10930047Y-80335452D01*
X-10501476Y-79906880D02*
X-11072904Y-80478309D01*
X-16771809Y-80906880D02*
X-16771809Y-79906880D01*
X-16533714Y-79906880D01*
X-16390857Y-79954500D01*
X-16295619Y-80049738D01*
X-16248000Y-80144976D01*
X-16200380Y-80335452D01*
X-16200380Y-80478309D01*
X-16248000Y-80668785D01*
X-16295619Y-80764023D01*
X-16390857Y-80859261D01*
X-16533714Y-80906880D01*
X-16771809Y-80906880D01*
X-15771809Y-80906880D02*
X-15771809Y-79906880D01*
X-15295619Y-80906880D02*
X-15295619Y-79906880D01*
X-14724190Y-80906880D01*
X-14724190Y-79906880D01*
X-21002476Y-80906880D02*
X-21478666Y-80906880D01*
X-21478666Y-79906880D01*
X-20097714Y-80906880D02*
X-20431047Y-80430690D01*
X-20669142Y-80906880D02*
X-20669142Y-79906880D01*
X-20288190Y-79906880D01*
X-20192952Y-79954500D01*
X-20145333Y-80002119D01*
X-20097714Y-80097357D01*
X-20097714Y-80240214D01*
X-20145333Y-80335452D01*
X-20192952Y-80383071D01*
X-20288190Y-80430690D01*
X-20669142Y-80430690D01*
X-19097714Y-80811642D02*
X-19145333Y-80859261D01*
X-19288190Y-80906880D01*
X-19383428Y-80906880D01*
X-19526285Y-80859261D01*
X-19621523Y-80764023D01*
X-19669142Y-80668785D01*
X-19716761Y-80478309D01*
X-19716761Y-80335452D01*
X-19669142Y-80144976D01*
X-19621523Y-80049738D01*
X-19526285Y-79954500D01*
X-19383428Y-79906880D01*
X-19288190Y-79906880D01*
X-19145333Y-79954500D01*
X-19097714Y-80002119D01*
X-18669142Y-80906880D02*
X-18669142Y-79906880D01*
X-18097714Y-80906880D02*
X-18526285Y-80335452D01*
X-18097714Y-79906880D02*
X-18669142Y-80478309D01*
X-12263285Y-91781261D02*
X-12120428Y-91828880D01*
X-11882333Y-91828880D01*
X-11787095Y-91781261D01*
X-11739476Y-91733642D01*
X-11691857Y-91638404D01*
X-11691857Y-91543166D01*
X-11739476Y-91447928D01*
X-11787095Y-91400309D01*
X-11882333Y-91352690D01*
X-12072809Y-91305071D01*
X-12168047Y-91257452D01*
X-12215666Y-91209833D01*
X-12263285Y-91114595D01*
X-12263285Y-91019357D01*
X-12215666Y-90924119D01*
X-12168047Y-90876500D01*
X-12072809Y-90828880D01*
X-11834714Y-90828880D01*
X-11691857Y-90876500D01*
X-11263285Y-91828880D02*
X-11263285Y-90828880D01*
X-11025190Y-90828880D01*
X-10882333Y-90876500D01*
X-10787095Y-90971738D01*
X-10739476Y-91066976D01*
X-10691857Y-91257452D01*
X-10691857Y-91400309D01*
X-10739476Y-91590785D01*
X-10787095Y-91686023D01*
X-10882333Y-91781261D01*
X-11025190Y-91828880D01*
X-11263285Y-91828880D01*
X-10310904Y-91543166D02*
X-9834714Y-91543166D01*
X-10406142Y-91828880D02*
X-10072809Y-90828880D01*
X-9739476Y-91828880D01*
X-8111976Y-91781261D02*
X-7969119Y-91828880D01*
X-7731023Y-91828880D01*
X-7635785Y-91781261D01*
X-7588166Y-91733642D01*
X-7540547Y-91638404D01*
X-7540547Y-91543166D01*
X-7588166Y-91447928D01*
X-7635785Y-91400309D01*
X-7731023Y-91352690D01*
X-7921500Y-91305071D01*
X-8016738Y-91257452D01*
X-8064357Y-91209833D01*
X-8111976Y-91114595D01*
X-8111976Y-91019357D01*
X-8064357Y-90924119D01*
X-8016738Y-90876500D01*
X-7921500Y-90828880D01*
X-7683404Y-90828880D01*
X-7540547Y-90876500D01*
X-6540547Y-91733642D02*
X-6588166Y-91781261D01*
X-6731023Y-91828880D01*
X-6826261Y-91828880D01*
X-6969119Y-91781261D01*
X-7064357Y-91686023D01*
X-7111976Y-91590785D01*
X-7159595Y-91400309D01*
X-7159595Y-91257452D01*
X-7111976Y-91066976D01*
X-7064357Y-90971738D01*
X-6969119Y-90876500D01*
X-6826261Y-90828880D01*
X-6731023Y-90828880D01*
X-6588166Y-90876500D01*
X-6540547Y-90924119D01*
X-5635785Y-91828880D02*
X-6111976Y-91828880D01*
X-6111976Y-90828880D01*
X-12104500Y-95972380D02*
X-11914023Y-95972380D01*
X-11818785Y-96020000D01*
X-11723547Y-96115238D01*
X-11675928Y-96305714D01*
X-11675928Y-96639047D01*
X-11723547Y-96829523D01*
X-11818785Y-96924761D01*
X-11914023Y-96972380D01*
X-12104500Y-96972380D01*
X-12199738Y-96924761D01*
X-12294976Y-96829523D01*
X-12342595Y-96639047D01*
X-12342595Y-96305714D01*
X-12294976Y-96115238D01*
X-12199738Y-96020000D01*
X-12104500Y-95972380D01*
X-11247357Y-95972380D02*
X-11247357Y-96781904D01*
X-11199738Y-96877142D01*
X-11152119Y-96924761D01*
X-11056880Y-96972380D01*
X-10866404Y-96972380D01*
X-10771166Y-96924761D01*
X-10723547Y-96877142D01*
X-10675928Y-96781904D01*
X-10675928Y-95972380D01*
X-10342595Y-95972380D02*
X-9771166Y-95972380D01*
X-10056880Y-96972380D02*
X-10056880Y-95972380D01*
X-8866404Y-96972380D02*
X-9199738Y-96496190D01*
X-9437833Y-96972380D02*
X-9437833Y-95972380D01*
X-9056880Y-95972380D01*
X-8961642Y-96020000D01*
X-8914023Y-96067619D01*
X-8866404Y-96162857D01*
X-8866404Y-96305714D01*
X-8914023Y-96400952D01*
X-8961642Y-96448571D01*
X-9056880Y-96496190D01*
X-9437833Y-96496190D01*
X-46045261Y-95845380D02*
X-45854785Y-95845380D01*
X-45759547Y-95893000D01*
X-45664309Y-95988238D01*
X-45616690Y-96178714D01*
X-45616690Y-96512047D01*
X-45664309Y-96702523D01*
X-45759547Y-96797761D01*
X-45854785Y-96845380D01*
X-46045261Y-96845380D01*
X-46140500Y-96797761D01*
X-46235738Y-96702523D01*
X-46283357Y-96512047D01*
X-46283357Y-96178714D01*
X-46235738Y-95988238D01*
X-46140500Y-95893000D01*
X-46045261Y-95845380D01*
X-45188119Y-95845380D02*
X-45188119Y-96654904D01*
X-45140500Y-96750142D01*
X-45092880Y-96797761D01*
X-44997642Y-96845380D01*
X-44807166Y-96845380D01*
X-44711928Y-96797761D01*
X-44664309Y-96750142D01*
X-44616690Y-96654904D01*
X-44616690Y-95845380D01*
X-44283357Y-95845380D02*
X-43711928Y-95845380D01*
X-43997642Y-96845380D02*
X-43997642Y-95845380D01*
X-42902404Y-96845380D02*
X-43378595Y-96845380D01*
X-43378595Y-95845380D01*
D11*
X23317357Y-68932357D02*
X22745928Y-68932357D01*
X22745928Y-67732357D01*
X23717357Y-68303785D02*
X24117357Y-68303785D01*
X24288785Y-68932357D02*
X23717357Y-68932357D01*
X23717357Y-67732357D01*
X24288785Y-67732357D01*
X24803071Y-68932357D02*
X24803071Y-67732357D01*
X25088785Y-67732357D01*
X25260214Y-67789500D01*
X25374500Y-67903785D01*
X25431642Y-68018071D01*
X25488785Y-68246642D01*
X25488785Y-68418071D01*
X25431642Y-68646642D01*
X25374500Y-68760928D01*
X25260214Y-68875214D01*
X25088785Y-68932357D01*
X24803071Y-68932357D01*
X25945928Y-68875214D02*
X26060214Y-68932357D01*
X26288785Y-68932357D01*
X26403071Y-68875214D01*
X26460214Y-68760928D01*
X26460214Y-68703785D01*
X26403071Y-68589500D01*
X26288785Y-68532357D01*
X26117357Y-68532357D01*
X26003071Y-68475214D01*
X25945928Y-68360928D01*
X25945928Y-68303785D01*
X26003071Y-68189500D01*
X26117357Y-68132357D01*
X26288785Y-68132357D01*
X26403071Y-68189500D01*
X-21833571Y-68932357D02*
X-21833571Y-67732357D01*
X-21547857Y-67732357D01*
X-21376428Y-67789500D01*
X-21262142Y-67903785D01*
X-21205000Y-68018071D01*
X-21147857Y-68246642D01*
X-21147857Y-68418071D01*
X-21205000Y-68646642D01*
X-21262142Y-68760928D01*
X-21376428Y-68875214D01*
X-21547857Y-68932357D01*
X-21833571Y-68932357D01*
X-20690714Y-68589500D02*
X-20119285Y-68589500D01*
X-20805000Y-68932357D02*
X-20405000Y-67732357D01*
X-20005000Y-68932357D01*
X-19605000Y-67732357D02*
X-19605000Y-68703785D01*
X-19547857Y-68818071D01*
X-19490714Y-68875214D01*
X-19376428Y-68932357D01*
X-19147857Y-68932357D01*
X-19033571Y-68875214D01*
X-18976428Y-68818071D01*
X-18919285Y-68703785D01*
X-18919285Y-67732357D01*
X-17719285Y-67789500D02*
X-17833571Y-67732357D01*
X-18005000Y-67732357D01*
X-18176428Y-67789500D01*
X-18290714Y-67903785D01*
X-18347857Y-68018071D01*
X-18405000Y-68246642D01*
X-18405000Y-68418071D01*
X-18347857Y-68646642D01*
X-18290714Y-68760928D01*
X-18176428Y-68875214D01*
X-18005000Y-68932357D01*
X-17890714Y-68932357D01*
X-17719285Y-68875214D01*
X-17662142Y-68818071D01*
X-17662142Y-68418071D01*
X-17890714Y-68418071D01*
X-17147857Y-68932357D02*
X-17147857Y-67732357D01*
X-17147857Y-68303785D02*
X-16462142Y-68303785D01*
X-16462142Y-68932357D02*
X-16462142Y-67732357D01*
X-16062142Y-67732357D02*
X-15376428Y-67732357D01*
X-15719285Y-68932357D02*
X-15719285Y-67732357D01*
X-14976428Y-68303785D02*
X-14576428Y-68303785D01*
X-14405000Y-68932357D02*
X-14976428Y-68932357D01*
X-14976428Y-67732357D01*
X-14405000Y-67732357D01*
X-13205000Y-68932357D02*
X-13605000Y-68360928D01*
X-13890714Y-68932357D02*
X-13890714Y-67732357D01*
X-13433571Y-67732357D01*
X-13319285Y-67789500D01*
X-13262142Y-67846642D01*
X-13205000Y-67960928D01*
X-13205000Y-68132357D01*
X-13262142Y-68246642D01*
X-13319285Y-68303785D01*
X-13433571Y-68360928D01*
X-13890714Y-68360928D01*
X-12290714Y-68303785D02*
X-12119285Y-68360928D01*
X-12062142Y-68418071D01*
X-12005000Y-68532357D01*
X-12005000Y-68703785D01*
X-12062142Y-68818071D01*
X-12119285Y-68875214D01*
X-12233571Y-68932357D01*
X-12690714Y-68932357D01*
X-12690714Y-67732357D01*
X-12290714Y-67732357D01*
X-12176428Y-67789500D01*
X-12119285Y-67846642D01*
X-12062142Y-67960928D01*
X-12062142Y-68075214D01*
X-12119285Y-68189500D01*
X-12176428Y-68246642D01*
X-12290714Y-68303785D01*
X-12690714Y-68303785D01*
X-11262142Y-67732357D02*
X-11033571Y-67732357D01*
X-10919285Y-67789500D01*
X-10805000Y-67903785D01*
X-10747857Y-68132357D01*
X-10747857Y-68532357D01*
X-10805000Y-68760928D01*
X-10919285Y-68875214D01*
X-11033571Y-68932357D01*
X-11262142Y-68932357D01*
X-11376428Y-68875214D01*
X-11490714Y-68760928D01*
X-11547857Y-68532357D01*
X-11547857Y-68132357D01*
X-11490714Y-67903785D01*
X-11376428Y-67789500D01*
X-11262142Y-67732357D01*
X-10290714Y-68589500D02*
X-9719285Y-68589500D01*
X-10405000Y-68932357D02*
X-10005000Y-67732357D01*
X-9605000Y-68932357D01*
X-8519285Y-68932357D02*
X-8919285Y-68360928D01*
X-9205000Y-68932357D02*
X-9205000Y-67732357D01*
X-8747857Y-67732357D01*
X-8633571Y-67789500D01*
X-8576428Y-67846642D01*
X-8519285Y-67960928D01*
X-8519285Y-68132357D01*
X-8576428Y-68246642D01*
X-8633571Y-68303785D01*
X-8747857Y-68360928D01*
X-9205000Y-68360928D01*
X-8005000Y-68932357D02*
X-8005000Y-67732357D01*
X-7719285Y-67732357D01*
X-7547857Y-67789500D01*
X-7433571Y-67903785D01*
X-7376428Y-68018071D01*
X-7319285Y-68246642D01*
X-7319285Y-68418071D01*
X-7376428Y-68646642D01*
X-7433571Y-68760928D01*
X-7547857Y-68875214D01*
X-7719285Y-68932357D01*
X-8005000Y-68932357D01*
D14*
%TO.C,J2*%
X8296000Y-132715000D02*
X29296000Y-132715000D01*
X8296000Y-132715000D02*
X8296000Y-113815000D01*
X29296000Y-132715000D02*
X29296000Y-113815000D01*
X29296000Y-113815000D02*
X8296000Y-113815000D01*
X8296000Y-130915000D02*
X29296000Y-130915000D01*
%TO.C,U2*%
X36637500Y-97977000D02*
X38002500Y-97977000D01*
X36637500Y-98677000D02*
X36637500Y-97977000D01*
X35937500Y-98677000D02*
X36637500Y-98677000D01*
X22417500Y-98677000D02*
X22417500Y-97977000D01*
X23117500Y-98677000D02*
X22417500Y-98677000D01*
X36637500Y-84457000D02*
X36637500Y-85157000D01*
X35937500Y-84457000D02*
X36637500Y-84457000D01*
X22417500Y-84457000D02*
X22417500Y-85157000D01*
X23117500Y-84457000D02*
X22417500Y-84457000D01*
D15*
%TO.C,G\u002A\u002A\u002A*%
G36*
X3561594Y-70514093D02*
G01*
X3776245Y-70524662D01*
X3908876Y-70541340D01*
X3949700Y-70561200D01*
X3993173Y-70599387D01*
X4076700Y-70612000D01*
X4172168Y-70629389D01*
X4203700Y-70662800D01*
X4247173Y-70700987D01*
X4330700Y-70713600D01*
X4426168Y-70730989D01*
X4457700Y-70764400D01*
X4498845Y-70809468D01*
X4533900Y-70815200D01*
X4601503Y-70842630D01*
X4610100Y-70866000D01*
X4651579Y-70910260D01*
X4691318Y-70916800D01*
X4781774Y-70958750D01*
X4916244Y-71079097D01*
X5085697Y-71269582D01*
X5111393Y-71300999D01*
X5229338Y-71505510D01*
X5270499Y-71709953D01*
X5253957Y-71849131D01*
X5212684Y-72010102D01*
X5159211Y-72153360D01*
X5106071Y-72239397D01*
X5101332Y-72243279D01*
X5063001Y-72299298D01*
X5062961Y-72306779D01*
X5056190Y-72472951D01*
X4976204Y-72623973D01*
X4919918Y-72689427D01*
X4816237Y-72787412D01*
X4734191Y-72842679D01*
X4716718Y-72847200D01*
X4663351Y-72877639D01*
X4660900Y-72890227D01*
X4626173Y-72967180D01*
X4546517Y-73061597D01*
X4458712Y-73134536D01*
X4413641Y-73152000D01*
X4359015Y-73186869D01*
X4356100Y-73202800D01*
X4311032Y-73234611D01*
X4198449Y-73252304D01*
X4152900Y-73253600D01*
X4022606Y-73247581D01*
X3964685Y-73214969D01*
X3950020Y-73133924D01*
X3949700Y-73101200D01*
X3963580Y-72992068D01*
X4021657Y-72952234D01*
X4073276Y-72948800D01*
X4189517Y-72909747D01*
X4229099Y-72847200D01*
X4289182Y-72764749D01*
X4342589Y-72745600D01*
X4396557Y-72730428D01*
X4391992Y-72713759D01*
X4390705Y-72651619D01*
X4431162Y-72544685D01*
X4434326Y-72538482D01*
X4486308Y-72382305D01*
X4506757Y-72200415D01*
X4495785Y-72029508D01*
X4453506Y-71906282D01*
X4432299Y-71882000D01*
X4367649Y-71793577D01*
X4356100Y-71745151D01*
X4313493Y-71636067D01*
X4214757Y-71550137D01*
X4131128Y-71526400D01*
X4061228Y-71500060D01*
X4051300Y-71475600D01*
X4007156Y-71439931D01*
X3900796Y-71424803D01*
X3898900Y-71424800D01*
X3791894Y-71410085D01*
X3746511Y-71374632D01*
X3746500Y-71374000D01*
X3703952Y-71332725D01*
X3644900Y-71323200D01*
X3562351Y-71344473D01*
X3543300Y-71374000D01*
X3504168Y-71422744D01*
X3488871Y-71424799D01*
X3413617Y-71454298D01*
X3345384Y-71518617D01*
X3318651Y-71581491D01*
X3325585Y-71596552D01*
X3310768Y-71621775D01*
X3258057Y-71628000D01*
X3187450Y-71654862D01*
X3132266Y-71748729D01*
X3094415Y-71869300D01*
X3042810Y-72058235D01*
X2991401Y-72240974D01*
X2976917Y-72291031D01*
X2952410Y-72448809D01*
X2943326Y-72681006D01*
X2947941Y-72961897D01*
X2964529Y-73265759D01*
X2991365Y-73566869D01*
X3026723Y-73839501D01*
X3068879Y-74057933D01*
X3102798Y-74168000D01*
X3149357Y-74323104D01*
X3194603Y-74546841D01*
X3225110Y-74752200D01*
X3253557Y-74889001D01*
X3292484Y-74978003D01*
X3303529Y-74988774D01*
X3346203Y-75059475D01*
X3369062Y-75166574D01*
X3390028Y-75307419D01*
X3426814Y-75484067D01*
X3440392Y-75539600D01*
X3505683Y-75841093D01*
X3568925Y-76217202D01*
X3626990Y-76640947D01*
X3676752Y-77085348D01*
X3715083Y-77523427D01*
X3738856Y-77928204D01*
X3745093Y-78168500D01*
X3756470Y-78282352D01*
X3807551Y-78326775D01*
X3898900Y-78333600D01*
X4005905Y-78348314D01*
X4051288Y-78383767D01*
X4051300Y-78384400D01*
X4095957Y-78417977D01*
X4205766Y-78434761D01*
X4229100Y-78435200D01*
X4346620Y-78447959D01*
X4405364Y-78479333D01*
X4406900Y-78486000D01*
X4451557Y-78519577D01*
X4561366Y-78536361D01*
X4584700Y-78536800D01*
X4702220Y-78549559D01*
X4760964Y-78580933D01*
X4762500Y-78587600D01*
X4806643Y-78623268D01*
X4913003Y-78638396D01*
X4914900Y-78638400D01*
X5021905Y-78653114D01*
X5067288Y-78688567D01*
X5067300Y-78689200D01*
X5111443Y-78724868D01*
X5217803Y-78739996D01*
X5219700Y-78740000D01*
X5326705Y-78754714D01*
X5372088Y-78790167D01*
X5372100Y-78790800D01*
X5417167Y-78822611D01*
X5529750Y-78840304D01*
X5575300Y-78841600D01*
X5702544Y-78852866D01*
X5773318Y-78881012D01*
X5778500Y-78892400D01*
X5823157Y-78925977D01*
X5932966Y-78942761D01*
X5956300Y-78943200D01*
X6073820Y-78955959D01*
X6132564Y-78987333D01*
X6134100Y-78994000D01*
X6177573Y-79032187D01*
X6261100Y-79044800D01*
X6356568Y-79062189D01*
X6388100Y-79095600D01*
X6433540Y-79125730D01*
X6548664Y-79143941D01*
X6619698Y-79146400D01*
X6760892Y-79156061D01*
X6821519Y-79182591D01*
X6819900Y-79197200D01*
X6842764Y-79230551D01*
X6950079Y-79247049D01*
X6994701Y-79248000D01*
X7123049Y-79259113D01*
X7195171Y-79286922D01*
X7200900Y-79298800D01*
X7247596Y-79325287D01*
X7371479Y-79343442D01*
X7534098Y-79349600D01*
X7719614Y-79356569D01*
X7821320Y-79376398D01*
X7835900Y-79400400D01*
X7875412Y-79416738D01*
X8015188Y-79429970D01*
X8253935Y-79440050D01*
X8590362Y-79446936D01*
X9023179Y-79450584D01*
X9334500Y-79451200D01*
X9825572Y-79449552D01*
X10221044Y-79444640D01*
X10519624Y-79436506D01*
X10720022Y-79425194D01*
X10820945Y-79410749D01*
X10833100Y-79400400D01*
X10862301Y-79372750D01*
X10984571Y-79355428D01*
X11185701Y-79349600D01*
X11378787Y-79343341D01*
X11513502Y-79326382D01*
X11569257Y-79301446D01*
X11569700Y-79298800D01*
X11615631Y-79270980D01*
X11734114Y-79252528D01*
X11849100Y-79248000D01*
X12031156Y-79237846D01*
X12118628Y-79206619D01*
X12128500Y-79184133D01*
X12166562Y-79144201D01*
X12287714Y-79134611D01*
X12363577Y-79138964D01*
X12511954Y-79142543D01*
X12568031Y-79121179D01*
X12563779Y-79101230D01*
X12579847Y-79060401D01*
X12693014Y-79044931D01*
X12709701Y-79044800D01*
X12828407Y-79032237D01*
X12888633Y-79001283D01*
X12890500Y-78994000D01*
X12933175Y-78953124D01*
X12995098Y-78943200D01*
X13065340Y-78923644D01*
X13068300Y-78892400D01*
X13089761Y-78857832D01*
X13193254Y-78841974D01*
X13217701Y-78841600D01*
X13336407Y-78829037D01*
X13396633Y-78798083D01*
X13398500Y-78790800D01*
X13441973Y-78752612D01*
X13525500Y-78740000D01*
X13620968Y-78722610D01*
X13652500Y-78689200D01*
X13695973Y-78651012D01*
X13779500Y-78638400D01*
X13874968Y-78621010D01*
X13906500Y-78587600D01*
X13949047Y-78546325D01*
X14008100Y-78536800D01*
X14090648Y-78515526D01*
X14109700Y-78486000D01*
X14152247Y-78444725D01*
X14211300Y-78435200D01*
X14293848Y-78413926D01*
X14312900Y-78384400D01*
X14355447Y-78343125D01*
X14414500Y-78333600D01*
X14497048Y-78312326D01*
X14516100Y-78282800D01*
X14557245Y-78237731D01*
X14592300Y-78232000D01*
X14659903Y-78204569D01*
X14668500Y-78181200D01*
X14711047Y-78139925D01*
X14770100Y-78130400D01*
X14852648Y-78109126D01*
X14871700Y-78079600D01*
X14914247Y-78038325D01*
X14973300Y-78028800D01*
X15055848Y-78007526D01*
X15074900Y-77978000D01*
X15117447Y-77936725D01*
X15176500Y-77927200D01*
X15259048Y-77905926D01*
X15278100Y-77876400D01*
X15320647Y-77835125D01*
X15379700Y-77825600D01*
X15462248Y-77804326D01*
X15481300Y-77774800D01*
X15522445Y-77729731D01*
X15557500Y-77724000D01*
X15625103Y-77696569D01*
X15633700Y-77673200D01*
X15677964Y-77638011D01*
X15785132Y-77622441D01*
X15791535Y-77622400D01*
X15902628Y-77607955D01*
X15925546Y-77561265D01*
X15923172Y-77554131D01*
X15931545Y-77506983D01*
X16019337Y-77509253D01*
X16113522Y-77507722D01*
X16141700Y-77475922D01*
X16184189Y-77429859D01*
X16243300Y-77419200D01*
X16325848Y-77397926D01*
X16344900Y-77368400D01*
X16388373Y-77330212D01*
X16471900Y-77317600D01*
X16567368Y-77300210D01*
X16598900Y-77266800D01*
X16643610Y-77233446D01*
X16753777Y-77216524D01*
X16779698Y-77216000D01*
X16895286Y-77203966D01*
X16932051Y-77172134D01*
X16929100Y-77165200D01*
X16947085Y-77127530D01*
X17027701Y-77114400D01*
X17124595Y-77097376D01*
X17157700Y-77063600D01*
X17201843Y-77027931D01*
X17308203Y-77012803D01*
X17310100Y-77012800D01*
X17417105Y-76998085D01*
X17462488Y-76962632D01*
X17462500Y-76962000D01*
X17508819Y-76935002D01*
X17630039Y-76916678D01*
X17770298Y-76911200D01*
X17945418Y-76903711D01*
X18037470Y-76882540D01*
X18046700Y-76860400D01*
X18075597Y-76832369D01*
X18197123Y-76814741D01*
X18386601Y-76808822D01*
X18581947Y-76803774D01*
X18681022Y-76789100D01*
X18688774Y-76763960D01*
X18681700Y-76758799D01*
X18676631Y-76732348D01*
X18762714Y-76716023D01*
X18944481Y-76709109D01*
X18999200Y-76708777D01*
X19195365Y-76702277D01*
X19333053Y-76685402D01*
X19392061Y-76660802D01*
X19392900Y-76657200D01*
X19442327Y-76636956D01*
X19585294Y-76621441D01*
X19813829Y-76611152D01*
X20119959Y-76606588D01*
X20205700Y-76606400D01*
X20529588Y-76609489D01*
X20777830Y-76618424D01*
X20942453Y-76632708D01*
X21015485Y-76651841D01*
X21018500Y-76657200D01*
X21068081Y-76676809D01*
X21212113Y-76691998D01*
X21443522Y-76702362D01*
X21755240Y-76707499D01*
X21907500Y-76708000D01*
X22250661Y-76705166D01*
X22516467Y-76696936D01*
X22697848Y-76683712D01*
X22787733Y-76665900D01*
X22796500Y-76657200D01*
X22840643Y-76621531D01*
X22947003Y-76606403D01*
X22948900Y-76606400D01*
X23055905Y-76591685D01*
X23101288Y-76556232D01*
X23101300Y-76555600D01*
X23145721Y-76521045D01*
X23253942Y-76504950D01*
X23266669Y-76504800D01*
X23379757Y-76517448D01*
X23446596Y-76574255D01*
X23498797Y-76695300D01*
X23546627Y-76860100D01*
X23592874Y-77064028D01*
X23611415Y-77165200D01*
X23658339Y-77383652D01*
X23725333Y-77620704D01*
X23760288Y-77723282D01*
X23817799Y-77903526D01*
X23855190Y-78068026D01*
X23863300Y-78145722D01*
X23879606Y-78285106D01*
X23910007Y-78376753D01*
X23946376Y-78480148D01*
X23981068Y-78633678D01*
X23990299Y-78689199D01*
X24021372Y-78848240D01*
X24058638Y-78974725D01*
X24070592Y-79001646D01*
X24118668Y-79140108D01*
X24083071Y-79221629D01*
X23964900Y-79248000D01*
X23857894Y-79233285D01*
X23812511Y-79197832D01*
X23812500Y-79197200D01*
X23769394Y-79157728D01*
X23696714Y-79146400D01*
X23577396Y-79107291D01*
X23507699Y-79044800D01*
X23405495Y-78964834D01*
X23318685Y-78943200D01*
X23228721Y-78924287D01*
X23202900Y-78892400D01*
X23160352Y-78851125D01*
X23101300Y-78841600D01*
X23018751Y-78820326D01*
X22999700Y-78790800D01*
X22956226Y-78752612D01*
X22872700Y-78740000D01*
X22777231Y-78722610D01*
X22745700Y-78689200D01*
X22702226Y-78651012D01*
X22618700Y-78638400D01*
X22523231Y-78621010D01*
X22491700Y-78587600D01*
X22449152Y-78546325D01*
X22390100Y-78536800D01*
X22307551Y-78515526D01*
X22288500Y-78486000D01*
X22244356Y-78450331D01*
X22137996Y-78435203D01*
X22136100Y-78435200D01*
X22029094Y-78420485D01*
X21983711Y-78385032D01*
X21983700Y-78384400D01*
X21941152Y-78343125D01*
X21882100Y-78333600D01*
X21799551Y-78312326D01*
X21780500Y-78282800D01*
X21736356Y-78247131D01*
X21629996Y-78232003D01*
X21628100Y-78232000D01*
X21521094Y-78217285D01*
X21475711Y-78181832D01*
X21475700Y-78181200D01*
X21432226Y-78143012D01*
X21348700Y-78130400D01*
X21253231Y-78113010D01*
X21221700Y-78079600D01*
X21178226Y-78041412D01*
X21094700Y-78028800D01*
X20999231Y-78011410D01*
X20967700Y-77978000D01*
X20923042Y-77944422D01*
X20813233Y-77927638D01*
X20789900Y-77927200D01*
X20672379Y-77914440D01*
X20613635Y-77883066D01*
X20612100Y-77876400D01*
X20567888Y-77840998D01*
X20461077Y-77825620D01*
X20456701Y-77825600D01*
X20355147Y-77811841D01*
X20331698Y-77776542D01*
X20332700Y-77774800D01*
X20304074Y-77746604D01*
X20183021Y-77729246D01*
X20002500Y-77724000D01*
X19805804Y-77717530D01*
X19693691Y-77699016D01*
X19672300Y-77673200D01*
X19644385Y-77644340D01*
X19524870Y-77626966D01*
X19367500Y-77622400D01*
X19180782Y-77629312D01*
X19077958Y-77648994D01*
X19062700Y-77673200D01*
X19034074Y-77701395D01*
X18913021Y-77718753D01*
X18732500Y-77724000D01*
X18535804Y-77730469D01*
X18423691Y-77748983D01*
X18402300Y-77774800D01*
X18379435Y-77808151D01*
X18272120Y-77824649D01*
X18227498Y-77825600D01*
X18099150Y-77836713D01*
X18027028Y-77864522D01*
X18021300Y-77876400D01*
X17976232Y-77908211D01*
X17863649Y-77925904D01*
X17818100Y-77927200D01*
X17690855Y-77938466D01*
X17620081Y-77966612D01*
X17614900Y-77978000D01*
X17570189Y-78011353D01*
X17460022Y-78028275D01*
X17434101Y-78028800D01*
X17318513Y-78040833D01*
X17281748Y-78072665D01*
X17284700Y-78079600D01*
X17263238Y-78114167D01*
X17159745Y-78130025D01*
X17135298Y-78130400D01*
X17016592Y-78142962D01*
X16956366Y-78173916D01*
X16954500Y-78181200D01*
X16911952Y-78222474D01*
X16852900Y-78232000D01*
X16770351Y-78253273D01*
X16751300Y-78282800D01*
X16707156Y-78318468D01*
X16600796Y-78333596D01*
X16598900Y-78333600D01*
X16491894Y-78348314D01*
X16446511Y-78383767D01*
X16446500Y-78384400D01*
X16402356Y-78420068D01*
X16295996Y-78435196D01*
X16294100Y-78435200D01*
X16187094Y-78449914D01*
X16141711Y-78485367D01*
X16141700Y-78486000D01*
X16098226Y-78524187D01*
X16014700Y-78536800D01*
X15919231Y-78554189D01*
X15887700Y-78587600D01*
X15846554Y-78632668D01*
X15811500Y-78638400D01*
X15743896Y-78665830D01*
X15735300Y-78689200D01*
X15691826Y-78727387D01*
X15608300Y-78740000D01*
X15512831Y-78757389D01*
X15481300Y-78790800D01*
X15438752Y-78832074D01*
X15379700Y-78841600D01*
X15297151Y-78862873D01*
X15278100Y-78892400D01*
X15235552Y-78933674D01*
X15176500Y-78943200D01*
X15093951Y-78964473D01*
X15074900Y-78994000D01*
X15030756Y-79029668D01*
X14924396Y-79044796D01*
X14922500Y-79044800D01*
X14815494Y-79059514D01*
X14770111Y-79094967D01*
X14770100Y-79095600D01*
X14725442Y-79129177D01*
X14615633Y-79145961D01*
X14592300Y-79146400D01*
X14474779Y-79159159D01*
X14416035Y-79190533D01*
X14414500Y-79197200D01*
X14371026Y-79235387D01*
X14287500Y-79248000D01*
X14192031Y-79265389D01*
X14160500Y-79298800D01*
X14116936Y-79336663D01*
X14030501Y-79349600D01*
X13944071Y-79365725D01*
X13931900Y-79400400D01*
X13913914Y-79438069D01*
X13833298Y-79451200D01*
X13736404Y-79468223D01*
X13703300Y-79502000D01*
X13660752Y-79543274D01*
X13601700Y-79552800D01*
X13519151Y-79574073D01*
X13500100Y-79603600D01*
X13455442Y-79637177D01*
X13345633Y-79653961D01*
X13322300Y-79654400D01*
X13204779Y-79667159D01*
X13146035Y-79698533D01*
X13144500Y-79705200D01*
X13100288Y-79740601D01*
X12993477Y-79755979D01*
X12989101Y-79756000D01*
X12887547Y-79769758D01*
X12864098Y-79805057D01*
X12865100Y-79806800D01*
X12842081Y-79840018D01*
X12734360Y-79856573D01*
X12687300Y-79857600D01*
X12557042Y-79868175D01*
X12506568Y-79896817D01*
X12509500Y-79908400D01*
X12491514Y-79946069D01*
X12410898Y-79959200D01*
X12314004Y-79976223D01*
X12280900Y-80010000D01*
X12235832Y-80041811D01*
X12123249Y-80059504D01*
X12077700Y-80060800D01*
X11950455Y-80072066D01*
X11879681Y-80100212D01*
X11874500Y-80111600D01*
X11830356Y-80147268D01*
X11723996Y-80162396D01*
X11722100Y-80162400D01*
X11615094Y-80177114D01*
X11569711Y-80212567D01*
X11569700Y-80213200D01*
X11525556Y-80248868D01*
X11419196Y-80263996D01*
X11417300Y-80264000D01*
X11310294Y-80278714D01*
X11264911Y-80314167D01*
X11264900Y-80314800D01*
X11219459Y-80344930D01*
X11104335Y-80363141D01*
X11033301Y-80365600D01*
X10892107Y-80375261D01*
X10831480Y-80401791D01*
X10833100Y-80416400D01*
X10796997Y-80437253D01*
X10662566Y-80453949D01*
X10433000Y-80466264D01*
X10111495Y-80473977D01*
X9985198Y-80475480D01*
X9669940Y-80480076D01*
X9454614Y-80486967D01*
X9339652Y-80496122D01*
X9325492Y-80507512D01*
X9385300Y-80518000D01*
X9509455Y-80534206D01*
X9558477Y-80544893D01*
X9525552Y-80551786D01*
X9403865Y-80556607D01*
X9217201Y-80560519D01*
X8987418Y-80559516D01*
X8846200Y-80546826D01*
X8799314Y-80523041D01*
X8801100Y-80518000D01*
X8767102Y-80495214D01*
X8635732Y-80478961D01*
X8411026Y-80469564D01*
X8166100Y-80467200D01*
X7869458Y-80463534D01*
X7662914Y-80452754D01*
X7550505Y-80435182D01*
X7531100Y-80416400D01*
X7500675Y-80389933D01*
X7375914Y-80372754D01*
X7163728Y-80365725D01*
X7124700Y-80365600D01*
X6899969Y-80360171D01*
X6761624Y-80344462D01*
X6716576Y-80319337D01*
X6718300Y-80314800D01*
X6690385Y-80285940D01*
X6570870Y-80268566D01*
X6413500Y-80264000D01*
X6226782Y-80257087D01*
X6123958Y-80237405D01*
X6108700Y-80213200D01*
X6084467Y-80181038D01*
X5973617Y-80164108D01*
X5905500Y-80162400D01*
X5762879Y-80152848D01*
X5700930Y-80126579D01*
X5702300Y-80111600D01*
X5679435Y-80078248D01*
X5572120Y-80061750D01*
X5527498Y-80060800D01*
X5399150Y-80049686D01*
X5327028Y-80021877D01*
X5321300Y-80010000D01*
X5277156Y-79974331D01*
X5170796Y-79959203D01*
X5168900Y-79959200D01*
X5061894Y-79944485D01*
X5016511Y-79909032D01*
X5016500Y-79908400D01*
X4973026Y-79870212D01*
X4889500Y-79857600D01*
X4794031Y-79840210D01*
X4762500Y-79806800D01*
X4718356Y-79771131D01*
X4611996Y-79756003D01*
X4610100Y-79756000D01*
X4503094Y-79741285D01*
X4457711Y-79705832D01*
X4457700Y-79705200D01*
X4413556Y-79669531D01*
X4307196Y-79654403D01*
X4305300Y-79654400D01*
X4198294Y-79639685D01*
X4152911Y-79604232D01*
X4152900Y-79603600D01*
X4110352Y-79562325D01*
X4051300Y-79552800D01*
X3968751Y-79574073D01*
X3949700Y-79603600D01*
X3906872Y-79643990D01*
X3841358Y-79654400D01*
X3719332Y-79697540D01*
X3609369Y-79801944D01*
X3547254Y-79930081D01*
X3543300Y-79966972D01*
X3522931Y-80045241D01*
X3498057Y-80060800D01*
X3460677Y-80105152D01*
X3430251Y-80213206D01*
X3428227Y-80225900D01*
X3385297Y-80413351D01*
X3318242Y-80604092D01*
X3242720Y-80757357D01*
X3203727Y-80810400D01*
X3137375Y-80912610D01*
X3111404Y-80975500D01*
X3067249Y-81057397D01*
X3035300Y-81076800D01*
X2986513Y-81118667D01*
X2959100Y-81178400D01*
X2902649Y-81260775D01*
X2854076Y-81280000D01*
X2788700Y-81308546D01*
X2781300Y-81330800D01*
X2740154Y-81375868D01*
X2705100Y-81381600D01*
X2637496Y-81409030D01*
X2628900Y-81432400D01*
X2581624Y-81457996D01*
X2453653Y-81475837D01*
X2265766Y-81483152D01*
X2247900Y-81483200D01*
X2055923Y-81476896D01*
X1922115Y-81459833D01*
X1867256Y-81434782D01*
X1866900Y-81432400D01*
X1824352Y-81391125D01*
X1765300Y-81381600D01*
X1682751Y-81360326D01*
X1663700Y-81330800D01*
X1620118Y-81293003D01*
X1533071Y-81280000D01*
X1412338Y-81258877D01*
X1312291Y-81183096D01*
X1211414Y-81034036D01*
X1178021Y-80972716D01*
X1126141Y-80822270D01*
X1094260Y-80621404D01*
X1081642Y-80400197D01*
X1827721Y-80400197D01*
X1900032Y-80551477D01*
X1905000Y-80557794D01*
X1992399Y-80624646D01*
X2105692Y-80664239D01*
X2209722Y-80670676D01*
X2269333Y-80638056D01*
X2273300Y-80619600D01*
X2315308Y-80576742D01*
X2363685Y-80568800D01*
X2461900Y-80530471D01*
X2527300Y-80467200D01*
X2604569Y-80388735D01*
X2657047Y-80365600D01*
X2713360Y-80325141D01*
X2719320Y-80302100D01*
X2742226Y-80194233D01*
X2786358Y-80061893D01*
X2837608Y-79940714D01*
X2881864Y-79866326D01*
X2895330Y-79857600D01*
X2918048Y-79812889D01*
X2930548Y-79702185D01*
X2932330Y-79560627D01*
X2922894Y-79423357D01*
X2902864Y-79328354D01*
X2832620Y-79257948D01*
X2721397Y-79264766D01*
X2592356Y-79347236D01*
X2589803Y-79349600D01*
X2493606Y-79423282D01*
X2426130Y-79451200D01*
X2346257Y-79489999D01*
X2233029Y-79590672D01*
X2108036Y-79729632D01*
X1992867Y-79883292D01*
X1921571Y-80002411D01*
X1834719Y-80223251D01*
X1827721Y-80400197D01*
X1081642Y-80400197D01*
X1081144Y-80391472D01*
X1085561Y-80153829D01*
X1106275Y-79929826D01*
X1142055Y-79740819D01*
X1191666Y-79608161D01*
X1253875Y-79553205D01*
X1260039Y-79552800D01*
X1307222Y-79511175D01*
X1331584Y-79457233D01*
X1387108Y-79348318D01*
X1462008Y-79246261D01*
X1535133Y-79132022D01*
X1562100Y-79037027D01*
X1598308Y-78958752D01*
X1643318Y-78943200D01*
X1727497Y-78908299D01*
X1836602Y-78821454D01*
X1866900Y-78790800D01*
X1967792Y-78694892D01*
X2045388Y-78642007D01*
X2059646Y-78638400D01*
X2120581Y-78598105D01*
X2137127Y-78567785D01*
X2172556Y-78518267D01*
X2252953Y-78458074D01*
X2394222Y-78377093D01*
X2612268Y-78265213D01*
X2615803Y-78263448D01*
X2670824Y-78227871D01*
X2704637Y-78173363D01*
X2722367Y-78077440D01*
X2729141Y-77917620D01*
X2730103Y-77762100D01*
X2725620Y-77563849D01*
X2713297Y-77411153D01*
X2695395Y-77326995D01*
X2686388Y-77317600D01*
X2652314Y-77272573D01*
X2618595Y-77159275D01*
X2607797Y-77101700D01*
X2546235Y-76710804D01*
X2499822Y-76402929D01*
X2466070Y-76161036D01*
X2442863Y-75971400D01*
X2420102Y-75820607D01*
X2393326Y-75716901D01*
X2379197Y-75692000D01*
X2351382Y-75629140D01*
X2308283Y-75469057D01*
X2249702Y-75210901D01*
X2175445Y-74853826D01*
X2117388Y-74561700D01*
X2077543Y-74358986D01*
X2033062Y-74133526D01*
X2017268Y-74053700D01*
X1994305Y-73892134D01*
X1971522Y-73651761D01*
X1949994Y-73355371D01*
X1930797Y-73025753D01*
X1915006Y-72685697D01*
X1903696Y-72357991D01*
X1897943Y-72065426D01*
X1898821Y-71830790D01*
X1905817Y-71691500D01*
X1928984Y-71542541D01*
X1960524Y-71445737D01*
X1981957Y-71424800D01*
X2008683Y-71381369D01*
X2001232Y-71271054D01*
X2000317Y-71266389D01*
X1991596Y-71163637D01*
X2024103Y-71075217D01*
X2113424Y-70968808D01*
X2171826Y-70910789D01*
X2290128Y-70802345D01*
X2380833Y-70730723D01*
X2414543Y-70713599D01*
X2471325Y-70676921D01*
X2527300Y-70612000D01*
X2565227Y-70570550D01*
X2620601Y-70542148D01*
X2711292Y-70524366D01*
X2855171Y-70514775D01*
X3070109Y-70510949D01*
X3275114Y-70510400D01*
X3561594Y-70514093D01*
G37*
X3561594Y-70514093D02*
X3776245Y-70524662D01*
X3908876Y-70541340D01*
X3949700Y-70561200D01*
X3993173Y-70599387D01*
X4076700Y-70612000D01*
X4172168Y-70629389D01*
X4203700Y-70662800D01*
X4247173Y-70700987D01*
X4330700Y-70713600D01*
X4426168Y-70730989D01*
X4457700Y-70764400D01*
X4498845Y-70809468D01*
X4533900Y-70815200D01*
X4601503Y-70842630D01*
X4610100Y-70866000D01*
X4651579Y-70910260D01*
X4691318Y-70916800D01*
X4781774Y-70958750D01*
X4916244Y-71079097D01*
X5085697Y-71269582D01*
X5111393Y-71300999D01*
X5229338Y-71505510D01*
X5270499Y-71709953D01*
X5253957Y-71849131D01*
X5212684Y-72010102D01*
X5159211Y-72153360D01*
X5106071Y-72239397D01*
X5101332Y-72243279D01*
X5063001Y-72299298D01*
X5062961Y-72306779D01*
X5056190Y-72472951D01*
X4976204Y-72623973D01*
X4919918Y-72689427D01*
X4816237Y-72787412D01*
X4734191Y-72842679D01*
X4716718Y-72847200D01*
X4663351Y-72877639D01*
X4660900Y-72890227D01*
X4626173Y-72967180D01*
X4546517Y-73061597D01*
X4458712Y-73134536D01*
X4413641Y-73152000D01*
X4359015Y-73186869D01*
X4356100Y-73202800D01*
X4311032Y-73234611D01*
X4198449Y-73252304D01*
X4152900Y-73253600D01*
X4022606Y-73247581D01*
X3964685Y-73214969D01*
X3950020Y-73133924D01*
X3949700Y-73101200D01*
X3963580Y-72992068D01*
X4021657Y-72952234D01*
X4073276Y-72948800D01*
X4189517Y-72909747D01*
X4229099Y-72847200D01*
X4289182Y-72764749D01*
X4342589Y-72745600D01*
X4396557Y-72730428D01*
X4391992Y-72713759D01*
X4390705Y-72651619D01*
X4431162Y-72544685D01*
X4434326Y-72538482D01*
X4486308Y-72382305D01*
X4506757Y-72200415D01*
X4495785Y-72029508D01*
X4453506Y-71906282D01*
X4432299Y-71882000D01*
X4367649Y-71793577D01*
X4356100Y-71745151D01*
X4313493Y-71636067D01*
X4214757Y-71550137D01*
X4131128Y-71526400D01*
X4061228Y-71500060D01*
X4051300Y-71475600D01*
X4007156Y-71439931D01*
X3900796Y-71424803D01*
X3898900Y-71424800D01*
X3791894Y-71410085D01*
X3746511Y-71374632D01*
X3746500Y-71374000D01*
X3703952Y-71332725D01*
X3644900Y-71323200D01*
X3562351Y-71344473D01*
X3543300Y-71374000D01*
X3504168Y-71422744D01*
X3488871Y-71424799D01*
X3413617Y-71454298D01*
X3345384Y-71518617D01*
X3318651Y-71581491D01*
X3325585Y-71596552D01*
X3310768Y-71621775D01*
X3258057Y-71628000D01*
X3187450Y-71654862D01*
X3132266Y-71748729D01*
X3094415Y-71869300D01*
X3042810Y-72058235D01*
X2991401Y-72240974D01*
X2976917Y-72291031D01*
X2952410Y-72448809D01*
X2943326Y-72681006D01*
X2947941Y-72961897D01*
X2964529Y-73265759D01*
X2991365Y-73566869D01*
X3026723Y-73839501D01*
X3068879Y-74057933D01*
X3102798Y-74168000D01*
X3149357Y-74323104D01*
X3194603Y-74546841D01*
X3225110Y-74752200D01*
X3253557Y-74889001D01*
X3292484Y-74978003D01*
X3303529Y-74988774D01*
X3346203Y-75059475D01*
X3369062Y-75166574D01*
X3390028Y-75307419D01*
X3426814Y-75484067D01*
X3440392Y-75539600D01*
X3505683Y-75841093D01*
X3568925Y-76217202D01*
X3626990Y-76640947D01*
X3676752Y-77085348D01*
X3715083Y-77523427D01*
X3738856Y-77928204D01*
X3745093Y-78168500D01*
X3756470Y-78282352D01*
X3807551Y-78326775D01*
X3898900Y-78333600D01*
X4005905Y-78348314D01*
X4051288Y-78383767D01*
X4051300Y-78384400D01*
X4095957Y-78417977D01*
X4205766Y-78434761D01*
X4229100Y-78435200D01*
X4346620Y-78447959D01*
X4405364Y-78479333D01*
X4406900Y-78486000D01*
X4451557Y-78519577D01*
X4561366Y-78536361D01*
X4584700Y-78536800D01*
X4702220Y-78549559D01*
X4760964Y-78580933D01*
X4762500Y-78587600D01*
X4806643Y-78623268D01*
X4913003Y-78638396D01*
X4914900Y-78638400D01*
X5021905Y-78653114D01*
X5067288Y-78688567D01*
X5067300Y-78689200D01*
X5111443Y-78724868D01*
X5217803Y-78739996D01*
X5219700Y-78740000D01*
X5326705Y-78754714D01*
X5372088Y-78790167D01*
X5372100Y-78790800D01*
X5417167Y-78822611D01*
X5529750Y-78840304D01*
X5575300Y-78841600D01*
X5702544Y-78852866D01*
X5773318Y-78881012D01*
X5778500Y-78892400D01*
X5823157Y-78925977D01*
X5932966Y-78942761D01*
X5956300Y-78943200D01*
X6073820Y-78955959D01*
X6132564Y-78987333D01*
X6134100Y-78994000D01*
X6177573Y-79032187D01*
X6261100Y-79044800D01*
X6356568Y-79062189D01*
X6388100Y-79095600D01*
X6433540Y-79125730D01*
X6548664Y-79143941D01*
X6619698Y-79146400D01*
X6760892Y-79156061D01*
X6821519Y-79182591D01*
X6819900Y-79197200D01*
X6842764Y-79230551D01*
X6950079Y-79247049D01*
X6994701Y-79248000D01*
X7123049Y-79259113D01*
X7195171Y-79286922D01*
X7200900Y-79298800D01*
X7247596Y-79325287D01*
X7371479Y-79343442D01*
X7534098Y-79349600D01*
X7719614Y-79356569D01*
X7821320Y-79376398D01*
X7835900Y-79400400D01*
X7875412Y-79416738D01*
X8015188Y-79429970D01*
X8253935Y-79440050D01*
X8590362Y-79446936D01*
X9023179Y-79450584D01*
X9334500Y-79451200D01*
X9825572Y-79449552D01*
X10221044Y-79444640D01*
X10519624Y-79436506D01*
X10720022Y-79425194D01*
X10820945Y-79410749D01*
X10833100Y-79400400D01*
X10862301Y-79372750D01*
X10984571Y-79355428D01*
X11185701Y-79349600D01*
X11378787Y-79343341D01*
X11513502Y-79326382D01*
X11569257Y-79301446D01*
X11569700Y-79298800D01*
X11615631Y-79270980D01*
X11734114Y-79252528D01*
X11849100Y-79248000D01*
X12031156Y-79237846D01*
X12118628Y-79206619D01*
X12128500Y-79184133D01*
X12166562Y-79144201D01*
X12287714Y-79134611D01*
X12363577Y-79138964D01*
X12511954Y-79142543D01*
X12568031Y-79121179D01*
X12563779Y-79101230D01*
X12579847Y-79060401D01*
X12693014Y-79044931D01*
X12709701Y-79044800D01*
X12828407Y-79032237D01*
X12888633Y-79001283D01*
X12890500Y-78994000D01*
X12933175Y-78953124D01*
X12995098Y-78943200D01*
X13065340Y-78923644D01*
X13068300Y-78892400D01*
X13089761Y-78857832D01*
X13193254Y-78841974D01*
X13217701Y-78841600D01*
X13336407Y-78829037D01*
X13396633Y-78798083D01*
X13398500Y-78790800D01*
X13441973Y-78752612D01*
X13525500Y-78740000D01*
X13620968Y-78722610D01*
X13652500Y-78689200D01*
X13695973Y-78651012D01*
X13779500Y-78638400D01*
X13874968Y-78621010D01*
X13906500Y-78587600D01*
X13949047Y-78546325D01*
X14008100Y-78536800D01*
X14090648Y-78515526D01*
X14109700Y-78486000D01*
X14152247Y-78444725D01*
X14211300Y-78435200D01*
X14293848Y-78413926D01*
X14312900Y-78384400D01*
X14355447Y-78343125D01*
X14414500Y-78333600D01*
X14497048Y-78312326D01*
X14516100Y-78282800D01*
X14557245Y-78237731D01*
X14592300Y-78232000D01*
X14659903Y-78204569D01*
X14668500Y-78181200D01*
X14711047Y-78139925D01*
X14770100Y-78130400D01*
X14852648Y-78109126D01*
X14871700Y-78079600D01*
X14914247Y-78038325D01*
X14973300Y-78028800D01*
X15055848Y-78007526D01*
X15074900Y-77978000D01*
X15117447Y-77936725D01*
X15176500Y-77927200D01*
X15259048Y-77905926D01*
X15278100Y-77876400D01*
X15320647Y-77835125D01*
X15379700Y-77825600D01*
X15462248Y-77804326D01*
X15481300Y-77774800D01*
X15522445Y-77729731D01*
X15557500Y-77724000D01*
X15625103Y-77696569D01*
X15633700Y-77673200D01*
X15677964Y-77638011D01*
X15785132Y-77622441D01*
X15791535Y-77622400D01*
X15902628Y-77607955D01*
X15925546Y-77561265D01*
X15923172Y-77554131D01*
X15931545Y-77506983D01*
X16019337Y-77509253D01*
X16113522Y-77507722D01*
X16141700Y-77475922D01*
X16184189Y-77429859D01*
X16243300Y-77419200D01*
X16325848Y-77397926D01*
X16344900Y-77368400D01*
X16388373Y-77330212D01*
X16471900Y-77317600D01*
X16567368Y-77300210D01*
X16598900Y-77266800D01*
X16643610Y-77233446D01*
X16753777Y-77216524D01*
X16779698Y-77216000D01*
X16895286Y-77203966D01*
X16932051Y-77172134D01*
X16929100Y-77165200D01*
X16947085Y-77127530D01*
X17027701Y-77114400D01*
X17124595Y-77097376D01*
X17157700Y-77063600D01*
X17201843Y-77027931D01*
X17308203Y-77012803D01*
X17310100Y-77012800D01*
X17417105Y-76998085D01*
X17462488Y-76962632D01*
X17462500Y-76962000D01*
X17508819Y-76935002D01*
X17630039Y-76916678D01*
X17770298Y-76911200D01*
X17945418Y-76903711D01*
X18037470Y-76882540D01*
X18046700Y-76860400D01*
X18075597Y-76832369D01*
X18197123Y-76814741D01*
X18386601Y-76808822D01*
X18581947Y-76803774D01*
X18681022Y-76789100D01*
X18688774Y-76763960D01*
X18681700Y-76758799D01*
X18676631Y-76732348D01*
X18762714Y-76716023D01*
X18944481Y-76709109D01*
X18999200Y-76708777D01*
X19195365Y-76702277D01*
X19333053Y-76685402D01*
X19392061Y-76660802D01*
X19392900Y-76657200D01*
X19442327Y-76636956D01*
X19585294Y-76621441D01*
X19813829Y-76611152D01*
X20119959Y-76606588D01*
X20205700Y-76606400D01*
X20529588Y-76609489D01*
X20777830Y-76618424D01*
X20942453Y-76632708D01*
X21015485Y-76651841D01*
X21018500Y-76657200D01*
X21068081Y-76676809D01*
X21212113Y-76691998D01*
X21443522Y-76702362D01*
X21755240Y-76707499D01*
X21907500Y-76708000D01*
X22250661Y-76705166D01*
X22516467Y-76696936D01*
X22697848Y-76683712D01*
X22787733Y-76665900D01*
X22796500Y-76657200D01*
X22840643Y-76621531D01*
X22947003Y-76606403D01*
X22948900Y-76606400D01*
X23055905Y-76591685D01*
X23101288Y-76556232D01*
X23101300Y-76555600D01*
X23145721Y-76521045D01*
X23253942Y-76504950D01*
X23266669Y-76504800D01*
X23379757Y-76517448D01*
X23446596Y-76574255D01*
X23498797Y-76695300D01*
X23546627Y-76860100D01*
X23592874Y-77064028D01*
X23611415Y-77165200D01*
X23658339Y-77383652D01*
X23725333Y-77620704D01*
X23760288Y-77723282D01*
X23817799Y-77903526D01*
X23855190Y-78068026D01*
X23863300Y-78145722D01*
X23879606Y-78285106D01*
X23910007Y-78376753D01*
X23946376Y-78480148D01*
X23981068Y-78633678D01*
X23990299Y-78689199D01*
X24021372Y-78848240D01*
X24058638Y-78974725D01*
X24070592Y-79001646D01*
X24118668Y-79140108D01*
X24083071Y-79221629D01*
X23964900Y-79248000D01*
X23857894Y-79233285D01*
X23812511Y-79197832D01*
X23812500Y-79197200D01*
X23769394Y-79157728D01*
X23696714Y-79146400D01*
X23577396Y-79107291D01*
X23507699Y-79044800D01*
X23405495Y-78964834D01*
X23318685Y-78943200D01*
X23228721Y-78924287D01*
X23202900Y-78892400D01*
X23160352Y-78851125D01*
X23101300Y-78841600D01*
X23018751Y-78820326D01*
X22999700Y-78790800D01*
X22956226Y-78752612D01*
X22872700Y-78740000D01*
X22777231Y-78722610D01*
X22745700Y-78689200D01*
X22702226Y-78651012D01*
X22618700Y-78638400D01*
X22523231Y-78621010D01*
X22491700Y-78587600D01*
X22449152Y-78546325D01*
X22390100Y-78536800D01*
X22307551Y-78515526D01*
X22288500Y-78486000D01*
X22244356Y-78450331D01*
X22137996Y-78435203D01*
X22136100Y-78435200D01*
X22029094Y-78420485D01*
X21983711Y-78385032D01*
X21983700Y-78384400D01*
X21941152Y-78343125D01*
X21882100Y-78333600D01*
X21799551Y-78312326D01*
X21780500Y-78282800D01*
X21736356Y-78247131D01*
X21629996Y-78232003D01*
X21628100Y-78232000D01*
X21521094Y-78217285D01*
X21475711Y-78181832D01*
X21475700Y-78181200D01*
X21432226Y-78143012D01*
X21348700Y-78130400D01*
X21253231Y-78113010D01*
X21221700Y-78079600D01*
X21178226Y-78041412D01*
X21094700Y-78028800D01*
X20999231Y-78011410D01*
X20967700Y-77978000D01*
X20923042Y-77944422D01*
X20813233Y-77927638D01*
X20789900Y-77927200D01*
X20672379Y-77914440D01*
X20613635Y-77883066D01*
X20612100Y-77876400D01*
X20567888Y-77840998D01*
X20461077Y-77825620D01*
X20456701Y-77825600D01*
X20355147Y-77811841D01*
X20331698Y-77776542D01*
X20332700Y-77774800D01*
X20304074Y-77746604D01*
X20183021Y-77729246D01*
X20002500Y-77724000D01*
X19805804Y-77717530D01*
X19693691Y-77699016D01*
X19672300Y-77673200D01*
X19644385Y-77644340D01*
X19524870Y-77626966D01*
X19367500Y-77622400D01*
X19180782Y-77629312D01*
X19077958Y-77648994D01*
X19062700Y-77673200D01*
X19034074Y-77701395D01*
X18913021Y-77718753D01*
X18732500Y-77724000D01*
X18535804Y-77730469D01*
X18423691Y-77748983D01*
X18402300Y-77774800D01*
X18379435Y-77808151D01*
X18272120Y-77824649D01*
X18227498Y-77825600D01*
X18099150Y-77836713D01*
X18027028Y-77864522D01*
X18021300Y-77876400D01*
X17976232Y-77908211D01*
X17863649Y-77925904D01*
X17818100Y-77927200D01*
X17690855Y-77938466D01*
X17620081Y-77966612D01*
X17614900Y-77978000D01*
X17570189Y-78011353D01*
X17460022Y-78028275D01*
X17434101Y-78028800D01*
X17318513Y-78040833D01*
X17281748Y-78072665D01*
X17284700Y-78079600D01*
X17263238Y-78114167D01*
X17159745Y-78130025D01*
X17135298Y-78130400D01*
X17016592Y-78142962D01*
X16956366Y-78173916D01*
X16954500Y-78181200D01*
X16911952Y-78222474D01*
X16852900Y-78232000D01*
X16770351Y-78253273D01*
X16751300Y-78282800D01*
X16707156Y-78318468D01*
X16600796Y-78333596D01*
X16598900Y-78333600D01*
X16491894Y-78348314D01*
X16446511Y-78383767D01*
X16446500Y-78384400D01*
X16402356Y-78420068D01*
X16295996Y-78435196D01*
X16294100Y-78435200D01*
X16187094Y-78449914D01*
X16141711Y-78485367D01*
X16141700Y-78486000D01*
X16098226Y-78524187D01*
X16014700Y-78536800D01*
X15919231Y-78554189D01*
X15887700Y-78587600D01*
X15846554Y-78632668D01*
X15811500Y-78638400D01*
X15743896Y-78665830D01*
X15735300Y-78689200D01*
X15691826Y-78727387D01*
X15608300Y-78740000D01*
X15512831Y-78757389D01*
X15481300Y-78790800D01*
X15438752Y-78832074D01*
X15379700Y-78841600D01*
X15297151Y-78862873D01*
X15278100Y-78892400D01*
X15235552Y-78933674D01*
X15176500Y-78943200D01*
X15093951Y-78964473D01*
X15074900Y-78994000D01*
X15030756Y-79029668D01*
X14924396Y-79044796D01*
X14922500Y-79044800D01*
X14815494Y-79059514D01*
X14770111Y-79094967D01*
X14770100Y-79095600D01*
X14725442Y-79129177D01*
X14615633Y-79145961D01*
X14592300Y-79146400D01*
X14474779Y-79159159D01*
X14416035Y-79190533D01*
X14414500Y-79197200D01*
X14371026Y-79235387D01*
X14287500Y-79248000D01*
X14192031Y-79265389D01*
X14160500Y-79298800D01*
X14116936Y-79336663D01*
X14030501Y-79349600D01*
X13944071Y-79365725D01*
X13931900Y-79400400D01*
X13913914Y-79438069D01*
X13833298Y-79451200D01*
X13736404Y-79468223D01*
X13703300Y-79502000D01*
X13660752Y-79543274D01*
X13601700Y-79552800D01*
X13519151Y-79574073D01*
X13500100Y-79603600D01*
X13455442Y-79637177D01*
X13345633Y-79653961D01*
X13322300Y-79654400D01*
X13204779Y-79667159D01*
X13146035Y-79698533D01*
X13144500Y-79705200D01*
X13100288Y-79740601D01*
X12993477Y-79755979D01*
X12989101Y-79756000D01*
X12887547Y-79769758D01*
X12864098Y-79805057D01*
X12865100Y-79806800D01*
X12842081Y-79840018D01*
X12734360Y-79856573D01*
X12687300Y-79857600D01*
X12557042Y-79868175D01*
X12506568Y-79896817D01*
X12509500Y-79908400D01*
X12491514Y-79946069D01*
X12410898Y-79959200D01*
X12314004Y-79976223D01*
X12280900Y-80010000D01*
X12235832Y-80041811D01*
X12123249Y-80059504D01*
X12077700Y-80060800D01*
X11950455Y-80072066D01*
X11879681Y-80100212D01*
X11874500Y-80111600D01*
X11830356Y-80147268D01*
X11723996Y-80162396D01*
X11722100Y-80162400D01*
X11615094Y-80177114D01*
X11569711Y-80212567D01*
X11569700Y-80213200D01*
X11525556Y-80248868D01*
X11419196Y-80263996D01*
X11417300Y-80264000D01*
X11310294Y-80278714D01*
X11264911Y-80314167D01*
X11264900Y-80314800D01*
X11219459Y-80344930D01*
X11104335Y-80363141D01*
X11033301Y-80365600D01*
X10892107Y-80375261D01*
X10831480Y-80401791D01*
X10833100Y-80416400D01*
X10796997Y-80437253D01*
X10662566Y-80453949D01*
X10433000Y-80466264D01*
X10111495Y-80473977D01*
X9985198Y-80475480D01*
X9669940Y-80480076D01*
X9454614Y-80486967D01*
X9339652Y-80496122D01*
X9325492Y-80507512D01*
X9385300Y-80518000D01*
X9509455Y-80534206D01*
X9558477Y-80544893D01*
X9525552Y-80551786D01*
X9403865Y-80556607D01*
X9217201Y-80560519D01*
X8987418Y-80559516D01*
X8846200Y-80546826D01*
X8799314Y-80523041D01*
X8801100Y-80518000D01*
X8767102Y-80495214D01*
X8635732Y-80478961D01*
X8411026Y-80469564D01*
X8166100Y-80467200D01*
X7869458Y-80463534D01*
X7662914Y-80452754D01*
X7550505Y-80435182D01*
X7531100Y-80416400D01*
X7500675Y-80389933D01*
X7375914Y-80372754D01*
X7163728Y-80365725D01*
X7124700Y-80365600D01*
X6899969Y-80360171D01*
X6761624Y-80344462D01*
X6716576Y-80319337D01*
X6718300Y-80314800D01*
X6690385Y-80285940D01*
X6570870Y-80268566D01*
X6413500Y-80264000D01*
X6226782Y-80257087D01*
X6123958Y-80237405D01*
X6108700Y-80213200D01*
X6084467Y-80181038D01*
X5973617Y-80164108D01*
X5905500Y-80162400D01*
X5762879Y-80152848D01*
X5700930Y-80126579D01*
X5702300Y-80111600D01*
X5679435Y-80078248D01*
X5572120Y-80061750D01*
X5527498Y-80060800D01*
X5399150Y-80049686D01*
X5327028Y-80021877D01*
X5321300Y-80010000D01*
X5277156Y-79974331D01*
X5170796Y-79959203D01*
X5168900Y-79959200D01*
X5061894Y-79944485D01*
X5016511Y-79909032D01*
X5016500Y-79908400D01*
X4973026Y-79870212D01*
X4889500Y-79857600D01*
X4794031Y-79840210D01*
X4762500Y-79806800D01*
X4718356Y-79771131D01*
X4611996Y-79756003D01*
X4610100Y-79756000D01*
X4503094Y-79741285D01*
X4457711Y-79705832D01*
X4457700Y-79705200D01*
X4413556Y-79669531D01*
X4307196Y-79654403D01*
X4305300Y-79654400D01*
X4198294Y-79639685D01*
X4152911Y-79604232D01*
X4152900Y-79603600D01*
X4110352Y-79562325D01*
X4051300Y-79552800D01*
X3968751Y-79574073D01*
X3949700Y-79603600D01*
X3906872Y-79643990D01*
X3841358Y-79654400D01*
X3719332Y-79697540D01*
X3609369Y-79801944D01*
X3547254Y-79930081D01*
X3543300Y-79966972D01*
X3522931Y-80045241D01*
X3498057Y-80060800D01*
X3460677Y-80105152D01*
X3430251Y-80213206D01*
X3428227Y-80225900D01*
X3385297Y-80413351D01*
X3318242Y-80604092D01*
X3242720Y-80757357D01*
X3203727Y-80810400D01*
X3137375Y-80912610D01*
X3111404Y-80975500D01*
X3067249Y-81057397D01*
X3035300Y-81076800D01*
X2986513Y-81118667D01*
X2959100Y-81178400D01*
X2902649Y-81260775D01*
X2854076Y-81280000D01*
X2788700Y-81308546D01*
X2781300Y-81330800D01*
X2740154Y-81375868D01*
X2705100Y-81381600D01*
X2637496Y-81409030D01*
X2628900Y-81432400D01*
X2581624Y-81457996D01*
X2453653Y-81475837D01*
X2265766Y-81483152D01*
X2247900Y-81483200D01*
X2055923Y-81476896D01*
X1922115Y-81459833D01*
X1867256Y-81434782D01*
X1866900Y-81432400D01*
X1824352Y-81391125D01*
X1765300Y-81381600D01*
X1682751Y-81360326D01*
X1663700Y-81330800D01*
X1620118Y-81293003D01*
X1533071Y-81280000D01*
X1412338Y-81258877D01*
X1312291Y-81183096D01*
X1211414Y-81034036D01*
X1178021Y-80972716D01*
X1126141Y-80822270D01*
X1094260Y-80621404D01*
X1081642Y-80400197D01*
X1827721Y-80400197D01*
X1900032Y-80551477D01*
X1905000Y-80557794D01*
X1992399Y-80624646D01*
X2105692Y-80664239D01*
X2209722Y-80670676D01*
X2269333Y-80638056D01*
X2273300Y-80619600D01*
X2315308Y-80576742D01*
X2363685Y-80568800D01*
X2461900Y-80530471D01*
X2527300Y-80467200D01*
X2604569Y-80388735D01*
X2657047Y-80365600D01*
X2713360Y-80325141D01*
X2719320Y-80302100D01*
X2742226Y-80194233D01*
X2786358Y-80061893D01*
X2837608Y-79940714D01*
X2881864Y-79866326D01*
X2895330Y-79857600D01*
X2918048Y-79812889D01*
X2930548Y-79702185D01*
X2932330Y-79560627D01*
X2922894Y-79423357D01*
X2902864Y-79328354D01*
X2832620Y-79257948D01*
X2721397Y-79264766D01*
X2592356Y-79347236D01*
X2589803Y-79349600D01*
X2493606Y-79423282D01*
X2426130Y-79451200D01*
X2346257Y-79489999D01*
X2233029Y-79590672D01*
X2108036Y-79729632D01*
X1992867Y-79883292D01*
X1921571Y-80002411D01*
X1834719Y-80223251D01*
X1827721Y-80400197D01*
X1081642Y-80400197D01*
X1081144Y-80391472D01*
X1085561Y-80153829D01*
X1106275Y-79929826D01*
X1142055Y-79740819D01*
X1191666Y-79608161D01*
X1253875Y-79553205D01*
X1260039Y-79552800D01*
X1307222Y-79511175D01*
X1331584Y-79457233D01*
X1387108Y-79348318D01*
X1462008Y-79246261D01*
X1535133Y-79132022D01*
X1562100Y-79037027D01*
X1598308Y-78958752D01*
X1643318Y-78943200D01*
X1727497Y-78908299D01*
X1836602Y-78821454D01*
X1866900Y-78790800D01*
X1967792Y-78694892D01*
X2045388Y-78642007D01*
X2059646Y-78638400D01*
X2120581Y-78598105D01*
X2137127Y-78567785D01*
X2172556Y-78518267D01*
X2252953Y-78458074D01*
X2394222Y-78377093D01*
X2612268Y-78265213D01*
X2615803Y-78263448D01*
X2670824Y-78227871D01*
X2704637Y-78173363D01*
X2722367Y-78077440D01*
X2729141Y-77917620D01*
X2730103Y-77762100D01*
X2725620Y-77563849D01*
X2713297Y-77411153D01*
X2695395Y-77326995D01*
X2686388Y-77317600D01*
X2652314Y-77272573D01*
X2618595Y-77159275D01*
X2607797Y-77101700D01*
X2546235Y-76710804D01*
X2499822Y-76402929D01*
X2466070Y-76161036D01*
X2442863Y-75971400D01*
X2420102Y-75820607D01*
X2393326Y-75716901D01*
X2379197Y-75692000D01*
X2351382Y-75629140D01*
X2308283Y-75469057D01*
X2249702Y-75210901D01*
X2175445Y-74853826D01*
X2117388Y-74561700D01*
X2077543Y-74358986D01*
X2033062Y-74133526D01*
X2017268Y-74053700D01*
X1994305Y-73892134D01*
X1971522Y-73651761D01*
X1949994Y-73355371D01*
X1930797Y-73025753D01*
X1915006Y-72685697D01*
X1903696Y-72357991D01*
X1897943Y-72065426D01*
X1898821Y-71830790D01*
X1905817Y-71691500D01*
X1928984Y-71542541D01*
X1960524Y-71445737D01*
X1981957Y-71424800D01*
X2008683Y-71381369D01*
X2001232Y-71271054D01*
X2000317Y-71266389D01*
X1991596Y-71163637D01*
X2024103Y-71075217D01*
X2113424Y-70968808D01*
X2171826Y-70910789D01*
X2290128Y-70802345D01*
X2380833Y-70730723D01*
X2414543Y-70713599D01*
X2471325Y-70676921D01*
X2527300Y-70612000D01*
X2565227Y-70570550D01*
X2620601Y-70542148D01*
X2711292Y-70524366D01*
X2855171Y-70514775D01*
X3070109Y-70510949D01*
X3275114Y-70510400D01*
X3561594Y-70514093D01*
G36*
X8623300Y-80543400D02*
G01*
X8597900Y-80568800D01*
X8572500Y-80543400D01*
X8597900Y-80518000D01*
X8623300Y-80543400D01*
G37*
X8623300Y-80543400D02*
X8597900Y-80568800D01*
X8572500Y-80543400D01*
X8597900Y-80518000D01*
X8623300Y-80543400D01*
G36*
X6980766Y-78909333D02*
G01*
X6973793Y-78939533D01*
X6946900Y-78943200D01*
X6905085Y-78924613D01*
X6913033Y-78909333D01*
X6973321Y-78903253D01*
X6980766Y-78909333D01*
G37*
X6980766Y-78909333D02*
X6973793Y-78939533D01*
X6946900Y-78943200D01*
X6905085Y-78924613D01*
X6913033Y-78909333D01*
X6973321Y-78903253D01*
X6980766Y-78909333D01*
G36*
X21970119Y-71208900D02*
G01*
X22053126Y-71290185D01*
X22107587Y-71323200D01*
X22187553Y-71368027D01*
X22281484Y-71485753D01*
X22376663Y-71651243D01*
X22460370Y-71839362D01*
X22519889Y-72024974D01*
X22542499Y-72182720D01*
X22527829Y-72339459D01*
X22490757Y-72489985D01*
X22441692Y-72602176D01*
X22393025Y-72644000D01*
X22366471Y-72687943D01*
X22349941Y-72783700D01*
X22325233Y-72891718D01*
X22288062Y-72940333D01*
X22246037Y-72998337D01*
X22237700Y-73054633D01*
X22217740Y-73134887D01*
X22191869Y-73152000D01*
X22145239Y-73194716D01*
X22095131Y-73298144D01*
X22092912Y-73304400D01*
X22042853Y-73409964D01*
X21994469Y-73456675D01*
X21992505Y-73456800D01*
X21942493Y-73498785D01*
X21885727Y-73600577D01*
X21882628Y-73607923D01*
X21803833Y-73757294D01*
X21722016Y-73872058D01*
X21654355Y-73992875D01*
X21633521Y-74162442D01*
X21635071Y-74227668D01*
X21649207Y-74374654D01*
X21676204Y-74430815D01*
X21704369Y-74421942D01*
X21785865Y-74406520D01*
X21818423Y-74429443D01*
X21885085Y-74434989D01*
X21977683Y-74380164D01*
X22067790Y-74290431D01*
X22126977Y-74191252D01*
X22136100Y-74144909D01*
X22162825Y-74075837D01*
X22186900Y-74066400D01*
X22226463Y-74023322D01*
X22237700Y-73951382D01*
X22254732Y-73836981D01*
X22298175Y-73681390D01*
X22356547Y-73515740D01*
X22418365Y-73371163D01*
X22472148Y-73278789D01*
X22491935Y-73262066D01*
X22534128Y-73204064D01*
X22542500Y-73147766D01*
X22564598Y-73067544D01*
X22593300Y-73050400D01*
X22634574Y-73007852D01*
X22644100Y-72948800D01*
X22675863Y-72866057D01*
X22720300Y-72847200D01*
X22787961Y-72823903D01*
X22796500Y-72804172D01*
X22827316Y-72737330D01*
X22897604Y-72645498D01*
X22974123Y-72567899D01*
X23018358Y-72542400D01*
X23040940Y-72586610D01*
X23050498Y-72693108D01*
X23050500Y-72694800D01*
X23035785Y-72801805D01*
X23000332Y-72847188D01*
X22999700Y-72847200D01*
X22964031Y-72891343D01*
X22948903Y-72997703D01*
X22948900Y-72999600D01*
X22934185Y-73106605D01*
X22898732Y-73151988D01*
X22898100Y-73152000D01*
X22857618Y-73194799D01*
X22847300Y-73259631D01*
X22831896Y-73360242D01*
X22792171Y-73512501D01*
X22737856Y-73687270D01*
X22678682Y-73855411D01*
X22624380Y-73987786D01*
X22584680Y-74055260D01*
X22580698Y-74057933D01*
X22548793Y-74116070D01*
X22542500Y-74172233D01*
X22520401Y-74252455D01*
X22491700Y-74269600D01*
X22456031Y-74313743D01*
X22440903Y-74420103D01*
X22440900Y-74422000D01*
X22426185Y-74529005D01*
X22390732Y-74574388D01*
X22390100Y-74574400D01*
X22348825Y-74616947D01*
X22339300Y-74676000D01*
X22318026Y-74758548D01*
X22288500Y-74777600D01*
X22243706Y-74818862D01*
X22237700Y-74855493D01*
X22196015Y-74963031D01*
X22091046Y-75084935D01*
X21952921Y-75195609D01*
X21811768Y-75269460D01*
X21731393Y-75285600D01*
X21623658Y-75271034D01*
X21577334Y-75235886D01*
X21577300Y-75234800D01*
X21538168Y-75186055D01*
X21522871Y-75184000D01*
X21443579Y-75151425D01*
X21401758Y-75117315D01*
X21328425Y-75018810D01*
X21245562Y-74873098D01*
X21171971Y-74717984D01*
X21126456Y-74591271D01*
X21120100Y-74551023D01*
X21103853Y-74480764D01*
X21061315Y-74491776D01*
X21001788Y-74570167D01*
X20934574Y-74702048D01*
X20868976Y-74873527D01*
X20839701Y-74969732D01*
X20780662Y-75088390D01*
X20687437Y-75205644D01*
X20614709Y-75294532D01*
X20595840Y-75352900D01*
X20598245Y-75356412D01*
X20583714Y-75381593D01*
X20535900Y-75387200D01*
X20473155Y-75400590D01*
X20474214Y-75418647D01*
X20472550Y-75473354D01*
X20411426Y-75538754D01*
X20324282Y-75584408D01*
X20285528Y-75590399D01*
X20215628Y-75616739D01*
X20205700Y-75641200D01*
X20157920Y-75665891D01*
X20026402Y-75683392D01*
X19828879Y-75691630D01*
X19770901Y-75692000D01*
X19547227Y-75686537D01*
X19409872Y-75670733D01*
X19365810Y-75645468D01*
X19367500Y-75641199D01*
X19354783Y-75598712D01*
X19312956Y-75590400D01*
X19210614Y-75548534D01*
X19102948Y-75444658D01*
X19021714Y-75311353D01*
X19009984Y-75279566D01*
X18970725Y-75200833D01*
X18922325Y-75203264D01*
X18856978Y-75292312D01*
X18783300Y-75437999D01*
X18710852Y-75577744D01*
X18649617Y-75670000D01*
X18622216Y-75692000D01*
X18587975Y-75734621D01*
X18580100Y-75793600D01*
X18560245Y-75876170D01*
X18532723Y-75895200D01*
X18481133Y-75937126D01*
X18453100Y-75996800D01*
X18382836Y-76072913D01*
X18261153Y-76099223D01*
X18125999Y-76074261D01*
X18030371Y-76013151D01*
X18004560Y-75977480D01*
X17984202Y-75920219D01*
X17968520Y-75829631D01*
X17956738Y-75693980D01*
X17948079Y-75501529D01*
X17941768Y-75240541D01*
X17937029Y-74899281D01*
X17933782Y-74552651D01*
X17929111Y-74087221D01*
X17922949Y-73713609D01*
X17914361Y-73422034D01*
X17902414Y-73202717D01*
X17886176Y-73045876D01*
X17864713Y-72941731D01*
X17837092Y-72880502D01*
X17802380Y-72852409D01*
X17771072Y-72847200D01*
X17703717Y-72890158D01*
X17621535Y-72998284D01*
X17542111Y-73140455D01*
X17483030Y-73285545D01*
X17461760Y-73394658D01*
X17444429Y-73493315D01*
X17401509Y-73640978D01*
X17377272Y-73710800D01*
X17320905Y-73895386D01*
X17268275Y-74117659D01*
X17244799Y-74244200D01*
X17222933Y-74448344D01*
X17208049Y-74724935D01*
X17200312Y-75045047D01*
X17199884Y-75379753D01*
X17206931Y-75700131D01*
X17221617Y-75977253D01*
X17234206Y-76111100D01*
X17250803Y-76275191D01*
X17246983Y-76362631D01*
X17216870Y-76397322D01*
X17162401Y-76403200D01*
X17077333Y-76423627D01*
X17056100Y-76454000D01*
X17010476Y-76483282D01*
X16894102Y-76501639D01*
X16808263Y-76504800D01*
X16689639Y-76500568D01*
X16598072Y-76480600D01*
X16531430Y-76433980D01*
X16487582Y-76349795D01*
X16464394Y-76217132D01*
X16459734Y-76025078D01*
X16471472Y-75762720D01*
X16497474Y-75419143D01*
X16527895Y-75069700D01*
X16539089Y-74857137D01*
X16530400Y-74723548D01*
X16505379Y-74674273D01*
X16467580Y-74714653D01*
X16420555Y-74850030D01*
X16409622Y-74891900D01*
X16362109Y-75068475D01*
X16312932Y-75231947D01*
X16303552Y-75260200D01*
X16251312Y-75415935D01*
X16189514Y-75604270D01*
X16127117Y-75797346D01*
X16073083Y-75967304D01*
X16036372Y-76086285D01*
X16026159Y-76122590D01*
X15984326Y-76200270D01*
X15953114Y-76238604D01*
X15897780Y-76331641D01*
X15846659Y-76467827D01*
X15843590Y-76478647D01*
X15782301Y-76617416D01*
X15686293Y-76755627D01*
X15580423Y-76863410D01*
X15489547Y-76910900D01*
X15483609Y-76911200D01*
X15432424Y-76948471D01*
X15430500Y-76962000D01*
X15387952Y-77003274D01*
X15328900Y-77012800D01*
X15246351Y-76991526D01*
X15227300Y-76962000D01*
X15184583Y-76921253D01*
X15121717Y-76911200D01*
X15029006Y-76876186D01*
X14904303Y-76786277D01*
X14820900Y-76708000D01*
X14673233Y-76568465D01*
X14576534Y-76512459D01*
X14526205Y-76538448D01*
X14516100Y-76606400D01*
X14494826Y-76688948D01*
X14465300Y-76708000D01*
X14420606Y-76749303D01*
X14414500Y-76786509D01*
X14381534Y-76876128D01*
X14302054Y-76983008D01*
X14300200Y-76984964D01*
X14165572Y-77136191D01*
X14063587Y-77269634D01*
X14011450Y-77362098D01*
X14008100Y-77378732D01*
X13961785Y-77399435D01*
X13840710Y-77414025D01*
X13681323Y-77419200D01*
X13499968Y-77415011D01*
X13395206Y-77397762D01*
X13342207Y-77360427D01*
X13322299Y-77317600D01*
X13276692Y-77235501D01*
X13242676Y-77216000D01*
X13213006Y-77170924D01*
X13196506Y-77058322D01*
X13195300Y-77012800D01*
X13181790Y-76876617D01*
X13145943Y-76811869D01*
X13136033Y-76809600D01*
X13098882Y-76791957D01*
X13105227Y-76781138D01*
X13109096Y-76720229D01*
X13088605Y-76594126D01*
X13063497Y-76489038D01*
X13032679Y-76320540D01*
X13008609Y-76088737D01*
X12994737Y-75831874D01*
X12992702Y-75704700D01*
X12989818Y-75488572D01*
X12982504Y-75316262D01*
X12971970Y-75209011D01*
X12963071Y-75184000D01*
X12882604Y-75232030D01*
X12819128Y-75366137D01*
X12779123Y-75571341D01*
X12774482Y-75619927D01*
X12745986Y-75844039D01*
X12691746Y-76147365D01*
X12615346Y-76511842D01*
X12520372Y-76919409D01*
X12500554Y-77000100D01*
X12461745Y-77089065D01*
X12427377Y-77114400D01*
X12388145Y-77146036D01*
X12388515Y-77152500D01*
X12380997Y-77306754D01*
X12324524Y-77458157D01*
X12236830Y-77574192D01*
X12135648Y-77622343D01*
X12132243Y-77622400D01*
X12095622Y-77652852D01*
X12103100Y-77673200D01*
X12091583Y-77716689D01*
X12055298Y-77724000D01*
X11985792Y-77750522D01*
X11976100Y-77774800D01*
X11931400Y-77808200D01*
X11821309Y-77825094D01*
X11795937Y-77825600D01*
X11656814Y-77806988D01*
X11566782Y-77732687D01*
X11529237Y-77673521D01*
X11447528Y-77554898D01*
X11392111Y-77528185D01*
X11367384Y-77594765D01*
X11366500Y-77622400D01*
X11345226Y-77704948D01*
X11315700Y-77724000D01*
X11274425Y-77766547D01*
X11264900Y-77825600D01*
X11233136Y-77908342D01*
X11188700Y-77927200D01*
X11121096Y-77954630D01*
X11112500Y-77978000D01*
X11065845Y-78004546D01*
X10942256Y-78022720D01*
X10782300Y-78028800D01*
X10614145Y-78022503D01*
X10495215Y-78006027D01*
X10452100Y-77983924D01*
X10410923Y-77931587D01*
X10363200Y-77907692D01*
X10251227Y-77864384D01*
X10210800Y-77846733D01*
X10158003Y-77859634D01*
X10147300Y-77911663D01*
X10118950Y-78024510D01*
X10068219Y-78119096D01*
X10014053Y-78178833D01*
X9938369Y-78213018D01*
X9814245Y-78228468D01*
X9622234Y-78232000D01*
X9422266Y-78227572D01*
X9297639Y-78210283D01*
X9222324Y-78174126D01*
X9182100Y-78130400D01*
X9101387Y-78051708D01*
X9043885Y-78028800D01*
X8991154Y-78071198D01*
X8978900Y-78130400D01*
X8960829Y-78212995D01*
X8935815Y-78232000D01*
X8890690Y-78274043D01*
X8827651Y-78379933D01*
X8801100Y-78435200D01*
X8709148Y-78585960D01*
X8614623Y-78638376D01*
X8612586Y-78638400D01*
X8547337Y-78659258D01*
X8547100Y-78689200D01*
X8522867Y-78721361D01*
X8412017Y-78738291D01*
X8343900Y-78740000D01*
X8201279Y-78730448D01*
X8139330Y-78704179D01*
X8140700Y-78689200D01*
X8133862Y-78642515D01*
X8113279Y-78638400D01*
X8044057Y-78604020D01*
X7943624Y-78518312D01*
X7912100Y-78486000D01*
X7800815Y-78388980D01*
X7700515Y-78336590D01*
X7680051Y-78333600D01*
X7619252Y-78347023D01*
X7620846Y-78364080D01*
X7609432Y-78415382D01*
X7541020Y-78502233D01*
X7440910Y-78600607D01*
X7334404Y-78686474D01*
X7246804Y-78735809D01*
X7224995Y-78740000D01*
X7171114Y-78764207D01*
X7175500Y-78790800D01*
X7144144Y-78816340D01*
X7017565Y-78833352D01*
X6801837Y-78841155D01*
X6721298Y-78841600D01*
X6492665Y-78836562D01*
X6328316Y-78822528D01*
X6243731Y-78801119D01*
X6235700Y-78790800D01*
X6194554Y-78745731D01*
X6159500Y-78740000D01*
X6091896Y-78712569D01*
X6083300Y-78689200D01*
X6043050Y-78642245D01*
X6018314Y-78638400D01*
X5942122Y-78600562D01*
X5878614Y-78532061D01*
X5784365Y-78406596D01*
X5713616Y-78319493D01*
X5637163Y-78199609D01*
X5604157Y-78108332D01*
X5548259Y-77791542D01*
X5511484Y-77549404D01*
X5511087Y-77545567D01*
X6286500Y-77545567D01*
X6307688Y-77795342D01*
X6365285Y-78018760D01*
X6450335Y-78195776D01*
X6553886Y-78306342D01*
X6638471Y-78333600D01*
X6690698Y-78370122D01*
X6692900Y-78384400D01*
X6732305Y-78427313D01*
X6823439Y-78430997D01*
X6925681Y-78398577D01*
X6975928Y-78362628D01*
X7036370Y-78278921D01*
X7048500Y-78238152D01*
X7086755Y-78169388D01*
X7117858Y-78145624D01*
X7168293Y-78093266D01*
X7207437Y-77995202D01*
X7236646Y-77840606D01*
X7257277Y-77618653D01*
X7270688Y-77318520D01*
X7278234Y-76929380D01*
X7278966Y-76860400D01*
X7283899Y-76564636D01*
X7292199Y-76300069D01*
X7302976Y-76085195D01*
X7315345Y-75938512D01*
X7325871Y-75882500D01*
X7334098Y-75812978D01*
X7261129Y-75793616D01*
X7257135Y-75793600D01*
X7171679Y-75813901D01*
X7150100Y-75844400D01*
X7111214Y-75893458D01*
X7097606Y-75895200D01*
X7006715Y-75936506D01*
X6889644Y-76043694D01*
X6765441Y-76191666D01*
X6653151Y-76355326D01*
X6571822Y-76509576D01*
X6540500Y-76629277D01*
X6516860Y-76698527D01*
X6495547Y-76708000D01*
X6446107Y-76754520D01*
X6394568Y-76877635D01*
X6347086Y-77052675D01*
X6309818Y-77254972D01*
X6288921Y-77459855D01*
X6286500Y-77545567D01*
X5511087Y-77545567D01*
X5491568Y-77357247D01*
X5486246Y-77190399D01*
X5493256Y-77024188D01*
X5498558Y-76957498D01*
X5529186Y-76726425D01*
X5576149Y-76513435D01*
X5632587Y-76340467D01*
X5691640Y-76229460D01*
X5735415Y-76200000D01*
X5773322Y-76158577D01*
X5778500Y-76121277D01*
X5805704Y-76010469D01*
X5872659Y-75862768D01*
X5944847Y-75742800D01*
X7404100Y-75742800D01*
X7445245Y-75787868D01*
X7480300Y-75793600D01*
X7547903Y-75766169D01*
X7556500Y-75742800D01*
X7515354Y-75697731D01*
X7480300Y-75692000D01*
X7412696Y-75719430D01*
X7404100Y-75742800D01*
X5944847Y-75742800D01*
X5957380Y-75721972D01*
X6013687Y-75652755D01*
X6072365Y-75572206D01*
X6083300Y-75535971D01*
X6123620Y-75492349D01*
X6148285Y-75488800D01*
X6225657Y-75451284D01*
X6286500Y-75387199D01*
X6367212Y-75308508D01*
X6424714Y-75285600D01*
X6484780Y-75254136D01*
X6489700Y-75234800D01*
X6532247Y-75193525D01*
X6591300Y-75184000D01*
X6673848Y-75162726D01*
X6692900Y-75133200D01*
X6736463Y-75095336D01*
X6822898Y-75082400D01*
X6909328Y-75066274D01*
X6921500Y-75031600D01*
X6939485Y-74993930D01*
X7020101Y-74980800D01*
X7116995Y-74963776D01*
X7150100Y-74930000D01*
X7193129Y-74891552D01*
X7299435Y-74881063D01*
X7434847Y-74897747D01*
X7562359Y-74939471D01*
X7669591Y-75038395D01*
X7754668Y-75206397D01*
X7803764Y-75411296D01*
X7810500Y-75517028D01*
X7847314Y-75664527D01*
X7940883Y-75766167D01*
X8035471Y-75793600D01*
X8063811Y-75794279D01*
X8085301Y-75804458D01*
X8100776Y-75836345D01*
X8111075Y-75902150D01*
X8117033Y-76014083D01*
X8119488Y-76184351D01*
X8119276Y-76425166D01*
X8117234Y-76748736D01*
X8115655Y-76963585D01*
X8114207Y-77276535D01*
X8116288Y-77504528D01*
X8123600Y-77664192D01*
X8137847Y-77772154D01*
X8160730Y-77845041D01*
X8193954Y-77899481D01*
X8214001Y-77923858D01*
X8287451Y-78021041D01*
X8318494Y-78086928D01*
X8318500Y-78087372D01*
X8349285Y-78131537D01*
X8415815Y-78119368D01*
X8479346Y-78063628D01*
X8496300Y-78028800D01*
X8541076Y-77946725D01*
X8573965Y-77927200D01*
X8617825Y-77896095D01*
X8652881Y-77798705D01*
X8679645Y-77628915D01*
X8698629Y-77380611D01*
X8710344Y-77047679D01*
X8715303Y-76624004D01*
X8714902Y-76244104D01*
X8708273Y-74942008D01*
X8833696Y-74821704D01*
X9007348Y-74681897D01*
X9171892Y-74596028D01*
X9310487Y-74567777D01*
X9406290Y-74600827D01*
X9442165Y-74688700D01*
X9445077Y-74918752D01*
X9434064Y-75173895D01*
X9411961Y-75413171D01*
X9381603Y-75595620D01*
X9378566Y-75607838D01*
X9360812Y-75727569D01*
X9346068Y-75925203D01*
X9335514Y-76177061D01*
X9330330Y-76459463D01*
X9330038Y-76581439D01*
X9333088Y-76902700D01*
X9341451Y-77140502D01*
X9356799Y-77312920D01*
X9380804Y-77438028D01*
X9415138Y-77533903D01*
X9418880Y-77541901D01*
X9509626Y-77684556D01*
X9596947Y-77730962D01*
X9678947Y-77686459D01*
X9753727Y-77556387D01*
X9819390Y-77346086D01*
X9874038Y-77060897D01*
X9915774Y-76706157D01*
X9942700Y-76287208D01*
X9950196Y-76046824D01*
X9959181Y-75757804D01*
X9972915Y-75489968D01*
X9989810Y-75266640D01*
X10008283Y-75111146D01*
X10016639Y-75069700D01*
X10058272Y-74945282D01*
X10118529Y-74891569D01*
X10234074Y-74879281D01*
X10255161Y-74879200D01*
X10384564Y-74863747D01*
X10459690Y-74825278D01*
X10464648Y-74816153D01*
X10500299Y-74785300D01*
X10565786Y-74833229D01*
X10631773Y-74958494D01*
X10672041Y-75167444D01*
X10685409Y-75445171D01*
X10670698Y-75776768D01*
X10653863Y-75946000D01*
X10605858Y-76383109D01*
X10574762Y-76729212D01*
X10560898Y-76993540D01*
X10564585Y-77185323D01*
X10586146Y-77313791D01*
X10625901Y-77388176D01*
X10684172Y-77417707D01*
X10705109Y-77419200D01*
X10762311Y-77406988D01*
X10808455Y-77364088D01*
X10844680Y-77281098D01*
X10872127Y-77148622D01*
X10891934Y-76957257D01*
X10905241Y-76697607D01*
X10913188Y-76360270D01*
X10916914Y-75935848D01*
X10917572Y-75666600D01*
X10918768Y-75279737D01*
X10922332Y-74980831D01*
X10929461Y-74756245D01*
X10941352Y-74592341D01*
X10959199Y-74475483D01*
X10984201Y-74392034D01*
X11017552Y-74328357D01*
X11037456Y-74300039D01*
X11116178Y-74217970D01*
X11215358Y-74178750D01*
X11373436Y-74168053D01*
X11391737Y-74168000D01*
X11562417Y-74178431D01*
X11662408Y-74215793D01*
X11708159Y-74266155D01*
X11742807Y-74375139D01*
X11766552Y-74552867D01*
X11778690Y-74766996D01*
X11778515Y-74985182D01*
X11765321Y-75175082D01*
X11738402Y-75304353D01*
X11731161Y-75320360D01*
X11705934Y-75420090D01*
X11687467Y-75597333D01*
X11675775Y-75828225D01*
X11670869Y-76088905D01*
X11672762Y-76355508D01*
X11681469Y-76604172D01*
X11697002Y-76811034D01*
X11719373Y-76952230D01*
X11730254Y-76985009D01*
X11803797Y-77095929D01*
X11876767Y-77113372D01*
X11946869Y-77045446D01*
X12011810Y-76900260D01*
X12069295Y-76685923D01*
X12117030Y-76410544D01*
X12152720Y-76082230D01*
X12174073Y-75709090D01*
X12179300Y-75397895D01*
X12177754Y-75089579D01*
X12171775Y-74863486D01*
X12159349Y-74700270D01*
X12138460Y-74580583D01*
X12107095Y-74485077D01*
X12077700Y-74422000D01*
X12014676Y-74281484D01*
X11979058Y-74169140D01*
X11976100Y-74144623D01*
X11952367Y-74075687D01*
X11931222Y-74066400D01*
X11885980Y-74021653D01*
X11852167Y-73914000D01*
X12280900Y-73914000D01*
X12296866Y-74025552D01*
X12356273Y-74064827D01*
X12382500Y-74066400D01*
X12464878Y-74036396D01*
X12484100Y-73994354D01*
X12458411Y-73857287D01*
X12393357Y-73773563D01*
X12351664Y-73761600D01*
X12297008Y-73807373D01*
X12280900Y-73914000D01*
X11852167Y-73914000D01*
X11843026Y-73884901D01*
X11801376Y-73652377D01*
X11778811Y-73483470D01*
X11761048Y-73311909D01*
X11767522Y-73203607D01*
X11808504Y-73121189D01*
X11894264Y-73027277D01*
X11907943Y-73013570D01*
X12074411Y-72885751D01*
X12228406Y-72847200D01*
X12336141Y-72861765D01*
X12382465Y-72896913D01*
X12382500Y-72898000D01*
X12423396Y-72943634D01*
X12455276Y-72948800D01*
X12527710Y-72991107D01*
X12560300Y-73050400D01*
X12605907Y-73132498D01*
X12639923Y-73152000D01*
X12673192Y-73196158D01*
X12687296Y-73302548D01*
X12687300Y-73304400D01*
X12702014Y-73411405D01*
X12737467Y-73456788D01*
X12738100Y-73456800D01*
X12776749Y-73500143D01*
X12788900Y-73579645D01*
X12807423Y-73738912D01*
X12856239Y-73840252D01*
X12902676Y-73863200D01*
X12971835Y-73826544D01*
X13058586Y-73742566D01*
X13126915Y-73650252D01*
X13144500Y-73601427D01*
X13184177Y-73560535D01*
X13202041Y-73558400D01*
X13274962Y-73523313D01*
X13352516Y-73451246D01*
X13426488Y-73380489D01*
X13482327Y-73385780D01*
X13522262Y-73420905D01*
X13546126Y-73458359D01*
X13564510Y-73524846D01*
X13578023Y-73631970D01*
X13587274Y-73791341D01*
X13592874Y-74014566D01*
X13595433Y-74313251D01*
X13595560Y-74699005D01*
X13595282Y-74810758D01*
X13595397Y-75172482D01*
X13597695Y-75506019D01*
X13601899Y-75796212D01*
X13607729Y-76027904D01*
X13614906Y-76185939D01*
X13621800Y-76250800D01*
X13653738Y-76395420D01*
X13683358Y-76542900D01*
X13721321Y-76660217D01*
X13791265Y-76704413D01*
X13839582Y-76708000D01*
X13964314Y-76681962D01*
X14031608Y-76640948D01*
X14076562Y-76547476D01*
X14115686Y-76378833D01*
X14146663Y-76161387D01*
X14167175Y-75921506D01*
X14174907Y-75685558D01*
X14167542Y-75479912D01*
X14145789Y-75341422D01*
X14126461Y-75221816D01*
X14112444Y-75038851D01*
X14109472Y-74962670D01*
X14674807Y-74962670D01*
X14697145Y-75194409D01*
X14697538Y-75196700D01*
X14733128Y-75337939D01*
X14776352Y-75379106D01*
X14831178Y-75321659D01*
X14863545Y-75257809D01*
X14907870Y-75135251D01*
X14922500Y-75054609D01*
X14948834Y-74988527D01*
X14969876Y-74980800D01*
X15016386Y-74948336D01*
X15058161Y-74841368D01*
X15095358Y-74676000D01*
X15127546Y-74537556D01*
X15171733Y-74377571D01*
X15173553Y-74371535D01*
X15209154Y-74199399D01*
X15226863Y-74006800D01*
X15227300Y-73977835D01*
X15219831Y-73839749D01*
X15189200Y-73776427D01*
X15125700Y-73761600D01*
X15043151Y-73782873D01*
X15024100Y-73812400D01*
X14983417Y-73858494D01*
X14954063Y-73863200D01*
X14877787Y-73910607D01*
X14808214Y-74039336D01*
X14749236Y-74229146D01*
X14704746Y-74459798D01*
X14678639Y-74711053D01*
X14674807Y-74962670D01*
X14109472Y-74962670D01*
X14103666Y-74813849D01*
X14100058Y-74568128D01*
X14101550Y-74323010D01*
X14108070Y-74099815D01*
X14119550Y-73919863D01*
X14135919Y-73804475D01*
X14150956Y-73773247D01*
X14197793Y-73712942D01*
X14211300Y-73632756D01*
X14236710Y-73471007D01*
X14301339Y-73336553D01*
X14387782Y-73260618D01*
X14422654Y-73253600D01*
X14500668Y-73230677D01*
X14516100Y-73202800D01*
X14557449Y-73158217D01*
X14595298Y-73152000D01*
X14647878Y-73127372D01*
X14643100Y-73101200D01*
X14658654Y-73061215D01*
X14716301Y-73050400D01*
X14800464Y-73029673D01*
X14820900Y-72999600D01*
X14866304Y-72969304D01*
X14981182Y-72951130D01*
X15049500Y-72948800D01*
X15185831Y-72958889D01*
X15267610Y-72984418D01*
X15278100Y-72999600D01*
X15321466Y-73038167D01*
X15401676Y-73050400D01*
X15517917Y-73089452D01*
X15557500Y-73152000D01*
X15610050Y-73234285D01*
X15653415Y-73253600D01*
X15688652Y-73299374D01*
X15727858Y-73417457D01*
X15765646Y-73578990D01*
X15796628Y-73755114D01*
X15815415Y-73916971D01*
X15816619Y-74035699D01*
X15806640Y-74074262D01*
X15778791Y-74156065D01*
X15754239Y-74284242D01*
X15754078Y-74285413D01*
X15721972Y-74463514D01*
X15678012Y-74638248D01*
X15630671Y-74782011D01*
X15588422Y-74867198D01*
X15571809Y-74879200D01*
X15539520Y-74921839D01*
X15532100Y-74980800D01*
X15513461Y-75063387D01*
X15487650Y-75082400D01*
X15447263Y-75126166D01*
X15413944Y-75228676D01*
X15365478Y-75364652D01*
X15305994Y-75453648D01*
X15241486Y-75552402D01*
X15227300Y-75612171D01*
X15207440Y-75682495D01*
X15189200Y-75692582D01*
X15135018Y-75737275D01*
X15075420Y-75846221D01*
X15024041Y-75983876D01*
X14994515Y-76114695D01*
X14996824Y-76194091D01*
X15066937Y-76283964D01*
X15181894Y-76298937D01*
X15320623Y-76241425D01*
X15435518Y-76143827D01*
X15526764Y-76037114D01*
X15578496Y-75959098D01*
X15582900Y-75944256D01*
X15614942Y-75877194D01*
X15653213Y-75832144D01*
X15744142Y-75706866D01*
X15843971Y-75515251D01*
X15937282Y-75289607D01*
X15992844Y-75120500D01*
X16039146Y-74981642D01*
X16080437Y-74894413D01*
X16096875Y-74879200D01*
X16123860Y-74834088D01*
X16150912Y-74720600D01*
X16159631Y-74663300D01*
X16200972Y-74376224D01*
X16237884Y-74185302D01*
X16271552Y-74085242D01*
X16292977Y-74066400D01*
X16315828Y-74019906D01*
X16340493Y-73897210D01*
X16362087Y-73723488D01*
X16364447Y-73698100D01*
X16395716Y-73346241D01*
X16421728Y-73082687D01*
X16448079Y-72894723D01*
X16480367Y-72769635D01*
X16524187Y-72694710D01*
X16585138Y-72657233D01*
X16668816Y-72644489D01*
X16780817Y-72643766D01*
X16828467Y-72644000D01*
X17157700Y-72644000D01*
X17157700Y-72796830D01*
X17164395Y-72899197D01*
X17198345Y-72918462D01*
X17259300Y-72886210D01*
X17339167Y-72810391D01*
X17360900Y-72755151D01*
X17403131Y-72651504D01*
X17500413Y-72567479D01*
X17585871Y-72542399D01*
X17655771Y-72516060D01*
X17665700Y-72491600D01*
X17706189Y-72445832D01*
X17804031Y-72436484D01*
X17923781Y-72458601D01*
X18029997Y-72507228D01*
X18073585Y-72548624D01*
X18157250Y-72659543D01*
X18211800Y-72722795D01*
X18254837Y-72816083D01*
X18275076Y-72955095D01*
X18275300Y-72970571D01*
X18287821Y-73089525D01*
X18318689Y-73150060D01*
X18326100Y-73152000D01*
X18345913Y-73201533D01*
X18361209Y-73345233D01*
X18371553Y-73575747D01*
X18376514Y-73885724D01*
X18376900Y-74015600D01*
X18379813Y-74352432D01*
X18388266Y-74612453D01*
X18401826Y-74788311D01*
X18420060Y-74872654D01*
X18427700Y-74879200D01*
X18463368Y-74923343D01*
X18478496Y-75029703D01*
X18478500Y-75031600D01*
X18493214Y-75138605D01*
X18528667Y-75183988D01*
X18529300Y-75184000D01*
X18570574Y-75141452D01*
X18580100Y-75082400D01*
X18597723Y-74999798D01*
X18622110Y-74980800D01*
X18649877Y-74934180D01*
X18682239Y-74810356D01*
X18715423Y-74633375D01*
X18745659Y-74427289D01*
X18769175Y-74216146D01*
X18782200Y-74023996D01*
X18783635Y-73950764D01*
X18791885Y-73781119D01*
X18813952Y-73585267D01*
X18845195Y-73388739D01*
X18880974Y-73217066D01*
X18916648Y-73095778D01*
X18947285Y-73050399D01*
X18974830Y-73006211D01*
X18986497Y-72899758D01*
X18986500Y-72898000D01*
X19001214Y-72790994D01*
X19036667Y-72745611D01*
X19037300Y-72745600D01*
X19078574Y-72703052D01*
X19088100Y-72644000D01*
X19109373Y-72561451D01*
X19138900Y-72542400D01*
X19181256Y-72500214D01*
X19189700Y-72448572D01*
X19222191Y-72342504D01*
X19299091Y-72230430D01*
X19389537Y-72151366D01*
X19436958Y-72136000D01*
X19491584Y-72101130D01*
X19494500Y-72085200D01*
X19537047Y-72043925D01*
X19596100Y-72034400D01*
X19678648Y-72013126D01*
X19697700Y-71983600D01*
X19743642Y-71955834D01*
X19862203Y-71937382D01*
X19978370Y-71932800D01*
X20139539Y-71936066D01*
X20226896Y-71954934D01*
X20268209Y-72003002D01*
X20289520Y-72085200D01*
X20322147Y-72191900D01*
X20358506Y-72237574D01*
X20359235Y-72237600D01*
X20387336Y-72283426D01*
X20422342Y-72403174D01*
X20454485Y-72559261D01*
X20488106Y-72754723D01*
X20503929Y-72870690D01*
X20500881Y-72927879D01*
X20477887Y-72947010D01*
X20434300Y-72948800D01*
X20366696Y-72976230D01*
X20358100Y-72999600D01*
X20331298Y-73049829D01*
X20264666Y-73034600D01*
X20178858Y-72970086D01*
X20094532Y-72872460D01*
X20032344Y-72757896D01*
X20025984Y-72739566D01*
X19954045Y-72660352D01*
X19882199Y-72644000D01*
X19793678Y-72673296D01*
X19710971Y-72773124D01*
X19657022Y-72873958D01*
X19591361Y-73025551D01*
X19550791Y-73150828D01*
X19544535Y-73191458D01*
X19527369Y-73293230D01*
X19485572Y-73438728D01*
X19470564Y-73482200D01*
X19429985Y-73647848D01*
X19404429Y-73859623D01*
X19393932Y-74090142D01*
X19398528Y-74312025D01*
X19418252Y-74497892D01*
X19453138Y-74620360D01*
X19469100Y-74643342D01*
X19531663Y-74730921D01*
X19545300Y-74777600D01*
X19591216Y-74881266D01*
X19711390Y-74954449D01*
X19871871Y-74980800D01*
X19990825Y-74968278D01*
X20051360Y-74937410D01*
X20053300Y-74930000D01*
X20094445Y-74884931D01*
X20129500Y-74879200D01*
X20197116Y-74852667D01*
X20205700Y-74830093D01*
X20238943Y-74768014D01*
X20323371Y-74665924D01*
X20378984Y-74607701D01*
X20505197Y-74470151D01*
X20595055Y-74336058D01*
X20656131Y-74182517D01*
X20696000Y-73986619D01*
X20722233Y-73725459D01*
X20734299Y-73533000D01*
X20752693Y-73246726D01*
X20764738Y-73094454D01*
X21322842Y-73094454D01*
X21353456Y-73209260D01*
X21422789Y-73253575D01*
X21424900Y-73253600D01*
X21507471Y-73233830D01*
X21526500Y-73206428D01*
X21558785Y-73134516D01*
X21596813Y-73088944D01*
X21698606Y-72949793D01*
X21798374Y-72754156D01*
X21876789Y-72545660D01*
X21914146Y-72372635D01*
X21904944Y-72199023D01*
X21849554Y-72091712D01*
X21758225Y-72063473D01*
X21688197Y-72091182D01*
X21585522Y-72191730D01*
X21493273Y-72346702D01*
X21416164Y-72535281D01*
X21358912Y-72736645D01*
X21326233Y-72929976D01*
X21322842Y-73094454D01*
X20764738Y-73094454D01*
X20775940Y-72952844D01*
X20800676Y-72691225D01*
X20817889Y-72542400D01*
X20842646Y-72330717D01*
X20860245Y-72136335D01*
X20867016Y-72000040D01*
X20867009Y-71996300D01*
X20885351Y-71870224D01*
X20942330Y-71831200D01*
X21005153Y-71789217D01*
X21018500Y-71734972D01*
X21051673Y-71641902D01*
X21132884Y-71522859D01*
X21234664Y-71410103D01*
X21329548Y-71335895D01*
X21369081Y-71323200D01*
X21422389Y-71287434D01*
X21424900Y-71272400D01*
X21469904Y-71240313D01*
X21582063Y-71222735D01*
X21623866Y-71221600D01*
X21760372Y-71206581D01*
X21839544Y-71168388D01*
X21845627Y-71158100D01*
X21887823Y-71138282D01*
X21970119Y-71208900D01*
G37*
X21970119Y-71208900D02*
X22053126Y-71290185D01*
X22107587Y-71323200D01*
X22187553Y-71368027D01*
X22281484Y-71485753D01*
X22376663Y-71651243D01*
X22460370Y-71839362D01*
X22519889Y-72024974D01*
X22542499Y-72182720D01*
X22527829Y-72339459D01*
X22490757Y-72489985D01*
X22441692Y-72602176D01*
X22393025Y-72644000D01*
X22366471Y-72687943D01*
X22349941Y-72783700D01*
X22325233Y-72891718D01*
X22288062Y-72940333D01*
X22246037Y-72998337D01*
X22237700Y-73054633D01*
X22217740Y-73134887D01*
X22191869Y-73152000D01*
X22145239Y-73194716D01*
X22095131Y-73298144D01*
X22092912Y-73304400D01*
X22042853Y-73409964D01*
X21994469Y-73456675D01*
X21992505Y-73456800D01*
X21942493Y-73498785D01*
X21885727Y-73600577D01*
X21882628Y-73607923D01*
X21803833Y-73757294D01*
X21722016Y-73872058D01*
X21654355Y-73992875D01*
X21633521Y-74162442D01*
X21635071Y-74227668D01*
X21649207Y-74374654D01*
X21676204Y-74430815D01*
X21704369Y-74421942D01*
X21785865Y-74406520D01*
X21818423Y-74429443D01*
X21885085Y-74434989D01*
X21977683Y-74380164D01*
X22067790Y-74290431D01*
X22126977Y-74191252D01*
X22136100Y-74144909D01*
X22162825Y-74075837D01*
X22186900Y-74066400D01*
X22226463Y-74023322D01*
X22237700Y-73951382D01*
X22254732Y-73836981D01*
X22298175Y-73681390D01*
X22356547Y-73515740D01*
X22418365Y-73371163D01*
X22472148Y-73278789D01*
X22491935Y-73262066D01*
X22534128Y-73204064D01*
X22542500Y-73147766D01*
X22564598Y-73067544D01*
X22593300Y-73050400D01*
X22634574Y-73007852D01*
X22644100Y-72948800D01*
X22675863Y-72866057D01*
X22720300Y-72847200D01*
X22787961Y-72823903D01*
X22796500Y-72804172D01*
X22827316Y-72737330D01*
X22897604Y-72645498D01*
X22974123Y-72567899D01*
X23018358Y-72542400D01*
X23040940Y-72586610D01*
X23050498Y-72693108D01*
X23050500Y-72694800D01*
X23035785Y-72801805D01*
X23000332Y-72847188D01*
X22999700Y-72847200D01*
X22964031Y-72891343D01*
X22948903Y-72997703D01*
X22948900Y-72999600D01*
X22934185Y-73106605D01*
X22898732Y-73151988D01*
X22898100Y-73152000D01*
X22857618Y-73194799D01*
X22847300Y-73259631D01*
X22831896Y-73360242D01*
X22792171Y-73512501D01*
X22737856Y-73687270D01*
X22678682Y-73855411D01*
X22624380Y-73987786D01*
X22584680Y-74055260D01*
X22580698Y-74057933D01*
X22548793Y-74116070D01*
X22542500Y-74172233D01*
X22520401Y-74252455D01*
X22491700Y-74269600D01*
X22456031Y-74313743D01*
X22440903Y-74420103D01*
X22440900Y-74422000D01*
X22426185Y-74529005D01*
X22390732Y-74574388D01*
X22390100Y-74574400D01*
X22348825Y-74616947D01*
X22339300Y-74676000D01*
X22318026Y-74758548D01*
X22288500Y-74777600D01*
X22243706Y-74818862D01*
X22237700Y-74855493D01*
X22196015Y-74963031D01*
X22091046Y-75084935D01*
X21952921Y-75195609D01*
X21811768Y-75269460D01*
X21731393Y-75285600D01*
X21623658Y-75271034D01*
X21577334Y-75235886D01*
X21577300Y-75234800D01*
X21538168Y-75186055D01*
X21522871Y-75184000D01*
X21443579Y-75151425D01*
X21401758Y-75117315D01*
X21328425Y-75018810D01*
X21245562Y-74873098D01*
X21171971Y-74717984D01*
X21126456Y-74591271D01*
X21120100Y-74551023D01*
X21103853Y-74480764D01*
X21061315Y-74491776D01*
X21001788Y-74570167D01*
X20934574Y-74702048D01*
X20868976Y-74873527D01*
X20839701Y-74969732D01*
X20780662Y-75088390D01*
X20687437Y-75205644D01*
X20614709Y-75294532D01*
X20595840Y-75352900D01*
X20598245Y-75356412D01*
X20583714Y-75381593D01*
X20535900Y-75387200D01*
X20473155Y-75400590D01*
X20474214Y-75418647D01*
X20472550Y-75473354D01*
X20411426Y-75538754D01*
X20324282Y-75584408D01*
X20285528Y-75590399D01*
X20215628Y-75616739D01*
X20205700Y-75641200D01*
X20157920Y-75665891D01*
X20026402Y-75683392D01*
X19828879Y-75691630D01*
X19770901Y-75692000D01*
X19547227Y-75686537D01*
X19409872Y-75670733D01*
X19365810Y-75645468D01*
X19367500Y-75641199D01*
X19354783Y-75598712D01*
X19312956Y-75590400D01*
X19210614Y-75548534D01*
X19102948Y-75444658D01*
X19021714Y-75311353D01*
X19009984Y-75279566D01*
X18970725Y-75200833D01*
X18922325Y-75203264D01*
X18856978Y-75292312D01*
X18783300Y-75437999D01*
X18710852Y-75577744D01*
X18649617Y-75670000D01*
X18622216Y-75692000D01*
X18587975Y-75734621D01*
X18580100Y-75793600D01*
X18560245Y-75876170D01*
X18532723Y-75895200D01*
X18481133Y-75937126D01*
X18453100Y-75996800D01*
X18382836Y-76072913D01*
X18261153Y-76099223D01*
X18125999Y-76074261D01*
X18030371Y-76013151D01*
X18004560Y-75977480D01*
X17984202Y-75920219D01*
X17968520Y-75829631D01*
X17956738Y-75693980D01*
X17948079Y-75501529D01*
X17941768Y-75240541D01*
X17937029Y-74899281D01*
X17933782Y-74552651D01*
X17929111Y-74087221D01*
X17922949Y-73713609D01*
X17914361Y-73422034D01*
X17902414Y-73202717D01*
X17886176Y-73045876D01*
X17864713Y-72941731D01*
X17837092Y-72880502D01*
X17802380Y-72852409D01*
X17771072Y-72847200D01*
X17703717Y-72890158D01*
X17621535Y-72998284D01*
X17542111Y-73140455D01*
X17483030Y-73285545D01*
X17461760Y-73394658D01*
X17444429Y-73493315D01*
X17401509Y-73640978D01*
X17377272Y-73710800D01*
X17320905Y-73895386D01*
X17268275Y-74117659D01*
X17244799Y-74244200D01*
X17222933Y-74448344D01*
X17208049Y-74724935D01*
X17200312Y-75045047D01*
X17199884Y-75379753D01*
X17206931Y-75700131D01*
X17221617Y-75977253D01*
X17234206Y-76111100D01*
X17250803Y-76275191D01*
X17246983Y-76362631D01*
X17216870Y-76397322D01*
X17162401Y-76403200D01*
X17077333Y-76423627D01*
X17056100Y-76454000D01*
X17010476Y-76483282D01*
X16894102Y-76501639D01*
X16808263Y-76504800D01*
X16689639Y-76500568D01*
X16598072Y-76480600D01*
X16531430Y-76433980D01*
X16487582Y-76349795D01*
X16464394Y-76217132D01*
X16459734Y-76025078D01*
X16471472Y-75762720D01*
X16497474Y-75419143D01*
X16527895Y-75069700D01*
X16539089Y-74857137D01*
X16530400Y-74723548D01*
X16505379Y-74674273D01*
X16467580Y-74714653D01*
X16420555Y-74850030D01*
X16409622Y-74891900D01*
X16362109Y-75068475D01*
X16312932Y-75231947D01*
X16303552Y-75260200D01*
X16251312Y-75415935D01*
X16189514Y-75604270D01*
X16127117Y-75797346D01*
X16073083Y-75967304D01*
X16036372Y-76086285D01*
X16026159Y-76122590D01*
X15984326Y-76200270D01*
X15953114Y-76238604D01*
X15897780Y-76331641D01*
X15846659Y-76467827D01*
X15843590Y-76478647D01*
X15782301Y-76617416D01*
X15686293Y-76755627D01*
X15580423Y-76863410D01*
X15489547Y-76910900D01*
X15483609Y-76911200D01*
X15432424Y-76948471D01*
X15430500Y-76962000D01*
X15387952Y-77003274D01*
X15328900Y-77012800D01*
X15246351Y-76991526D01*
X15227300Y-76962000D01*
X15184583Y-76921253D01*
X15121717Y-76911200D01*
X15029006Y-76876186D01*
X14904303Y-76786277D01*
X14820900Y-76708000D01*
X14673233Y-76568465D01*
X14576534Y-76512459D01*
X14526205Y-76538448D01*
X14516100Y-76606400D01*
X14494826Y-76688948D01*
X14465300Y-76708000D01*
X14420606Y-76749303D01*
X14414500Y-76786509D01*
X14381534Y-76876128D01*
X14302054Y-76983008D01*
X14300200Y-76984964D01*
X14165572Y-77136191D01*
X14063587Y-77269634D01*
X14011450Y-77362098D01*
X14008100Y-77378732D01*
X13961785Y-77399435D01*
X13840710Y-77414025D01*
X13681323Y-77419200D01*
X13499968Y-77415011D01*
X13395206Y-77397762D01*
X13342207Y-77360427D01*
X13322299Y-77317600D01*
X13276692Y-77235501D01*
X13242676Y-77216000D01*
X13213006Y-77170924D01*
X13196506Y-77058322D01*
X13195300Y-77012800D01*
X13181790Y-76876617D01*
X13145943Y-76811869D01*
X13136033Y-76809600D01*
X13098882Y-76791957D01*
X13105227Y-76781138D01*
X13109096Y-76720229D01*
X13088605Y-76594126D01*
X13063497Y-76489038D01*
X13032679Y-76320540D01*
X13008609Y-76088737D01*
X12994737Y-75831874D01*
X12992702Y-75704700D01*
X12989818Y-75488572D01*
X12982504Y-75316262D01*
X12971970Y-75209011D01*
X12963071Y-75184000D01*
X12882604Y-75232030D01*
X12819128Y-75366137D01*
X12779123Y-75571341D01*
X12774482Y-75619927D01*
X12745986Y-75844039D01*
X12691746Y-76147365D01*
X12615346Y-76511842D01*
X12520372Y-76919409D01*
X12500554Y-77000100D01*
X12461745Y-77089065D01*
X12427377Y-77114400D01*
X12388145Y-77146036D01*
X12388515Y-77152500D01*
X12380997Y-77306754D01*
X12324524Y-77458157D01*
X12236830Y-77574192D01*
X12135648Y-77622343D01*
X12132243Y-77622400D01*
X12095622Y-77652852D01*
X12103100Y-77673200D01*
X12091583Y-77716689D01*
X12055298Y-77724000D01*
X11985792Y-77750522D01*
X11976100Y-77774800D01*
X11931400Y-77808200D01*
X11821309Y-77825094D01*
X11795937Y-77825600D01*
X11656814Y-77806988D01*
X11566782Y-77732687D01*
X11529237Y-77673521D01*
X11447528Y-77554898D01*
X11392111Y-77528185D01*
X11367384Y-77594765D01*
X11366500Y-77622400D01*
X11345226Y-77704948D01*
X11315700Y-77724000D01*
X11274425Y-77766547D01*
X11264900Y-77825600D01*
X11233136Y-77908342D01*
X11188700Y-77927200D01*
X11121096Y-77954630D01*
X11112500Y-77978000D01*
X11065845Y-78004546D01*
X10942256Y-78022720D01*
X10782300Y-78028800D01*
X10614145Y-78022503D01*
X10495215Y-78006027D01*
X10452100Y-77983924D01*
X10410923Y-77931587D01*
X10363200Y-77907692D01*
X10251227Y-77864384D01*
X10210800Y-77846733D01*
X10158003Y-77859634D01*
X10147300Y-77911663D01*
X10118950Y-78024510D01*
X10068219Y-78119096D01*
X10014053Y-78178833D01*
X9938369Y-78213018D01*
X9814245Y-78228468D01*
X9622234Y-78232000D01*
X9422266Y-78227572D01*
X9297639Y-78210283D01*
X9222324Y-78174126D01*
X9182100Y-78130400D01*
X9101387Y-78051708D01*
X9043885Y-78028800D01*
X8991154Y-78071198D01*
X8978900Y-78130400D01*
X8960829Y-78212995D01*
X8935815Y-78232000D01*
X8890690Y-78274043D01*
X8827651Y-78379933D01*
X8801100Y-78435200D01*
X8709148Y-78585960D01*
X8614623Y-78638376D01*
X8612586Y-78638400D01*
X8547337Y-78659258D01*
X8547100Y-78689200D01*
X8522867Y-78721361D01*
X8412017Y-78738291D01*
X8343900Y-78740000D01*
X8201279Y-78730448D01*
X8139330Y-78704179D01*
X8140700Y-78689200D01*
X8133862Y-78642515D01*
X8113279Y-78638400D01*
X8044057Y-78604020D01*
X7943624Y-78518312D01*
X7912100Y-78486000D01*
X7800815Y-78388980D01*
X7700515Y-78336590D01*
X7680051Y-78333600D01*
X7619252Y-78347023D01*
X7620846Y-78364080D01*
X7609432Y-78415382D01*
X7541020Y-78502233D01*
X7440910Y-78600607D01*
X7334404Y-78686474D01*
X7246804Y-78735809D01*
X7224995Y-78740000D01*
X7171114Y-78764207D01*
X7175500Y-78790800D01*
X7144144Y-78816340D01*
X7017565Y-78833352D01*
X6801837Y-78841155D01*
X6721298Y-78841600D01*
X6492665Y-78836562D01*
X6328316Y-78822528D01*
X6243731Y-78801119D01*
X6235700Y-78790800D01*
X6194554Y-78745731D01*
X6159500Y-78740000D01*
X6091896Y-78712569D01*
X6083300Y-78689200D01*
X6043050Y-78642245D01*
X6018314Y-78638400D01*
X5942122Y-78600562D01*
X5878614Y-78532061D01*
X5784365Y-78406596D01*
X5713616Y-78319493D01*
X5637163Y-78199609D01*
X5604157Y-78108332D01*
X5548259Y-77791542D01*
X5511484Y-77549404D01*
X5511087Y-77545567D01*
X6286500Y-77545567D01*
X6307688Y-77795342D01*
X6365285Y-78018760D01*
X6450335Y-78195776D01*
X6553886Y-78306342D01*
X6638471Y-78333600D01*
X6690698Y-78370122D01*
X6692900Y-78384400D01*
X6732305Y-78427313D01*
X6823439Y-78430997D01*
X6925681Y-78398577D01*
X6975928Y-78362628D01*
X7036370Y-78278921D01*
X7048500Y-78238152D01*
X7086755Y-78169388D01*
X7117858Y-78145624D01*
X7168293Y-78093266D01*
X7207437Y-77995202D01*
X7236646Y-77840606D01*
X7257277Y-77618653D01*
X7270688Y-77318520D01*
X7278234Y-76929380D01*
X7278966Y-76860400D01*
X7283899Y-76564636D01*
X7292199Y-76300069D01*
X7302976Y-76085195D01*
X7315345Y-75938512D01*
X7325871Y-75882500D01*
X7334098Y-75812978D01*
X7261129Y-75793616D01*
X7257135Y-75793600D01*
X7171679Y-75813901D01*
X7150100Y-75844400D01*
X7111214Y-75893458D01*
X7097606Y-75895200D01*
X7006715Y-75936506D01*
X6889644Y-76043694D01*
X6765441Y-76191666D01*
X6653151Y-76355326D01*
X6571822Y-76509576D01*
X6540500Y-76629277D01*
X6516860Y-76698527D01*
X6495547Y-76708000D01*
X6446107Y-76754520D01*
X6394568Y-76877635D01*
X6347086Y-77052675D01*
X6309818Y-77254972D01*
X6288921Y-77459855D01*
X6286500Y-77545567D01*
X5511087Y-77545567D01*
X5491568Y-77357247D01*
X5486246Y-77190399D01*
X5493256Y-77024188D01*
X5498558Y-76957498D01*
X5529186Y-76726425D01*
X5576149Y-76513435D01*
X5632587Y-76340467D01*
X5691640Y-76229460D01*
X5735415Y-76200000D01*
X5773322Y-76158577D01*
X5778500Y-76121277D01*
X5805704Y-76010469D01*
X5872659Y-75862768D01*
X5944847Y-75742800D01*
X7404100Y-75742800D01*
X7445245Y-75787868D01*
X7480300Y-75793600D01*
X7547903Y-75766169D01*
X7556500Y-75742800D01*
X7515354Y-75697731D01*
X7480300Y-75692000D01*
X7412696Y-75719430D01*
X7404100Y-75742800D01*
X5944847Y-75742800D01*
X5957380Y-75721972D01*
X6013687Y-75652755D01*
X6072365Y-75572206D01*
X6083300Y-75535971D01*
X6123620Y-75492349D01*
X6148285Y-75488800D01*
X6225657Y-75451284D01*
X6286500Y-75387199D01*
X6367212Y-75308508D01*
X6424714Y-75285600D01*
X6484780Y-75254136D01*
X6489700Y-75234800D01*
X6532247Y-75193525D01*
X6591300Y-75184000D01*
X6673848Y-75162726D01*
X6692900Y-75133200D01*
X6736463Y-75095336D01*
X6822898Y-75082400D01*
X6909328Y-75066274D01*
X6921500Y-75031600D01*
X6939485Y-74993930D01*
X7020101Y-74980800D01*
X7116995Y-74963776D01*
X7150100Y-74930000D01*
X7193129Y-74891552D01*
X7299435Y-74881063D01*
X7434847Y-74897747D01*
X7562359Y-74939471D01*
X7669591Y-75038395D01*
X7754668Y-75206397D01*
X7803764Y-75411296D01*
X7810500Y-75517028D01*
X7847314Y-75664527D01*
X7940883Y-75766167D01*
X8035471Y-75793600D01*
X8063811Y-75794279D01*
X8085301Y-75804458D01*
X8100776Y-75836345D01*
X8111075Y-75902150D01*
X8117033Y-76014083D01*
X8119488Y-76184351D01*
X8119276Y-76425166D01*
X8117234Y-76748736D01*
X8115655Y-76963585D01*
X8114207Y-77276535D01*
X8116288Y-77504528D01*
X8123600Y-77664192D01*
X8137847Y-77772154D01*
X8160730Y-77845041D01*
X8193954Y-77899481D01*
X8214001Y-77923858D01*
X8287451Y-78021041D01*
X8318494Y-78086928D01*
X8318500Y-78087372D01*
X8349285Y-78131537D01*
X8415815Y-78119368D01*
X8479346Y-78063628D01*
X8496300Y-78028800D01*
X8541076Y-77946725D01*
X8573965Y-77927200D01*
X8617825Y-77896095D01*
X8652881Y-77798705D01*
X8679645Y-77628915D01*
X8698629Y-77380611D01*
X8710344Y-77047679D01*
X8715303Y-76624004D01*
X8714902Y-76244104D01*
X8708273Y-74942008D01*
X8833696Y-74821704D01*
X9007348Y-74681897D01*
X9171892Y-74596028D01*
X9310487Y-74567777D01*
X9406290Y-74600827D01*
X9442165Y-74688700D01*
X9445077Y-74918752D01*
X9434064Y-75173895D01*
X9411961Y-75413171D01*
X9381603Y-75595620D01*
X9378566Y-75607838D01*
X9360812Y-75727569D01*
X9346068Y-75925203D01*
X9335514Y-76177061D01*
X9330330Y-76459463D01*
X9330038Y-76581439D01*
X9333088Y-76902700D01*
X9341451Y-77140502D01*
X9356799Y-77312920D01*
X9380804Y-77438028D01*
X9415138Y-77533903D01*
X9418880Y-77541901D01*
X9509626Y-77684556D01*
X9596947Y-77730962D01*
X9678947Y-77686459D01*
X9753727Y-77556387D01*
X9819390Y-77346086D01*
X9874038Y-77060897D01*
X9915774Y-76706157D01*
X9942700Y-76287208D01*
X9950196Y-76046824D01*
X9959181Y-75757804D01*
X9972915Y-75489968D01*
X9989810Y-75266640D01*
X10008283Y-75111146D01*
X10016639Y-75069700D01*
X10058272Y-74945282D01*
X10118529Y-74891569D01*
X10234074Y-74879281D01*
X10255161Y-74879200D01*
X10384564Y-74863747D01*
X10459690Y-74825278D01*
X10464648Y-74816153D01*
X10500299Y-74785300D01*
X10565786Y-74833229D01*
X10631773Y-74958494D01*
X10672041Y-75167444D01*
X10685409Y-75445171D01*
X10670698Y-75776768D01*
X10653863Y-75946000D01*
X10605858Y-76383109D01*
X10574762Y-76729212D01*
X10560898Y-76993540D01*
X10564585Y-77185323D01*
X10586146Y-77313791D01*
X10625901Y-77388176D01*
X10684172Y-77417707D01*
X10705109Y-77419200D01*
X10762311Y-77406988D01*
X10808455Y-77364088D01*
X10844680Y-77281098D01*
X10872127Y-77148622D01*
X10891934Y-76957257D01*
X10905241Y-76697607D01*
X10913188Y-76360270D01*
X10916914Y-75935848D01*
X10917572Y-75666600D01*
X10918768Y-75279737D01*
X10922332Y-74980831D01*
X10929461Y-74756245D01*
X10941352Y-74592341D01*
X10959199Y-74475483D01*
X10984201Y-74392034D01*
X11017552Y-74328357D01*
X11037456Y-74300039D01*
X11116178Y-74217970D01*
X11215358Y-74178750D01*
X11373436Y-74168053D01*
X11391737Y-74168000D01*
X11562417Y-74178431D01*
X11662408Y-74215793D01*
X11708159Y-74266155D01*
X11742807Y-74375139D01*
X11766552Y-74552867D01*
X11778690Y-74766996D01*
X11778515Y-74985182D01*
X11765321Y-75175082D01*
X11738402Y-75304353D01*
X11731161Y-75320360D01*
X11705934Y-75420090D01*
X11687467Y-75597333D01*
X11675775Y-75828225D01*
X11670869Y-76088905D01*
X11672762Y-76355508D01*
X11681469Y-76604172D01*
X11697002Y-76811034D01*
X11719373Y-76952230D01*
X11730254Y-76985009D01*
X11803797Y-77095929D01*
X11876767Y-77113372D01*
X11946869Y-77045446D01*
X12011810Y-76900260D01*
X12069295Y-76685923D01*
X12117030Y-76410544D01*
X12152720Y-76082230D01*
X12174073Y-75709090D01*
X12179300Y-75397895D01*
X12177754Y-75089579D01*
X12171775Y-74863486D01*
X12159349Y-74700270D01*
X12138460Y-74580583D01*
X12107095Y-74485077D01*
X12077700Y-74422000D01*
X12014676Y-74281484D01*
X11979058Y-74169140D01*
X11976100Y-74144623D01*
X11952367Y-74075687D01*
X11931222Y-74066400D01*
X11885980Y-74021653D01*
X11852167Y-73914000D01*
X12280900Y-73914000D01*
X12296866Y-74025552D01*
X12356273Y-74064827D01*
X12382500Y-74066400D01*
X12464878Y-74036396D01*
X12484100Y-73994354D01*
X12458411Y-73857287D01*
X12393357Y-73773563D01*
X12351664Y-73761600D01*
X12297008Y-73807373D01*
X12280900Y-73914000D01*
X11852167Y-73914000D01*
X11843026Y-73884901D01*
X11801376Y-73652377D01*
X11778811Y-73483470D01*
X11761048Y-73311909D01*
X11767522Y-73203607D01*
X11808504Y-73121189D01*
X11894264Y-73027277D01*
X11907943Y-73013570D01*
X12074411Y-72885751D01*
X12228406Y-72847200D01*
X12336141Y-72861765D01*
X12382465Y-72896913D01*
X12382500Y-72898000D01*
X12423396Y-72943634D01*
X12455276Y-72948800D01*
X12527710Y-72991107D01*
X12560300Y-73050400D01*
X12605907Y-73132498D01*
X12639923Y-73152000D01*
X12673192Y-73196158D01*
X12687296Y-73302548D01*
X12687300Y-73304400D01*
X12702014Y-73411405D01*
X12737467Y-73456788D01*
X12738100Y-73456800D01*
X12776749Y-73500143D01*
X12788900Y-73579645D01*
X12807423Y-73738912D01*
X12856239Y-73840252D01*
X12902676Y-73863200D01*
X12971835Y-73826544D01*
X13058586Y-73742566D01*
X13126915Y-73650252D01*
X13144500Y-73601427D01*
X13184177Y-73560535D01*
X13202041Y-73558400D01*
X13274962Y-73523313D01*
X13352516Y-73451246D01*
X13426488Y-73380489D01*
X13482327Y-73385780D01*
X13522262Y-73420905D01*
X13546126Y-73458359D01*
X13564510Y-73524846D01*
X13578023Y-73631970D01*
X13587274Y-73791341D01*
X13592874Y-74014566D01*
X13595433Y-74313251D01*
X13595560Y-74699005D01*
X13595282Y-74810758D01*
X13595397Y-75172482D01*
X13597695Y-75506019D01*
X13601899Y-75796212D01*
X13607729Y-76027904D01*
X13614906Y-76185939D01*
X13621800Y-76250800D01*
X13653738Y-76395420D01*
X13683358Y-76542900D01*
X13721321Y-76660217D01*
X13791265Y-76704413D01*
X13839582Y-76708000D01*
X13964314Y-76681962D01*
X14031608Y-76640948D01*
X14076562Y-76547476D01*
X14115686Y-76378833D01*
X14146663Y-76161387D01*
X14167175Y-75921506D01*
X14174907Y-75685558D01*
X14167542Y-75479912D01*
X14145789Y-75341422D01*
X14126461Y-75221816D01*
X14112444Y-75038851D01*
X14109472Y-74962670D01*
X14674807Y-74962670D01*
X14697145Y-75194409D01*
X14697538Y-75196700D01*
X14733128Y-75337939D01*
X14776352Y-75379106D01*
X14831178Y-75321659D01*
X14863545Y-75257809D01*
X14907870Y-75135251D01*
X14922500Y-75054609D01*
X14948834Y-74988527D01*
X14969876Y-74980800D01*
X15016386Y-74948336D01*
X15058161Y-74841368D01*
X15095358Y-74676000D01*
X15127546Y-74537556D01*
X15171733Y-74377571D01*
X15173553Y-74371535D01*
X15209154Y-74199399D01*
X15226863Y-74006800D01*
X15227300Y-73977835D01*
X15219831Y-73839749D01*
X15189200Y-73776427D01*
X15125700Y-73761600D01*
X15043151Y-73782873D01*
X15024100Y-73812400D01*
X14983417Y-73858494D01*
X14954063Y-73863200D01*
X14877787Y-73910607D01*
X14808214Y-74039336D01*
X14749236Y-74229146D01*
X14704746Y-74459798D01*
X14678639Y-74711053D01*
X14674807Y-74962670D01*
X14109472Y-74962670D01*
X14103666Y-74813849D01*
X14100058Y-74568128D01*
X14101550Y-74323010D01*
X14108070Y-74099815D01*
X14119550Y-73919863D01*
X14135919Y-73804475D01*
X14150956Y-73773247D01*
X14197793Y-73712942D01*
X14211300Y-73632756D01*
X14236710Y-73471007D01*
X14301339Y-73336553D01*
X14387782Y-73260618D01*
X14422654Y-73253600D01*
X14500668Y-73230677D01*
X14516100Y-73202800D01*
X14557449Y-73158217D01*
X14595298Y-73152000D01*
X14647878Y-73127372D01*
X14643100Y-73101200D01*
X14658654Y-73061215D01*
X14716301Y-73050400D01*
X14800464Y-73029673D01*
X14820900Y-72999600D01*
X14866304Y-72969304D01*
X14981182Y-72951130D01*
X15049500Y-72948800D01*
X15185831Y-72958889D01*
X15267610Y-72984418D01*
X15278100Y-72999600D01*
X15321466Y-73038167D01*
X15401676Y-73050400D01*
X15517917Y-73089452D01*
X15557500Y-73152000D01*
X15610050Y-73234285D01*
X15653415Y-73253600D01*
X15688652Y-73299374D01*
X15727858Y-73417457D01*
X15765646Y-73578990D01*
X15796628Y-73755114D01*
X15815415Y-73916971D01*
X15816619Y-74035699D01*
X15806640Y-74074262D01*
X15778791Y-74156065D01*
X15754239Y-74284242D01*
X15754078Y-74285413D01*
X15721972Y-74463514D01*
X15678012Y-74638248D01*
X15630671Y-74782011D01*
X15588422Y-74867198D01*
X15571809Y-74879200D01*
X15539520Y-74921839D01*
X15532100Y-74980800D01*
X15513461Y-75063387D01*
X15487650Y-75082400D01*
X15447263Y-75126166D01*
X15413944Y-75228676D01*
X15365478Y-75364652D01*
X15305994Y-75453648D01*
X15241486Y-75552402D01*
X15227300Y-75612171D01*
X15207440Y-75682495D01*
X15189200Y-75692582D01*
X15135018Y-75737275D01*
X15075420Y-75846221D01*
X15024041Y-75983876D01*
X14994515Y-76114695D01*
X14996824Y-76194091D01*
X15066937Y-76283964D01*
X15181894Y-76298937D01*
X15320623Y-76241425D01*
X15435518Y-76143827D01*
X15526764Y-76037114D01*
X15578496Y-75959098D01*
X15582900Y-75944256D01*
X15614942Y-75877194D01*
X15653213Y-75832144D01*
X15744142Y-75706866D01*
X15843971Y-75515251D01*
X15937282Y-75289607D01*
X15992844Y-75120500D01*
X16039146Y-74981642D01*
X16080437Y-74894413D01*
X16096875Y-74879200D01*
X16123860Y-74834088D01*
X16150912Y-74720600D01*
X16159631Y-74663300D01*
X16200972Y-74376224D01*
X16237884Y-74185302D01*
X16271552Y-74085242D01*
X16292977Y-74066400D01*
X16315828Y-74019906D01*
X16340493Y-73897210D01*
X16362087Y-73723488D01*
X16364447Y-73698100D01*
X16395716Y-73346241D01*
X16421728Y-73082687D01*
X16448079Y-72894723D01*
X16480367Y-72769635D01*
X16524187Y-72694710D01*
X16585138Y-72657233D01*
X16668816Y-72644489D01*
X16780817Y-72643766D01*
X16828467Y-72644000D01*
X17157700Y-72644000D01*
X17157700Y-72796830D01*
X17164395Y-72899197D01*
X17198345Y-72918462D01*
X17259300Y-72886210D01*
X17339167Y-72810391D01*
X17360900Y-72755151D01*
X17403131Y-72651504D01*
X17500413Y-72567479D01*
X17585871Y-72542399D01*
X17655771Y-72516060D01*
X17665700Y-72491600D01*
X17706189Y-72445832D01*
X17804031Y-72436484D01*
X17923781Y-72458601D01*
X18029997Y-72507228D01*
X18073585Y-72548624D01*
X18157250Y-72659543D01*
X18211800Y-72722795D01*
X18254837Y-72816083D01*
X18275076Y-72955095D01*
X18275300Y-72970571D01*
X18287821Y-73089525D01*
X18318689Y-73150060D01*
X18326100Y-73152000D01*
X18345913Y-73201533D01*
X18361209Y-73345233D01*
X18371553Y-73575747D01*
X18376514Y-73885724D01*
X18376900Y-74015600D01*
X18379813Y-74352432D01*
X18388266Y-74612453D01*
X18401826Y-74788311D01*
X18420060Y-74872654D01*
X18427700Y-74879200D01*
X18463368Y-74923343D01*
X18478496Y-75029703D01*
X18478500Y-75031600D01*
X18493214Y-75138605D01*
X18528667Y-75183988D01*
X18529300Y-75184000D01*
X18570574Y-75141452D01*
X18580100Y-75082400D01*
X18597723Y-74999798D01*
X18622110Y-74980800D01*
X18649877Y-74934180D01*
X18682239Y-74810356D01*
X18715423Y-74633375D01*
X18745659Y-74427289D01*
X18769175Y-74216146D01*
X18782200Y-74023996D01*
X18783635Y-73950764D01*
X18791885Y-73781119D01*
X18813952Y-73585267D01*
X18845195Y-73388739D01*
X18880974Y-73217066D01*
X18916648Y-73095778D01*
X18947285Y-73050399D01*
X18974830Y-73006211D01*
X18986497Y-72899758D01*
X18986500Y-72898000D01*
X19001214Y-72790994D01*
X19036667Y-72745611D01*
X19037300Y-72745600D01*
X19078574Y-72703052D01*
X19088100Y-72644000D01*
X19109373Y-72561451D01*
X19138900Y-72542400D01*
X19181256Y-72500214D01*
X19189700Y-72448572D01*
X19222191Y-72342504D01*
X19299091Y-72230430D01*
X19389537Y-72151366D01*
X19436958Y-72136000D01*
X19491584Y-72101130D01*
X19494500Y-72085200D01*
X19537047Y-72043925D01*
X19596100Y-72034400D01*
X19678648Y-72013126D01*
X19697700Y-71983600D01*
X19743642Y-71955834D01*
X19862203Y-71937382D01*
X19978370Y-71932800D01*
X20139539Y-71936066D01*
X20226896Y-71954934D01*
X20268209Y-72003002D01*
X20289520Y-72085200D01*
X20322147Y-72191900D01*
X20358506Y-72237574D01*
X20359235Y-72237600D01*
X20387336Y-72283426D01*
X20422342Y-72403174D01*
X20454485Y-72559261D01*
X20488106Y-72754723D01*
X20503929Y-72870690D01*
X20500881Y-72927879D01*
X20477887Y-72947010D01*
X20434300Y-72948800D01*
X20366696Y-72976230D01*
X20358100Y-72999600D01*
X20331298Y-73049829D01*
X20264666Y-73034600D01*
X20178858Y-72970086D01*
X20094532Y-72872460D01*
X20032344Y-72757896D01*
X20025984Y-72739566D01*
X19954045Y-72660352D01*
X19882199Y-72644000D01*
X19793678Y-72673296D01*
X19710971Y-72773124D01*
X19657022Y-72873958D01*
X19591361Y-73025551D01*
X19550791Y-73150828D01*
X19544535Y-73191458D01*
X19527369Y-73293230D01*
X19485572Y-73438728D01*
X19470564Y-73482200D01*
X19429985Y-73647848D01*
X19404429Y-73859623D01*
X19393932Y-74090142D01*
X19398528Y-74312025D01*
X19418252Y-74497892D01*
X19453138Y-74620360D01*
X19469100Y-74643342D01*
X19531663Y-74730921D01*
X19545300Y-74777600D01*
X19591216Y-74881266D01*
X19711390Y-74954449D01*
X19871871Y-74980800D01*
X19990825Y-74968278D01*
X20051360Y-74937410D01*
X20053300Y-74930000D01*
X20094445Y-74884931D01*
X20129500Y-74879200D01*
X20197116Y-74852667D01*
X20205700Y-74830093D01*
X20238943Y-74768014D01*
X20323371Y-74665924D01*
X20378984Y-74607701D01*
X20505197Y-74470151D01*
X20595055Y-74336058D01*
X20656131Y-74182517D01*
X20696000Y-73986619D01*
X20722233Y-73725459D01*
X20734299Y-73533000D01*
X20752693Y-73246726D01*
X20764738Y-73094454D01*
X21322842Y-73094454D01*
X21353456Y-73209260D01*
X21422789Y-73253575D01*
X21424900Y-73253600D01*
X21507471Y-73233830D01*
X21526500Y-73206428D01*
X21558785Y-73134516D01*
X21596813Y-73088944D01*
X21698606Y-72949793D01*
X21798374Y-72754156D01*
X21876789Y-72545660D01*
X21914146Y-72372635D01*
X21904944Y-72199023D01*
X21849554Y-72091712D01*
X21758225Y-72063473D01*
X21688197Y-72091182D01*
X21585522Y-72191730D01*
X21493273Y-72346702D01*
X21416164Y-72535281D01*
X21358912Y-72736645D01*
X21326233Y-72929976D01*
X21322842Y-73094454D01*
X20764738Y-73094454D01*
X20775940Y-72952844D01*
X20800676Y-72691225D01*
X20817889Y-72542400D01*
X20842646Y-72330717D01*
X20860245Y-72136335D01*
X20867016Y-72000040D01*
X20867009Y-71996300D01*
X20885351Y-71870224D01*
X20942330Y-71831200D01*
X21005153Y-71789217D01*
X21018500Y-71734972D01*
X21051673Y-71641902D01*
X21132884Y-71522859D01*
X21234664Y-71410103D01*
X21329548Y-71335895D01*
X21369081Y-71323200D01*
X21422389Y-71287434D01*
X21424900Y-71272400D01*
X21469904Y-71240313D01*
X21582063Y-71222735D01*
X21623866Y-71221600D01*
X21760372Y-71206581D01*
X21839544Y-71168388D01*
X21845627Y-71158100D01*
X21887823Y-71138282D01*
X21970119Y-71208900D01*
G36*
X19862800Y-75759956D02*
G01*
X19869181Y-75778497D01*
X19799300Y-75785578D01*
X19727182Y-75777595D01*
X19735800Y-75759956D01*
X19839805Y-75753246D01*
X19862800Y-75759956D01*
G37*
X19862800Y-75759956D02*
X19869181Y-75778497D01*
X19799300Y-75785578D01*
X19727182Y-75777595D01*
X19735800Y-75759956D01*
X19839805Y-75753246D01*
X19862800Y-75759956D01*
G36*
X1680092Y-89631798D02*
G01*
X2011274Y-89815370D01*
X2005762Y-90737874D01*
X2000250Y-91660377D01*
X1675246Y-91846522D01*
X1570345Y-91906483D01*
X1479186Y-91958361D01*
X1407681Y-91998809D01*
X1361744Y-92024481D01*
X1347162Y-92032190D01*
X1328749Y-92022056D01*
X1279560Y-91994231D01*
X1205535Y-91952094D01*
X1112613Y-91899026D01*
X1021696Y-91846982D01*
X699309Y-91662250D01*
X704196Y-90734263D01*
X709083Y-89806277D01*
X1028997Y-89627251D01*
X1348911Y-89448226D01*
X1680092Y-89631798D01*
G37*
X1680092Y-89631798D02*
X2011274Y-89815370D01*
X2005762Y-90737874D01*
X2000250Y-91660377D01*
X1675246Y-91846522D01*
X1570345Y-91906483D01*
X1479186Y-91958361D01*
X1407681Y-91998809D01*
X1361744Y-92024481D01*
X1347162Y-92032190D01*
X1328749Y-92022056D01*
X1279560Y-91994231D01*
X1205535Y-91952094D01*
X1112613Y-91899026D01*
X1021696Y-91846982D01*
X699309Y-91662250D01*
X704196Y-90734263D01*
X709083Y-89806277D01*
X1028997Y-89627251D01*
X1348911Y-89448226D01*
X1680092Y-89631798D01*
G36*
X1470742Y-84476573D02*
G01*
X1509780Y-84498745D01*
X1582129Y-84540426D01*
X1684569Y-84599742D01*
X1813875Y-84674816D01*
X1966827Y-84763775D01*
X2140200Y-84864742D01*
X2330774Y-84975843D01*
X2535324Y-85095201D01*
X2750629Y-85220941D01*
X2942166Y-85332887D01*
X3166005Y-85463714D01*
X3383250Y-85590603D01*
X3590503Y-85711574D01*
X3784368Y-85824648D01*
X3961447Y-85927846D01*
X4118341Y-86019187D01*
X4251654Y-86096694D01*
X4357987Y-86158386D01*
X4433943Y-86202285D01*
X4470956Y-86223490D01*
X4655662Y-86328250D01*
X4650872Y-88209538D01*
X4646083Y-90090826D01*
X4042833Y-90457231D01*
X3439583Y-90823637D01*
X3433243Y-88935776D01*
X3426903Y-87047916D01*
X2724160Y-86642071D01*
X2021416Y-86236226D01*
X2010088Y-88254416D01*
X1687321Y-88439625D01*
X1581410Y-88499693D01*
X1487692Y-88551516D01*
X1412505Y-88591696D01*
X1362188Y-88616833D01*
X1343734Y-88623834D01*
X1319418Y-88613337D01*
X1264995Y-88584859D01*
X1186842Y-88541895D01*
X1091336Y-88487938D01*
X1005416Y-88438448D01*
X687916Y-88254060D01*
X682420Y-87231250D01*
X680970Y-87027974D01*
X678926Y-86838419D01*
X676381Y-86666625D01*
X673428Y-86516632D01*
X670158Y-86392479D01*
X666666Y-86298205D01*
X663044Y-86237851D01*
X659385Y-86215456D01*
X659083Y-86215429D01*
X637404Y-86227446D01*
X583438Y-86258626D01*
X501315Y-86306546D01*
X395167Y-86368784D01*
X269121Y-86442919D01*
X127311Y-86526528D01*
X-26136Y-86617190D01*
X-38635Y-86624583D01*
X-718512Y-87026750D01*
X-724381Y-88924354D01*
X-730250Y-90821959D01*
X-1338114Y-90458938D01*
X-1945978Y-90095916D01*
X-1946522Y-88201500D01*
X-1947066Y-86307083D01*
X-1888992Y-86273571D01*
X-1861176Y-86257529D01*
X-1799834Y-86222156D01*
X-1708112Y-86169267D01*
X-1589157Y-86100677D01*
X-1446117Y-86018200D01*
X-1282139Y-85923651D01*
X-1100369Y-85818844D01*
X-903955Y-85705595D01*
X-696044Y-85585718D01*
X-571500Y-85513908D01*
X-349093Y-85385645D01*
X-129288Y-85258830D01*
X83830Y-85135823D01*
X286179Y-85018981D01*
X473676Y-84910665D01*
X642238Y-84813233D01*
X787781Y-84729044D01*
X906223Y-84660457D01*
X993481Y-84609831D01*
X1015659Y-84596931D01*
X1343401Y-84406105D01*
X1470742Y-84476573D01*
G37*
X1470742Y-84476573D02*
X1509780Y-84498745D01*
X1582129Y-84540426D01*
X1684569Y-84599742D01*
X1813875Y-84674816D01*
X1966827Y-84763775D01*
X2140200Y-84864742D01*
X2330774Y-84975843D01*
X2535324Y-85095201D01*
X2750629Y-85220941D01*
X2942166Y-85332887D01*
X3166005Y-85463714D01*
X3383250Y-85590603D01*
X3590503Y-85711574D01*
X3784368Y-85824648D01*
X3961447Y-85927846D01*
X4118341Y-86019187D01*
X4251654Y-86096694D01*
X4357987Y-86158386D01*
X4433943Y-86202285D01*
X4470956Y-86223490D01*
X4655662Y-86328250D01*
X4650872Y-88209538D01*
X4646083Y-90090826D01*
X4042833Y-90457231D01*
X3439583Y-90823637D01*
X3433243Y-88935776D01*
X3426903Y-87047916D01*
X2724160Y-86642071D01*
X2021416Y-86236226D01*
X2010088Y-88254416D01*
X1687321Y-88439625D01*
X1581410Y-88499693D01*
X1487692Y-88551516D01*
X1412505Y-88591696D01*
X1362188Y-88616833D01*
X1343734Y-88623834D01*
X1319418Y-88613337D01*
X1264995Y-88584859D01*
X1186842Y-88541895D01*
X1091336Y-88487938D01*
X1005416Y-88438448D01*
X687916Y-88254060D01*
X682420Y-87231250D01*
X680970Y-87027974D01*
X678926Y-86838419D01*
X676381Y-86666625D01*
X673428Y-86516632D01*
X670158Y-86392479D01*
X666666Y-86298205D01*
X663044Y-86237851D01*
X659385Y-86215456D01*
X659083Y-86215429D01*
X637404Y-86227446D01*
X583438Y-86258626D01*
X501315Y-86306546D01*
X395167Y-86368784D01*
X269121Y-86442919D01*
X127311Y-86526528D01*
X-26136Y-86617190D01*
X-38635Y-86624583D01*
X-718512Y-87026750D01*
X-724381Y-88924354D01*
X-730250Y-90821959D01*
X-1338114Y-90458938D01*
X-1945978Y-90095916D01*
X-1946522Y-88201500D01*
X-1947066Y-86307083D01*
X-1888992Y-86273571D01*
X-1861176Y-86257529D01*
X-1799834Y-86222156D01*
X-1708112Y-86169267D01*
X-1589157Y-86100677D01*
X-1446117Y-86018200D01*
X-1282139Y-85923651D01*
X-1100369Y-85818844D01*
X-903955Y-85705595D01*
X-696044Y-85585718D01*
X-571500Y-85513908D01*
X-349093Y-85385645D01*
X-129288Y-85258830D01*
X83830Y-85135823D01*
X286179Y-85018981D01*
X473676Y-84910665D01*
X642238Y-84813233D01*
X787781Y-84729044D01*
X906223Y-84660457D01*
X993481Y-84609831D01*
X1015659Y-84596931D01*
X1343401Y-84406105D01*
X1470742Y-84476573D01*
D14*
%TO.C,J12*%
X-42351000Y-75695500D02*
X-41021000Y-75695500D01*
X-42351000Y-77025500D02*
X-42351000Y-75695500D01*
X-39751000Y-75695500D02*
X-37151000Y-75695500D01*
X-39751000Y-78295500D02*
X-39751000Y-75695500D01*
X-42351000Y-78295500D02*
X-39751000Y-78295500D01*
X-37151000Y-75695500D02*
X-37151000Y-91055500D01*
X-42351000Y-78295500D02*
X-42351000Y-91055500D01*
X-42351000Y-91055500D02*
X-37151000Y-91055500D01*
%TO.C,C31*%
X-30033500Y-95823721D02*
X-30033500Y-96149279D01*
X-31053500Y-95823721D02*
X-31053500Y-96149279D01*
%TO.C,TP8*%
X-9485500Y-88773000D02*
G75*
G03*
X-9485500Y-88773000I-1500000J0D01*
G01*
%TO.C,U4*%
X-25576500Y-87273000D02*
X-25576500Y-88563000D01*
X-25851500Y-87273000D02*
X-25576500Y-87273000D01*
X-25851500Y-84963000D02*
X-25851500Y-87273000D01*
X-25851500Y-82653000D02*
X-25576500Y-82653000D01*
X-25851500Y-84963000D02*
X-25851500Y-82653000D01*
X-15931500Y-87273000D02*
X-16206500Y-87273000D01*
X-15931500Y-84963000D02*
X-15931500Y-87273000D01*
X-15931500Y-82653000D02*
X-16206500Y-82653000D01*
X-15931500Y-84963000D02*
X-15931500Y-82653000D01*
%TO.C,U5*%
X-35304500Y-100731000D02*
X-33354500Y-100731000D01*
X-35304500Y-100731000D02*
X-37254500Y-100731000D01*
X-35304500Y-95611000D02*
X-33354500Y-95611000D01*
X-35304500Y-95611000D02*
X-38754500Y-95611000D01*
%TO.C,R16*%
X-13713779Y-82488500D02*
X-13388221Y-82488500D01*
X-13713779Y-81468500D02*
X-13388221Y-81468500D01*
%TO.C,R17*%
X-3426779Y-81595500D02*
X-3101221Y-81595500D01*
X-3426779Y-82615500D02*
X-3101221Y-82615500D01*
%TO.C,R18*%
X-3113721Y-81028000D02*
X-3439279Y-81028000D01*
X-3113721Y-80008000D02*
X-3439279Y-80008000D01*
%TO.C,U3*%
X41060500Y-74890500D02*
X37060500Y-74890500D01*
X41060500Y-77890500D02*
X38060500Y-77890500D01*
%TO.C,R6*%
X44604721Y-76261500D02*
X44930279Y-76261500D01*
X44604721Y-77281500D02*
X44930279Y-77281500D01*
%TO.C,C1*%
X30037500Y-70266779D02*
X30037500Y-69941221D01*
X29017500Y-70266779D02*
X29017500Y-69941221D01*
%TO.C,C13*%
X44731721Y-92581000D02*
X45057279Y-92581000D01*
X44731721Y-93601000D02*
X45057279Y-93601000D01*
%TO.C,C14*%
X45057279Y-86993000D02*
X44731721Y-86993000D01*
X45057279Y-88013000D02*
X44731721Y-88013000D01*
%TO.C,C25*%
X-25969500Y-106136221D02*
X-25969500Y-106461779D01*
X-26989500Y-106136221D02*
X-26989500Y-106461779D01*
%TO.C,C28*%
X-14793500Y-106461779D02*
X-14793500Y-106136221D01*
X-15813500Y-106461779D02*
X-15813500Y-106136221D01*
%TO.C,C32*%
X-39431500Y-97165279D02*
X-39431500Y-96839721D01*
X-40451500Y-97165279D02*
X-40451500Y-96839721D01*
%TO.C,C33*%
X4764500Y-95366721D02*
X4764500Y-95692279D01*
X3744500Y-95366721D02*
X3744500Y-95692279D01*
%TO.C,C34*%
X-5907500Y-96657279D02*
X-5907500Y-96331721D01*
X-4887500Y-96657279D02*
X-4887500Y-96331721D01*
%TO.C,C35*%
X-20419279Y-104392000D02*
X-20093721Y-104392000D01*
X-20419279Y-105412000D02*
X-20093721Y-105412000D01*
%TO.C,C36*%
X-20119221Y-94867000D02*
X-20444779Y-94867000D01*
X-20119221Y-95887000D02*
X-20444779Y-95887000D01*
%TO.C,D2*%
X12236500Y-96718000D02*
X14921500Y-96718000D01*
X12236500Y-94798000D02*
X12236500Y-96718000D01*
X14921500Y-94798000D02*
X12236500Y-94798000D01*
%TO.C,D3*%
X14921500Y-98481000D02*
X12236500Y-98481000D01*
X12236500Y-98481000D02*
X12236500Y-100401000D01*
X12236500Y-100401000D02*
X14921500Y-100401000D01*
%TO.C,D4*%
X-27631500Y-103012000D02*
X-31931500Y-103012000D01*
X-31931500Y-103012000D02*
X-31931500Y-108712000D01*
X-27631500Y-103012000D02*
X-27631500Y-108712000D01*
%TO.C,D5*%
X-14024500Y-109985000D02*
X-14024500Y-104285000D01*
X-9724500Y-109985000D02*
X-9724500Y-104285000D01*
X-14024500Y-109985000D02*
X-9724500Y-109985000D01*
%TO.C,D6*%
X-40674500Y-107697000D02*
X-35274500Y-107697000D01*
X-40674500Y-110997000D02*
X-35274500Y-110997000D01*
X-40674500Y-107697000D02*
X-40674500Y-110997000D01*
%TO.C,D7*%
X-48008500Y-102363000D02*
X-42608500Y-102363000D01*
X-48008500Y-105663000D02*
X-42608500Y-105663000D01*
X-48008500Y-102363000D02*
X-48008500Y-105663000D01*
%TO.C,D8*%
X-41208500Y-110997000D02*
X-41208500Y-107697000D01*
X-41208500Y-107697000D02*
X-46608500Y-107697000D01*
X-41208500Y-110997000D02*
X-46608500Y-110997000D01*
%TO.C,D9*%
X-33906500Y-105663000D02*
X-33906500Y-102363000D01*
X-33906500Y-102363000D02*
X-39306500Y-102363000D01*
X-33906500Y-105663000D02*
X-39306500Y-105663000D01*
%TO.C,D10*%
X-574500Y-107443000D02*
X-574500Y-110743000D01*
X-574500Y-110743000D02*
X4825500Y-110743000D01*
X-574500Y-107443000D02*
X4825500Y-107443000D01*
%TO.C,D11*%
X-7940500Y-102363000D02*
X-7940500Y-105663000D01*
X-7940500Y-105663000D02*
X-2540500Y-105663000D01*
X-7940500Y-102363000D02*
X-2540500Y-102363000D01*
%TO.C,D12*%
X-1076500Y-110743000D02*
X-6476500Y-110743000D01*
X-1076500Y-107443000D02*
X-6476500Y-107443000D01*
X-1076500Y-110743000D02*
X-1076500Y-107443000D01*
%TO.C,D13*%
X6225500Y-105663000D02*
X825500Y-105663000D01*
X6225500Y-102363000D02*
X825500Y-102363000D01*
X6225500Y-105663000D02*
X6225500Y-102363000D01*
%TO.C,FB2*%
X38977500Y-111051078D02*
X38977500Y-110533922D01*
X40397500Y-111051078D02*
X40397500Y-110533922D01*
%TO.C,FB3*%
X13472422Y-111177000D02*
X13989578Y-111177000D01*
X13472422Y-112597000D02*
X13989578Y-112597000D01*
%TO.C,FB4*%
X26347922Y-112421500D02*
X26865078Y-112421500D01*
X26347922Y-111001500D02*
X26865078Y-111001500D01*
%TO.C,J1*%
X45016500Y-115686000D02*
X46936500Y-115686000D01*
X46936500Y-115686000D02*
X46936500Y-129696000D01*
X33416500Y-115686000D02*
X32966500Y-115686000D01*
X32966500Y-115686000D02*
X32966500Y-119296000D01*
X45256500Y-131956000D02*
X42946500Y-131956000D01*
X33996500Y-131956000D02*
X35856500Y-131956000D01*
X33996500Y-131956000D02*
X33796500Y-131756000D01*
X32966500Y-120996000D02*
X32966500Y-125696000D01*
X32966500Y-126996000D02*
X32966500Y-128796000D01*
X36066500Y-131606000D02*
X42436500Y-131606000D01*
X36066500Y-131606000D02*
X36066500Y-131756000D01*
X35856500Y-131956000D02*
X36066500Y-131756000D01*
X45256500Y-131956000D02*
X45456500Y-131756000D01*
X45456500Y-131756000D02*
X45716500Y-131756000D01*
X42946500Y-131956000D02*
X42436500Y-131606000D01*
%TO.C,J3*%
X-43700500Y-125737000D02*
X-43700500Y-120087000D01*
X-39480500Y-112887000D02*
X-40900500Y-112887000D01*
X-35180500Y-112887000D02*
X-37080500Y-112887000D01*
X-28060500Y-120087000D02*
X-25260500Y-120087000D01*
X-25260500Y-125737000D02*
X-25260500Y-120087000D01*
X-28060500Y-112887000D02*
X-29480500Y-112887000D01*
X-33780500Y-112887000D02*
X-31880500Y-112887000D01*
X-40900500Y-120087000D02*
X-40900500Y-112887000D01*
X-28060500Y-120087000D02*
X-28060500Y-112887000D01*
X-40900500Y-120087000D02*
X-43700500Y-120087000D01*
X-23360500Y-135027000D02*
X-45600500Y-135027000D01*
X-21860500Y-132327000D02*
X-23360500Y-132327000D01*
X-45600500Y-132327000D02*
X-47400500Y-132327000D01*
X-45600500Y-132327000D02*
X-45600500Y-135027000D01*
X-23360500Y-132327000D02*
X-23360500Y-135027000D01*
X-47400500Y-125737000D02*
X-43700500Y-125737000D01*
X-25260500Y-125737000D02*
X-21860500Y-125737000D01*
X-21860500Y-132327000D02*
X-21860500Y-125737000D01*
X-47400500Y-132327000D02*
X-47400500Y-125737000D01*
%TO.C,J4*%
X-20095500Y-132263500D02*
X-20095500Y-125673500D01*
X5444500Y-132263500D02*
X5444500Y-125673500D01*
X2044500Y-125673500D02*
X5444500Y-125673500D01*
X-20095500Y-125673500D02*
X-16395500Y-125673500D01*
X3944500Y-132263500D02*
X3944500Y-134963500D01*
X-18295500Y-132263500D02*
X-18295500Y-134963500D01*
X-18295500Y-132263500D02*
X-20095500Y-132263500D01*
X5444500Y-132263500D02*
X3944500Y-132263500D01*
X3944500Y-134963500D02*
X-18295500Y-134963500D01*
X-13595500Y-120023500D02*
X-16395500Y-120023500D01*
X-755500Y-120023500D02*
X-755500Y-112823500D01*
X-13595500Y-120023500D02*
X-13595500Y-112823500D01*
X-6475500Y-112823500D02*
X-4575500Y-112823500D01*
X-755500Y-112823500D02*
X-2175500Y-112823500D01*
X2044500Y-125673500D02*
X2044500Y-120023500D01*
X-755500Y-120023500D02*
X2044500Y-120023500D01*
X-7875500Y-112823500D02*
X-9775500Y-112823500D01*
X-12175500Y-112823500D02*
X-13595500Y-112823500D01*
X-16395500Y-125673500D02*
X-16395500Y-120023500D01*
%TO.C,J8*%
X21607500Y-61099000D02*
X24467500Y-61099000D01*
X21607500Y-66819000D02*
X21607500Y-61099000D01*
X22677500Y-66819000D02*
X21607500Y-66819000D01*
X22677500Y-66519000D02*
X22677500Y-66819000D01*
X24467500Y-66519000D02*
X22677500Y-66519000D01*
X27327500Y-61099000D02*
X24467500Y-61099000D01*
X27327500Y-66819000D02*
X27327500Y-61099000D01*
X26257500Y-66819000D02*
X27327500Y-66819000D01*
X26257500Y-66519000D02*
X26257500Y-66819000D01*
X24467500Y-66519000D02*
X26257500Y-66519000D01*
X25967500Y-67109000D02*
X26467500Y-67109000D01*
X25967500Y-66809000D02*
X25967500Y-67109000D01*
%TO.C,R1*%
X10475279Y-95248000D02*
X10149721Y-95248000D01*
X10475279Y-96268000D02*
X10149721Y-96268000D01*
%TO.C,R2*%
X33589500Y-102034221D02*
X33589500Y-102359779D01*
X34609500Y-102034221D02*
X34609500Y-102359779D01*
%TO.C,R3*%
X31049500Y-76108779D02*
X31049500Y-75783221D01*
X32069500Y-76108779D02*
X32069500Y-75783221D01*
%TO.C,R4*%
X10551279Y-99951000D02*
X10225721Y-99951000D01*
X10551279Y-98931000D02*
X10225721Y-98931000D01*
%TO.C,R5*%
X39431500Y-90739279D02*
X39431500Y-90413721D01*
X40451500Y-90739279D02*
X40451500Y-90413721D01*
%TO.C,R13*%
X17579221Y-111123000D02*
X17904779Y-111123000D01*
X17579221Y-112143000D02*
X17904779Y-112143000D01*
%TO.C,R14*%
X22659221Y-112143000D02*
X22984779Y-112143000D01*
X22659221Y-111123000D02*
X22984779Y-111123000D01*
%TO.C,R15*%
X-24001000Y-75638779D02*
X-24001000Y-75313221D01*
X-25021000Y-75638779D02*
X-25021000Y-75313221D01*
%TO.C,R19*%
X-25588500Y-75275221D02*
X-25588500Y-75600779D01*
X-26608500Y-75275221D02*
X-26608500Y-75600779D01*
%TO.C,R20*%
X18861721Y-95442500D02*
X19187279Y-95442500D01*
X18861721Y-94422500D02*
X19187279Y-94422500D01*
%TO.C,U1*%
X31523500Y-64916000D02*
X37533500Y-64916000D01*
X33773500Y-71736000D02*
X37533500Y-71736000D01*
X37533500Y-64916000D02*
X37533500Y-66176000D01*
X37533500Y-71736000D02*
X37533500Y-70476000D01*
%TO.C,U6*%
X-571500Y-95484000D02*
X-4021500Y-95484000D01*
X-571500Y-95484000D02*
X1378500Y-95484000D01*
X-571500Y-100604000D02*
X-2521500Y-100604000D01*
X-571500Y-100604000D02*
X1378500Y-100604000D01*
%TO.C,U7*%
X-18908500Y-100076000D02*
X-18908500Y-97201000D01*
X-18908500Y-100076000D02*
X-18908500Y-101576000D01*
X-23128500Y-100076000D02*
X-23128500Y-98576000D01*
X-23128500Y-100076000D02*
X-23128500Y-101576000D01*
%TO.C,Y1*%
X40975500Y-92163000D02*
X46275500Y-92163000D01*
X40975500Y-88463000D02*
X40975500Y-92163000D01*
%TO.C,J7*%
X-24888500Y-61099000D02*
X-14528500Y-61099000D01*
X-24888500Y-66819000D02*
X-24888500Y-61099000D01*
X-23818500Y-66819000D02*
X-24888500Y-66819000D01*
X-23818500Y-66519000D02*
X-23818500Y-66819000D01*
X-14528500Y-66519000D02*
X-23818500Y-66519000D01*
X-4168500Y-61099000D02*
X-14528500Y-61099000D01*
X-4168500Y-66819000D02*
X-4168500Y-61099000D01*
X-5238500Y-66819000D02*
X-4168500Y-66819000D01*
X-5238500Y-66519000D02*
X-5238500Y-66819000D01*
X-14528500Y-66519000D02*
X-5238500Y-66519000D01*
X-5528500Y-67109000D02*
X-5028500Y-67109000D01*
X-5528500Y-66809000D02*
X-5528500Y-67109000D01*
%TO.C,TP1*%
X-6310500Y-77851000D02*
G75*
G03*
X-6310500Y-77851000I-1500000J0D01*
G01*
%TO.C,TP2*%
X-10247500Y-77851000D02*
G75*
G03*
X-10247500Y-77851000I-1500000J0D01*
G01*
%TO.C,TP3*%
X-18121500Y-77851000D02*
G75*
G03*
X-18121500Y-77851000I-1500000J0D01*
G01*
%TO.C,TP4*%
X-14184500Y-77851000D02*
G75*
G03*
X-14184500Y-77851000I-1500000J0D01*
G01*
%TO.C,TP5*%
X-43267500Y-99060000D02*
G75*
G03*
X-43267500Y-99060000I-1500000J0D01*
G01*
%TO.C,TP6*%
X-8977500Y-99187000D02*
G75*
G03*
X-8977500Y-99187000I-1500000J0D01*
G01*
%TO.C,TP7*%
X-5548500Y-88773000D02*
G75*
G03*
X-5548500Y-88773000I-1500000J0D01*
G01*
%TO.C,J6*%
X17838500Y-104026000D02*
X17903500Y-104026000D01*
X17838500Y-107556000D02*
X17903500Y-107556000D01*
X11433500Y-104026000D02*
X11498500Y-104026000D01*
X11433500Y-107556000D02*
X11498500Y-107556000D01*
X11498500Y-108881000D02*
X11498500Y-107556000D01*
X17903500Y-107556000D02*
X17903500Y-104026000D01*
X11433500Y-107556000D02*
X11433500Y-104026000D01*
%TO.C,J9*%
X10729000Y-61099000D02*
X14214000Y-61099000D01*
X10729000Y-66819000D02*
X10729000Y-61099000D01*
X11799000Y-66819000D02*
X10729000Y-66819000D01*
X11799000Y-66519000D02*
X11799000Y-66819000D01*
X14214000Y-66519000D02*
X11799000Y-66519000D01*
X17699000Y-61099000D02*
X14214000Y-61099000D01*
X17699000Y-66819000D02*
X17699000Y-61099000D01*
X16629000Y-66819000D02*
X17699000Y-66819000D01*
X16629000Y-66519000D02*
X16629000Y-66819000D01*
X14214000Y-66519000D02*
X16629000Y-66519000D01*
X16339000Y-67109000D02*
X16839000Y-67109000D01*
X16339000Y-66809000D02*
X16339000Y-67109000D01*
%TO.C,C11*%
X21651500Y-81595279D02*
X21651500Y-81269721D01*
X22671500Y-81595279D02*
X22671500Y-81269721D01*
%TO.C,C12*%
X18793779Y-97093500D02*
X18468221Y-97093500D01*
X18793779Y-96073500D02*
X18468221Y-96073500D01*
%TO.C,C19*%
X-26477500Y-81315779D02*
X-26477500Y-80990221D01*
X-27497500Y-81315779D02*
X-27497500Y-80990221D01*
%TO.C,C22*%
X-24576721Y-91628500D02*
X-24902279Y-91628500D01*
X-24576721Y-92648500D02*
X-24902279Y-92648500D01*
%TO.C,C23*%
X-24823779Y-90041000D02*
X-24498221Y-90041000D01*
X-24823779Y-91061000D02*
X-24498221Y-91061000D01*
%TO.C,U2*%
D10*
X28765595Y-100439380D02*
X28765595Y-101248904D01*
X28813214Y-101344142D01*
X28860833Y-101391761D01*
X28956071Y-101439380D01*
X29146547Y-101439380D01*
X29241785Y-101391761D01*
X29289404Y-101344142D01*
X29337023Y-101248904D01*
X29337023Y-100439380D01*
X29765595Y-100534619D02*
X29813214Y-100487000D01*
X29908452Y-100439380D01*
X30146547Y-100439380D01*
X30241785Y-100487000D01*
X30289404Y-100534619D01*
X30337023Y-100629857D01*
X30337023Y-100725095D01*
X30289404Y-100867952D01*
X29717976Y-101439380D01*
X30337023Y-101439380D01*
%TO.C,U4*%
X-27239119Y-85724904D02*
X-26429595Y-85724904D01*
X-26334357Y-85677285D01*
X-26286738Y-85629666D01*
X-26239119Y-85534428D01*
X-26239119Y-85343952D01*
X-26286738Y-85248714D01*
X-26334357Y-85201095D01*
X-26429595Y-85153476D01*
X-27239119Y-85153476D01*
X-26905785Y-84248714D02*
X-26239119Y-84248714D01*
X-27286738Y-84486809D02*
X-26572452Y-84724904D01*
X-26572452Y-84105857D01*
%TO.C,U5*%
X-36066404Y-94223380D02*
X-36066404Y-95032904D01*
X-36018785Y-95128142D01*
X-35971166Y-95175761D01*
X-35875928Y-95223380D01*
X-35685452Y-95223380D01*
X-35590214Y-95175761D01*
X-35542595Y-95128142D01*
X-35494976Y-95032904D01*
X-35494976Y-94223380D01*
X-34542595Y-94223380D02*
X-35018785Y-94223380D01*
X-35066404Y-94699571D01*
X-35018785Y-94651952D01*
X-34923547Y-94604333D01*
X-34685452Y-94604333D01*
X-34590214Y-94651952D01*
X-34542595Y-94699571D01*
X-34494976Y-94794809D01*
X-34494976Y-95032904D01*
X-34542595Y-95128142D01*
X-34590214Y-95175761D01*
X-34685452Y-95223380D01*
X-34923547Y-95223380D01*
X-35018785Y-95175761D01*
X-35066404Y-95128142D01*
%TO.C,U3*%
X38798595Y-73442880D02*
X38798595Y-74252404D01*
X38846214Y-74347642D01*
X38893833Y-74395261D01*
X38989071Y-74442880D01*
X39179547Y-74442880D01*
X39274785Y-74395261D01*
X39322404Y-74347642D01*
X39370023Y-74252404D01*
X39370023Y-73442880D01*
X39750976Y-73442880D02*
X40370023Y-73442880D01*
X40036690Y-73823833D01*
X40179547Y-73823833D01*
X40274785Y-73871452D01*
X40322404Y-73919071D01*
X40370023Y-74014309D01*
X40370023Y-74252404D01*
X40322404Y-74347642D01*
X40274785Y-74395261D01*
X40179547Y-74442880D01*
X39893833Y-74442880D01*
X39798595Y-74395261D01*
X39750976Y-74347642D01*
%TO.C,U1*%
X34861595Y-63278380D02*
X34861595Y-64087904D01*
X34909214Y-64183142D01*
X34956833Y-64230761D01*
X35052071Y-64278380D01*
X35242547Y-64278380D01*
X35337785Y-64230761D01*
X35385404Y-64183142D01*
X35433023Y-64087904D01*
X35433023Y-63278380D01*
X36433023Y-64278380D02*
X35861595Y-64278380D01*
X36147309Y-64278380D02*
X36147309Y-63278380D01*
X36052071Y-63421238D01*
X35956833Y-63516476D01*
X35861595Y-63564095D01*
%TO.C,U6*%
X-1333404Y-94096380D02*
X-1333404Y-94905904D01*
X-1285785Y-95001142D01*
X-1238166Y-95048761D01*
X-1142928Y-95096380D01*
X-952452Y-95096380D01*
X-857214Y-95048761D01*
X-809595Y-95001142D01*
X-761976Y-94905904D01*
X-761976Y-94096380D01*
X142785Y-94096380D02*
X-47690Y-94096380D01*
X-142928Y-94144000D01*
X-190547Y-94191619D01*
X-285785Y-94334476D01*
X-333404Y-94524952D01*
X-333404Y-94905904D01*
X-285785Y-95001142D01*
X-238166Y-95048761D01*
X-142928Y-95096380D01*
X47547Y-95096380D01*
X142785Y-95048761D01*
X190404Y-95001142D01*
X238023Y-94905904D01*
X238023Y-94667809D01*
X190404Y-94572571D01*
X142785Y-94524952D01*
X47547Y-94477333D01*
X-142928Y-94477333D01*
X-238166Y-94524952D01*
X-285785Y-94572571D01*
X-333404Y-94667809D01*
%TO.C,U7*%
X-18616119Y-100837904D02*
X-17806595Y-100837904D01*
X-17711357Y-100790285D01*
X-17663738Y-100742666D01*
X-17616119Y-100647428D01*
X-17616119Y-100456952D01*
X-17663738Y-100361714D01*
X-17711357Y-100314095D01*
X-17806595Y-100266476D01*
X-18616119Y-100266476D01*
X-18616119Y-99885523D02*
X-18616119Y-99218857D01*
X-17616119Y-99647428D01*
%TD*%
M02*
